M48
;Layer_Color=9474304
;FILE_FORMAT=4:4
METRIC,LZ
;TYPE=PLATED
T01F00S00C0.4000
T02F00S00C0.8000
T03F00S00C0.9000
T04F00S00C1.0000
%
T01
X00265176Y0026797
Y00282702
Y00296418
X00281432
Y00282956
Y00268224
X0029845Y00267462
Y00282194
Y00296418
X00298958Y00311658
Y0032639
Y00340614
Y00356616
Y00371602
Y00388112
X0028194
X00265684
Y00371602
Y00356616
Y00340614
Y00326898
Y00312166
X0028194Y0031242
Y00327152
Y00340614
Y00356616
Y00371602
X0031877Y00299466
X00332994
X00347726
X00362966Y00298958
X0037719
X00391922
X0039116Y0028194
X00376428
X00362966
Y00265684
X00376682
X00391414
X00347218Y00266192
X00346964Y00282448
X00404114Y00282194
X00417576
X00432308
X00432562Y00265938
X0041783
X00404114
Y00299212
X00418338
X0043307
X00506984Y0029718
X00507746Y0030988
X00522224Y00309372
X0052197Y00297688
X00536194Y00288544
X00535432Y0026543
X0054483Y00310642
X00569468
X00608152Y0031076
Y00325746
X00609092Y00339344
X0062357
X00624078Y00325628
Y00310642
X00640334
Y00325628
X00639826Y00339344
Y0035433
Y00367792
X0062357
Y00354076
X00609092Y00361696
X006096Y00379476
Y00394208
X00624078Y0038354
X00640334Y00383794
X00657352Y00383032
X00656844Y00367792
Y00353568
Y00339344
X00657352Y00325628
Y00310642
X00568198Y00385826
X00554736
X00540512
X00503428Y0032258
X00497332Y00397002
X00484332
Y00410002
X00497332
X00510332
X00523332
Y00397002
X00510332
X00540258Y0040005
X00554482
X00567944
X0056769Y0041402
X00564896Y00432054
X0056388Y00473202
X00564134Y00486664
Y0050038
Y0051308
Y00524764
X00549402
X00549148Y0051308
X00549402Y0050038
Y00486664
X00549148Y00473202
X00531368
X00531622Y00486664
Y0050038
X0048779Y00503224
X00473058
X00472804Y0051821
X00487536
X00456692Y00518414
X0044196
X00428498
Y00503428
X00442214
X00456946
X00454914Y0046482
X00467614
X00437388Y00464566
X00421386Y00464312
X00403098
X0041275Y00503936
X00412496Y00518922
X00398018Y0056134
X0039878Y00575056
X00421894Y00606044
Y00620776
Y00634492
X00422402Y0065024
X00438658Y00650494
X0043815Y00634492
Y0062103
Y00606298
X00451104Y00607568
X00455168Y00620268
Y00634492
X00455676Y00649732
X00486664Y0065024
X00486156Y00635
Y00620776
Y00606044
X0053213Y00598678
Y00583692
X00548386
Y00598678
X00565404
Y00583692
X0060993Y0057746
Y00592446
X00625856Y00592328
Y00577342
X00642112
Y00592328
X0065913
Y00577342
X00658368Y00561594
Y00546608
Y00530606
Y00516382
Y0050165
X0065786Y0048641
Y00472186
Y00457454
X00657352Y00442976
Y0042799
Y00411988
Y00397764
X00640334Y00398526
Y00411988
Y0042799
Y00442976
X00640842Y00458216
Y00472948
Y0048641
X00624586
Y00472694
Y00457962
X00611632Y00456946
X00611124Y00442468
X00624078Y00442976
Y0042799
X00612648Y00426974
X00609346Y00406654
X00624078Y00411988
Y00398272
X0060866Y00486528
X00609168Y00502276
Y00517008
Y00530724
Y00546726
Y00561712
X00625094Y00561594
Y00546608
Y00530606
Y0051689
Y00502158
X0064135Y00502412
Y00517144
Y00530606
Y00546608
Y00561594
X00607314Y00648716
X00621284Y00664718
X0062103Y00674624
X00605536Y00686308
X00642874Y00691134
X0064516Y00733552
Y00748538
X00662178
Y00733552
X00625856Y0077216
Y00787146
X00608838
Y0077216
X0058801Y00772668
Y007874
X00570992Y00788162
Y0077343
X00554736Y00773176
Y00787908
X00527558Y0078105
Y00766318
X00527304Y00747522
X00486156Y00751586
Y0076581
X00486664Y0078105
X00462534Y00781304
X0046228Y00766064
X00461518Y0075184
X00445008Y00752602
X0044577Y00766826
X00445516Y00781304
X0042926
X00425196Y00731774
X00424688Y00716026
Y0070231
Y00687578
X00440944Y00687832
Y00702564
Y00716026
X00441452Y00732028
X0045847Y00731266
X00457962Y00716026
Y00701802
Y0068707
X00486156Y00687324
Y00702056
Y0071628
X00486664Y0073152
X00575056Y0073914
Y00753872
X00592074Y0075311
Y00738378
X00569188Y00647972
X00553974Y00647954
X00515366Y00458724
X00385064Y00464312
X00366522
X00281432Y00463296
X00266192Y0046355
Y00486664
X00281432Y0048641
X00266192Y00509016
X00265684Y00537972
X0028448Y00538988
X00283718Y00563118
X00282702Y0058039
X0029845Y00581406
X00298196Y00595376
X00280924Y00595884
X00266192Y0059563
X002667Y00579628
X00266192Y00560324
X00316484Y00580136
Y00595376
X00352552Y00624332
X00354584Y00561594
X00369062Y0056134
Y00575056
X00383286
X00384048Y0056134
X00381254Y00587756
X00378714Y00706882
X00362204Y00706628
X00325882Y00716534
X0032639Y00732536
X00337312Y00742188
X00346964Y00742442
X00340868Y00766064
X00358394Y00766318
X00280924Y00773938
Y00788924
X00263906
Y00773938
X00266192Y00437642
X00281432Y0043815
X0028194Y00420116
X00265684
Y00403606
X0028194
X00298958
Y00420116
X00292354Y00827532
X00292862Y00843534
X0044704Y00823722
X00446532Y0080772
X0046355
X00464058Y0082296
X00484632Y00822452
X00484124Y00807212
X00499872Y00814832
X00555244Y00816102
X00554736Y00801624
X00570992
X005715Y00816356
X00588518Y00815594
X0058801Y00801624
X00542036Y00794004
X00440944
X00627634Y00829818
X00628142Y0084455
T02
X0061468Y00621606
X0066168
X0061468Y00738446
X0026923Y0073914
Y006223
X0031623
X0026923Y0080772
X003726Y008475
X00398
X004234
X004488
X004742
X004996
X00525
X005504
X0061468Y00807026
T03
X00312928Y0053594
X00338328
X00363728
X00389128
T04
X0046609Y0027559
X0051689
M30
