G04*
G04 #@! TF.GenerationSoftware,Altium Limited,Altium Designer,24.1.2 (44)*
G04*
G04 Layer_Color=32896*
%FSTAX44Y44*%
%MOMM*%
G71*
G04*
G04 #@! TF.SameCoordinates,2B49B1F8-7685-4118-9D8F-57346A93B65E*
G04*
G04*
G04 #@! TF.FilePolarity,Positive*
G04*
G01*
G75*
%ADD15C,0.2540*%
%ADD78C,0.1778*%
%ADD79C,0.1000*%
G36*
X00445516Y00319786D02*
Y0023114D01*
X0044069Y00237744D01*
X00440436Y00237236D01*
X00436118Y00244094D01*
X00432054Y0025273D01*
X00428244Y00268224D01*
X0042799Y0027559D01*
X00428498Y00284226D01*
X00430276Y0029337D01*
X00435356Y00305054D01*
X00445516Y00319786D01*
D02*
G37*
D15*
X00672338Y00825246D02*
Y00835243D01*
X0066734D01*
X00665674Y00833577D01*
Y00830244D01*
X0066734Y00828578D01*
X00672338D01*
X00669006D02*
X00665674Y00825246D01*
X00662341Y00835243D02*
Y00825246D01*
X00655677D01*
X0064568D02*
X00652344D01*
X0064568Y0083191D01*
Y00833577D01*
X00647346Y00835243D01*
X00650678D01*
X00652344Y00833577D01*
X00326898Y00826008D02*
Y00836005D01*
X003219D01*
X00320233Y00834339D01*
Y00831006D01*
X003219Y0082934D01*
X00326898D01*
X00323566D02*
X00320233Y00826008D01*
X00316901Y00836005D02*
Y00826008D01*
X00310237D01*
X00306904D02*
X00303572D01*
X00305238D01*
Y00836005D01*
X00306904Y00834339D01*
X00546548Y00355803D02*
X00548214Y00357469D01*
X00551546D01*
X00553212Y00355803D01*
Y00349138D01*
X00551546Y00347472D01*
X00548214D01*
X00546548Y00349138D01*
X00536551Y00357469D02*
X00539883Y00355803D01*
X00543215Y0035247D01*
Y00349138D01*
X00541549Y00347472D01*
X00538217D01*
X00536551Y00349138D01*
Y00350804D01*
X00538217Y0035247D01*
X00543215D01*
D78*
X0055499Y0027559D02*
G03*
X0055499Y0027559I-000635J0D01*
G01*
X00537464Y00275844D02*
X0054483D01*
X0054102Y00272034D02*
Y00279908D01*
D79*
X0060198Y00817186D02*
X0067437D01*
X0060198Y00610331D02*
X0060198Y00817186D01*
X0060198Y00610331D02*
X0067437Y00609978D01*
X0067437Y00817186D01*
X0032892Y00610672D02*
X0032892Y0081788D01*
X0025653Y00611025D02*
X0032892Y00610672D01*
X0025653Y00611025D02*
X0025653Y0081788D01*
X0032892D01*
M02*
