G04*
G04 #@! TF.GenerationSoftware,Altium Limited,Altium Designer,24.1.2 (44)*
G04*
G04 Layer_Physical_Order=1*
G04 Layer_Color=255*
%FSTAX44Y44*%
%MOMM*%
G71*
G04*
G04 #@! TF.SameCoordinates,2B49B1F8-7685-4118-9D8F-57346A93B65E*
G04*
G04*
G04 #@! TF.FilePolarity,Positive*
G04*
G01*
G75*
%ADD12C,1.0000*%
%ADD16R,1.2200X1.8500*%
G04:AMPARAMS|DCode=17|XSize=1.56mm|YSize=0.41mm|CornerRadius=0.0513mm|HoleSize=0mm|Usage=FLASHONLY|Rotation=180.000|XOffset=0mm|YOffset=0mm|HoleType=Round|Shape=RoundedRectangle|*
%AMROUNDEDRECTD17*
21,1,1.5600,0.3075,0,0,180.0*
21,1,1.4575,0.4100,0,0,180.0*
1,1,0.1025,-0.7288,0.1538*
1,1,0.1025,0.7288,0.1538*
1,1,0.1025,0.7288,-0.1538*
1,1,0.1025,-0.7288,-0.1538*
%
%ADD17ROUNDEDRECTD17*%
G04:AMPARAMS|DCode=18|XSize=2.33mm|YSize=1.55mm|CornerRadius=0.3875mm|HoleSize=0mm|Usage=FLASHONLY|Rotation=270.000|XOffset=0mm|YOffset=0mm|HoleType=Round|Shape=RoundedRectangle|*
%AMROUNDEDRECTD18*
21,1,2.3300,0.7750,0,0,270.0*
21,1,1.5550,1.5500,0,0,270.0*
1,1,0.7750,-0.3875,-0.7775*
1,1,0.7750,-0.3875,0.7775*
1,1,0.7750,0.3875,0.7775*
1,1,0.7750,0.3875,-0.7775*
%
%ADD18ROUNDEDRECTD18*%
G04:AMPARAMS|DCode=19|XSize=1.4mm|YSize=1.7mm|CornerRadius=0.175mm|HoleSize=0mm|Usage=FLASHONLY|Rotation=0.000|XOffset=0mm|YOffset=0mm|HoleType=Round|Shape=RoundedRectangle|*
%AMROUNDEDRECTD19*
21,1,1.4000,1.3500,0,0,0.0*
21,1,1.0500,1.7000,0,0,0.0*
1,1,0.3500,0.5250,-0.6750*
1,1,0.3500,-0.5250,-0.6750*
1,1,0.3500,-0.5250,0.6750*
1,1,0.3500,0.5250,0.6750*
%
%ADD19ROUNDEDRECTD19*%
G04:AMPARAMS|DCode=20|XSize=1.6mm|YSize=2.7mm|CornerRadius=0.2mm|HoleSize=0mm|Usage=FLASHONLY|Rotation=0.000|XOffset=0mm|YOffset=0mm|HoleType=Round|Shape=RoundedRectangle|*
%AMROUNDEDRECTD20*
21,1,1.6000,2.3000,0,0,0.0*
21,1,1.2000,2.7000,0,0,0.0*
1,1,0.4000,0.6000,-1.1500*
1,1,0.4000,-0.6000,-1.1500*
1,1,0.4000,-0.6000,1.1500*
1,1,0.4000,0.6000,1.1500*
%
%ADD20ROUNDEDRECTD20*%
%ADD21R,0.6000X1.4000*%
%ADD22R,1.4000X0.6000*%
G04:AMPARAMS|DCode=23|XSize=1.4mm|YSize=1.7mm|CornerRadius=0.175mm|HoleSize=0mm|Usage=FLASHONLY|Rotation=90.000|XOffset=0mm|YOffset=0mm|HoleType=Round|Shape=RoundedRectangle|*
%AMROUNDEDRECTD23*
21,1,1.4000,1.3500,0,0,90.0*
21,1,1.0500,1.7000,0,0,90.0*
1,1,0.3500,0.6750,0.5250*
1,1,0.3500,0.6750,-0.5250*
1,1,0.3500,-0.6750,-0.5250*
1,1,0.3500,-0.6750,0.5250*
%
%ADD23ROUNDEDRECTD23*%
G04:AMPARAMS|DCode=24|XSize=1mm|YSize=1.7mm|CornerRadius=0.125mm|HoleSize=0mm|Usage=FLASHONLY|Rotation=90.000|XOffset=0mm|YOffset=0mm|HoleType=Round|Shape=RoundedRectangle|*
%AMROUNDEDRECTD24*
21,1,1.0000,1.4500,0,0,90.0*
21,1,0.7500,1.7000,0,0,90.0*
1,1,0.2500,0.7250,0.3750*
1,1,0.2500,0.7250,-0.3750*
1,1,0.2500,-0.7250,-0.3750*
1,1,0.2500,-0.7250,0.3750*
%
%ADD24ROUNDEDRECTD24*%
G04:AMPARAMS|DCode=25|XSize=1mm|YSize=1.7mm|CornerRadius=0.125mm|HoleSize=0mm|Usage=FLASHONLY|Rotation=180.000|XOffset=0mm|YOffset=0mm|HoleType=Round|Shape=RoundedRectangle|*
%AMROUNDEDRECTD25*
21,1,1.0000,1.4500,0,0,180.0*
21,1,0.7500,1.7000,0,0,180.0*
1,1,0.2500,-0.3750,0.7250*
1,1,0.2500,0.3750,0.7250*
1,1,0.2500,0.3750,-0.7250*
1,1,0.2500,-0.3750,-0.7250*
%
%ADD25ROUNDEDRECTD25*%
%ADD26O,1.3000X2.2000*%
G04:AMPARAMS|DCode=27|XSize=2.33mm|YSize=1.55mm|CornerRadius=0.3875mm|HoleSize=0mm|Usage=FLASHONLY|Rotation=0.000|XOffset=0mm|YOffset=0mm|HoleType=Round|Shape=RoundedRectangle|*
%AMROUNDEDRECTD27*
21,1,2.3300,0.7750,0,0,0.0*
21,1,1.5550,1.5500,0,0,0.0*
1,1,0.7750,0.7775,-0.3875*
1,1,0.7750,-0.7775,-0.3875*
1,1,0.7750,-0.7775,0.3875*
1,1,0.7750,0.7775,0.3875*
%
%ADD27ROUNDEDRECTD27*%
%ADD28R,3.5000X2.2000*%
%ADD29R,1.2700X1.3970*%
%ADD30R,4.0000X3.2000*%
G04:AMPARAMS|DCode=32|XSize=1.55mm|YSize=0.6mm|CornerRadius=0.03mm|HoleSize=0mm|Usage=FLASHONLY|Rotation=90.000|XOffset=0mm|YOffset=0mm|HoleType=Round|Shape=RoundedRectangle|*
%AMROUNDEDRECTD32*
21,1,1.5500,0.5400,0,0,90.0*
21,1,1.4900,0.6000,0,0,90.0*
1,1,0.0600,0.2700,0.7450*
1,1,0.0600,0.2700,-0.7450*
1,1,0.0600,-0.2700,-0.7450*
1,1,0.0600,-0.2700,0.7450*
%
%ADD32ROUNDEDRECTD32*%
%ADD33R,2.6670X3.5052*%
%ADD57R,3.0000X3.0000*%
%ADD58R,2.0000X2.0000*%
%ADD59R,4.9000X2.9500*%
%ADD60C,0.3000*%
%ADD61C,0.5000*%
%ADD62C,0.4000*%
%ADD63C,0.3810*%
%ADD64C,1.2000*%
%ADD65C,0.5080*%
%ADD66C,0.3500*%
%ADD67R,0.2286X0.0762*%
%ADD68R,2.0574X7.3660*%
%ADD69R,3.4320X1.4478*%
%ADD70R,2.2860X2.2860*%
%ADD71C,2.2860*%
%ADD72C,1.6000*%
%ADD73C,2.0000*%
%ADD74O,1.4000X1.7000*%
%ADD75C,0.3000*%
%ADD76C,1.7000*%
%ADD77C,0.8000*%
G36*
X00366014Y00749808D02*
Y00741934D01*
X0036195Y0073787D01*
X00335534D01*
X00332486Y00740918D01*
Y0075692D01*
X00358902D01*
X00366014Y00749808D01*
D02*
G37*
G36*
X00672034Y00680303D02*
X00669494Y00679258D01*
X00666871Y00680344D01*
Y00695182D01*
X00665273Y0069904D01*
X00653574Y00710739D01*
X00649716Y00712337D01*
X00647436D01*
Y00712422D01*
X0063373D01*
Y00717296D01*
X00628436D01*
Y00721922D01*
X00609356D01*
Y00717792D01*
X0060368Y00712116D01*
X0060114Y00713168D01*
Y00719218D01*
X00599939Y00722119D01*
X00597038Y0072332D01*
X00582538D01*
X00579637Y00722119D01*
X00578436Y00719218D01*
Y00714565D01*
X00541579Y00677708D01*
X00539425Y00679147D01*
X00539551Y0067945D01*
Y00706347D01*
X00542097Y00707401D01*
X00544963Y0071432D01*
Y0072332D01*
X00542097Y00730239D01*
X00535178Y00733105D01*
X00528259Y00730239D01*
X00525393Y0072332D01*
Y0071432D01*
X00528259Y00707401D01*
X00530805Y00706347D01*
Y00681261D01*
X00522085Y00672542D01*
X00519739Y00673514D01*
Y00830039D01*
X0052666Y0083696D01*
X00529366D01*
X0053554Y00843134D01*
Y00851866D01*
X00529366Y0085804D01*
X00520634D01*
X0051446Y00851866D01*
Y00843134D01*
X00517463Y00840131D01*
X00513733Y00836401D01*
X0051028Y00836262D01*
X00506774Y00839768D01*
X0051014Y00843134D01*
Y00851866D01*
X00503966Y0085804D01*
X00495234D01*
X0048906Y00851866D01*
Y00843134D01*
X00495234Y0083696D01*
X00497214D01*
X00504643Y00829531D01*
Y00822226D01*
X00502581Y00821372D01*
X00497163D01*
X00493332Y00817541D01*
Y00812123D01*
X00497163Y00808292D01*
X00499055D01*
Y00598008D01*
X0049728Y00596233D01*
X00491117D01*
X00489986Y00596702D01*
X0047541D01*
X00473074Y00595734D01*
X00472107Y00593397D01*
Y00590322D01*
X00472816Y0058861D01*
X00472107Y00586898D01*
Y00583823D01*
X00472816Y0058211D01*
X00472107Y00580397D01*
Y00577323D01*
X00472816Y0057561D01*
X00472107Y00573898D01*
Y00570822D01*
X00472816Y0056911D01*
X00472107Y00567397D01*
Y00564323D01*
X00473074Y00561986D01*
X0047498Y00561197D01*
X00474856Y00560897D01*
Y0056063D01*
X0049054D01*
Y00560897D01*
X00492887Y00561487D01*
X00542327D01*
Y0055736D01*
X00543687Y00554077D01*
X0054697Y00552716D01*
X0056047D01*
X00563753Y00554077D01*
X00565113Y0055736D01*
Y0056786D01*
X00563753Y00571143D01*
X0056047Y00572504D01*
X0054697D01*
X00543687Y00571143D01*
X00543309Y00570233D01*
X0051395D01*
X00512978Y00572579D01*
X005243Y00583902D01*
X005243Y00583902D01*
X00525581Y00586994D01*
X00525581Y00586994D01*
Y00615917D01*
X00528072Y00616413D01*
X00528259Y00615961D01*
X00535178Y00613095D01*
X00542097Y00615961D01*
X00544963Y0062288D01*
Y0063188D01*
X00542097Y00638799D01*
X00540092Y00639629D01*
Y00662322D01*
X00575896Y00698126D01*
X00578436Y00697074D01*
Y00692718D01*
X00579637Y00689817D01*
X0058061Y00689414D01*
Y00686665D01*
X00579501Y00686205D01*
X00578141Y00682922D01*
Y00672422D01*
X00579501Y00669139D01*
X00582784Y00667778D01*
X00596284D01*
X00599567Y00669139D01*
X00600927Y00672422D01*
Y00681668D01*
X00603467Y0068272D01*
X00603879Y00682308D01*
X00604266D01*
Y00686308D01*
Y00690308D01*
X00603879D01*
X00601536Y00687965D01*
X00600702Y00688241D01*
X00599939Y00689817D01*
X0060114Y00692718D01*
Y00695862D01*
X00601457Y00695993D01*
X00616306Y00710842D01*
X00622808D01*
Y00709168D01*
X00628356D01*
Y00701342D01*
X00647436D01*
X00649263Y0069962D01*
X00655961Y00692923D01*
Y00680344D01*
X00652883Y00679069D01*
X00651523Y00675786D01*
Y00662286D01*
X00652883Y00659003D01*
X00653529Y00658735D01*
Y00656188D01*
X0065307D01*
Y00632608D01*
X00653661D01*
Y006292D01*
X0065064Y00626179D01*
Y00617033D01*
X00657107Y00610566D01*
X00666253D01*
X00669688Y00614001D01*
X00672034Y00613029D01*
X00672034Y00250494D01*
X0025659D01*
Y00615735D01*
X0025913Y00616787D01*
X00264657Y0061126D01*
X00273803D01*
X0028027Y00617727D01*
Y00626873D01*
X00278731Y00628412D01*
Y00634132D01*
X00279618D01*
Y00644422D01*
X00280239Y00645922D01*
X00279618Y00647422D01*
Y00657712D01*
X00279618D01*
X00279248Y00660252D01*
X00279297Y00660273D01*
X00280658Y00663556D01*
Y00677056D01*
X00279297Y00680339D01*
X00278925Y00680494D01*
Y00706295D01*
X00316308Y00743679D01*
X00329737D01*
Y00740918D01*
X00330542Y00738974D01*
X00330542Y00738974D01*
X0033359Y00735926D01*
X0033359Y00735926D01*
X00335534Y00735121D01*
X00335534Y00735121D01*
X00356657D01*
X00357753Y0073348D01*
Y0072448D01*
X00360619Y00717561D01*
X00367538Y00714695D01*
X00374457Y00717561D01*
X00377323Y0072448D01*
Y0073348D01*
X00375125Y00738785D01*
Y00742049D01*
X00372735Y0074782D01*
X00362944Y00757611D01*
X00361502Y00758208D01*
X00360846Y00758864D01*
X00358902Y00759669D01*
X00358901Y00759671D01*
X00358872Y00759778D01*
X00358878Y00759893D01*
X00360051Y00762318D01*
X00362394Y00764661D01*
Y00765048D01*
X00354394D01*
Y00764661D01*
X00355932Y00763123D01*
X00356514Y00762541D01*
X00356198Y00760001D01*
X00355275Y00760001D01*
X00343677D01*
X00343002Y00762541D01*
X00344868Y00764407D01*
Y00764794D01*
X00336868D01*
Y00764407D01*
X00338734Y00762541D01*
X00338059Y00760001D01*
X00312928D01*
X00307157Y00757611D01*
X00264993Y00715447D01*
X00262603Y00709676D01*
Y00680494D01*
X00262231Y00680339D01*
X0026087Y00677056D01*
Y00663556D01*
X00261821Y00661262D01*
Y00644164D01*
X00262338Y00642915D01*
Y00634132D01*
X00262408D01*
Y00631091D01*
X0025913Y00627812D01*
X0025659Y00628865D01*
Y00732575D01*
X0025913Y00733627D01*
X00264657Y007281D01*
X00273803D01*
X0028027Y00734567D01*
Y00737107D01*
X0032175Y00778588D01*
X00324458Y00785124D01*
X00324458Y00785124D01*
Y00836328D01*
X00327754D01*
Y00861408D01*
X00302674D01*
Y00836328D01*
X0030597D01*
Y00788953D01*
X00267197Y0075018D01*
X00264657D01*
X0025913Y00744652D01*
X0025659Y00745705D01*
Y00801155D01*
X0025913Y00802207D01*
X00264657Y0079668D01*
X00273803D01*
X0028027Y00803147D01*
Y00812293D01*
X00277391Y00815172D01*
Y00836328D01*
X00280256D01*
Y00861408D01*
X0025659D01*
Y00865328D01*
X00672034Y00865328D01*
X00672034Y00680303D01*
D02*
G37*
%LPC*%
G36*
X00629799Y0084855D02*
X00629412D01*
Y0084582D01*
X00632142D01*
Y00846207D01*
X00629799Y0084855D01*
D02*
G37*
G36*
X00626872D02*
X00626485D01*
X00624142Y00846207D01*
Y0084582D01*
X00626872D01*
Y0084855D01*
D02*
G37*
G36*
X00294519Y00847534D02*
X00294132D01*
Y00844804D01*
X00296862D01*
Y00845191D01*
X00294519Y00847534D01*
D02*
G37*
G36*
X00291592D02*
X00291205D01*
X00288862Y00845191D01*
Y00844804D01*
X00291592D01*
Y00847534D01*
D02*
G37*
G36*
X00632142Y0084328D02*
X00629412D01*
Y0084055D01*
X00629799D01*
X00632142Y00842893D01*
Y0084328D01*
D02*
G37*
G36*
X00626872D02*
X00624142D01*
Y00842893D01*
X00626485Y0084055D01*
X00626872D01*
Y0084328D01*
D02*
G37*
G36*
X00296862Y00842264D02*
X00294132D01*
Y00839534D01*
X00294519D01*
X00296862Y00841877D01*
Y00842264D01*
D02*
G37*
G36*
X00291592D02*
X00288862D01*
Y00841877D01*
X00291205Y00839534D01*
X00291592D01*
Y00842264D01*
D02*
G37*
G36*
X00554766Y0085804D02*
X00546034D01*
X0053986Y00851866D01*
Y00843134D01*
X00546034Y0083696D01*
X00554766D01*
X0056094Y00843134D01*
Y00851866D01*
X00554766Y0085804D01*
D02*
G37*
G36*
X00453166D02*
X00444434D01*
X0043826Y00851866D01*
Y00843134D01*
X00444434Y0083696D01*
X00453166D01*
X0045934Y00843134D01*
Y00851866D01*
X00453166Y0085804D01*
D02*
G37*
G36*
X00478566D02*
X00469834D01*
X0046366Y00851866D01*
Y00843134D01*
X00469591Y00837203D01*
Y00826676D01*
X00467051Y00825624D01*
X00465715Y0082696D01*
X00465328D01*
Y0082296D01*
Y0081896D01*
X00465715D01*
X00467051Y00820296D01*
X00469591Y00819244D01*
Y00810581D01*
X00467051Y00809876D01*
X00465207Y0081172D01*
X0046482D01*
Y0080772D01*
Y0080372D01*
X00465207D01*
X00467051Y00805564D01*
X00469591Y00804859D01*
Y00611411D01*
X00441413Y00583233D01*
X00436083D01*
X0043569Y00583823D01*
Y00586898D01*
X0043498Y0058861D01*
X0043569Y00590322D01*
Y00593397D01*
X00434722Y00595734D01*
X00432385Y00596702D01*
X00417811D01*
X00417377Y00596522D01*
X00414837Y00597709D01*
Y00734281D01*
X00424092Y00743536D01*
X00429048D01*
X00431949Y00744737D01*
X0043315Y00747638D01*
Y00762138D01*
X00431949Y00765039D01*
X00429048Y0076624D01*
X00421548D01*
X00418647Y00765039D01*
X00417446Y00762138D01*
Y00751438D01*
X00417425Y00751388D01*
X00417425Y00751388D01*
Y00750947D01*
X0041669Y00750456D01*
X0041415Y00751814D01*
Y00762138D01*
X00413189Y0076446D01*
X00414306Y00767D01*
X00416444D01*
X00419345Y00768201D01*
X00420546Y00771102D01*
Y00778602D01*
X00419345Y00781503D01*
X00416444Y00782704D01*
X00401944D01*
X00399043Y00781503D01*
X00398247Y00779581D01*
X00377731D01*
X00374626Y00782686D01*
X00374645Y00784565D01*
X00375282Y00785622D01*
X00382572D01*
Y00785226D01*
X00393652D01*
Y00785691D01*
X00424398D01*
X0042545Y00783151D01*
X0042526Y00782961D01*
Y00782574D01*
X0043326D01*
Y00782961D01*
X0043307Y00783151D01*
X00434122Y00785691D01*
X00440182D01*
X00440988Y00786024D01*
X00442426Y00783871D01*
X00441516Y00782961D01*
Y00782574D01*
X00449516D01*
Y00782961D01*
X00447173Y00785304D01*
X00445886D01*
X0044538Y00787844D01*
X00445953Y00788081D01*
X00447143Y00790954D01*
X00447484Y00791295D01*
Y00791778D01*
X00448343Y00793852D01*
X00447484Y00795926D01*
Y00796713D01*
X00446928Y00797269D01*
X00445953Y00799623D01*
X00440182Y00802013D01*
X00417753D01*
X00416671Y00804553D01*
X00417817Y0080732D01*
Y0082082D01*
X00416457Y00824103D01*
X00413174Y00825463D01*
X00402674D01*
X00399391Y00824103D01*
X00398031Y0082082D01*
Y00819238D01*
X00384152D01*
Y00823306D01*
X00384067D01*
Y00839339D01*
X00391255D01*
X00393634Y0083696D01*
X00402366D01*
X0040854Y00843134D01*
Y00851866D01*
X00402366Y0085804D01*
X00393634D01*
X00391255Y00855661D01*
X00379345D01*
X00376966Y0085804D01*
X00368234D01*
X0036206Y00851866D01*
Y00843134D01*
X00368234Y0083696D01*
X00373157D01*
Y00823306D01*
X00373072D01*
Y00804306D01*
X00363572D01*
Y00785226D01*
X00364739D01*
Y00782016D01*
X00364739Y00782016D01*
X0036602Y00778924D01*
X00372828Y00772116D01*
X00372828Y00772116D01*
X0037592Y00770835D01*
X00397952D01*
X00399043Y00768201D01*
X00399844Y0076787D01*
Y0076512D01*
X00399647Y00765039D01*
X00398446Y00762138D01*
Y00747638D01*
X00399647Y00744737D01*
X00402548Y00743536D01*
X00408131D01*
X00409184Y00740996D01*
X00407372Y00739184D01*
X00406091Y00736092D01*
X00406091Y00736092D01*
Y00593852D01*
X00404433Y00591266D01*
X00404108Y00591152D01*
X00397057Y00598203D01*
Y00624961D01*
X00399857Y00626121D01*
X00402723Y0063304D01*
Y0064204D01*
X00399857Y00648959D01*
X00392938Y00651825D01*
X00386019Y00648959D01*
X00383153Y0064204D01*
Y0063304D01*
X00386019Y00626121D01*
X00388311Y00625172D01*
Y00596392D01*
X00388311Y00596392D01*
X00389592Y005933D01*
X00400624Y00582268D01*
X00400624Y00582268D01*
X00403716Y00580987D01*
X00403716Y00580987D01*
X00414113D01*
X00414506Y00580397D01*
Y00577323D01*
X00415216Y0057561D01*
X00414506Y00573898D01*
Y00570822D01*
X00415216Y0056911D01*
X00414506Y00567397D01*
Y00564323D01*
X00415216Y0056261D01*
X00414506Y00560897D01*
Y00557822D01*
X00415216Y0055611D01*
X00414506Y00554398D01*
Y00551323D01*
X00414113Y00550733D01*
X00406118D01*
X00403733Y00553117D01*
X00400641Y00554398D01*
X00400641Y00554398D01*
X00366124D01*
X00366124Y00554398D01*
X00363032Y00553117D01*
X00363032Y00553117D01*
X00361275Y0055136D01*
X00359994Y00548268D01*
X00359274Y00545921D01*
X00356426Y00544742D01*
X00353402Y0053744D01*
X00350868Y00537455D01*
Y00541134D01*
X00346489Y00545513D01*
Y0056812D01*
X00353649Y00575279D01*
X00356039Y0058105D01*
Y00601218D01*
X0035573Y00601964D01*
Y00608468D01*
X00354529Y00611369D01*
X00351628Y0061257D01*
X00344128D01*
X00341227Y00611369D01*
X00340026Y00608468D01*
Y00601964D01*
X00339717Y00601218D01*
Y00584431D01*
X00332557Y00577271D01*
X00330167Y005715D01*
Y00545513D01*
X00325788Y00541134D01*
Y00530746D01*
X00330167Y00526367D01*
Y00497795D01*
X00314452D01*
X00314452Y00497795D01*
X00312508Y0049699D01*
X00312508Y0049699D01*
X00311067Y00495549D01*
X00310443Y00495291D01*
X00309242Y0049239D01*
Y0047789D01*
X00309671Y00476854D01*
Y00470483D01*
X00309384Y00469792D01*
Y00456292D01*
X00309671Y00455601D01*
Y00446607D01*
X00309384Y00445916D01*
Y00432416D01*
X00309671Y00431725D01*
Y00317483D01*
X00309672Y0031748D01*
X00309671Y00317476D01*
X00310077Y00316504D01*
X00310476Y00315539D01*
X0031048Y00315538D01*
X00310481Y00315534D01*
X00315953Y00310093D01*
X00315956Y00310091D01*
X00315958Y00310087D01*
X00316928Y00309692D01*
X00317899Y00309293D01*
X00317903Y00309294D01*
X00317906Y00309293D01*
X00364126Y00309545D01*
X00364126Y00309545D01*
X00364126Y00309545D01*
X00364133Y00309545D01*
X00365099Y00309951D01*
X00366067Y00310356D01*
X00366073Y00310361D01*
X00366073Y00310361D01*
Y00310361D01*
X00369228Y00313534D01*
X00369228Y00313534D01*
X00369228Y00313534D01*
X00369233Y00313539D01*
X00369631Y00314506D01*
X00370033Y00315478D01*
Y00360049D01*
X00373503Y00363519D01*
X0041402Y00363519D01*
X0041402Y00363519D01*
X00415964Y00364324D01*
X00415964Y00364324D01*
X00417187Y00365546D01*
X00418216Y00366032D01*
X00420333Y00365719D01*
X00421474Y00364578D01*
X00421474Y00364578D01*
X00423418Y00363773D01*
X00423418Y00363773D01*
X00439928D01*
X00441872Y00364578D01*
X00441872Y00364578D01*
X00443396Y00366102D01*
X00444104Y00367811D01*
X00444916Y00368056D01*
X00446741Y00368082D01*
X00447651Y00365887D01*
X00450934Y00364527D01*
X00461434D01*
X00464717Y00365887D01*
X00464789Y00366059D01*
X00481887D01*
X00482082Y00365978D01*
X00485758D01*
X00487665Y00363514D01*
X00487485Y00362921D01*
X00476758D01*
X00476758Y00362921D01*
X00474814Y00362116D01*
X00474814Y00362116D01*
X0047202Y00359322D01*
X0047202Y00359322D01*
X00471215Y00357378D01*
X00471215Y00357378D01*
Y00300228D01*
X00471215Y00300228D01*
X0047202Y00298284D01*
X0047202Y00298284D01*
X00480148Y00290156D01*
X00480148Y00290156D01*
X00482092Y00289351D01*
X00482092Y00289351D01*
X00492891D01*
X00495599Y00286643D01*
Y0026192D01*
X00495998Y00260957D01*
X00496388Y00259992D01*
X00498711Y00257631D01*
X00498717Y00257628D01*
X0049872Y00257621D01*
X00499685Y00257218D01*
X00500648Y0025681D01*
X00500655Y00256813D01*
X00500662Y0025681D01*
X00566647Y00256603D01*
X00566651Y00256605D01*
X00566656Y00256603D01*
X00567626Y00257005D01*
X00568593Y00257402D01*
X00568595Y00257407D01*
X005686Y00257409D01*
X00570904Y00259713D01*
X00571709Y00261657D01*
X00571709Y00261657D01*
Y00284734D01*
X00570904Y00286678D01*
X00570904Y00286678D01*
X00566078Y00291504D01*
X00566078Y00291504D01*
X00564134Y00292309D01*
X00564134Y00292309D01*
X00542921D01*
X00535133Y00300097D01*
Y00318708D01*
X00537639Y00319295D01*
X00538596Y00318899D01*
X00544576D01*
Y00324002D01*
Y00329105D01*
X00538596D01*
X00537639Y00328709D01*
X00537544Y00328479D01*
X00536968Y00328405D01*
X005349Y00328732D01*
X00534328Y00330112D01*
X00534328D01*
X00532042Y00332398D01*
X00530098Y00333203D01*
X0052955Y0033363D01*
X00529944Y00336542D01*
X00530343Y00336707D01*
X00530796Y00337801D01*
X00535095D01*
X00535695Y00336351D01*
X00538596Y0033515D01*
X00553096D01*
X00555997Y00336351D01*
X00557198Y00339252D01*
Y00339268D01*
X0055964Y00339506D01*
X00560841Y00336605D01*
X00563742Y00335404D01*
X00578242D01*
X00581143Y00336605D01*
X00582344Y00339506D01*
Y00347006D01*
X00581143Y00349907D01*
X00578242Y00351108D01*
X00572129D01*
Y00355177D01*
X00573173Y00355609D01*
X00574374Y0035851D01*
Y0037301D01*
X00573173Y00375911D01*
X00570272Y00377112D01*
X00562772D01*
X00559871Y00375911D01*
X0055867Y0037301D01*
Y0035851D01*
X00559871Y00355609D01*
X00561219Y00355051D01*
Y00350063D01*
X00560841Y00349907D01*
X0055964Y00347006D01*
Y0034699D01*
X00557198Y00346752D01*
X00555997Y00349653D01*
X00553096Y00350854D01*
X00538596D01*
X00535695Y00349653D01*
X00535305Y00348711D01*
X0053088D01*
X00530343Y00350009D01*
X00527442Y0035121D01*
X00516453D01*
X00515637Y00352026D01*
Y0036203D01*
X00518177Y00362535D01*
X00519025Y0036049D01*
X00521954Y00357561D01*
X00525811Y00355963D01*
X00540725D01*
X00540871Y00355609D01*
X00543772Y00354408D01*
X00551272D01*
X00554173Y00355609D01*
X00555374Y0035851D01*
Y0037301D01*
X00554173Y00375911D01*
X00551272Y00377112D01*
X00543772D01*
X00540871Y00375911D01*
X0053967Y0037301D01*
Y00366873D01*
X00530247D01*
X00528656Y00369052D01*
Y00383952D01*
X00527756Y00386126D01*
X00527547Y00386212D01*
X00528052Y00388752D01*
X00528332D01*
Y00402232D01*
X00503832D01*
X00479332D01*
Y00388752D01*
X0047812Y00386714D01*
X00477562Y00386035D01*
X00466396D01*
X00465338Y00387034D01*
X00464041Y00389055D01*
X00465269Y00392021D01*
Y00398526D01*
X004572D01*
X00449131D01*
Y00392021D01*
X00450109Y0038966D01*
X00450339Y00389005D01*
X0044943Y00386691D01*
X00447651Y00385953D01*
X00446741Y00383758D01*
X00444201Y00384263D01*
Y00416451D01*
X00447657Y00419907D01*
X00477477D01*
X00479332Y00418252D01*
X00479332Y00417367D01*
Y00404772D01*
X00502562D01*
Y00418252D01*
X00490069D01*
X00489469Y00420362D01*
X0048945Y00420789D01*
X00489656Y00420878D01*
X0048969Y00420961D01*
X0048974Y00421082D01*
X00489878Y0042122D01*
X00489878Y0042122D01*
X00489878Y0042122D01*
X00490259Y0042214D01*
X00490683Y00423164D01*
X00490683Y00423164D01*
X00490683Y00423164D01*
Y0043815D01*
X00490683Y0043815D01*
X00489878Y00440094D01*
X00489878Y00440094D01*
X00488862Y0044111D01*
X00488834Y00441122D01*
Y00443871D01*
X00489149Y00444001D01*
X0049035Y00446902D01*
Y00453406D01*
X00490659Y00454152D01*
Y00471215D01*
X00518668D01*
X00518668Y00471215D01*
X00520612Y0047202D01*
X00520612Y0047202D01*
X00522644Y00474052D01*
X00523449Y00475996D01*
X00523449Y00475996D01*
Y00495046D01*
X00523422Y00495112D01*
X00523546Y00508747D01*
X005261Y00510285D01*
X00526118Y00510278D01*
X00530098D01*
Y00518922D01*
Y00527566D01*
X00526257D01*
X00526086Y00527589D01*
X0052483Y00528494D01*
X0052483Y00530445D01*
X00526981Y00532376D01*
X00530098D01*
Y0054102D01*
Y00549664D01*
X00526458D01*
X00525898Y0054985D01*
X00523935Y00551509D01*
X00523941Y00552173D01*
X00523938Y0055218D01*
X00523941Y00552186D01*
X00523547Y0055315D01*
X00523153Y00554125D01*
X00523147Y00554127D01*
X00523145Y00554134D01*
X0052063Y00556671D01*
X00520624Y00556674D01*
X00520621Y0055668D01*
X00519656Y0055708D01*
X0051869Y00557485D01*
X00518683Y00557483D01*
X00518677Y00557485D01*
X00504332D01*
X00504288Y00557504D01*
X00492887D01*
X0049054Y00557822D01*
Y0055809D01*
X00482698D01*
X00474856D01*
Y00557822D01*
X0047498Y00557523D01*
X00473074Y00556734D01*
X00472107Y00554398D01*
Y00551323D01*
X00472816Y0054961D01*
X00472107Y00547897D01*
Y00544823D01*
X00472816Y0054311D01*
X00472107Y00541398D01*
Y00538322D01*
X00472816Y0053661D01*
X00472107Y00534897D01*
Y00531823D01*
X00473074Y00529486D01*
X0047541Y00528518D01*
X00489986D01*
X00492322Y00529486D01*
X00493289Y00531823D01*
Y00534897D01*
X0049258Y0053661D01*
X00493289Y00538322D01*
Y00541398D01*
X0049258Y0054311D01*
X00493289Y00544823D01*
Y00547897D01*
X00493503Y00548217D01*
X00498139D01*
Y00497795D01*
X0049161D01*
X00490558Y00500335D01*
X0049179Y00501567D01*
Y00501954D01*
X0048379D01*
Y00501567D01*
X00485023Y00500335D01*
X0048397Y00497795D01*
X00476878D01*
X00475826Y00500335D01*
X00477058Y00501567D01*
Y00501954D01*
X00469058D01*
Y00501567D01*
X0047029Y00500335D01*
X00469238Y00497795D01*
X00460562D01*
X0045951Y00500335D01*
X00460946Y00501771D01*
Y00502158D01*
X00452946D01*
Y00501771D01*
X00454382Y00500335D01*
X0045333Y00497795D01*
X0044583D01*
X00444778Y00500335D01*
X00446214Y00501771D01*
Y00502158D01*
X00438214D01*
Y00501771D01*
X0043965Y00500335D01*
X00438598Y00497795D01*
X00432114D01*
X00431062Y00500335D01*
X00432498Y00501771D01*
Y00502158D01*
X00424498D01*
Y00501771D01*
X00425934Y00500335D01*
X00424882Y00497795D01*
X00415371D01*
X00414806Y00500335D01*
X0041675Y00502279D01*
Y00502666D01*
X0040875D01*
Y00502279D01*
X00410694Y00500335D01*
X00410129Y00497795D01*
X00399684D01*
X00399178Y00500335D01*
X00399787Y00500587D01*
X00400988Y00503488D01*
Y00510988D01*
X00399787Y00513889D01*
X00396886Y0051509D01*
X00393501D01*
Y00525925D01*
X0039643Y00527138D01*
X00398211Y0053144D01*
X00400558Y00531567D01*
X0040365Y00532848D01*
X00406289Y00535487D01*
X00414113D01*
X00414506Y00534897D01*
Y00531823D01*
X00415474Y00529486D01*
X00417811Y00528518D01*
X00432385D01*
X00434722Y00529486D01*
X0043569Y00531823D01*
Y00534897D01*
X0043498Y0053661D01*
X0043569Y00538322D01*
Y00541398D01*
X0043498Y0054311D01*
X0043569Y00544823D01*
Y00547897D01*
X0043498Y0054961D01*
X0043569Y00551323D01*
Y00554398D01*
X0043498Y0055611D01*
X0043569Y00557822D01*
Y00560897D01*
X0043498Y0056261D01*
X0043569Y00564323D01*
Y00567397D01*
X0043498Y0056911D01*
X0043569Y00570822D01*
Y00573898D01*
X00436083Y00574487D01*
X00443224D01*
X00443224Y00574487D01*
X00446316Y00575768D01*
X00477056Y00606508D01*
X00477056Y00606508D01*
X00478337Y006096D01*
X00478337Y006096D01*
Y0080375D01*
X00480877Y00804802D01*
X00482467Y00803212D01*
X00482854D01*
Y00807212D01*
Y00811212D01*
X00482467D01*
X00480877Y00809622D01*
X00478337Y00810674D01*
Y00820204D01*
X00480877Y0082055D01*
X00482975Y00818452D01*
X00483362D01*
Y00822452D01*
Y00826452D01*
X00482975D01*
X00480877Y00824354D01*
X00478337Y008247D01*
Y0083696D01*
X00478566D01*
X0048474Y00843134D01*
Y00851866D01*
X00478566Y0085804D01*
D02*
G37*
G36*
X00629291Y00833818D02*
X00628904D01*
Y00831088D01*
X00631634D01*
Y00831475D01*
X00629291Y00833818D01*
D02*
G37*
G36*
X00626364D02*
X00625977D01*
X00623634Y00831475D01*
Y00831088D01*
X00626364D01*
Y00833818D01*
D02*
G37*
G36*
X00294011Y00831532D02*
X00293624D01*
Y00828802D01*
X00296354D01*
Y00829189D01*
X00294011Y00831532D01*
D02*
G37*
G36*
X00291084D02*
X00290697D01*
X00288354Y00829189D01*
Y00828802D01*
X00291084D01*
Y00831532D01*
D02*
G37*
G36*
X00631634Y00828548D02*
X00628904D01*
Y00825818D01*
X00629291D01*
X00631634Y00828161D01*
Y00828548D01*
D02*
G37*
G36*
X00626364D02*
X00623634D01*
Y00828161D01*
X00625977Y00825818D01*
X00626364D01*
Y00828548D01*
D02*
G37*
G36*
X00448697Y00827722D02*
X0044831D01*
Y00824992D01*
X0045104D01*
Y00825379D01*
X00448697Y00827722D01*
D02*
G37*
G36*
X0044577D02*
X00445383D01*
X0044304Y00825379D01*
Y00824992D01*
X0044577D01*
Y00827722D01*
D02*
G37*
G36*
X00462788Y0082696D02*
X00462401D01*
X00460058Y00824617D01*
Y0082423D01*
X00462788D01*
Y0082696D01*
D02*
G37*
G36*
X00486289Y00826452D02*
X00485902D01*
Y00823722D01*
X00488632D01*
Y00824109D01*
X00486289Y00826452D01*
D02*
G37*
G36*
X00296354Y00826262D02*
X00293624D01*
Y00823532D01*
X00294011D01*
X00296354Y00825875D01*
Y00826262D01*
D02*
G37*
G36*
X00291084D02*
X00288354D01*
Y00825875D01*
X00290697Y00823532D01*
X00291084D01*
Y00826262D01*
D02*
G37*
G36*
X0045104Y00822452D02*
X0044831D01*
Y00819722D01*
X00448697D01*
X0045104Y00822065D01*
Y00822452D01*
D02*
G37*
G36*
X0044577D02*
X0044304D01*
Y00822065D01*
X00445383Y00819722D01*
X0044577D01*
Y00822452D01*
D02*
G37*
G36*
X0061325Y00861408D02*
X0058817D01*
Y00836328D01*
X00592549D01*
Y00820996D01*
X00592679Y00820682D01*
X00590525Y00819243D01*
X00590175Y00819594D01*
X00589788D01*
Y00815594D01*
Y00811594D01*
X00590175D01*
X00592518Y00813937D01*
Y00814433D01*
X00594454Y00815066D01*
X00595058Y00815106D01*
X0060364Y00806524D01*
Y00802453D01*
X00610107Y00795986D01*
X00619253D01*
X0062572Y00802453D01*
Y00811599D01*
X00619253Y00818066D01*
X00615182D01*
X00608871Y00824376D01*
Y00836328D01*
X0061325D01*
Y00861408D01*
D02*
G37*
G36*
X00462788Y0082169D02*
X00460058D01*
Y00821303D01*
X00462401Y0081896D01*
X00462788D01*
Y0082169D01*
D02*
G37*
G36*
X00488632Y00821182D02*
X00485902D01*
Y00818452D01*
X00486289D01*
X00488632Y00820795D01*
Y00821182D01*
D02*
G37*
G36*
X00573157Y00820356D02*
X0057277D01*
Y00817626D01*
X005755D01*
Y00818013D01*
X00573157Y00820356D01*
D02*
G37*
G36*
X0057023D02*
X00569843D01*
X005675Y00818013D01*
Y00817626D01*
X0057023D01*
Y00820356D01*
D02*
G37*
G36*
X00556901Y00820102D02*
X00556514D01*
Y00817372D01*
X00559244D01*
Y00817759D01*
X00556901Y00820102D01*
D02*
G37*
G36*
X00553974D02*
X00553587D01*
X00551244Y00817759D01*
Y00817372D01*
X00553974D01*
Y00820102D01*
D02*
G37*
G36*
X00587248Y00819594D02*
X00586861D01*
X00584518Y00817251D01*
Y00816864D01*
X00587248D01*
Y00819594D01*
D02*
G37*
G36*
X00436034Y00822714D02*
X00432054D01*
Y0081534D01*
X00437928D01*
Y0082082D01*
X00437373Y00822159D01*
X00436034Y00822714D01*
D02*
G37*
G36*
X00429514D02*
X00425534D01*
X00424195Y00822159D01*
X0042364Y0082082D01*
Y0081534D01*
X00429514D01*
Y00822714D01*
D02*
G37*
G36*
X005755Y00815086D02*
X0057277D01*
Y00812356D01*
X00573157D01*
X005755Y00814699D01*
Y00815086D01*
D02*
G37*
G36*
X0057023D02*
X005675D01*
Y00814699D01*
X00569843Y00812356D01*
X0057023D01*
Y00815086D01*
D02*
G37*
G36*
X00559244Y00814832D02*
X00556514D01*
Y00812102D01*
X00556901D01*
X00559244Y00814445D01*
Y00814832D01*
D02*
G37*
G36*
X00553974D02*
X00551244D01*
Y00814445D01*
X00553587Y00812102D01*
X00553974D01*
Y00814832D01*
D02*
G37*
G36*
X00587248Y00814324D02*
X00584518D01*
Y00813937D01*
X00586861Y00811594D01*
X00587248D01*
Y00814324D01*
D02*
G37*
G36*
X0046228Y0081172D02*
X00461893D01*
X0045955Y00809377D01*
Y0080899D01*
X0046228D01*
Y0081172D01*
D02*
G37*
G36*
X00448189D02*
X00447802D01*
Y0080899D01*
X00450532D01*
Y00809377D01*
X00448189Y0081172D01*
D02*
G37*
G36*
X00445262D02*
X00444875D01*
X00442532Y00809377D01*
Y0080899D01*
X00445262D01*
Y0081172D01*
D02*
G37*
G36*
X00485781Y00811212D02*
X00485394D01*
Y00808482D01*
X00488124D01*
Y00808869D01*
X00485781Y00811212D01*
D02*
G37*
G36*
X00437928Y008128D02*
X00432054D01*
Y00805426D01*
X00436034D01*
X00437373Y00805981D01*
X00437928Y0080732D01*
Y008128D01*
D02*
G37*
G36*
X00429514D02*
X0042364D01*
Y0080732D01*
X00424195Y00805981D01*
X00425534Y00805426D01*
X00429514D01*
Y008128D01*
D02*
G37*
G36*
X0046228Y0080645D02*
X0045955D01*
Y00806063D01*
X00461893Y0080372D01*
X0046228D01*
Y0080645D01*
D02*
G37*
G36*
X00450532D02*
X00447802D01*
Y0080372D01*
X00448189D01*
X00450532Y00806063D01*
Y0080645D01*
D02*
G37*
G36*
X00445262D02*
X00442532D01*
Y00806063D01*
X00444875Y0080372D01*
X00445262D01*
Y0080645D01*
D02*
G37*
G36*
X00488124Y00805942D02*
X00485394D01*
Y00803212D01*
X00485781D01*
X00488124Y00805555D01*
Y00805942D01*
D02*
G37*
G36*
X00589667Y00805624D02*
X0058928D01*
Y00802894D01*
X0059201D01*
Y00803281D01*
X00589667Y00805624D01*
D02*
G37*
G36*
X0058674D02*
X00586353D01*
X0058401Y00803281D01*
Y00802894D01*
X0058674D01*
Y00805624D01*
D02*
G37*
G36*
X00572649D02*
X00572262D01*
Y00802894D01*
X00574992D01*
Y00803281D01*
X00572649Y00805624D01*
D02*
G37*
G36*
X00569722D02*
X00569335D01*
X00566992Y00803281D01*
Y00802894D01*
X00569722D01*
Y00805624D01*
D02*
G37*
G36*
X00556393D02*
X00556006D01*
Y00802894D01*
X00558736D01*
Y00803281D01*
X00556393Y00805624D01*
D02*
G37*
G36*
X00553466D02*
X00553079D01*
X00550736Y00803281D01*
Y00802894D01*
X00553466D01*
Y00805624D01*
D02*
G37*
G36*
X0059201Y00800354D02*
X0058928D01*
Y00797624D01*
X00589667D01*
X0059201Y00799967D01*
Y00800354D01*
D02*
G37*
G36*
X0058674D02*
X0058401D01*
Y00799967D01*
X00586353Y00797624D01*
X0058674D01*
Y00800354D01*
D02*
G37*
G36*
X00574992D02*
X00572262D01*
Y00797624D01*
X00572649D01*
X00574992Y00799967D01*
Y00800354D01*
D02*
G37*
G36*
X00569722D02*
X00566992D01*
Y00799967D01*
X00569335Y00797624D01*
X00569722D01*
Y00800354D01*
D02*
G37*
G36*
X00558736D02*
X00556006D01*
Y00797624D01*
X00556393D01*
X00558736Y00799967D01*
Y00800354D01*
D02*
G37*
G36*
X00553466D02*
X00550736D01*
Y00799967D01*
X00553079Y00797624D01*
X00553466D01*
Y00800354D01*
D02*
G37*
G36*
X00282581Y00792924D02*
X00282194D01*
Y00790194D01*
X00284924D01*
Y00790581D01*
X00282581Y00792924D01*
D02*
G37*
G36*
X00279654D02*
X00279267D01*
X00276924Y00790581D01*
Y00790194D01*
X00279654D01*
Y00792924D01*
D02*
G37*
G36*
X00265563D02*
X00265176D01*
Y00790194D01*
X00267906D01*
Y00790581D01*
X00265563Y00792924D01*
D02*
G37*
G36*
X00262636D02*
X00262249D01*
X00259906Y00790581D01*
Y00790194D01*
X00262636D01*
Y00792924D01*
D02*
G37*
G36*
X00572649Y00792162D02*
X00572262D01*
Y00789432D01*
X00574992D01*
Y00789819D01*
X00572649Y00792162D01*
D02*
G37*
G36*
X00569722D02*
X00569335D01*
X00566992Y00789819D01*
Y00789432D01*
X00569722D01*
Y00792162D01*
D02*
G37*
G36*
X00556393Y00791908D02*
X00556006D01*
Y00789178D01*
X00558736D01*
Y00789565D01*
X00556393Y00791908D01*
D02*
G37*
G36*
X00553466D02*
X00553079D01*
X00550736Y00789565D01*
Y00789178D01*
X00553466D01*
Y00791908D01*
D02*
G37*
G36*
X00589667Y007914D02*
X0058928D01*
Y0078867D01*
X0059201D01*
Y00789057D01*
X00589667Y007914D01*
D02*
G37*
G36*
X0058674D02*
X00586353D01*
X0058401Y00789057D01*
Y0078867D01*
X0058674D01*
Y007914D01*
D02*
G37*
G36*
X00627513Y00791146D02*
X00627126D01*
Y00788416D01*
X00629856D01*
Y00788803D01*
X00627513Y00791146D01*
D02*
G37*
G36*
X00624586D02*
X00624199D01*
X00621856Y00788803D01*
Y00788416D01*
X00624586D01*
Y00791146D01*
D02*
G37*
G36*
X00610495D02*
X00610108D01*
Y00788416D01*
X00612838D01*
Y00788803D01*
X00610495Y00791146D01*
D02*
G37*
G36*
X00607568D02*
X00607181D01*
X00604838Y00788803D01*
Y00788416D01*
X00607568D01*
Y00791146D01*
D02*
G37*
G36*
X00284924Y00787654D02*
X00282194D01*
Y00784924D01*
X00282581D01*
X00284924Y00787267D01*
Y00787654D01*
D02*
G37*
G36*
X00279654D02*
X00276924D01*
Y00787267D01*
X00279267Y00784924D01*
X00279654D01*
Y00787654D01*
D02*
G37*
G36*
X00267906D02*
X00265176D01*
Y00784924D01*
X00265563D01*
X00267906Y00787267D01*
Y00787654D01*
D02*
G37*
G36*
X00262636D02*
X00259906D01*
Y00787267D01*
X00262249Y00784924D01*
X00262636D01*
Y00787654D01*
D02*
G37*
G36*
X00574992Y00786892D02*
X00572262D01*
Y00784162D01*
X00572649D01*
X00574992Y00786505D01*
Y00786892D01*
D02*
G37*
G36*
X00569722D02*
X00566992D01*
Y00786505D01*
X00569335Y00784162D01*
X00569722D01*
Y00786892D01*
D02*
G37*
G36*
X00558736Y00786638D02*
X00556006D01*
Y00783908D01*
X00556393D01*
X00558736Y00786251D01*
Y00786638D01*
D02*
G37*
G36*
X00553466D02*
X00550736D01*
Y00786251D01*
X00553079Y00783908D01*
X00553466D01*
Y00786638D01*
D02*
G37*
G36*
X0059201Y0078613D02*
X0058928D01*
Y007834D01*
X00589667D01*
X0059201Y00785743D01*
Y0078613D01*
D02*
G37*
G36*
X0058674D02*
X0058401D01*
Y00785743D01*
X00586353Y007834D01*
X0058674D01*
Y0078613D01*
D02*
G37*
G36*
X00629856Y00785876D02*
X00627126D01*
Y00783146D01*
X00627513D01*
X00629856Y00785489D01*
Y00785876D01*
D02*
G37*
G36*
X00624586D02*
X00621856D01*
Y00785489D01*
X00624199Y00783146D01*
X00624586D01*
Y00785876D01*
D02*
G37*
G36*
X00612838D02*
X00610108D01*
Y00783146D01*
X00610495D01*
X00612838Y00785489D01*
Y00785876D01*
D02*
G37*
G36*
X00607568D02*
X00604838D01*
Y00785489D01*
X00607181Y00783146D01*
X00607568D01*
Y00785876D01*
D02*
G37*
G36*
X00464191Y00785304D02*
X00463804D01*
Y00782574D01*
X00466534D01*
Y00782961D01*
X00464191Y00785304D01*
D02*
G37*
G36*
X00461264D02*
X00460877D01*
X00458534Y00782961D01*
Y00782574D01*
X00461264D01*
Y00785304D01*
D02*
G37*
G36*
X00529215Y0078505D02*
X00528828D01*
Y0078232D01*
X00531558D01*
Y00782707D01*
X00529215Y0078505D01*
D02*
G37*
G36*
X00526288D02*
X00525901D01*
X00523558Y00782707D01*
Y0078232D01*
X00526288D01*
Y0078505D01*
D02*
G37*
G36*
X00488321D02*
X00487934D01*
Y0078232D01*
X00490664D01*
Y00782707D01*
X00488321Y0078505D01*
D02*
G37*
G36*
X00485394D02*
X00485007D01*
X00482664Y00782707D01*
Y0078232D01*
X00485394D01*
Y0078505D01*
D02*
G37*
G36*
X00466534Y00780034D02*
X00463804D01*
Y00777304D01*
X00464191D01*
X00466534Y00779647D01*
Y00780034D01*
D02*
G37*
G36*
X00461264D02*
X00458534D01*
Y00779647D01*
X00460877Y00777304D01*
X00461264D01*
Y00780034D01*
D02*
G37*
G36*
X00449516D02*
X00446786D01*
Y00777304D01*
X00447173D01*
X00449516Y00779647D01*
Y00780034D01*
D02*
G37*
G36*
X00444246D02*
X00441516D01*
Y00779647D01*
X00443859Y00777304D01*
X00444246D01*
Y00780034D01*
D02*
G37*
G36*
X0043326D02*
X0043053D01*
Y00777304D01*
X00430917D01*
X0043326Y00779647D01*
Y00780034D01*
D02*
G37*
G36*
X0042799D02*
X0042526D01*
Y00779647D01*
X00427603Y00777304D01*
X0042799D01*
Y00780034D01*
D02*
G37*
G36*
X00531558Y0077978D02*
X00528828D01*
Y0077705D01*
X00529215D01*
X00531558Y00779393D01*
Y0077978D01*
D02*
G37*
G36*
X00526288D02*
X00523558D01*
Y00779393D01*
X00525901Y0077705D01*
X00526288D01*
Y0077978D01*
D02*
G37*
G36*
X00490664D02*
X00487934D01*
Y0077705D01*
X00488321D01*
X00490664Y00779393D01*
Y0077978D01*
D02*
G37*
G36*
X00485394D02*
X00482664D01*
Y00779393D01*
X00485007Y0077705D01*
X00485394D01*
Y0077978D01*
D02*
G37*
G36*
X00282581Y00777938D02*
X00282194D01*
Y00775208D01*
X00284924D01*
Y00775595D01*
X00282581Y00777938D01*
D02*
G37*
G36*
X00279654D02*
X00279267D01*
X00276924Y00775595D01*
Y00775208D01*
X00279654D01*
Y00777938D01*
D02*
G37*
G36*
X00265563D02*
X00265176D01*
Y00775208D01*
X00267906D01*
Y00775595D01*
X00265563Y00777938D01*
D02*
G37*
G36*
X00262636D02*
X00262249D01*
X00259906Y00775595D01*
Y00775208D01*
X00262636D01*
Y00777938D01*
D02*
G37*
G36*
X00572649Y0077743D02*
X00572262D01*
Y007747D01*
X00574992D01*
Y00775087D01*
X00572649Y0077743D01*
D02*
G37*
G36*
X00569722D02*
X00569335D01*
X00566992Y00775087D01*
Y007747D01*
X00569722D01*
Y0077743D01*
D02*
G37*
G36*
X00556393Y00777176D02*
X00556006D01*
Y00774446D01*
X00558736D01*
Y00774833D01*
X00556393Y00777176D01*
D02*
G37*
G36*
X00553466D02*
X00553079D01*
X00550736Y00774833D01*
Y00774446D01*
X00553466D01*
Y00777176D01*
D02*
G37*
G36*
X00589667Y00776668D02*
X0058928D01*
Y00773938D01*
X0059201D01*
Y00774325D01*
X00589667Y00776668D01*
D02*
G37*
G36*
X0058674D02*
X00586353D01*
X0058401Y00774325D01*
Y00773938D01*
X0058674D01*
Y00776668D01*
D02*
G37*
G36*
X00627513Y0077616D02*
X00627126D01*
Y0077343D01*
X00629856D01*
Y00773817D01*
X00627513Y0077616D01*
D02*
G37*
G36*
X00624586D02*
X00624199D01*
X00621856Y00773817D01*
Y0077343D01*
X00624586D01*
Y0077616D01*
D02*
G37*
G36*
X00610495D02*
X00610108D01*
Y0077343D01*
X00612838D01*
Y00773817D01*
X00610495Y0077616D01*
D02*
G37*
G36*
X00607568D02*
X00607181D01*
X00604838Y00773817D01*
Y0077343D01*
X00607568D01*
Y0077616D01*
D02*
G37*
G36*
X00284924Y00772668D02*
X00282194D01*
Y00769938D01*
X00282581D01*
X00284924Y00772281D01*
Y00772668D01*
D02*
G37*
G36*
X00279654D02*
X00276924D01*
Y00772281D01*
X00279267Y00769938D01*
X00279654D01*
Y00772668D01*
D02*
G37*
G36*
X00267906D02*
X00265176D01*
Y00769938D01*
X00265563D01*
X00267906Y00772281D01*
Y00772668D01*
D02*
G37*
G36*
X00262636D02*
X00259906D01*
Y00772281D01*
X00262249Y00769938D01*
X00262636D01*
Y00772668D01*
D02*
G37*
G36*
X00574992Y0077216D02*
X00572262D01*
Y0076943D01*
X00572649D01*
X00574992Y00771773D01*
Y0077216D01*
D02*
G37*
G36*
X00569722D02*
X00566992D01*
Y00771773D01*
X00569335Y0076943D01*
X00569722D01*
Y0077216D01*
D02*
G37*
G36*
X00558736Y00771906D02*
X00556006D01*
Y00769176D01*
X00556393D01*
X00558736Y00771519D01*
Y00771906D01*
D02*
G37*
G36*
X00553466D02*
X00550736D01*
Y00771519D01*
X00553079Y00769176D01*
X00553466D01*
Y00771906D01*
D02*
G37*
G36*
X0059201Y00771398D02*
X0058928D01*
Y00768668D01*
X00589667D01*
X0059201Y00771011D01*
Y00771398D01*
D02*
G37*
G36*
X0058674D02*
X0058401D01*
Y00771011D01*
X00586353Y00768668D01*
X0058674D01*
Y00771398D01*
D02*
G37*
G36*
X00629856Y0077089D02*
X00627126D01*
Y0076816D01*
X00627513D01*
X00629856Y00770503D01*
Y0077089D01*
D02*
G37*
G36*
X00624586D02*
X00621856D01*
Y00770503D01*
X00624199Y0076816D01*
X00624586D01*
Y0077089D01*
D02*
G37*
G36*
X00612838D02*
X00610108D01*
Y0076816D01*
X00610495D01*
X00612838Y00770503D01*
Y0077089D01*
D02*
G37*
G36*
X00607568D02*
X00604838D01*
Y00770503D01*
X00607181Y0076816D01*
X00607568D01*
Y0077089D01*
D02*
G37*
G36*
X00447427Y00770826D02*
X0044704D01*
Y00768096D01*
X0044977D01*
Y00768483D01*
X00447427Y00770826D01*
D02*
G37*
G36*
X004445D02*
X00444113D01*
X0044177Y00768483D01*
Y00768096D01*
X004445D01*
Y00770826D01*
D02*
G37*
G36*
X00529215Y00770318D02*
X00528828D01*
Y00767588D01*
X00531558D01*
Y00767975D01*
X00529215Y00770318D01*
D02*
G37*
G36*
X00526288D02*
X00525901D01*
X00523558Y00767975D01*
Y00767588D01*
X00526288D01*
Y00770318D01*
D02*
G37*
G36*
X00360051D02*
X00359664D01*
Y00767588D01*
X00362394D01*
Y00767975D01*
X00360051Y00770318D01*
D02*
G37*
G36*
X00357124D02*
X00356737D01*
X00354394Y00767975D01*
Y00767588D01*
X00357124D01*
Y00770318D01*
D02*
G37*
G36*
X00463937Y00770064D02*
X0046355D01*
Y00767334D01*
X0046628D01*
Y00767721D01*
X00463937Y00770064D01*
D02*
G37*
G36*
X0046101D02*
X00460623D01*
X0045828Y00767721D01*
Y00767334D01*
X0046101D01*
Y00770064D01*
D02*
G37*
G36*
X00342525D02*
X00342138D01*
Y00767334D01*
X00344868D01*
Y00767721D01*
X00342525Y00770064D01*
D02*
G37*
G36*
X00339598D02*
X00339211D01*
X00336868Y00767721D01*
Y00767334D01*
X00339598D01*
Y00770064D01*
D02*
G37*
G36*
X00487813Y0076981D02*
X00487426D01*
Y0076708D01*
X00490156D01*
Y00767467D01*
X00487813Y0076981D01*
D02*
G37*
G36*
X00484886D02*
X00484499D01*
X00482156Y00767467D01*
Y0076708D01*
X00484886D01*
Y0076981D01*
D02*
G37*
G36*
X0044977Y00765556D02*
X0044704D01*
Y00762826D01*
X00447427D01*
X0044977Y00765169D01*
Y00765556D01*
D02*
G37*
G36*
X004445D02*
X0044177D01*
Y00765169D01*
X00444113Y00762826D01*
X004445D01*
Y00765556D01*
D02*
G37*
G36*
X00531558Y00765048D02*
X00528828D01*
Y00762318D01*
X00529215D01*
X00531558Y00764661D01*
Y00765048D01*
D02*
G37*
G36*
X00526288D02*
X00523558D01*
Y00764661D01*
X00525901Y00762318D01*
X00526288D01*
Y00765048D01*
D02*
G37*
G36*
X0046628Y00764794D02*
X0046355D01*
Y00762064D01*
X00463937D01*
X0046628Y00764407D01*
Y00764794D01*
D02*
G37*
G36*
X0046101D02*
X0045828D01*
Y00764407D01*
X00460623Y00762064D01*
X0046101D01*
Y00764794D01*
D02*
G37*
G36*
X00490156Y0076454D02*
X00487426D01*
Y0076181D01*
X00487813D01*
X00490156Y00764153D01*
Y0076454D01*
D02*
G37*
G36*
X00484886D02*
X00482156D01*
Y00764153D01*
X00484499Y0076181D01*
X00484886D01*
Y0076454D01*
D02*
G37*
G36*
X00576713Y00757872D02*
X00576326D01*
Y00755142D01*
X00579056D01*
Y00755529D01*
X00576713Y00757872D01*
D02*
G37*
G36*
X00573786D02*
X00573399D01*
X00571056Y00755529D01*
Y00755142D01*
X00573786D01*
Y00757872D01*
D02*
G37*
G36*
X00593731Y0075711D02*
X00593344D01*
Y0075438D01*
X00596074D01*
Y00754767D01*
X00593731Y0075711D01*
D02*
G37*
G36*
X00590804D02*
X00590417D01*
X00588074Y00754767D01*
Y0075438D01*
X00590804D01*
Y0075711D01*
D02*
G37*
G36*
X00446665Y00756602D02*
X00446278D01*
Y00753872D01*
X00449008D01*
Y00754259D01*
X00446665Y00756602D01*
D02*
G37*
G36*
X00443738D02*
X00443351D01*
X00441008Y00754259D01*
Y00753872D01*
X00443738D01*
Y00756602D01*
D02*
G37*
G36*
X00463175Y0075584D02*
X00462788D01*
Y0075311D01*
X00465518D01*
Y00753497D01*
X00463175Y0075584D01*
D02*
G37*
G36*
X00460248D02*
X00459861D01*
X00457518Y00753497D01*
Y0075311D01*
X00460248D01*
Y0075584D01*
D02*
G37*
G36*
X00487813Y00755586D02*
X00487426D01*
Y00752856D01*
X00490156D01*
Y00753243D01*
X00487813Y00755586D01*
D02*
G37*
G36*
X00484886D02*
X00484499D01*
X00482156Y00753243D01*
Y00752856D01*
X00484886D01*
Y00755586D01*
D02*
G37*
G36*
X00579056Y00752602D02*
X00576326D01*
Y00749872D01*
X00576713D01*
X00579056Y00752215D01*
Y00752602D01*
D02*
G37*
G36*
X00573786D02*
X00571056D01*
Y00752215D01*
X00573399Y00749872D01*
X00573786D01*
Y00752602D01*
D02*
G37*
G36*
X00663835Y00752538D02*
X00663448D01*
Y00749808D01*
X00666178D01*
Y00750195D01*
X00663835Y00752538D01*
D02*
G37*
G36*
X00660908D02*
X00660521D01*
X00658178Y00750195D01*
Y00749808D01*
X00660908D01*
Y00752538D01*
D02*
G37*
G36*
X00646817D02*
X0064643D01*
Y00749808D01*
X0064916D01*
Y00750195D01*
X00646817Y00752538D01*
D02*
G37*
G36*
X00668368Y00861154D02*
X00643288D01*
Y00836074D01*
X00647667D01*
Y00782974D01*
X00614178Y00749486D01*
X00610107D01*
X0060364Y00743019D01*
Y00733873D01*
X00610107Y00727406D01*
X00619253D01*
X0062572Y00733873D01*
Y00737944D01*
X00639079Y00751303D01*
X00641138Y00749808D01*
X0064389D01*
Y0075256D01*
X00642395Y00754619D01*
X00661599Y00773823D01*
X00663989Y00779594D01*
Y00836074D01*
X00668368D01*
Y00861154D01*
D02*
G37*
G36*
X00544745Y00800544D02*
X00539327D01*
X00535496Y00796713D01*
Y00791295D01*
X00536276Y00790515D01*
Y00762104D01*
X00534775Y00761483D01*
X00533574Y00758582D01*
Y00749831D01*
X00531034Y00749449D01*
X00528961Y00751522D01*
X00528574D01*
Y00747522D01*
Y00743522D01*
X00528961D01*
X00531034Y00745595D01*
X00533574Y00745213D01*
Y00744082D01*
X00534775Y00741181D01*
X00537676Y0073998D01*
X00545176D01*
X00548077Y00741181D01*
X00549278Y00744082D01*
Y00758582D01*
X00548077Y00761483D01*
X00547186Y00761852D01*
Y00789905D01*
X00548576Y00791295D01*
Y00796713D01*
X00544745Y00800544D01*
D02*
G37*
G36*
X00596074Y0075184D02*
X00593344D01*
Y0074911D01*
X00593731D01*
X00596074Y00751453D01*
Y0075184D01*
D02*
G37*
G36*
X00590804D02*
X00588074D01*
Y00751453D01*
X00590417Y0074911D01*
X00590804D01*
Y0075184D01*
D02*
G37*
G36*
X00526034Y00751522D02*
X00525647D01*
X00523304Y00749179D01*
Y00748792D01*
X00526034D01*
Y00751522D01*
D02*
G37*
G36*
X00449008Y00751332D02*
X00446278D01*
Y00748602D01*
X00446665D01*
X00449008Y00750945D01*
Y00751332D01*
D02*
G37*
G36*
X00443738D02*
X00441008D01*
Y00750945D01*
X00443351Y00748602D01*
X00443738D01*
Y00751332D01*
D02*
G37*
G36*
X00465518Y0075057D02*
X00462788D01*
Y0074784D01*
X00463175D01*
X00465518Y00750183D01*
Y0075057D01*
D02*
G37*
G36*
X00460248D02*
X00457518D01*
Y00750183D01*
X00459861Y0074784D01*
X00460248D01*
Y0075057D01*
D02*
G37*
G36*
X00490156Y00750316D02*
X00487426D01*
Y00747586D01*
X00487813D01*
X00490156Y00749929D01*
Y00750316D01*
D02*
G37*
G36*
X00484886D02*
X00482156D01*
Y00749929D01*
X00484499Y00747586D01*
X00484886D01*
Y00750316D01*
D02*
G37*
G36*
X00666178Y00747268D02*
X00663448D01*
Y00744538D01*
X00663835D01*
X00666178Y00746881D01*
Y00747268D01*
D02*
G37*
G36*
X00660908D02*
X00658178D01*
Y00746881D01*
X00660521Y00744538D01*
X00660908D01*
Y00747268D01*
D02*
G37*
G36*
X0064916D02*
X0064643D01*
Y00744538D01*
X00646817D01*
X0064916Y00746881D01*
Y00747268D01*
D02*
G37*
G36*
X0064389D02*
X0064116D01*
Y00746881D01*
X00643503Y00744538D01*
X0064389D01*
Y00747268D01*
D02*
G37*
G36*
X00526034Y00746252D02*
X00523304D01*
Y00745865D01*
X00525647Y00743522D01*
X00526034D01*
Y00746252D01*
D02*
G37*
G36*
X00576713Y0074314D02*
X00576326D01*
Y0074041D01*
X00579056D01*
Y00740797D01*
X00576713Y0074314D01*
D02*
G37*
G36*
X00573786D02*
X00573399D01*
X00571056Y00740797D01*
Y0074041D01*
X00573786D01*
Y0074314D01*
D02*
G37*
G36*
X00593731Y00742378D02*
X00593344D01*
Y00739648D01*
X00596074D01*
Y00740035D01*
X00593731Y00742378D01*
D02*
G37*
G36*
X00590804D02*
X00590417D01*
X00588074Y00740035D01*
Y00739648D01*
X00590804D01*
Y00742378D01*
D02*
G37*
G36*
X00579056Y0073787D02*
X00576326D01*
Y0073514D01*
X00576713D01*
X00579056Y00737483D01*
Y0073787D01*
D02*
G37*
G36*
X00573786D02*
X00571056D01*
Y00737483D01*
X00573399Y0073514D01*
X00573786D01*
Y0073787D01*
D02*
G37*
G36*
X00663835Y00737552D02*
X00663448D01*
Y00734822D01*
X00666178D01*
Y00735209D01*
X00663835Y00737552D01*
D02*
G37*
G36*
X00660908D02*
X00660521D01*
X00658178Y00735209D01*
Y00734822D01*
X00660908D01*
Y00737552D01*
D02*
G37*
G36*
X00646817D02*
X0064643D01*
Y00734822D01*
X0064916D01*
Y00735209D01*
X00646817Y00737552D01*
D02*
G37*
G36*
X0064389D02*
X00643503D01*
X0064116Y00735209D01*
Y00734822D01*
X0064389D01*
Y00737552D01*
D02*
G37*
G36*
X00596074Y00737108D02*
X00593344D01*
Y00734378D01*
X00593731D01*
X00596074Y00736721D01*
Y00737108D01*
D02*
G37*
G36*
X00590804D02*
X00588074D01*
Y00736721D01*
X00590417Y00734378D01*
X00590804D01*
Y00737108D01*
D02*
G37*
G36*
X00328047Y00736536D02*
X0032766D01*
Y00733806D01*
X0033039D01*
Y00734193D01*
X00328047Y00736536D01*
D02*
G37*
G36*
X0032512D02*
X00324733D01*
X0032239Y00734193D01*
Y00733806D01*
X0032512D01*
Y00736536D01*
D02*
G37*
G36*
X00443109Y00736028D02*
X00442722D01*
Y00733298D01*
X00445452D01*
Y00733685D01*
X00443109Y00736028D01*
D02*
G37*
G36*
X00440182D02*
X00439795D01*
X00437452Y00733685D01*
Y00733298D01*
X00440182D01*
Y00736028D01*
D02*
G37*
G36*
X00426853Y00735774D02*
X00426466D01*
Y00733044D01*
X00429196D01*
Y00733431D01*
X00426853Y00735774D01*
D02*
G37*
G36*
X00423926D02*
X00423539D01*
X00421196Y00733431D01*
Y00733044D01*
X00423926D01*
Y00735774D01*
D02*
G37*
G36*
X00488321Y0073552D02*
X00487934D01*
Y0073279D01*
X00490664D01*
Y00733177D01*
X00488321Y0073552D01*
D02*
G37*
G36*
X00485394D02*
X00485007D01*
X00482664Y00733177D01*
Y0073279D01*
X00485394D01*
Y0073552D01*
D02*
G37*
G36*
X00460127Y00735266D02*
X0045974D01*
Y00732536D01*
X0046247D01*
Y00732923D01*
X00460127Y00735266D01*
D02*
G37*
G36*
X004572D02*
X00456813D01*
X0045447Y00732923D01*
Y00732536D01*
X004572D01*
Y00735266D01*
D02*
G37*
G36*
X00666178Y00732282D02*
X00663448D01*
Y00729552D01*
X00663835D01*
X00666178Y00731895D01*
Y00732282D01*
D02*
G37*
G36*
X00660908D02*
X00658178D01*
Y00731895D01*
X00660521Y00729552D01*
X00660908D01*
Y00732282D01*
D02*
G37*
G36*
X0064916D02*
X0064643D01*
Y00729552D01*
X00646817D01*
X0064916Y00731895D01*
Y00732282D01*
D02*
G37*
G36*
X0064389D02*
X0064116D01*
Y00731895D01*
X00643503Y00729552D01*
X0064389D01*
Y00732282D01*
D02*
G37*
G36*
X0033039Y00731266D02*
X0032766D01*
Y00728536D01*
X00328047D01*
X0033039Y00730879D01*
Y00731266D01*
D02*
G37*
G36*
X0032512D02*
X0032239D01*
Y00730879D01*
X00324733Y00728536D01*
X0032512D01*
Y00731266D01*
D02*
G37*
G36*
X00445452Y00730758D02*
X00442722D01*
Y00728028D01*
X00443109D01*
X00445452Y00730371D01*
Y00730758D01*
D02*
G37*
G36*
X00440182D02*
X00437452D01*
Y00730371D01*
X00439795Y00728028D01*
X00440182D01*
Y00730758D01*
D02*
G37*
G36*
X00429196Y00730504D02*
X00426466D01*
Y00727774D01*
X00426853D01*
X00429196Y00730117D01*
Y00730504D01*
D02*
G37*
G36*
X00423926D02*
X00421196D01*
Y00730117D01*
X00423539Y00727774D01*
X00423926D01*
Y00730504D01*
D02*
G37*
G36*
X00490664Y0073025D02*
X00487934D01*
Y0072752D01*
X00488321D01*
X00490664Y00729863D01*
Y0073025D01*
D02*
G37*
G36*
X00485394D02*
X00482664D01*
Y00729863D01*
X00485007Y0072752D01*
X00485394D01*
Y0073025D01*
D02*
G37*
G36*
X0046247Y00729996D02*
X0045974D01*
Y00727266D01*
X00460127D01*
X0046247Y00729609D01*
Y00729996D01*
D02*
G37*
G36*
X004572D02*
X0045447D01*
Y00729609D01*
X00456813Y00727266D01*
X004572D01*
Y00729996D01*
D02*
G37*
G36*
X00350158Y00731298D02*
X00344678D01*
Y00725424D01*
X00352052D01*
Y00729404D01*
X00351497Y00730743D01*
X00350158Y00731298D01*
D02*
G37*
G36*
X00342138D02*
X00336658D01*
X00335319Y00730743D01*
X00334764Y00729404D01*
Y00725424D01*
X00342138D01*
Y00731298D01*
D02*
G37*
G36*
X00327539Y00720534D02*
X00327152D01*
Y00717804D01*
X00329882D01*
Y00718191D01*
X00327539Y00720534D01*
D02*
G37*
G36*
X00324612D02*
X00324225D01*
X00321882Y00718191D01*
Y00717804D01*
X00324612D01*
Y00720534D01*
D02*
G37*
G36*
X00487813Y0072028D02*
X00487426D01*
Y0071755D01*
X00490156D01*
Y00717937D01*
X00487813Y0072028D01*
D02*
G37*
G36*
X00484886D02*
X00484499D01*
X00482156Y00717937D01*
Y0071755D01*
X00484886D01*
Y0072028D01*
D02*
G37*
G36*
X00459619Y00720026D02*
X00459232D01*
Y00717296D01*
X00461962D01*
Y00717683D01*
X00459619Y00720026D01*
D02*
G37*
G36*
X00456692D02*
X00456305D01*
X00453962Y00717683D01*
Y00717296D01*
X00456692D01*
Y00720026D01*
D02*
G37*
G36*
X00442601D02*
X00442214D01*
Y00717296D01*
X00444944D01*
Y00717683D01*
X00442601Y00720026D01*
D02*
G37*
G36*
X00439674D02*
X00439287D01*
X00436944Y00717683D01*
Y00717296D01*
X00439674D01*
Y00720026D01*
D02*
G37*
G36*
X00426345D02*
X00425958D01*
Y00717296D01*
X00428688D01*
Y00717683D01*
X00426345Y00720026D01*
D02*
G37*
G36*
X00423418D02*
X00423031D01*
X00420688Y00717683D01*
Y00717296D01*
X00423418D01*
Y00720026D01*
D02*
G37*
G36*
X00352052Y00722884D02*
X00344678D01*
Y0071701D01*
X00350158D01*
X00351497Y00717565D01*
X00352052Y00718904D01*
Y00722884D01*
D02*
G37*
G36*
X00342138D02*
X00334764D01*
Y00718904D01*
X00335319Y00717565D01*
X00336658Y0071701D01*
X00342138D01*
Y00722884D01*
D02*
G37*
G36*
X00329882Y00715264D02*
X00327152D01*
Y00712534D01*
X00327539D01*
X00329882Y00714877D01*
Y00715264D01*
D02*
G37*
G36*
X00324612D02*
X00321882D01*
Y00714877D01*
X00324225Y00712534D01*
X00324612D01*
Y00715264D01*
D02*
G37*
G36*
X00490156Y0071501D02*
X00487426D01*
Y0071228D01*
X00487813D01*
X00490156Y00714623D01*
Y0071501D01*
D02*
G37*
G36*
X00484886D02*
X00482156D01*
Y00714623D01*
X00484499Y0071228D01*
X00484886D01*
Y0071501D01*
D02*
G37*
G36*
X00461962Y00714756D02*
X00459232D01*
Y00712026D01*
X00459619D01*
X00461962Y00714369D01*
Y00714756D01*
D02*
G37*
G36*
X00456692D02*
X00453962D01*
Y00714369D01*
X00456305Y00712026D01*
X00456692D01*
Y00714756D01*
D02*
G37*
G36*
X00444944D02*
X00442214D01*
Y00712026D01*
X00442601D01*
X00444944Y00714369D01*
Y00714756D01*
D02*
G37*
G36*
X00439674D02*
X00436944D01*
Y00714369D01*
X00439287Y00712026D01*
X00439674D01*
Y00714756D01*
D02*
G37*
G36*
X00428688D02*
X00425958D01*
Y00712026D01*
X00426345D01*
X00428688Y00714369D01*
Y00714756D01*
D02*
G37*
G36*
X00423418D02*
X00420688D01*
Y00714369D01*
X00423031Y00712026D01*
X00423418D01*
Y00714756D01*
D02*
G37*
G36*
X00318252Y0071227D02*
X00312522D01*
Y0071054D01*
X00318252D01*
Y0071227D01*
D02*
G37*
G36*
X00309982D02*
X00304252D01*
Y0071054D01*
X00309982D01*
Y0071227D01*
D02*
G37*
G36*
X00380371Y00710882D02*
X00379984D01*
Y00708152D01*
X00382714D01*
Y00708539D01*
X00380371Y00710882D01*
D02*
G37*
G36*
X00377444D02*
X00377057D01*
X00374714Y00708539D01*
Y00708152D01*
X00377444D01*
Y00710882D01*
D02*
G37*
G36*
X00363861Y00710628D02*
X00363474D01*
Y00707898D01*
X00366204D01*
Y00708285D01*
X00363861Y00710628D01*
D02*
G37*
G36*
X00360934D02*
X00360547D01*
X00358204Y00708285D01*
Y00707898D01*
X00360934D01*
Y00710628D01*
D02*
G37*
G36*
X00318252Y00708D02*
X00312522D01*
Y0070627D01*
X00318252D01*
Y00708D01*
D02*
G37*
G36*
X00309982D02*
X00304252D01*
Y0070627D01*
X00309982D01*
Y00708D01*
D02*
G37*
G36*
X00564176Y00762684D02*
X00556676D01*
X00553775Y00761483D01*
X00552574Y00758582D01*
Y00744082D01*
X00553775Y00741181D01*
X00555047Y00740655D01*
Y00730814D01*
X00553659Y00730239D01*
X00550793Y0072332D01*
Y0071432D01*
X00553659Y00707401D01*
X00560578Y00704535D01*
X00567497Y00707401D01*
X00570363Y0071432D01*
Y0072332D01*
X00567497Y00730239D01*
X00565957Y00730877D01*
Y00740718D01*
X00567077Y00741181D01*
X00568278Y00744082D01*
Y00758582D01*
X00567077Y00761483D01*
X00564176Y00762684D01*
D02*
G37*
G36*
X00442601Y00706564D02*
X00442214D01*
Y00703834D01*
X00444944D01*
Y00704221D01*
X00442601Y00706564D01*
D02*
G37*
G36*
X00439674D02*
X00439287D01*
X00436944Y00704221D01*
Y00703834D01*
X00439674D01*
Y00706564D01*
D02*
G37*
G36*
X00426345Y0070631D02*
X00425958D01*
Y0070358D01*
X00428688D01*
Y00703967D01*
X00426345Y0070631D01*
D02*
G37*
G36*
X00423418D02*
X00423031D01*
X00420688Y00703967D01*
Y0070358D01*
X00423418D01*
Y0070631D01*
D02*
G37*
G36*
X00487813Y00706056D02*
X00487426D01*
Y00703326D01*
X00490156D01*
Y00703713D01*
X00487813Y00706056D01*
D02*
G37*
G36*
X00484886D02*
X00484499D01*
X00482156Y00703713D01*
Y00703326D01*
X00484886D01*
Y00706056D01*
D02*
G37*
G36*
X00459619Y00705802D02*
X00459232D01*
Y00703072D01*
X00461962D01*
Y00703459D01*
X00459619Y00705802D01*
D02*
G37*
G36*
X00456692D02*
X00456305D01*
X00453962Y00703459D01*
Y00703072D01*
X00456692D01*
Y00705802D01*
D02*
G37*
G36*
X00382714Y00705612D02*
X00379984D01*
Y00702882D01*
X00380371D01*
X00382714Y00705225D01*
Y00705612D01*
D02*
G37*
G36*
X00377444D02*
X00374714D01*
Y00705225D01*
X00377057Y00702882D01*
X00377444D01*
Y00705612D01*
D02*
G37*
G36*
X00366204Y00705358D02*
X00363474D01*
Y00702628D01*
X00363861D01*
X00366204Y00704971D01*
Y00705358D01*
D02*
G37*
G36*
X00360934D02*
X00358204D01*
Y00704971D01*
X00360547Y00702628D01*
X00360934D01*
Y00705358D01*
D02*
G37*
G36*
X00625896Y00700382D02*
X00620166D01*
Y00698652D01*
X00625896D01*
Y00700382D01*
D02*
G37*
G36*
X00617626D02*
X00611896D01*
Y00698652D01*
X00617626D01*
Y00700382D01*
D02*
G37*
G36*
X00444944Y00701294D02*
X00442214D01*
Y00698564D01*
X00442601D01*
X00444944Y00700907D01*
Y00701294D01*
D02*
G37*
G36*
X00439674D02*
X00436944D01*
Y00700907D01*
X00439287Y00698564D01*
X00439674D01*
Y00701294D01*
D02*
G37*
G36*
X00428688Y0070104D02*
X00425958D01*
Y0069831D01*
X00426345D01*
X00428688Y00700653D01*
Y0070104D01*
D02*
G37*
G36*
X00423418D02*
X00420688D01*
Y00700653D01*
X00423031Y0069831D01*
X00423418D01*
Y0070104D01*
D02*
G37*
G36*
X00490156Y00700786D02*
X00487426D01*
Y00698056D01*
X00487813D01*
X00490156Y00700399D01*
Y00700786D01*
D02*
G37*
G36*
X00484886D02*
X00482156D01*
Y00700399D01*
X00484499Y00698056D01*
X00484886D01*
Y00700786D01*
D02*
G37*
G36*
X00461962Y00700532D02*
X00459232D01*
Y00697802D01*
X00459619D01*
X00461962Y00700145D01*
Y00700532D01*
D02*
G37*
G36*
X00456692D02*
X00453962D01*
Y00700145D01*
X00456305Y00697802D01*
X00456692D01*
Y00700532D01*
D02*
G37*
G36*
X00625896Y00696112D02*
X00620166D01*
Y00694382D01*
X00625896D01*
Y00696112D01*
D02*
G37*
G36*
X00617626D02*
X00611896D01*
Y00694382D01*
X00617626D01*
Y00696112D01*
D02*
G37*
G36*
X00644531Y00695134D02*
X00644144D01*
Y00692404D01*
X00646874D01*
Y00692791D01*
X00644531Y00695134D01*
D02*
G37*
G36*
X00641604D02*
X00641217D01*
X00638874Y00692791D01*
Y00692404D01*
X00641604D01*
Y00695134D01*
D02*
G37*
G36*
X00442601Y00691832D02*
X00442214D01*
Y00689102D01*
X00444944D01*
Y00689489D01*
X00442601Y00691832D01*
D02*
G37*
G36*
X00439674D02*
X00439287D01*
X00436944Y00689489D01*
Y00689102D01*
X00439674D01*
Y00691832D01*
D02*
G37*
G36*
X00426345Y00691578D02*
X00425958D01*
Y00688848D01*
X00428688D01*
Y00689235D01*
X00426345Y00691578D01*
D02*
G37*
G36*
X00423418D02*
X00423031D01*
X00420688Y00689235D01*
Y00688848D01*
X00423418D01*
Y00691578D01*
D02*
G37*
G36*
X00487813Y00691324D02*
X00487426D01*
Y00688594D01*
X00490156D01*
Y00688981D01*
X00487813Y00691324D01*
D02*
G37*
G36*
X00484886D02*
X00484499D01*
X00482156Y00688981D01*
Y00688594D01*
X00484886D01*
Y00691324D01*
D02*
G37*
G36*
X00459619Y0069107D02*
X00459232D01*
Y0068834D01*
X00461962D01*
Y00688727D01*
X00459619Y0069107D01*
D02*
G37*
G36*
X00456692D02*
X00456305D01*
X00453962Y00688727D01*
Y0068834D01*
X00456692D01*
Y0069107D01*
D02*
G37*
G36*
X00607193Y00690308D02*
X00606806D01*
Y00687578D01*
X00609536D01*
Y00687965D01*
X00607193Y00690308D01*
D02*
G37*
G36*
X00646874Y00689864D02*
X00644144D01*
Y00687134D01*
X00644531D01*
X00646874Y00689477D01*
Y00689864D01*
D02*
G37*
G36*
X00641604D02*
X00638874D01*
Y00689477D01*
X00641217Y00687134D01*
X00641604D01*
Y00689864D01*
D02*
G37*
G36*
X00444944Y00686562D02*
X00442214D01*
Y00683832D01*
X00442601D01*
X00444944Y00686175D01*
Y00686562D01*
D02*
G37*
G36*
X00439674D02*
X00436944D01*
Y00686175D01*
X00439287Y00683832D01*
X00439674D01*
Y00686562D01*
D02*
G37*
G36*
X00428688Y00686308D02*
X00425958D01*
Y00683578D01*
X00426345D01*
X00428688Y00685921D01*
Y00686308D01*
D02*
G37*
G36*
X00423418D02*
X00420688D01*
Y00685921D01*
X00423031Y00683578D01*
X00423418D01*
Y00686308D01*
D02*
G37*
G36*
X00490156Y00686054D02*
X00487426D01*
Y00683324D01*
X00487813D01*
X00490156Y00685667D01*
Y00686054D01*
D02*
G37*
G36*
X00484886D02*
X00482156D01*
Y00685667D01*
X00484499Y00683324D01*
X00484886D01*
Y00686054D01*
D02*
G37*
G36*
X00461962Y006858D02*
X00459232D01*
Y0068307D01*
X00459619D01*
X00461962Y00685413D01*
Y006858D01*
D02*
G37*
G36*
X00456692D02*
X00453962D01*
Y00685413D01*
X00456305Y0068307D01*
X00456692D01*
Y006858D01*
D02*
G37*
G36*
X00609536Y00685038D02*
X00606806D01*
Y00682308D01*
X00607193D01*
X00609536Y00684651D01*
Y00685038D01*
D02*
G37*
G36*
X00392938Y00743265D02*
X00386019Y00740399D01*
X00383153Y0073348D01*
Y0072448D01*
X00386019Y00717561D01*
X00388024Y00716731D01*
Y00703838D01*
X003573Y00673114D01*
X0035476Y00674166D01*
Y00678222D01*
X00353559Y00681123D01*
X00350658Y00682324D01*
X00348322D01*
Y00691401D01*
X00350158D01*
X00353441Y00692761D01*
X00354801Y00696044D01*
Y00706544D01*
X00353441Y00709827D01*
X00350158Y00711188D01*
X00336658D01*
X00333375Y00709827D01*
X00332015Y00706544D01*
Y00699115D01*
X00328624Y00695725D01*
X00320792D01*
Y0069581D01*
X00303598D01*
X00301792Y0069581D01*
X00301792Y00696737D01*
Y0070531D01*
X00282712D01*
Y0069423D01*
X00287483D01*
Y0068133D01*
X00285091Y00680339D01*
X00283731Y00677056D01*
Y00663556D01*
X00285091Y00660273D01*
X00286875Y00659534D01*
Y0065603D01*
X00289265Y00650259D01*
X00295123Y00644401D01*
X00295438Y00644271D01*
Y00634132D01*
X00297017D01*
Y00631658D01*
X00299407Y00625887D01*
X0030519Y00620104D01*
Y00617727D01*
X00311657Y0061126D01*
X00320803D01*
X0032727Y00617727D01*
Y00626873D01*
X00320803Y0063334D01*
X00315038D01*
X00313339Y00635038D01*
Y00647972D01*
X00312718Y00649472D01*
Y00657712D01*
X00304895D01*
X00303197Y0065941D01*
Y00662783D01*
X00303517Y00663556D01*
Y00677056D01*
X00302157Y00680339D01*
X00298874Y00681699D01*
X00298393D01*
Y00692434D01*
X00299172Y00693213D01*
X00301712Y0069216D01*
Y0068473D01*
X00320792D01*
Y00684815D01*
X00330884D01*
X00334741Y00686413D01*
X00336147Y00687818D01*
X00338494Y00686846D01*
Y00682324D01*
X00336158D01*
X00333257Y00681123D01*
X00332056Y00678222D01*
Y00670722D01*
X00333257Y00667821D01*
X00336158Y0066662D01*
X00344983D01*
X00346337Y0066408D01*
X0034583Y00663324D01*
X00336158D01*
X00333257Y00662123D01*
X00332056Y00659222D01*
Y00651722D01*
X00333257Y00648821D01*
X00336158Y0064762D01*
X00350658D01*
X00353559Y00648821D01*
X0035476Y00651722D01*
Y00656675D01*
X00396413Y00698327D01*
X00397852Y00701802D01*
Y00716731D01*
X00399857Y00717561D01*
X00402723Y0072448D01*
Y0073348D01*
X00399857Y00740399D01*
X00392938Y00743265D01*
D02*
G37*
G36*
X00596284Y00661956D02*
X00590804D01*
Y00656082D01*
X00598178D01*
Y00660062D01*
X00597623Y00661401D01*
X00596284Y00661956D01*
D02*
G37*
G36*
X00588264D02*
X00582784D01*
X00581445Y00661401D01*
X0058089Y00660062D01*
Y00656082D01*
X00588264D01*
Y00661956D01*
D02*
G37*
G36*
X00440315Y00654494D02*
X00439928D01*
Y00651764D01*
X00442658D01*
Y00652151D01*
X00440315Y00654494D01*
D02*
G37*
G36*
X00437388D02*
X00437001D01*
X00434658Y00652151D01*
Y00651764D01*
X00437388D01*
Y00654494D01*
D02*
G37*
G36*
X00488321Y0065424D02*
X00487934D01*
Y0065151D01*
X00490664D01*
Y00651897D01*
X00488321Y0065424D01*
D02*
G37*
G36*
X00485394D02*
X00485007D01*
X00482664Y00651897D01*
Y0065151D01*
X00485394D01*
Y0065424D01*
D02*
G37*
G36*
X00424059D02*
X00423672D01*
Y0065151D01*
X00426402D01*
Y00651897D01*
X00424059Y0065424D01*
D02*
G37*
G36*
X00421132D02*
X00420745D01*
X00418402Y00651897D01*
Y0065151D01*
X00421132D01*
Y0065424D01*
D02*
G37*
G36*
X00617474Y00684231D02*
X0061553Y00683426D01*
Y00683426D01*
X00613752Y00681648D01*
X00613752Y00681648D01*
X00612947Y00679704D01*
X00612947Y00679704D01*
X00612947Y00652332D01*
X00610407Y0065128D01*
X00608971Y00652716D01*
X00608584D01*
Y00648716D01*
Y00644716D01*
X00608971D01*
X00610407Y00646152D01*
X00612947Y006451D01*
X00612947Y00637696D01*
X00610248Y00634998D01*
X00608685Y00631224D01*
X00606652Y00629191D01*
X00570363D01*
Y0063188D01*
X00567497Y00638799D01*
X00560578Y00641665D01*
X00553659Y00638799D01*
X00550793Y0063188D01*
Y0062288D01*
X00553659Y00615961D01*
X00560578Y00613095D01*
X00561636Y00613533D01*
X0056324Y00612869D01*
X00607804D01*
X00610107Y00610566D01*
X00619253D01*
X0062572Y00617033D01*
Y00626179D01*
X00625116Y00626782D01*
X0063033Y00631997D01*
X0064262D01*
X00644564Y00632802D01*
X00644564Y00632802D01*
X00647866Y00636104D01*
X00647866Y00636104D01*
X00648671Y00638048D01*
X00648671Y00638048D01*
Y00680212D01*
X00648671Y00680212D01*
X00647866Y00682156D01*
X00647866Y00682156D01*
X00646596Y00683426D01*
X00644652Y00684231D01*
X00644652Y00684231D01*
X00617474D01*
X00617474Y00684231D01*
D02*
G37*
G36*
X00457333Y00653732D02*
X00456946D01*
Y00651002D01*
X00459676D01*
Y00651389D01*
X00457333Y00653732D01*
D02*
G37*
G36*
X00454406D02*
X00454019D01*
X00451676Y00651389D01*
Y00651002D01*
X00454406D01*
Y00653732D01*
D02*
G37*
G36*
X00606044Y00652716D02*
X00605657D01*
X00603314Y00650373D01*
Y00649986D01*
X00606044D01*
Y00652716D01*
D02*
G37*
G36*
X00570844Y00651972D02*
X00570458D01*
Y00649242D01*
X00573188D01*
Y00649629D01*
X00570844Y00651972D01*
D02*
G37*
G36*
X00567918D02*
X00567531D01*
X00565188Y00649629D01*
Y00649242D01*
X00567918D01*
Y00651972D01*
D02*
G37*
G36*
X00555631Y00651954D02*
X00555244D01*
Y00649224D01*
X00557974D01*
Y00649611D01*
X00555631Y00651954D01*
D02*
G37*
G36*
X00552704D02*
X00552317D01*
X00549974Y00649611D01*
Y00649224D01*
X00552704D01*
Y00651954D01*
D02*
G37*
G36*
X00598178Y00653542D02*
X00590804D01*
Y00647668D01*
X00596284D01*
X00597623Y00648223D01*
X00598178Y00649562D01*
Y00653542D01*
D02*
G37*
G36*
X00588264D02*
X0058089D01*
Y00649562D01*
X00581445Y00648223D01*
X00582784Y00647668D01*
X00588264D01*
Y00653542D01*
D02*
G37*
G36*
X00442658Y00649224D02*
X00439928D01*
Y00646494D01*
X00440315D01*
X00442658Y00648837D01*
Y00649224D01*
D02*
G37*
G36*
X00437388D02*
X00434658D01*
Y00648837D01*
X00437001Y00646494D01*
X00437388D01*
Y00649224D01*
D02*
G37*
G36*
X00490664Y0064897D02*
X00487934D01*
Y0064624D01*
X00488321D01*
X00490664Y00648583D01*
Y0064897D01*
D02*
G37*
G36*
X00485394D02*
X00482664D01*
Y00648583D01*
X00485007Y0064624D01*
X00485394D01*
Y0064897D01*
D02*
G37*
G36*
X00426402D02*
X00423672D01*
Y0064624D01*
X00424059D01*
X00426402Y00648583D01*
Y0064897D01*
D02*
G37*
G36*
X00421132D02*
X00418402D01*
Y00648583D01*
X00420745Y0064624D01*
X00421132D01*
Y0064897D01*
D02*
G37*
G36*
X00459676Y00648462D02*
X00456946D01*
Y00645732D01*
X00457333D01*
X00459676Y00648075D01*
Y00648462D01*
D02*
G37*
G36*
X00454406D02*
X00451676D01*
Y00648075D01*
X00454019Y00645732D01*
X00454406D01*
Y00648462D01*
D02*
G37*
G36*
X00606044Y00647446D02*
X00603314D01*
Y00647059D01*
X00605657Y00644716D01*
X00606044D01*
Y00647446D01*
D02*
G37*
G36*
X00573188Y00646702D02*
X00570458D01*
Y00643972D01*
X00570844D01*
X00573188Y00646315D01*
Y00646702D01*
D02*
G37*
G36*
X00567918D02*
X00565188D01*
Y00646315D01*
X00567531Y00643972D01*
X00567918D01*
Y00646702D01*
D02*
G37*
G36*
X00557974Y00646684D02*
X00555244D01*
Y00643954D01*
X00555631D01*
X00557974Y00646297D01*
Y00646684D01*
D02*
G37*
G36*
X00552704D02*
X00549974D01*
Y00646297D01*
X00552317Y00643954D01*
X00552704D01*
Y00646684D01*
D02*
G37*
G36*
X00487813Y00639D02*
X00487426D01*
Y0063627D01*
X00490156D01*
Y00636657D01*
X00487813Y00639D01*
D02*
G37*
G36*
X00484886D02*
X00484499D01*
X00482156Y00636657D01*
Y0063627D01*
X00484886D01*
Y00639D01*
D02*
G37*
G36*
X00456825Y00638492D02*
X00456438D01*
Y00635762D01*
X00459168D01*
Y00636149D01*
X00456825Y00638492D01*
D02*
G37*
G36*
X00453898D02*
X00453511D01*
X00451168Y00636149D01*
Y00635762D01*
X00453898D01*
Y00638492D01*
D02*
G37*
G36*
X00439807D02*
X0043942D01*
Y00635762D01*
X0044215D01*
Y00636149D01*
X00439807Y00638492D01*
D02*
G37*
G36*
X0043688D02*
X00436493D01*
X0043415Y00636149D01*
Y00635762D01*
X0043688D01*
Y00638492D01*
D02*
G37*
G36*
X00423551D02*
X00423164D01*
Y00635762D01*
X00425894D01*
Y00636149D01*
X00423551Y00638492D01*
D02*
G37*
G36*
X00420624D02*
X00420237D01*
X00417894Y00636149D01*
Y00635762D01*
X00420624D01*
Y00638492D01*
D02*
G37*
G36*
X00490156Y0063373D02*
X00487426D01*
Y00631D01*
X00487813D01*
X00490156Y00633343D01*
Y0063373D01*
D02*
G37*
G36*
X00484886D02*
X00482156D01*
Y00633343D01*
X00484499Y00631D01*
X00484886D01*
Y0063373D01*
D02*
G37*
G36*
X00459168Y00633222D02*
X00456438D01*
Y00630492D01*
X00456825D01*
X00459168Y00632835D01*
Y00633222D01*
D02*
G37*
G36*
X00453898D02*
X00451168D01*
Y00632835D01*
X00453511Y00630492D01*
X00453898D01*
Y00633222D01*
D02*
G37*
G36*
X0044215D02*
X0043942D01*
Y00630492D01*
X00439807D01*
X0044215Y00632835D01*
Y00633222D01*
D02*
G37*
G36*
X0043688D02*
X0043415D01*
Y00632835D01*
X00436493Y00630492D01*
X0043688D01*
Y00633222D01*
D02*
G37*
G36*
X00425894D02*
X00423164D01*
Y00630492D01*
X00423551D01*
X00425894Y00632835D01*
Y00633222D01*
D02*
G37*
G36*
X00420624D02*
X00417894D01*
Y00632835D01*
X00420237Y00630492D01*
X00420624D01*
Y00633222D01*
D02*
G37*
G36*
X00354209Y00628332D02*
X00353822D01*
Y00625602D01*
X00356552D01*
Y00625989D01*
X00354209Y00628332D01*
D02*
G37*
G36*
X00351282D02*
X00350895D01*
X00348552Y00625989D01*
Y00625602D01*
X00351282D01*
Y00628332D01*
D02*
G37*
G36*
X00439807Y0062503D02*
X0043942D01*
Y006223D01*
X0044215D01*
Y00622687D01*
X00439807Y0062503D01*
D02*
G37*
G36*
X0043688D02*
X00436493D01*
X0043415Y00622687D01*
Y006223D01*
X0043688D01*
Y0062503D01*
D02*
G37*
G36*
X00487813Y00624776D02*
X00487426D01*
Y00622046D01*
X00490156D01*
Y00622433D01*
X00487813Y00624776D01*
D02*
G37*
G36*
X00484886D02*
X00484499D01*
X00482156Y00622433D01*
Y00622046D01*
X00484886D01*
Y00624776D01*
D02*
G37*
G36*
X00423551D02*
X00423164D01*
Y00622046D01*
X00425894D01*
Y00622433D01*
X00423551Y00624776D01*
D02*
G37*
G36*
X00420624D02*
X00420237D01*
X00417894Y00622433D01*
Y00622046D01*
X00420624D01*
Y00624776D01*
D02*
G37*
G36*
X00456825Y00624268D02*
X00456438D01*
Y00621538D01*
X00459168D01*
Y00621925D01*
X00456825Y00624268D01*
D02*
G37*
G36*
X00453898D02*
X00453511D01*
X00451168Y00621925D01*
Y00621538D01*
X00453898D01*
Y00624268D01*
D02*
G37*
G36*
X00356552Y00623062D02*
X00353822D01*
Y00620332D01*
X00354209D01*
X00356552Y00622675D01*
Y00623062D01*
D02*
G37*
G36*
X00351282D02*
X00348552D01*
Y00622675D01*
X00350895Y00620332D01*
X00351282D01*
Y00623062D01*
D02*
G37*
G36*
X0044215Y0061976D02*
X0043942D01*
Y0061703D01*
X00439807D01*
X0044215Y00619373D01*
Y0061976D01*
D02*
G37*
G36*
X0043688D02*
X0043415D01*
Y00619373D01*
X00436493Y0061703D01*
X0043688D01*
Y0061976D01*
D02*
G37*
G36*
X00490156Y00619506D02*
X00487426D01*
Y00616776D01*
X00487813D01*
X00490156Y00619119D01*
Y00619506D01*
D02*
G37*
G36*
X00484886D02*
X00482156D01*
Y00619119D01*
X00484499Y00616776D01*
X00484886D01*
Y00619506D01*
D02*
G37*
G36*
X00425894D02*
X00423164D01*
Y00616776D01*
X00423551D01*
X00425894Y00619119D01*
Y00619506D01*
D02*
G37*
G36*
X00420624D02*
X00417894D01*
Y00619119D01*
X00420237Y00616776D01*
X00420624D01*
Y00619506D01*
D02*
G37*
G36*
X00459168Y00618998D02*
X00456438D01*
Y00616268D01*
X00456825D01*
X00459168Y00618611D01*
Y00618998D01*
D02*
G37*
G36*
X00453898D02*
X00451168D01*
Y00618611D01*
X00453511Y00616268D01*
X00453898D01*
Y00618998D01*
D02*
G37*
G36*
X00452761Y00611568D02*
X00452374D01*
Y00608838D01*
X00455104D01*
Y00609225D01*
X00452761Y00611568D01*
D02*
G37*
G36*
X00449834D02*
X00449447D01*
X00447104Y00609225D01*
Y00608838D01*
X00449834D01*
Y00611568D01*
D02*
G37*
G36*
X00439807Y00610298D02*
X0043942D01*
Y00607568D01*
X0044215D01*
Y00607955D01*
X00439807Y00610298D01*
D02*
G37*
G36*
X0043688D02*
X00436493D01*
X0043415Y00607955D01*
Y00607568D01*
X0043688D01*
Y00610298D01*
D02*
G37*
G36*
X00487813Y00610044D02*
X00487426D01*
Y00607314D01*
X00490156D01*
Y00607701D01*
X00487813Y00610044D01*
D02*
G37*
G36*
X00484886D02*
X00484499D01*
X00482156Y00607701D01*
Y00607314D01*
X00484886D01*
Y00610044D01*
D02*
G37*
G36*
X00423551D02*
X00423164D01*
Y00607314D01*
X00425894D01*
Y00607701D01*
X00423551Y00610044D01*
D02*
G37*
G36*
X00420624D02*
X00420237D01*
X00417894Y00607701D01*
Y00607314D01*
X00420624D01*
Y00610044D01*
D02*
G37*
G36*
X00455104Y00606298D02*
X00452374D01*
Y00603568D01*
X00452761D01*
X00455104Y00605911D01*
Y00606298D01*
D02*
G37*
G36*
X00449834D02*
X00447104D01*
Y00605911D01*
X00449447Y00603568D01*
X00449834D01*
Y00606298D01*
D02*
G37*
G36*
X0044215Y00605028D02*
X0043942D01*
Y00602298D01*
X00439807D01*
X0044215Y00604641D01*
Y00605028D01*
D02*
G37*
G36*
X0043688D02*
X0043415D01*
Y00604641D01*
X00436493Y00602298D01*
X0043688D01*
Y00605028D01*
D02*
G37*
G36*
X00490156Y00604774D02*
X00487426D01*
Y00602044D01*
X00487813D01*
X00490156Y00604387D01*
Y00604774D01*
D02*
G37*
G36*
X00484886D02*
X00482156D01*
Y00604387D01*
X00484499Y00602044D01*
X00484886D01*
Y00604774D01*
D02*
G37*
G36*
X00425894D02*
X00423164D01*
Y00602044D01*
X00423551D01*
X00425894Y00604387D01*
Y00604774D01*
D02*
G37*
G36*
X00420624D02*
X00417894D01*
Y00604387D01*
X00420237Y00602044D01*
X00420624D01*
Y00604774D01*
D02*
G37*
G36*
X00567061Y00602678D02*
X00566674D01*
Y00599948D01*
X00569404D01*
Y00600335D01*
X00567061Y00602678D01*
D02*
G37*
G36*
X00564134D02*
X00563747D01*
X00561404Y00600335D01*
Y00599948D01*
X00564134D01*
Y00602678D01*
D02*
G37*
G36*
X00550043D02*
X00549656D01*
Y00599948D01*
X00552386D01*
Y00600335D01*
X00550043Y00602678D01*
D02*
G37*
G36*
X00547116D02*
X00546729D01*
X00544386Y00600335D01*
Y00599948D01*
X00547116D01*
Y00602678D01*
D02*
G37*
G36*
X00533787D02*
X005334D01*
Y00599948D01*
X0053613D01*
Y00600335D01*
X00533787Y00602678D01*
D02*
G37*
G36*
X0053086D02*
X00530473D01*
X0052813Y00600335D01*
Y00599948D01*
X0053086D01*
Y00602678D01*
D02*
G37*
G36*
X00282581Y00599884D02*
X00282194D01*
Y00597154D01*
X00284924D01*
Y00597541D01*
X00282581Y00599884D01*
D02*
G37*
G36*
X00279654D02*
X00279267D01*
X00276924Y00597541D01*
Y00597154D01*
X00279654D01*
Y00599884D01*
D02*
G37*
G36*
X00267849Y0059963D02*
X00267462D01*
Y005969D01*
X00270192D01*
Y00597287D01*
X00267849Y0059963D01*
D02*
G37*
G36*
X00264922D02*
X00264535D01*
X00262192Y00597287D01*
Y005969D01*
X00264922D01*
Y0059963D01*
D02*
G37*
G36*
X00318141Y00599376D02*
X00317754D01*
Y00596646D01*
X00320484D01*
Y00597033D01*
X00318141Y00599376D01*
D02*
G37*
G36*
X00315214D02*
X00314827D01*
X00312484Y00597033D01*
Y00596646D01*
X00315214D01*
Y00599376D01*
D02*
G37*
G36*
X00299853D02*
X00299466D01*
Y00596646D01*
X00302196D01*
Y00597033D01*
X00299853Y00599376D01*
D02*
G37*
G36*
X00296926D02*
X00296539D01*
X00294196Y00597033D01*
Y00596646D01*
X00296926D01*
Y00599376D01*
D02*
G37*
G36*
X00569404Y00597408D02*
X00566674D01*
Y00594678D01*
X00567061D01*
X00569404Y00597021D01*
Y00597408D01*
D02*
G37*
G36*
X00564134D02*
X00561404D01*
Y00597021D01*
X00563747Y00594678D01*
X00564134D01*
Y00597408D01*
D02*
G37*
G36*
X00552386D02*
X00549656D01*
Y00594678D01*
X00550043D01*
X00552386Y00597021D01*
Y00597408D01*
D02*
G37*
G36*
X00547116D02*
X00544386D01*
Y00597021D01*
X00546729Y00594678D01*
X00547116D01*
Y00597408D01*
D02*
G37*
G36*
X0053613D02*
X005334D01*
Y00594678D01*
X00533787D01*
X0053613Y00597021D01*
Y00597408D01*
D02*
G37*
G36*
X0053086D02*
X0052813D01*
Y00597021D01*
X00530473Y00594678D01*
X0053086D01*
Y00597408D01*
D02*
G37*
G36*
X00611587Y00596446D02*
X006112D01*
Y00593716D01*
X0061393D01*
Y00594103D01*
X00611587Y00596446D01*
D02*
G37*
G36*
X0060866D02*
X00608273D01*
X0060593Y00594103D01*
Y00593716D01*
X0060866D01*
Y00596446D01*
D02*
G37*
G36*
X00660787Y00596328D02*
X006604D01*
Y00593598D01*
X0066313D01*
Y00593985D01*
X00660787Y00596328D01*
D02*
G37*
G36*
X0065786D02*
X00657473D01*
X0065513Y00593985D01*
Y00593598D01*
X0065786D01*
Y00596328D01*
D02*
G37*
G36*
X00643769D02*
X00643382D01*
Y00593598D01*
X00646112D01*
Y00593985D01*
X00643769Y00596328D01*
D02*
G37*
G36*
X00640842D02*
X00640455D01*
X00638112Y00593985D01*
Y00593598D01*
X00640842D01*
Y00596328D01*
D02*
G37*
G36*
X00627513D02*
X00627126D01*
Y00593598D01*
X00629856D01*
Y00593985D01*
X00627513Y00596328D01*
D02*
G37*
G36*
X00624586D02*
X00624199D01*
X00621856Y00593985D01*
Y00593598D01*
X00624586D01*
Y00596328D01*
D02*
G37*
G36*
X00284924Y00594614D02*
X00282194D01*
Y00591884D01*
X00282581D01*
X00284924Y00594227D01*
Y00594614D01*
D02*
G37*
G36*
X00279654D02*
X00276924D01*
Y00594227D01*
X00279267Y00591884D01*
X00279654D01*
Y00594614D01*
D02*
G37*
G36*
X00270192Y0059436D02*
X00267462D01*
Y0059163D01*
X00267849D01*
X00270192Y00593973D01*
Y0059436D01*
D02*
G37*
G36*
X00264922D02*
X00262192D01*
Y00593973D01*
X00264535Y0059163D01*
X00264922D01*
Y0059436D01*
D02*
G37*
G36*
X00320484Y00594106D02*
X00317754D01*
Y00591376D01*
X00318141D01*
X00320484Y00593719D01*
Y00594106D01*
D02*
G37*
G36*
X00315214D02*
X00312484D01*
Y00593719D01*
X00314827Y00591376D01*
X00315214D01*
Y00594106D01*
D02*
G37*
G36*
X00302196D02*
X00299466D01*
Y00591376D01*
X00299853D01*
X00302196Y00593719D01*
Y00594106D01*
D02*
G37*
G36*
X00296926D02*
X00294196D01*
Y00593719D01*
X00296539Y00591376D01*
X00296926D01*
Y00594106D01*
D02*
G37*
G36*
X00367538Y00651825D02*
X00360619Y00648959D01*
X00357753Y0064204D01*
Y0063304D01*
X00360619Y00626121D01*
X0036171Y00625669D01*
Y00611983D01*
X00360227Y00611369D01*
X00359026Y00608468D01*
Y00593968D01*
X00360227Y00591067D01*
X00363128Y00589866D01*
X00370628D01*
X00373529Y00591067D01*
X0037473Y00593968D01*
Y00608468D01*
X00373529Y00611369D01*
X00372706Y00611709D01*
Y00625396D01*
X00374457Y00626121D01*
X00377323Y0063304D01*
Y0064204D01*
X00374457Y00648959D01*
X00367538Y00651825D01*
D02*
G37*
G36*
X00382911Y00591756D02*
X00382524D01*
Y00589026D01*
X00385254D01*
Y00589413D01*
X00382911Y00591756D01*
D02*
G37*
G36*
X00379984D02*
X00379597D01*
X00377254Y00589413D01*
Y00589026D01*
X00379984D01*
Y00591756D01*
D02*
G37*
G36*
X0061393Y00591176D02*
X006112D01*
Y00588446D01*
X00611587D01*
X0061393Y00590789D01*
Y00591176D01*
D02*
G37*
G36*
X0060866D02*
X0060593D01*
Y00590789D01*
X00608273Y00588446D01*
X0060866D01*
Y00591176D01*
D02*
G37*
G36*
X0066313Y00591058D02*
X006604D01*
Y00588328D01*
X00660787D01*
X0066313Y00590671D01*
Y00591058D01*
D02*
G37*
G36*
X0065786D02*
X0065513D01*
Y00590671D01*
X00657473Y00588328D01*
X0065786D01*
Y00591058D01*
D02*
G37*
G36*
X00646112D02*
X00643382D01*
Y00588328D01*
X00643769D01*
X00646112Y00590671D01*
Y00591058D01*
D02*
G37*
G36*
X00640842D02*
X00638112D01*
Y00590671D01*
X00640455Y00588328D01*
X00640842D01*
Y00591058D01*
D02*
G37*
G36*
X00629856D02*
X00627126D01*
Y00588328D01*
X00627513D01*
X00629856Y00590671D01*
Y00591058D01*
D02*
G37*
G36*
X00624586D02*
X00621856D01*
Y00590671D01*
X00624199Y00588328D01*
X00624586D01*
Y00591058D01*
D02*
G37*
G36*
X00567061Y00587692D02*
X00566674D01*
Y00584962D01*
X00569404D01*
Y00585349D01*
X00567061Y00587692D01*
D02*
G37*
G36*
X00564134D02*
X00563747D01*
X00561404Y00585349D01*
Y00584962D01*
X00564134D01*
Y00587692D01*
D02*
G37*
G36*
X00550043D02*
X00549656D01*
Y00584962D01*
X00552386D01*
Y00585349D01*
X00550043Y00587692D01*
D02*
G37*
G36*
X00547116D02*
X00546729D01*
X00544386Y00585349D01*
Y00584962D01*
X00547116D01*
Y00587692D01*
D02*
G37*
G36*
X00533787D02*
X005334D01*
Y00584962D01*
X0053613D01*
Y00585349D01*
X00533787Y00587692D01*
D02*
G37*
G36*
X0053086D02*
X00530473D01*
X0052813Y00585349D01*
Y00584962D01*
X0053086D01*
Y00587692D01*
D02*
G37*
G36*
X00385254Y00586486D02*
X00382524D01*
Y00583756D01*
X00382911D01*
X00385254Y00586099D01*
Y00586486D01*
D02*
G37*
G36*
X00379984D02*
X00377254D01*
Y00586099D01*
X00379597Y00583756D01*
X00379984D01*
Y00586486D01*
D02*
G37*
G36*
X00300107Y00585406D02*
X0029972D01*
Y00582676D01*
X0030245D01*
Y00583063D01*
X00300107Y00585406D01*
D02*
G37*
G36*
X0029718D02*
X00296793D01*
X0029445Y00583063D01*
Y00582676D01*
X0029718D01*
Y00585406D01*
D02*
G37*
G36*
X00284359Y0058439D02*
X00283972D01*
Y0058166D01*
X00286702D01*
Y00582047D01*
X00284359Y0058439D01*
D02*
G37*
G36*
X00281432D02*
X00281045D01*
X00278702Y00582047D01*
Y0058166D01*
X00281432D01*
Y0058439D01*
D02*
G37*
G36*
X00318141Y00584136D02*
X00317754D01*
Y00581406D01*
X00320484D01*
Y00581793D01*
X00318141Y00584136D01*
D02*
G37*
G36*
X00315214D02*
X00314827D01*
X00312484Y00581793D01*
Y00581406D01*
X00315214D01*
Y00584136D01*
D02*
G37*
G36*
X00268357Y00583628D02*
X0026797D01*
Y00580898D01*
X002707D01*
Y00581285D01*
X00268357Y00583628D01*
D02*
G37*
G36*
X0026543D02*
X00265043D01*
X002627Y00581285D01*
Y00580898D01*
X0026543D01*
Y00583628D01*
D02*
G37*
G36*
X00569404Y00582422D02*
X00566674D01*
Y00579692D01*
X00567061D01*
X00569404Y00582035D01*
Y00582422D01*
D02*
G37*
G36*
X00564134D02*
X00561404D01*
Y00582035D01*
X00563747Y00579692D01*
X00564134D01*
Y00582422D01*
D02*
G37*
G36*
X00552386D02*
X00549656D01*
Y00579692D01*
X00550043D01*
X00552386Y00582035D01*
Y00582422D01*
D02*
G37*
G36*
X00547116D02*
X00544386D01*
Y00582035D01*
X00546729Y00579692D01*
X00547116D01*
Y00582422D01*
D02*
G37*
G36*
X0053613D02*
X005334D01*
Y00579692D01*
X00533787D01*
X0053613Y00582035D01*
Y00582422D01*
D02*
G37*
G36*
X0053086D02*
X0052813D01*
Y00582035D01*
X00530473Y00579692D01*
X0053086D01*
Y00582422D01*
D02*
G37*
G36*
X00611587Y0058146D02*
X006112D01*
Y0057873D01*
X0061393D01*
Y00579117D01*
X00611587Y0058146D01*
D02*
G37*
G36*
X0060866D02*
X00608273D01*
X0060593Y00579117D01*
Y0057873D01*
X0060866D01*
Y0058146D01*
D02*
G37*
G36*
X00660787Y00581342D02*
X006604D01*
Y00578612D01*
X0066313D01*
Y00578999D01*
X00660787Y00581342D01*
D02*
G37*
G36*
X0065786D02*
X00657473D01*
X0065513Y00578999D01*
Y00578612D01*
X0065786D01*
Y00581342D01*
D02*
G37*
G36*
X00643769D02*
X00643382D01*
Y00578612D01*
X00646112D01*
Y00578999D01*
X00643769Y00581342D01*
D02*
G37*
G36*
X00640842D02*
X00640455D01*
X00638112Y00578999D01*
Y00578612D01*
X00640842D01*
Y00581342D01*
D02*
G37*
G36*
X00627513D02*
X00627126D01*
Y00578612D01*
X00629856D01*
Y00578999D01*
X00627513Y00581342D01*
D02*
G37*
G36*
X00624586D02*
X00624199D01*
X00621856Y00578999D01*
Y00578612D01*
X00624586D01*
Y00581342D01*
D02*
G37*
G36*
X0030245Y00580136D02*
X0029972D01*
Y00577406D01*
X00300107D01*
X0030245Y00579749D01*
Y00580136D01*
D02*
G37*
G36*
X0029718D02*
X0029445D01*
Y00579749D01*
X00296793Y00577406D01*
X0029718D01*
Y00580136D01*
D02*
G37*
G36*
X00286702Y0057912D02*
X00283972D01*
Y0057639D01*
X00284359D01*
X00286702Y00578733D01*
Y0057912D01*
D02*
G37*
G36*
X00281432D02*
X00278702D01*
Y00578733D01*
X00281045Y0057639D01*
X00281432D01*
Y0057912D01*
D02*
G37*
G36*
X00400437Y00579056D02*
X0040005D01*
Y00576326D01*
X0040278D01*
Y00576713D01*
X00400437Y00579056D01*
D02*
G37*
G36*
X0039751D02*
X00397123D01*
X0039478Y00576713D01*
Y00576326D01*
X0039751D01*
Y00579056D01*
D02*
G37*
G36*
X00384943D02*
X00384556D01*
Y00576326D01*
X00387286D01*
Y00576713D01*
X00384943Y00579056D01*
D02*
G37*
G36*
X00382016D02*
X00381629D01*
X00379286Y00576713D01*
Y00576326D01*
X00382016D01*
Y00579056D01*
D02*
G37*
G36*
X00370719D02*
X00370332D01*
Y00576326D01*
X00373062D01*
Y00576713D01*
X00370719Y00579056D01*
D02*
G37*
G36*
X00367792D02*
X00367405D01*
X00365062Y00576713D01*
Y00576326D01*
X00367792D01*
Y00579056D01*
D02*
G37*
G36*
X00320484Y00578866D02*
X00317754D01*
Y00576136D01*
X00318141D01*
X00320484Y00578479D01*
Y00578866D01*
D02*
G37*
G36*
X00315214D02*
X00312484D01*
Y00578479D01*
X00314827Y00576136D01*
X00315214D01*
Y00578866D01*
D02*
G37*
G36*
X002707Y00578358D02*
X0026797D01*
Y00575628D01*
X00268357D01*
X002707Y00577971D01*
Y00578358D01*
D02*
G37*
G36*
X0026543D02*
X002627D01*
Y00577971D01*
X00265043Y00575628D01*
X0026543D01*
Y00578358D01*
D02*
G37*
G36*
X0061393Y0057619D02*
X006112D01*
Y0057346D01*
X00611587D01*
X0061393Y00575803D01*
Y0057619D01*
D02*
G37*
G36*
X0060866D02*
X0060593D01*
Y00575803D01*
X00608273Y0057346D01*
X0060866D01*
Y0057619D01*
D02*
G37*
G36*
X0066313Y00576072D02*
X006604D01*
Y00573342D01*
X00660787D01*
X0066313Y00575685D01*
Y00576072D01*
D02*
G37*
G36*
X0065786D02*
X0065513D01*
Y00575685D01*
X00657473Y00573342D01*
X0065786D01*
Y00576072D01*
D02*
G37*
G36*
X00646112D02*
X00643382D01*
Y00573342D01*
X00643769D01*
X00646112Y00575685D01*
Y00576072D01*
D02*
G37*
G36*
X00640842D02*
X00638112D01*
Y00575685D01*
X00640455Y00573342D01*
X00640842D01*
Y00576072D01*
D02*
G37*
G36*
X00629856D02*
X00627126D01*
Y00573342D01*
X00627513D01*
X00629856Y00575685D01*
Y00576072D01*
D02*
G37*
G36*
X00624586D02*
X00621856D01*
Y00575685D01*
X00624199Y00573342D01*
X00624586D01*
Y00576072D01*
D02*
G37*
G36*
X0040278Y00573786D02*
X0040005D01*
Y00571056D01*
X00400437D01*
X0040278Y00573399D01*
Y00573786D01*
D02*
G37*
G36*
X0039751D02*
X0039478D01*
Y00573399D01*
X00397123Y00571056D01*
X0039751D01*
Y00573786D01*
D02*
G37*
G36*
X00387286D02*
X00384556D01*
Y00571056D01*
X00384943D01*
X00387286Y00573399D01*
Y00573786D01*
D02*
G37*
G36*
X00382016D02*
X00379286D01*
Y00573399D01*
X00381629Y00571056D01*
X00382016D01*
Y00573786D01*
D02*
G37*
G36*
X00373062D02*
X00370332D01*
Y00571056D01*
X00370719D01*
X00373062Y00573399D01*
Y00573786D01*
D02*
G37*
G36*
X00367792D02*
X00365062D01*
Y00573399D01*
X00367405Y00571056D01*
X00367792D01*
Y00573786D01*
D02*
G37*
G36*
X00285375Y00567118D02*
X00284988D01*
Y00564388D01*
X00287718D01*
Y00564775D01*
X00285375Y00567118D01*
D02*
G37*
G36*
X00282448D02*
X00282061D01*
X00279718Y00564775D01*
Y00564388D01*
X00282448D01*
Y00567118D01*
D02*
G37*
G36*
X00610825Y00565712D02*
X00610438D01*
Y00562982D01*
X00613168D01*
Y00563369D01*
X00610825Y00565712D01*
D02*
G37*
G36*
X00607898D02*
X00607511D01*
X00605168Y00563369D01*
Y00562982D01*
X00607898D01*
Y00565712D01*
D02*
G37*
G36*
X00660025Y00565594D02*
X00659638D01*
Y00562864D01*
X00662368D01*
Y00563251D01*
X00660025Y00565594D01*
D02*
G37*
G36*
X00657098D02*
X00656711D01*
X00654368Y00563251D01*
Y00562864D01*
X00657098D01*
Y00565594D01*
D02*
G37*
G36*
X00643007D02*
X0064262D01*
Y00562864D01*
X0064535D01*
Y00563251D01*
X00643007Y00565594D01*
D02*
G37*
G36*
X0064008D02*
X00639693D01*
X0063735Y00563251D01*
Y00562864D01*
X0064008D01*
Y00565594D01*
D02*
G37*
G36*
X00626751D02*
X00626364D01*
Y00562864D01*
X00629094D01*
Y00563251D01*
X00626751Y00565594D01*
D02*
G37*
G36*
X00623824D02*
X00623437D01*
X00621094Y00563251D01*
Y00562864D01*
X00623824D01*
Y00565594D01*
D02*
G37*
G36*
X00356241D02*
X00355854D01*
Y00562864D01*
X00358584D01*
Y00563251D01*
X00356241Y00565594D01*
D02*
G37*
G36*
X00353314D02*
X00352927D01*
X00350584Y00563251D01*
Y00562864D01*
X00353314D01*
Y00565594D01*
D02*
G37*
G36*
X00399675Y0056534D02*
X00399288D01*
Y0056261D01*
X00402018D01*
Y00562997D01*
X00399675Y0056534D01*
D02*
G37*
G36*
X00396748D02*
X00396361D01*
X00394018Y00562997D01*
Y0056261D01*
X00396748D01*
Y0056534D01*
D02*
G37*
G36*
X00385705D02*
X00385318D01*
Y0056261D01*
X00388048D01*
Y00562997D01*
X00385705Y0056534D01*
D02*
G37*
G36*
X00382778D02*
X00382391D01*
X00380048Y00562997D01*
Y0056261D01*
X00382778D01*
Y0056534D01*
D02*
G37*
G36*
X00370719D02*
X00370332D01*
Y0056261D01*
X00373062D01*
Y00562997D01*
X00370719Y0056534D01*
D02*
G37*
G36*
X00367792D02*
X00367405D01*
X00365062Y00562997D01*
Y0056261D01*
X00367792D01*
Y0056534D01*
D02*
G37*
G36*
X00267849Y00564324D02*
X00267462D01*
Y00561594D01*
X00270192D01*
Y00561981D01*
X00267849Y00564324D01*
D02*
G37*
G36*
X00264922D02*
X00264535D01*
X00262192Y00561981D01*
Y00561594D01*
X00264922D01*
Y00564324D01*
D02*
G37*
G36*
X00287718Y00561848D02*
X00284988D01*
Y00559118D01*
X00285375D01*
X00287718Y00561461D01*
Y00561848D01*
D02*
G37*
G36*
X00282448D02*
X00279718D01*
Y00561461D01*
X00282061Y00559118D01*
X00282448D01*
Y00561848D01*
D02*
G37*
G36*
X00613168Y00560442D02*
X00610438D01*
Y00557712D01*
X00610825D01*
X00613168Y00560055D01*
Y00560442D01*
D02*
G37*
G36*
X00607898D02*
X00605168D01*
Y00560055D01*
X00607511Y00557712D01*
X00607898D01*
Y00560442D01*
D02*
G37*
G36*
X00662368Y00560324D02*
X00659638D01*
Y00557594D01*
X00660025D01*
X00662368Y00559937D01*
Y00560324D01*
D02*
G37*
G36*
X00657098D02*
X00654368D01*
Y00559937D01*
X00656711Y00557594D01*
X00657098D01*
Y00560324D01*
D02*
G37*
G36*
X0064535D02*
X0064262D01*
Y00557594D01*
X00643007D01*
X0064535Y00559937D01*
Y00560324D01*
D02*
G37*
G36*
X0064008D02*
X0063735D01*
Y00559937D01*
X00639693Y00557594D01*
X0064008D01*
Y00560324D01*
D02*
G37*
G36*
X00629094D02*
X00626364D01*
Y00557594D01*
X00626751D01*
X00629094Y00559937D01*
Y00560324D01*
D02*
G37*
G36*
X00623824D02*
X00621094D01*
Y00559937D01*
X00623437Y00557594D01*
X00623824D01*
Y00560324D01*
D02*
G37*
G36*
X00358584D02*
X00355854D01*
Y00557594D01*
X00356241D01*
X00358584Y00559937D01*
Y00560324D01*
D02*
G37*
G36*
X00353314D02*
X00350584D01*
Y00559937D01*
X00352927Y00557594D01*
X00353314D01*
Y00560324D01*
D02*
G37*
G36*
X00402018Y0056007D02*
X00399288D01*
Y0055734D01*
X00399675D01*
X00402018Y00559683D01*
Y0056007D01*
D02*
G37*
G36*
X00396748D02*
X00394018D01*
Y00559683D01*
X00396361Y0055734D01*
X00396748D01*
Y0056007D01*
D02*
G37*
G36*
X00388048D02*
X00385318D01*
Y0055734D01*
X00385705D01*
X00388048Y00559683D01*
Y0056007D01*
D02*
G37*
G36*
X00382778D02*
X00380048D01*
Y00559683D01*
X00382391Y0055734D01*
X00382778D01*
Y0056007D01*
D02*
G37*
G36*
X00373062D02*
X00370332D01*
Y0055734D01*
X00370719D01*
X00373062Y00559683D01*
Y0056007D01*
D02*
G37*
G36*
X00367792D02*
X00365062D01*
Y00559683D01*
X00367405Y0055734D01*
X00367792D01*
Y0056007D01*
D02*
G37*
G36*
X00270192Y00559054D02*
X00267462D01*
Y00556324D01*
X00267849D01*
X00270192Y00558667D01*
Y00559054D01*
D02*
G37*
G36*
X00264922D02*
X00262192D01*
Y00558667D01*
X00264535Y00556324D01*
X00264922D01*
Y00559054D01*
D02*
G37*
G36*
X00610825Y00550726D02*
X00610438D01*
Y00547996D01*
X00613168D01*
Y00548383D01*
X00610825Y00550726D01*
D02*
G37*
G36*
X00607898D02*
X00607511D01*
X00605168Y00548383D01*
Y00547996D01*
X00607898D01*
Y00550726D01*
D02*
G37*
G36*
X00660025Y00550608D02*
X00659638D01*
Y00547878D01*
X00662368D01*
Y00548265D01*
X00660025Y00550608D01*
D02*
G37*
G36*
X00657098D02*
X00656711D01*
X00654368Y00548265D01*
Y00547878D01*
X00657098D01*
Y00550608D01*
D02*
G37*
G36*
X00643007D02*
X0064262D01*
Y00547878D01*
X0064535D01*
Y00548265D01*
X00643007Y00550608D01*
D02*
G37*
G36*
X0064008D02*
X00639693D01*
X0063735Y00548265D01*
Y00547878D01*
X0064008D01*
Y00550608D01*
D02*
G37*
G36*
X00626751D02*
X00626364D01*
Y00547878D01*
X00629094D01*
Y00548265D01*
X00626751Y00550608D01*
D02*
G37*
G36*
X00623824D02*
X00623437D01*
X00621094Y00548265D01*
Y00547878D01*
X00623824D01*
Y00550608D01*
D02*
G37*
G36*
X00613168Y00545456D02*
X00610438D01*
Y00542726D01*
X00610825D01*
X00613168Y00545069D01*
Y00545456D01*
D02*
G37*
G36*
X00607898D02*
X00605168D01*
Y00545069D01*
X00607511Y00542726D01*
X00607898D01*
Y00545456D01*
D02*
G37*
G36*
X00662368Y00545338D02*
X00659638D01*
Y00542608D01*
X00660025D01*
X00662368Y00544951D01*
Y00545338D01*
D02*
G37*
G36*
X00657098D02*
X00654368D01*
Y00544951D01*
X00656711Y00542608D01*
X00657098D01*
Y00545338D01*
D02*
G37*
G36*
X0064535D02*
X0064262D01*
Y00542608D01*
X00643007D01*
X0064535Y00544951D01*
Y00545338D01*
D02*
G37*
G36*
X0064008D02*
X0063735D01*
Y00544951D01*
X00639693Y00542608D01*
X0064008D01*
Y00545338D01*
D02*
G37*
G36*
X00629094D02*
X00626364D01*
Y00542608D01*
X00626751D01*
X00629094Y00544951D01*
Y00545338D01*
D02*
G37*
G36*
X00623824D02*
X00621094D01*
Y00544951D01*
X00623437Y00542608D01*
X00623824D01*
Y00545338D01*
D02*
G37*
G36*
X00536618Y00549664D02*
X00532638D01*
Y0054229D01*
X00538512D01*
Y0054777D01*
X00537957Y00549109D01*
X00536618Y00549664D01*
D02*
G37*
G36*
X0056047Y00546894D02*
X0055499D01*
Y0054102D01*
X00562364D01*
Y00545D01*
X00561809Y00546339D01*
X0056047Y00546894D01*
D02*
G37*
G36*
X0055245D02*
X0054697D01*
X00545631Y00546339D01*
X00545076Y00545D01*
Y0054102D01*
X0055245D01*
Y00546894D01*
D02*
G37*
G36*
X00286137Y00542988D02*
X0028575D01*
Y00540258D01*
X0028848D01*
Y00540645D01*
X00286137Y00542988D01*
D02*
G37*
G36*
X0028321D02*
X00282823D01*
X0028048Y00540645D01*
Y00540258D01*
X0028321D01*
Y00542988D01*
D02*
G37*
G36*
X00267341Y00541972D02*
X00266954D01*
Y00539242D01*
X00269684D01*
Y00539629D01*
X00267341Y00541972D01*
D02*
G37*
G36*
X00264414D02*
X00264027D01*
X00261684Y00539629D01*
Y00539242D01*
X00264414D01*
Y00541972D01*
D02*
G37*
G36*
X00322928Y0054594D02*
X00314198D01*
Y0053721D01*
X00322928D01*
Y0054594D01*
D02*
G37*
G36*
X00311658D02*
X00302928D01*
Y0053721D01*
X00311658D01*
Y0054594D01*
D02*
G37*
G36*
X0028848Y00537718D02*
X0028575D01*
Y00534988D01*
X00286137D01*
X0028848Y00537331D01*
Y00537718D01*
D02*
G37*
G36*
X0028321D02*
X0028048D01*
Y00537331D01*
X00282823Y00534988D01*
X0028321D01*
Y00537718D01*
D02*
G37*
G36*
X00269684Y00536702D02*
X00266954D01*
Y00533972D01*
X00267341D01*
X00269684Y00536315D01*
Y00536702D01*
D02*
G37*
G36*
X00264414D02*
X00261684D01*
Y00536315D01*
X00264027Y00533972D01*
X00264414D01*
Y00536702D01*
D02*
G37*
G36*
X00562364Y0053848D02*
X0055499D01*
Y00532606D01*
X0056047D01*
X00561809Y00533161D01*
X00562364Y005345D01*
Y0053848D01*
D02*
G37*
G36*
X0055245D02*
X00545076D01*
Y005345D01*
X00545631Y00533161D01*
X0054697Y00532606D01*
X0055245D01*
Y0053848D01*
D02*
G37*
G36*
X00538512Y0053975D02*
X00532638D01*
Y00532376D01*
X00536618D01*
X00537957Y00532931D01*
X00538512Y0053427D01*
Y0053975D01*
D02*
G37*
G36*
X00610825Y00534724D02*
X00610438D01*
Y00531994D01*
X00613168D01*
Y00532381D01*
X00610825Y00534724D01*
D02*
G37*
G36*
X00607898D02*
X00607511D01*
X00605168Y00532381D01*
Y00531994D01*
X00607898D01*
Y00534724D01*
D02*
G37*
G36*
X00660025Y00534606D02*
X00659638D01*
Y00531876D01*
X00662368D01*
Y00532263D01*
X00660025Y00534606D01*
D02*
G37*
G36*
X00657098D02*
X00656711D01*
X00654368Y00532263D01*
Y00531876D01*
X00657098D01*
Y00534606D01*
D02*
G37*
G36*
X00643007D02*
X0064262D01*
Y00531876D01*
X0064535D01*
Y00532263D01*
X00643007Y00534606D01*
D02*
G37*
G36*
X0064008D02*
X00639693D01*
X0063735Y00532263D01*
Y00531876D01*
X0064008D01*
Y00534606D01*
D02*
G37*
G36*
X00626751D02*
X00626364D01*
Y00531876D01*
X00629094D01*
Y00532263D01*
X00626751Y00534606D01*
D02*
G37*
G36*
X00623824D02*
X00623437D01*
X00621094Y00532263D01*
Y00531876D01*
X00623824D01*
Y00534606D01*
D02*
G37*
G36*
X00613168Y00529454D02*
X00610438D01*
Y00526724D01*
X00610825D01*
X00613168Y00529067D01*
Y00529454D01*
D02*
G37*
G36*
X00607898D02*
X00605168D01*
Y00529067D01*
X00607511Y00526724D01*
X00607898D01*
Y00529454D01*
D02*
G37*
G36*
X00662368Y00529336D02*
X00659638D01*
Y00526606D01*
X00660025D01*
X00662368Y00528949D01*
Y00529336D01*
D02*
G37*
G36*
X00657098D02*
X00654368D01*
Y00528949D01*
X00656711Y00526606D01*
X00657098D01*
Y00529336D01*
D02*
G37*
G36*
X0064535D02*
X0064262D01*
Y00526606D01*
X00643007D01*
X0064535Y00528949D01*
Y00529336D01*
D02*
G37*
G36*
X0064008D02*
X0063735D01*
Y00528949D01*
X00639693Y00526606D01*
X0064008D01*
Y00529336D01*
D02*
G37*
G36*
X00629094D02*
X00626364D01*
Y00526606D01*
X00626751D01*
X00629094Y00528949D01*
Y00529336D01*
D02*
G37*
G36*
X00623824D02*
X00621094D01*
Y00528949D01*
X00623437Y00526606D01*
X00623824D01*
Y00529336D01*
D02*
G37*
G36*
X00565791Y00528764D02*
X00565404D01*
Y00526034D01*
X00568134D01*
Y00526421D01*
X00565791Y00528764D01*
D02*
G37*
G36*
X00562864D02*
X00562477D01*
X00560134Y00526421D01*
Y00526034D01*
X00562864D01*
Y00528764D01*
D02*
G37*
G36*
X00551059D02*
X00550672D01*
Y00526034D01*
X00553402D01*
Y00526421D01*
X00551059Y00528764D01*
D02*
G37*
G36*
X00548132D02*
X00547745D01*
X00545402Y00526421D01*
Y00526034D01*
X00548132D01*
Y00528764D01*
D02*
G37*
G36*
X00322928Y0053467D02*
X00314198D01*
Y0052594D01*
X00322928D01*
Y0053467D01*
D02*
G37*
G36*
X00311658D02*
X00302928D01*
Y0052594D01*
X00311658D01*
Y0053467D01*
D02*
G37*
G36*
X00568134Y00523494D02*
X00565404D01*
Y00520764D01*
X00565791D01*
X00568134Y00523107D01*
Y00523494D01*
D02*
G37*
G36*
X00562864D02*
X00560134D01*
Y00523107D01*
X00562477Y00520764D01*
X00562864D01*
Y00523494D01*
D02*
G37*
G36*
X00553402D02*
X00550672D01*
Y00520764D01*
X00551059D01*
X00553402Y00523107D01*
Y00523494D01*
D02*
G37*
G36*
X00548132D02*
X00545402D01*
Y00523107D01*
X00547745Y00520764D01*
X00548132D01*
Y00523494D01*
D02*
G37*
G36*
X00536618Y00527566D02*
X00532638D01*
Y00520192D01*
X00538512D01*
Y00525672D01*
X00537957Y00527011D01*
X00536618Y00527566D01*
D02*
G37*
G36*
X00414153Y00522922D02*
X00413766D01*
Y00520192D01*
X00416496D01*
Y00520579D01*
X00414153Y00522922D01*
D02*
G37*
G36*
X00411226D02*
X00410839D01*
X00408496Y00520579D01*
Y00520192D01*
X00411226D01*
Y00522922D01*
D02*
G37*
G36*
X00458349Y00522414D02*
X00457962D01*
Y00519684D01*
X00460692D01*
Y00520071D01*
X00458349Y00522414D01*
D02*
G37*
G36*
X00455422D02*
X00455035D01*
X00452692Y00520071D01*
Y00519684D01*
X00455422D01*
Y00522414D01*
D02*
G37*
G36*
X00443617D02*
X0044323D01*
Y00519684D01*
X0044596D01*
Y00520071D01*
X00443617Y00522414D01*
D02*
G37*
G36*
X0044069D02*
X00440303D01*
X0043796Y00520071D01*
Y00519684D01*
X0044069D01*
Y00522414D01*
D02*
G37*
G36*
X00430155D02*
X00429768D01*
Y00519684D01*
X00432498D01*
Y00520071D01*
X00430155Y00522414D01*
D02*
G37*
G36*
X00427228D02*
X00426841D01*
X00424498Y00520071D01*
Y00519684D01*
X00427228D01*
Y00522414D01*
D02*
G37*
G36*
X00489193Y0052221D02*
X00488806D01*
Y0051948D01*
X00491536D01*
Y00519867D01*
X00489193Y0052221D01*
D02*
G37*
G36*
X00486266D02*
X00485879D01*
X00483536Y00519867D01*
Y0051948D01*
X00486266D01*
Y0052221D01*
D02*
G37*
G36*
X00474461D02*
X00474074D01*
Y0051948D01*
X00476804D01*
Y00519867D01*
X00474461Y0052221D01*
D02*
G37*
G36*
X00471534D02*
X00471147D01*
X00468804Y00519867D01*
Y0051948D01*
X00471534D01*
Y0052221D01*
D02*
G37*
G36*
X00643007Y00521144D02*
X0064262D01*
Y00518414D01*
X0064535D01*
Y00518801D01*
X00643007Y00521144D01*
D02*
G37*
G36*
X0064008D02*
X00639693D01*
X0063735Y00518801D01*
Y00518414D01*
X0064008D01*
Y00521144D01*
D02*
G37*
G36*
X00610825Y00521008D02*
X00610438D01*
Y00518278D01*
X00613168D01*
Y00518665D01*
X00610825Y00521008D01*
D02*
G37*
G36*
X00607898D02*
X00607511D01*
X00605168Y00518665D01*
Y00518278D01*
X00607898D01*
Y00521008D01*
D02*
G37*
G36*
X00626751Y0052089D02*
X00626364D01*
Y0051816D01*
X00629094D01*
Y00518547D01*
X00626751Y0052089D01*
D02*
G37*
G36*
X00623824D02*
X00623437D01*
X00621094Y00518547D01*
Y0051816D01*
X00623824D01*
Y0052089D01*
D02*
G37*
G36*
X00660025Y00520382D02*
X00659638D01*
Y00517652D01*
X00662368D01*
Y00518039D01*
X00660025Y00520382D01*
D02*
G37*
G36*
X00657098D02*
X00656711D01*
X00654368Y00518039D01*
Y00517652D01*
X00657098D01*
Y00520382D01*
D02*
G37*
G36*
X00416496Y00517652D02*
X00413766D01*
Y00514922D01*
X00414153D01*
X00416496Y00517265D01*
Y00517652D01*
D02*
G37*
G36*
X00411226D02*
X00408496D01*
Y00517265D01*
X00410839Y00514922D01*
X00411226D01*
Y00517652D01*
D02*
G37*
G36*
X00460692Y00517144D02*
X00457962D01*
Y00514414D01*
X00458349D01*
X00460692Y00516757D01*
Y00517144D01*
D02*
G37*
G36*
X00455422D02*
X00452692D01*
Y00516757D01*
X00455035Y00514414D01*
X00455422D01*
Y00517144D01*
D02*
G37*
G36*
X0044596D02*
X0044323D01*
Y00514414D01*
X00443617D01*
X0044596Y00516757D01*
Y00517144D01*
D02*
G37*
G36*
X0044069D02*
X0043796D01*
Y00516757D01*
X00440303Y00514414D01*
X0044069D01*
Y00517144D01*
D02*
G37*
G36*
X00432498D02*
X00429768D01*
Y00514414D01*
X00430155D01*
X00432498Y00516757D01*
Y00517144D01*
D02*
G37*
G36*
X00427228D02*
X00424498D01*
Y00516757D01*
X00426841Y00514414D01*
X00427228D01*
Y00517144D01*
D02*
G37*
G36*
X00565791Y0051708D02*
X00565404D01*
Y0051435D01*
X00568134D01*
Y00514737D01*
X00565791Y0051708D01*
D02*
G37*
G36*
X00562864D02*
X00562477D01*
X00560134Y00514737D01*
Y0051435D01*
X00562864D01*
Y0051708D01*
D02*
G37*
G36*
X00550805D02*
X00550418D01*
Y0051435D01*
X00553148D01*
Y00514737D01*
X00550805Y0051708D01*
D02*
G37*
G36*
X00547878D02*
X00547491D01*
X00545148Y00514737D01*
Y0051435D01*
X00547878D01*
Y0051708D01*
D02*
G37*
G36*
X00491536Y0051694D02*
X00488806D01*
Y0051421D01*
X00489193D01*
X00491536Y00516553D01*
Y0051694D01*
D02*
G37*
G36*
X00486266D02*
X00483536D01*
Y00516553D01*
X00485879Y0051421D01*
X00486266D01*
Y0051694D01*
D02*
G37*
G36*
X00476804D02*
X00474074D01*
Y0051421D01*
X00474461D01*
X00476804Y00516553D01*
Y0051694D01*
D02*
G37*
G36*
X00471534D02*
X00468804D01*
Y00516553D01*
X00471147Y0051421D01*
X00471534D01*
Y0051694D01*
D02*
G37*
G36*
X0064535Y00515874D02*
X0064262D01*
Y00513144D01*
X00643007D01*
X0064535Y00515487D01*
Y00515874D01*
D02*
G37*
G36*
X0064008D02*
X0063735D01*
Y00515487D01*
X00639693Y00513144D01*
X0064008D01*
Y00515874D01*
D02*
G37*
G36*
X00613168Y00515738D02*
X00610438D01*
Y00513008D01*
X00610825D01*
X00613168Y00515351D01*
Y00515738D01*
D02*
G37*
G36*
X00607898D02*
X00605168D01*
Y00515351D01*
X00607511Y00513008D01*
X00607898D01*
Y00515738D01*
D02*
G37*
G36*
X00629094Y0051562D02*
X00626364D01*
Y0051289D01*
X00626751D01*
X00629094Y00515233D01*
Y0051562D01*
D02*
G37*
G36*
X00623824D02*
X00621094D01*
Y00515233D01*
X00623437Y0051289D01*
X00623824D01*
Y0051562D01*
D02*
G37*
G36*
X00662368Y00515112D02*
X00659638D01*
Y00512382D01*
X00660025D01*
X00662368Y00514725D01*
Y00515112D01*
D02*
G37*
G36*
X00657098D02*
X00654368D01*
Y00514725D01*
X00656711Y00512382D01*
X00657098D01*
Y00515112D01*
D02*
G37*
G36*
X00318262Y00516509D02*
Y00510794D01*
X00323342D01*
Y00516509D01*
X00318262D01*
D02*
G37*
G36*
X00267849Y00513016D02*
X00267462D01*
Y00510286D01*
X00270192D01*
Y00510673D01*
X00267849Y00513016D01*
D02*
G37*
G36*
X00264922D02*
X00264535D01*
X00262192Y00510673D01*
Y00510286D01*
X00264922D01*
Y00513016D01*
D02*
G37*
G36*
X00538512Y00517652D02*
X00532638D01*
Y00510278D01*
X00536618D01*
X00537957Y00510833D01*
X00538512Y00512172D01*
Y00517652D01*
D02*
G37*
G36*
X00568134Y0051181D02*
X00565404D01*
Y0050908D01*
X00565791D01*
X00568134Y00511423D01*
Y0051181D01*
D02*
G37*
G36*
X00562864D02*
X00560134D01*
Y00511423D01*
X00562477Y0050908D01*
X00562864D01*
Y0051181D01*
D02*
G37*
G36*
X00553148D02*
X00550418D01*
Y0050908D01*
X00550805D01*
X00553148Y00511423D01*
Y0051181D01*
D02*
G37*
G36*
X00547878D02*
X00545148D01*
Y00511423D01*
X00547491Y0050908D01*
X00547878D01*
Y0051181D01*
D02*
G37*
G36*
X00414407Y00507936D02*
X0041402D01*
Y00505206D01*
X0041675D01*
Y00505593D01*
X00414407Y00507936D01*
D02*
G37*
G36*
X0041148D02*
X00411093D01*
X0040875Y00505593D01*
Y00505206D01*
X0041148D01*
Y00507936D01*
D02*
G37*
G36*
X00270192Y00507746D02*
X00267462D01*
Y00505016D01*
X00267849D01*
X00270192Y00507359D01*
Y00507746D01*
D02*
G37*
G36*
X00264922D02*
X00262192D01*
Y00507359D01*
X00264535Y00505016D01*
X00264922D01*
Y00507746D01*
D02*
G37*
G36*
X00458603Y00507428D02*
X00458216D01*
Y00504698D01*
X00460946D01*
Y00505085D01*
X00458603Y00507428D01*
D02*
G37*
G36*
X00455676D02*
X00455289D01*
X00452946Y00505085D01*
Y00504698D01*
X00455676D01*
Y00507428D01*
D02*
G37*
G36*
X00443871D02*
X00443484D01*
Y00504698D01*
X00446214D01*
Y00505085D01*
X00443871Y00507428D01*
D02*
G37*
G36*
X00440944D02*
X00440557D01*
X00438214Y00505085D01*
Y00504698D01*
X00440944D01*
Y00507428D01*
D02*
G37*
G36*
X00430155D02*
X00429768D01*
Y00504698D01*
X00432498D01*
Y00505085D01*
X00430155Y00507428D01*
D02*
G37*
G36*
X00427228D02*
X00426841D01*
X00424498Y00505085D01*
Y00504698D01*
X00427228D01*
Y00507428D01*
D02*
G37*
G36*
X00489447Y00507224D02*
X0048906D01*
Y00504494D01*
X0049179D01*
Y00504881D01*
X00489447Y00507224D01*
D02*
G37*
G36*
X0048652D02*
X00486133D01*
X0048379Y00504881D01*
Y00504494D01*
X0048652D01*
Y00507224D01*
D02*
G37*
G36*
X00474715D02*
X00474328D01*
Y00504494D01*
X00477058D01*
Y00504881D01*
X00474715Y00507224D01*
D02*
G37*
G36*
X00471788D02*
X00471401D01*
X00469058Y00504881D01*
Y00504494D01*
X00471788D01*
Y00507224D01*
D02*
G37*
G36*
X00643007Y00506412D02*
X0064262D01*
Y00503682D01*
X0064535D01*
Y00504069D01*
X00643007Y00506412D01*
D02*
G37*
G36*
X0064008D02*
X00639693D01*
X0063735Y00504069D01*
Y00503682D01*
X0064008D01*
Y00506412D01*
D02*
G37*
G36*
X00610825Y00506276D02*
X00610438D01*
Y00503546D01*
X00613168D01*
Y00503933D01*
X00610825Y00506276D01*
D02*
G37*
G36*
X00607898D02*
X00607511D01*
X00605168Y00503933D01*
Y00503546D01*
X00607898D01*
Y00506276D01*
D02*
G37*
G36*
X00626751Y00506158D02*
X00626364D01*
Y00503428D01*
X00629094D01*
Y00503815D01*
X00626751Y00506158D01*
D02*
G37*
G36*
X00623824D02*
X00623437D01*
X00621094Y00503815D01*
Y00503428D01*
X00623824D01*
Y00506158D01*
D02*
G37*
G36*
X00660025Y0050565D02*
X00659638D01*
Y0050292D01*
X00662368D01*
Y00503307D01*
X00660025Y0050565D01*
D02*
G37*
G36*
X00657098D02*
X00656711D01*
X00654368Y00503307D01*
Y0050292D01*
X00657098D01*
Y0050565D01*
D02*
G37*
G36*
X00323342Y00508254D02*
X00318262D01*
Y00502539D01*
X00323342D01*
Y00508254D01*
D02*
G37*
G36*
X00565791Y0050438D02*
X00565404D01*
Y0050165D01*
X00568134D01*
Y00502037D01*
X00565791Y0050438D01*
D02*
G37*
G36*
X00562864D02*
X00562477D01*
X00560134Y00502037D01*
Y0050165D01*
X00562864D01*
Y0050438D01*
D02*
G37*
G36*
X00551059D02*
X00550672D01*
Y0050165D01*
X00553402D01*
Y00502037D01*
X00551059Y0050438D01*
D02*
G37*
G36*
X00548132D02*
X00547745D01*
X00545402Y00502037D01*
Y0050165D01*
X00548132D01*
Y0050438D01*
D02*
G37*
G36*
X00533279D02*
X00532892D01*
Y0050165D01*
X00535622D01*
Y00502037D01*
X00533279Y0050438D01*
D02*
G37*
G36*
X00530352D02*
X00529965D01*
X00527622Y00502037D01*
Y0050165D01*
X00530352D01*
Y0050438D01*
D02*
G37*
G36*
X0064535Y00501142D02*
X0064262D01*
Y00498412D01*
X00643007D01*
X0064535Y00500755D01*
Y00501142D01*
D02*
G37*
G36*
X0064008D02*
X0063735D01*
Y00500755D01*
X00639693Y00498412D01*
X0064008D01*
Y00501142D01*
D02*
G37*
G36*
X00613168Y00501006D02*
X00610438D01*
Y00498276D01*
X00610825D01*
X00613168Y00500619D01*
Y00501006D01*
D02*
G37*
G36*
X00607898D02*
X00605168D01*
Y00500619D01*
X00607511Y00498276D01*
X00607898D01*
Y00501006D01*
D02*
G37*
G36*
X00629094Y00500888D02*
X00626364D01*
Y00498158D01*
X00626751D01*
X00629094Y00500501D01*
Y00500888D01*
D02*
G37*
G36*
X00623824D02*
X00621094D01*
Y00500501D01*
X00623437Y00498158D01*
X00623824D01*
Y00500888D01*
D02*
G37*
G36*
X00662368Y0050038D02*
X00659638D01*
Y0049765D01*
X00660025D01*
X00662368Y00499993D01*
Y0050038D01*
D02*
G37*
G36*
X00657098D02*
X00654368D01*
Y00499993D01*
X00656711Y0049765D01*
X00657098D01*
Y0050038D01*
D02*
G37*
G36*
X00568134Y0049911D02*
X00565404D01*
Y0049638D01*
X00565791D01*
X00568134Y00498723D01*
Y0049911D01*
D02*
G37*
G36*
X00562864D02*
X00560134D01*
Y00498723D01*
X00562477Y0049638D01*
X00562864D01*
Y0049911D01*
D02*
G37*
G36*
X00553402D02*
X00550672D01*
Y0049638D01*
X00551059D01*
X00553402Y00498723D01*
Y0049911D01*
D02*
G37*
G36*
X00548132D02*
X00545402D01*
Y00498723D01*
X00547745Y0049638D01*
X00548132D01*
Y0049911D01*
D02*
G37*
G36*
X00535622D02*
X00532892D01*
Y0049638D01*
X00533279D01*
X00535622Y00498723D01*
Y0049911D01*
D02*
G37*
G36*
X00530352D02*
X00527622D01*
Y00498723D01*
X00529965Y0049638D01*
X00530352D01*
Y0049911D01*
D02*
G37*
G36*
X00565791Y00490664D02*
X00565404D01*
Y00487934D01*
X00568134D01*
Y00488321D01*
X00565791Y00490664D01*
D02*
G37*
G36*
X00562864D02*
X00562477D01*
X00560134Y00488321D01*
Y00487934D01*
X00562864D01*
Y00490664D01*
D02*
G37*
G36*
X00551059D02*
X00550672D01*
Y00487934D01*
X00553402D01*
Y00488321D01*
X00551059Y00490664D01*
D02*
G37*
G36*
X00548132D02*
X00547745D01*
X00545402Y00488321D01*
Y00487934D01*
X00548132D01*
Y00490664D01*
D02*
G37*
G36*
X00533279D02*
X00532892D01*
Y00487934D01*
X00535622D01*
Y00488321D01*
X00533279Y00490664D01*
D02*
G37*
G36*
X00530352D02*
X00529965D01*
X00527622Y00488321D01*
Y00487934D01*
X00530352D01*
Y00490664D01*
D02*
G37*
G36*
X00267849D02*
X00267462D01*
Y00487934D01*
X00270192D01*
Y00488321D01*
X00267849Y00490664D01*
D02*
G37*
G36*
X00264922D02*
X00264535D01*
X00262192Y00488321D01*
Y00487934D01*
X00264922D01*
Y00490664D01*
D02*
G37*
G36*
X00610317Y00490528D02*
X0060993D01*
Y00487798D01*
X0061266D01*
Y00488185D01*
X00610317Y00490528D01*
D02*
G37*
G36*
X0060739D02*
X00607003D01*
X0060466Y00488185D01*
Y00487798D01*
X0060739D01*
Y00490528D01*
D02*
G37*
G36*
X00659517Y0049041D02*
X0065913D01*
Y0048768D01*
X0066186D01*
Y00488067D01*
X00659517Y0049041D01*
D02*
G37*
G36*
X0065659D02*
X00656203D01*
X0065386Y00488067D01*
Y0048768D01*
X0065659D01*
Y0049041D01*
D02*
G37*
G36*
X00642499D02*
X00642112D01*
Y0048768D01*
X00644842D01*
Y00488067D01*
X00642499Y0049041D01*
D02*
G37*
G36*
X00639572D02*
X00639185D01*
X00636842Y00488067D01*
Y0048768D01*
X00639572D01*
Y0049041D01*
D02*
G37*
G36*
X00626243D02*
X00625856D01*
Y0048768D01*
X00628586D01*
Y00488067D01*
X00626243Y0049041D01*
D02*
G37*
G36*
X00623316D02*
X00622929D01*
X00620586Y00488067D01*
Y0048768D01*
X00623316D01*
Y0049041D01*
D02*
G37*
G36*
X00283089D02*
X00282702D01*
Y0048768D01*
X00285432D01*
Y00488067D01*
X00283089Y0049041D01*
D02*
G37*
G36*
X00280162D02*
X00279775D01*
X00277432Y00488067D01*
Y0048768D01*
X00280162D01*
Y0049041D01*
D02*
G37*
G36*
X00568134Y00485394D02*
X00565404D01*
Y00482664D01*
X00565791D01*
X00568134Y00485007D01*
Y00485394D01*
D02*
G37*
G36*
X00562864D02*
X00560134D01*
Y00485007D01*
X00562477Y00482664D01*
X00562864D01*
Y00485394D01*
D02*
G37*
G36*
X00553402D02*
X00550672D01*
Y00482664D01*
X00551059D01*
X00553402Y00485007D01*
Y00485394D01*
D02*
G37*
G36*
X00548132D02*
X00545402D01*
Y00485007D01*
X00547745Y00482664D01*
X00548132D01*
Y00485394D01*
D02*
G37*
G36*
X00535622D02*
X00532892D01*
Y00482664D01*
X00533279D01*
X00535622Y00485007D01*
Y00485394D01*
D02*
G37*
G36*
X00530352D02*
X00527622D01*
Y00485007D01*
X00529965Y00482664D01*
X00530352D01*
Y00485394D01*
D02*
G37*
G36*
X00270192D02*
X00267462D01*
Y00482664D01*
X00267849D01*
X00270192Y00485007D01*
Y00485394D01*
D02*
G37*
G36*
X00264922D02*
X00262192D01*
Y00485007D01*
X00264535Y00482664D01*
X00264922D01*
Y00485394D01*
D02*
G37*
G36*
X0061266Y00485258D02*
X0060993D01*
Y00482528D01*
X00610317D01*
X0061266Y00484871D01*
Y00485258D01*
D02*
G37*
G36*
X0060739D02*
X0060466D01*
Y00484871D01*
X00607003Y00482528D01*
X0060739D01*
Y00485258D01*
D02*
G37*
G36*
X0066186Y0048514D02*
X0065913D01*
Y0048241D01*
X00659517D01*
X0066186Y00484753D01*
Y0048514D01*
D02*
G37*
G36*
X0065659D02*
X0065386D01*
Y00484753D01*
X00656203Y0048241D01*
X0065659D01*
Y0048514D01*
D02*
G37*
G36*
X00644842D02*
X00642112D01*
Y0048241D01*
X00642499D01*
X00644842Y00484753D01*
Y0048514D01*
D02*
G37*
G36*
X00639572D02*
X00636842D01*
Y00484753D01*
X00639185Y0048241D01*
X00639572D01*
Y0048514D01*
D02*
G37*
G36*
X00628586D02*
X00625856D01*
Y0048241D01*
X00626243D01*
X00628586Y00484753D01*
Y0048514D01*
D02*
G37*
G36*
X00623316D02*
X00620586D01*
Y00484753D01*
X00622929Y0048241D01*
X00623316D01*
Y0048514D01*
D02*
G37*
G36*
X00285432D02*
X00282702D01*
Y0048241D01*
X00283089D01*
X00285432Y00484753D01*
Y0048514D01*
D02*
G37*
G36*
X00280162D02*
X00277432D01*
Y00484753D01*
X00279775Y0048241D01*
X00280162D01*
Y0048514D01*
D02*
G37*
G36*
X00565537Y00477202D02*
X0056515D01*
Y00474472D01*
X0056788D01*
Y00474859D01*
X00565537Y00477202D01*
D02*
G37*
G36*
X0056261D02*
X00562223D01*
X0055988Y00474859D01*
Y00474472D01*
X0056261D01*
Y00477202D01*
D02*
G37*
G36*
X00550805D02*
X00550418D01*
Y00474472D01*
X00553148D01*
Y00474859D01*
X00550805Y00477202D01*
D02*
G37*
G36*
X00547878D02*
X00547491D01*
X00545148Y00474859D01*
Y00474472D01*
X00547878D01*
Y00477202D01*
D02*
G37*
G36*
X00533025D02*
X00532638D01*
Y00474472D01*
X00535368D01*
Y00474859D01*
X00533025Y00477202D01*
D02*
G37*
G36*
X00530098D02*
X00529711D01*
X00527368Y00474859D01*
Y00474472D01*
X00530098D01*
Y00477202D01*
D02*
G37*
G36*
X00642499Y00476948D02*
X00642112D01*
Y00474218D01*
X00644842D01*
Y00474605D01*
X00642499Y00476948D01*
D02*
G37*
G36*
X00639572D02*
X00639185D01*
X00636842Y00474605D01*
Y00474218D01*
X00639572D01*
Y00476948D01*
D02*
G37*
G36*
X00626243Y00476694D02*
X00625856D01*
Y00473964D01*
X00628586D01*
Y00474351D01*
X00626243Y00476694D01*
D02*
G37*
G36*
X00623316D02*
X00622929D01*
X00620586Y00474351D01*
Y00473964D01*
X00623316D01*
Y00476694D01*
D02*
G37*
G36*
X00659517Y00476186D02*
X0065913D01*
Y00473456D01*
X0066186D01*
Y00473843D01*
X00659517Y00476186D01*
D02*
G37*
G36*
X0065659D02*
X00656203D01*
X0065386Y00473843D01*
Y00473456D01*
X0065659D01*
Y00476186D01*
D02*
G37*
G36*
X0056788Y00471932D02*
X0056515D01*
Y00469202D01*
X00565537D01*
X0056788Y00471545D01*
Y00471932D01*
D02*
G37*
G36*
X0056261D02*
X0055988D01*
Y00471545D01*
X00562223Y00469202D01*
X0056261D01*
Y00471932D01*
D02*
G37*
G36*
X00553148D02*
X00550418D01*
Y00469202D01*
X00550805D01*
X00553148Y00471545D01*
Y00471932D01*
D02*
G37*
G36*
X00547878D02*
X00545148D01*
Y00471545D01*
X00547491Y00469202D01*
X00547878D01*
Y00471932D01*
D02*
G37*
G36*
X00535368D02*
X00532638D01*
Y00469202D01*
X00533025D01*
X00535368Y00471545D01*
Y00471932D01*
D02*
G37*
G36*
X00530098D02*
X00527368D01*
Y00471545D01*
X00529711Y00469202D01*
X00530098D01*
Y00471932D01*
D02*
G37*
G36*
X00644842Y00471678D02*
X00642112D01*
Y00468948D01*
X00642499D01*
X00644842Y00471291D01*
Y00471678D01*
D02*
G37*
G36*
X00639572D02*
X00636842D01*
Y00471291D01*
X00639185Y00468948D01*
X00639572D01*
Y00471678D01*
D02*
G37*
G36*
X00628586Y00471424D02*
X00625856D01*
Y00468694D01*
X00626243D01*
X00628586Y00471037D01*
Y00471424D01*
D02*
G37*
G36*
X00623316D02*
X00620586D01*
Y00471037D01*
X00622929Y00468694D01*
X00623316D01*
Y00471424D01*
D02*
G37*
G36*
X0066186Y00470916D02*
X0065913D01*
Y00468186D01*
X00659517D01*
X0066186Y00470529D01*
Y00470916D01*
D02*
G37*
G36*
X0065659D02*
X0065386D01*
Y00470529D01*
X00656203Y00468186D01*
X0065659D01*
Y00470916D01*
D02*
G37*
G36*
X00267849Y0046755D02*
X00267462D01*
Y0046482D01*
X00270192D01*
Y00465207D01*
X00267849Y0046755D01*
D02*
G37*
G36*
X00264922D02*
X00264535D01*
X00262192Y00465207D01*
Y0046482D01*
X00264922D01*
Y0046755D01*
D02*
G37*
G36*
X00283089Y00467296D02*
X00282702D01*
Y00464566D01*
X00285432D01*
Y00464953D01*
X00283089Y00467296D01*
D02*
G37*
G36*
X00280162D02*
X00279775D01*
X00277432Y00464953D01*
Y00464566D01*
X00280162D01*
Y00467296D01*
D02*
G37*
G36*
X00303022Y00519049D02*
X00285242D01*
Y00499999D01*
X00292233D01*
Y00495618D01*
X00291443Y00495291D01*
X00290242Y0049239D01*
Y0047789D01*
X00291443Y00474989D01*
X00293286Y00474226D01*
X0029278Y00471686D01*
X00291168D01*
X00289829Y00471131D01*
X00289274Y00469792D01*
Y00464312D01*
X00303562D01*
Y00469792D01*
X00303007Y00471131D01*
X00302285Y00471431D01*
X00302266Y00471534D01*
X00302436Y00474033D01*
X00304745Y00474989D01*
X00305946Y0047789D01*
Y0049239D01*
X00304745Y00495291D01*
X00303143Y00495954D01*
Y00500126D01*
X00309626D01*
Y0050042D01*
X00310642Y00502539D01*
X00312166Y00502539D01*
X00315722D01*
Y00509524D01*
Y00516509D01*
X00312166D01*
X00310642Y00516509D01*
X00309626Y00518628D01*
Y00518922D01*
X00303022D01*
Y00519049D01*
D02*
G37*
G36*
X00270192Y0046228D02*
X00267462D01*
Y0045955D01*
X00267849D01*
X00270192Y00461893D01*
Y0046228D01*
D02*
G37*
G36*
X00264922D02*
X00262192D01*
Y00461893D01*
X00264535Y0045955D01*
X00264922D01*
Y0046228D01*
D02*
G37*
G36*
X00642499Y00462216D02*
X00642112D01*
Y00459486D01*
X00644842D01*
Y00459873D01*
X00642499Y00462216D01*
D02*
G37*
G36*
X00639572D02*
X00639185D01*
X00636842Y00459873D01*
Y00459486D01*
X00639572D01*
Y00462216D01*
D02*
G37*
G36*
X00285432Y00462026D02*
X00282702D01*
Y00459296D01*
X00283089D01*
X00285432Y00461639D01*
Y00462026D01*
D02*
G37*
G36*
X00280162D02*
X00277432D01*
Y00461639D01*
X00279775Y00459296D01*
X00280162D01*
Y00462026D01*
D02*
G37*
G36*
X00626243Y00461962D02*
X00625856D01*
Y00459232D01*
X00628586D01*
Y00459619D01*
X00626243Y00461962D01*
D02*
G37*
G36*
X00623316D02*
X00622929D01*
X00620586Y00459619D01*
Y00459232D01*
X00623316D01*
Y00461962D01*
D02*
G37*
G36*
X00659517Y00461454D02*
X0065913D01*
Y00458724D01*
X0066186D01*
Y00459111D01*
X00659517Y00461454D01*
D02*
G37*
G36*
X0065659D02*
X00656203D01*
X0065386Y00459111D01*
Y00458724D01*
X0065659D01*
Y00461454D01*
D02*
G37*
G36*
X00613289Y00460946D02*
X00612902D01*
Y00458216D01*
X00615632D01*
Y00458603D01*
X00613289Y00460946D01*
D02*
G37*
G36*
X00610362D02*
X00609975D01*
X00607632Y00458603D01*
Y00458216D01*
X00610362D01*
Y00460946D01*
D02*
G37*
G36*
X00303562Y00461772D02*
X00297688D01*
Y00454398D01*
X00301668D01*
X00303007Y00454953D01*
X00303562Y00456292D01*
Y00461772D01*
D02*
G37*
G36*
X00295148D02*
X00289274D01*
Y00456292D01*
X00289829Y00454953D01*
X00291168Y00454398D01*
X00295148D01*
Y00461772D01*
D02*
G37*
G36*
X00644842Y00456946D02*
X00642112D01*
Y00454216D01*
X00642499D01*
X00644842Y00456559D01*
Y00456946D01*
D02*
G37*
G36*
X00639572D02*
X00636842D01*
Y00456559D01*
X00639185Y00454216D01*
X00639572D01*
Y00456946D01*
D02*
G37*
G36*
X00628586Y00456692D02*
X00625856D01*
Y00453962D01*
X00626243D01*
X00628586Y00456305D01*
Y00456692D01*
D02*
G37*
G36*
X00623316D02*
X00620586D01*
Y00456305D01*
X00622929Y00453962D01*
X00623316D01*
Y00456692D01*
D02*
G37*
G36*
X0066186Y00456184D02*
X0065913D01*
Y00453454D01*
X00659517D01*
X0066186Y00455797D01*
Y00456184D01*
D02*
G37*
G36*
X0065659D02*
X0065386D01*
Y00455797D01*
X00656203Y00453454D01*
X0065659D01*
Y00456184D01*
D02*
G37*
G36*
X00615632Y00455676D02*
X00612902D01*
Y00452946D01*
X00613289D01*
X00615632Y00455289D01*
Y00455676D01*
D02*
G37*
G36*
X00610362D02*
X00607632D01*
Y00455289D01*
X00609975Y00452946D01*
X00610362D01*
Y00455676D01*
D02*
G37*
G36*
X00659009Y00446976D02*
X00658622D01*
Y00444246D01*
X00661352D01*
Y00444633D01*
X00659009Y00446976D01*
D02*
G37*
G36*
X00656082D02*
X00655695D01*
X00653352Y00444633D01*
Y00444246D01*
X00656082D01*
Y00446976D01*
D02*
G37*
G36*
X00641991D02*
X00641604D01*
Y00444246D01*
X00644334D01*
Y00444633D01*
X00641991Y00446976D01*
D02*
G37*
G36*
X00639064D02*
X00638677D01*
X00636334Y00444633D01*
Y00444246D01*
X00639064D01*
Y00446976D01*
D02*
G37*
G36*
X00625735D02*
X00625348D01*
Y00444246D01*
X00628078D01*
Y00444633D01*
X00625735Y00446976D01*
D02*
G37*
G36*
X00622808D02*
X00622421D01*
X00620078Y00444633D01*
Y00444246D01*
X00622808D01*
Y00446976D01*
D02*
G37*
G36*
X00612781Y00446468D02*
X00612394D01*
Y00443738D01*
X00615124D01*
Y00444125D01*
X00612781Y00446468D01*
D02*
G37*
G36*
X00609854D02*
X00609467D01*
X00607124Y00444125D01*
Y00443738D01*
X00609854D01*
Y00446468D01*
D02*
G37*
G36*
X00505248Y00465504D02*
X00497748D01*
X00494847Y00464303D01*
X00493646Y00461402D01*
Y00446902D01*
X00494847Y00444001D01*
X00497748Y004428D01*
X00503724D01*
X00504113Y00442249D01*
X00505308Y00440126D01*
X00504408Y00437952D01*
Y00423052D01*
X00505308Y00420878D01*
X00505517Y00420792D01*
X00505102Y00418706D01*
Y00404772D01*
X00528332D01*
Y00418252D01*
X00528052D01*
X00527547Y00420792D01*
X00527756Y00420878D01*
X00528656Y00423052D01*
Y0042762D01*
X00536301D01*
X00537219Y00425403D01*
X0054012Y00424202D01*
X0055462D01*
X00557521Y00425403D01*
X00558131Y00426876D01*
X00560587Y00427114D01*
X00562187Y00425514D01*
X00567605D01*
X00571436Y00429345D01*
Y00434763D01*
X00567605Y00438594D01*
X00566821D01*
X00566041Y00441134D01*
X00567309Y00441993D01*
X00569573Y00442223D01*
X00572474Y00441022D01*
X00579974D01*
X00582875Y00442223D01*
X00584076Y00445124D01*
Y00459624D01*
X00582875Y00462525D01*
X00579974Y00463726D01*
X00572474D01*
X00569573Y00462525D01*
X00567077Y00462271D01*
X00564176Y00463472D01*
X00556676D01*
X00553775Y00462271D01*
X00552574Y0045937D01*
Y0044487D01*
X00553578Y00442446D01*
X0055252Y00439906D01*
X00549332D01*
X00548274Y00442446D01*
X00549278Y0044487D01*
Y0045937D01*
X00548077Y00462271D01*
X00545176Y00463472D01*
X00537676D01*
X00534775Y00462271D01*
X00533574Y0045937D01*
Y00453301D01*
X0052251D01*
X00521538Y00455647D01*
X00521906Y00456015D01*
Y00461433D01*
X00518075Y00465264D01*
X00512657D01*
X00511031Y00463638D01*
X00508424D01*
X00508149Y00464303D01*
X00505248Y00465504D01*
D02*
G37*
G36*
X00301668Y0044781D02*
X00297688D01*
Y00440436D01*
X00303562D01*
Y00445916D01*
X00303007Y00447255D01*
X00301668Y0044781D01*
D02*
G37*
G36*
X00295148D02*
X00291168D01*
X00289829Y00447255D01*
X00289274Y00445916D01*
Y00440436D01*
X00295148D01*
Y0044781D01*
D02*
G37*
G36*
X00283089Y0044215D02*
X00282702D01*
Y0043942D01*
X00285432D01*
Y00439807D01*
X00283089Y0044215D01*
D02*
G37*
G36*
X00280162D02*
X00279775D01*
X00277432Y00439807D01*
Y0043942D01*
X00280162D01*
Y0044215D01*
D02*
G37*
G36*
X00661352Y00441706D02*
X00658622D01*
Y00438976D01*
X00659009D01*
X00661352Y00441319D01*
Y00441706D01*
D02*
G37*
G36*
X00656082D02*
X00653352D01*
Y00441319D01*
X00655695Y00438976D01*
X00656082D01*
Y00441706D01*
D02*
G37*
G36*
X00644334D02*
X00641604D01*
Y00438976D01*
X00641991D01*
X00644334Y00441319D01*
Y00441706D01*
D02*
G37*
G36*
X00639064D02*
X00636334D01*
Y00441319D01*
X00638677Y00438976D01*
X00639064D01*
Y00441706D01*
D02*
G37*
G36*
X00628078D02*
X00625348D01*
Y00438976D01*
X00625735D01*
X00628078Y00441319D01*
Y00441706D01*
D02*
G37*
G36*
X00622808D02*
X00620078D01*
Y00441319D01*
X00622421Y00438976D01*
X00622808D01*
Y00441706D01*
D02*
G37*
G36*
X00267849Y00441642D02*
X00267462D01*
Y00438912D01*
X00270192D01*
Y00439299D01*
X00267849Y00441642D01*
D02*
G37*
G36*
X00264922D02*
X00264535D01*
X00262192Y00439299D01*
Y00438912D01*
X00264922D01*
Y00441642D01*
D02*
G37*
G36*
X00615124Y00441198D02*
X00612394D01*
Y00438468D01*
X00612781D01*
X00615124Y00440811D01*
Y00441198D01*
D02*
G37*
G36*
X00609854D02*
X00607124D01*
Y00440811D01*
X00609467Y00438468D01*
X00609854D01*
Y00441198D01*
D02*
G37*
G36*
X00285432Y0043688D02*
X00282702D01*
Y0043415D01*
X00283089D01*
X00285432Y00436493D01*
Y0043688D01*
D02*
G37*
G36*
X00280162D02*
X00277432D01*
Y00436493D01*
X00279775Y0043415D01*
X00280162D01*
Y0043688D01*
D02*
G37*
G36*
X00270192Y00436372D02*
X00267462D01*
Y00433642D01*
X00267849D01*
X00270192Y00435985D01*
Y00436372D01*
D02*
G37*
G36*
X00264922D02*
X00262192D01*
Y00435985D01*
X00264535Y00433642D01*
X00264922D01*
Y00436372D01*
D02*
G37*
G36*
X00500182Y00438277D02*
X00498752D01*
Y00431772D01*
X00500507D01*
Y00437952D01*
X00500412Y00438182D01*
X00500182Y00438277D01*
D02*
G37*
G36*
X00496212D02*
X00494782D01*
X00494552Y00438182D01*
X00494457Y00437952D01*
Y00431772D01*
X00496212D01*
Y00438277D01*
D02*
G37*
G36*
X00303562Y00437896D02*
X00297688D01*
Y00430522D01*
X00301668D01*
X00303007Y00431077D01*
X00303562Y00432416D01*
Y00437896D01*
D02*
G37*
G36*
X00295148D02*
X00289274D01*
Y00432416D01*
X00289829Y00431077D01*
X00291168Y00430522D01*
X00295148D01*
Y00437896D01*
D02*
G37*
G36*
X00659009Y0043199D02*
X00658622D01*
Y0042926D01*
X00661352D01*
Y00429647D01*
X00659009Y0043199D01*
D02*
G37*
G36*
X00656082D02*
X00655695D01*
X00653352Y00429647D01*
Y0042926D01*
X00656082D01*
Y0043199D01*
D02*
G37*
G36*
X00641991D02*
X00641604D01*
Y0042926D01*
X00644334D01*
Y00429647D01*
X00641991Y0043199D01*
D02*
G37*
G36*
X00639064D02*
X00638677D01*
X00636334Y00429647D01*
Y0042926D01*
X00639064D01*
Y0043199D01*
D02*
G37*
G36*
X00625735D02*
X00625348D01*
Y0042926D01*
X00628078D01*
Y00429647D01*
X00625735Y0043199D01*
D02*
G37*
G36*
X00622808D02*
X00622421D01*
X00620078Y00429647D01*
Y0042926D01*
X00622808D01*
Y0043199D01*
D02*
G37*
G36*
X00614305Y00430974D02*
X00613918D01*
Y00428244D01*
X00616648D01*
Y00428631D01*
X00614305Y00430974D01*
D02*
G37*
G36*
X00611378D02*
X00610991D01*
X00608648Y00428631D01*
Y00428244D01*
X00611378D01*
Y00430974D01*
D02*
G37*
G36*
X00661352Y0042672D02*
X00658622D01*
Y0042399D01*
X00659009D01*
X00661352Y00426333D01*
Y0042672D01*
D02*
G37*
G36*
X00656082D02*
X00653352D01*
Y00426333D01*
X00655695Y0042399D01*
X00656082D01*
Y0042672D01*
D02*
G37*
G36*
X00644334D02*
X00641604D01*
Y0042399D01*
X00641991D01*
X00644334Y00426333D01*
Y0042672D01*
D02*
G37*
G36*
X00639064D02*
X00636334D01*
Y00426333D01*
X00638677Y0042399D01*
X00639064D01*
Y0042672D01*
D02*
G37*
G36*
X00628078D02*
X00625348D01*
Y0042399D01*
X00625735D01*
X00628078Y00426333D01*
Y0042672D01*
D02*
G37*
G36*
X00622808D02*
X00620078D01*
Y00426333D01*
X00622421Y0042399D01*
X00622808D01*
Y0042672D01*
D02*
G37*
G36*
X00616648Y00425704D02*
X00613918D01*
Y00422974D01*
X00614305D01*
X00616648Y00425317D01*
Y00425704D01*
D02*
G37*
G36*
X00611378D02*
X00608648D01*
Y00425317D01*
X00610991Y00422974D01*
X00611378D01*
Y00425704D01*
D02*
G37*
G36*
X00500507Y00429232D02*
X00498752D01*
Y00422727D01*
X00500182D01*
X00500412Y00422822D01*
X00500507Y00423052D01*
Y00429232D01*
D02*
G37*
G36*
X00496212D02*
X00494457D01*
Y00423052D01*
X00494552Y00422822D01*
X00494782Y00422727D01*
X00496212D01*
Y00429232D01*
D02*
G37*
G36*
X00300615Y00424116D02*
X00300228D01*
Y00421386D01*
X00302958D01*
Y00421773D01*
X00300615Y00424116D01*
D02*
G37*
G36*
X00297688D02*
X00297301D01*
X00294958Y00421773D01*
Y00421386D01*
X00297688D01*
Y00424116D01*
D02*
G37*
G36*
X00283597D02*
X0028321D01*
Y00421386D01*
X0028594D01*
Y00421773D01*
X00283597Y00424116D01*
D02*
G37*
G36*
X0028067D02*
X00280283D01*
X0027794Y00421773D01*
Y00421386D01*
X0028067D01*
Y00424116D01*
D02*
G37*
G36*
X00267341D02*
X00266954D01*
Y00421386D01*
X00269684D01*
Y00421773D01*
X00267341Y00424116D01*
D02*
G37*
G36*
X00264414D02*
X00264027D01*
X00261684Y00421773D01*
Y00421386D01*
X00264414D01*
Y00424116D01*
D02*
G37*
G36*
X00598974Y00463726D02*
X00591474D01*
X00588573Y00462525D01*
X00587372Y00459624D01*
Y00445124D01*
X00588573Y00442223D01*
X00589239Y00441948D01*
X00588734Y00439408D01*
X0058507D01*
X00581787Y00438047D01*
X00580427Y00434764D01*
Y00424264D01*
X00581787Y00420981D01*
X0058507Y00419621D01*
X0059857D01*
X00601853Y00420981D01*
X00603213Y00424264D01*
Y00434764D01*
X00601853Y00438047D01*
X00600679Y00438534D01*
Y00441728D01*
X00601875Y00442223D01*
X00603076Y00445124D01*
Y00459624D01*
X00601875Y00462525D01*
X00598974Y00463726D01*
D02*
G37*
G36*
X00302958Y00418846D02*
X00300228D01*
Y00416116D01*
X00300615D01*
X00302958Y00418459D01*
Y00418846D01*
D02*
G37*
G36*
X00297688D02*
X00294958D01*
Y00418459D01*
X00297301Y00416116D01*
X00297688D01*
Y00418846D01*
D02*
G37*
G36*
X0028594D02*
X0028321D01*
Y00416116D01*
X00283597D01*
X0028594Y00418459D01*
Y00418846D01*
D02*
G37*
G36*
X0028067D02*
X0027794D01*
Y00418459D01*
X00280283Y00416116D01*
X0028067D01*
Y00418846D01*
D02*
G37*
G36*
X00269684D02*
X00266954D01*
Y00416116D01*
X00267341D01*
X00269684Y00418459D01*
Y00418846D01*
D02*
G37*
G36*
X00264414D02*
X00261684D01*
Y00418459D01*
X00264027Y00416116D01*
X00264414D01*
Y00418846D01*
D02*
G37*
G36*
X00569347Y0041802D02*
X0056896D01*
Y0041529D01*
X0057169D01*
Y00415677D01*
X00569347Y0041802D01*
D02*
G37*
G36*
X0056642D02*
X00566033D01*
X0056369Y00415677D01*
Y0041529D01*
X0056642D01*
Y0041802D01*
D02*
G37*
G36*
X0055462Y00418157D02*
X0054864D01*
Y00414324D01*
X00555973D01*
Y00416804D01*
X00555577Y00417761D01*
X0055462Y00418157D01*
D02*
G37*
G36*
X005461D02*
X0054012D01*
X00539163Y00417761D01*
X00538767Y00416804D01*
Y00414324D01*
X005461D01*
Y00418157D01*
D02*
G37*
G36*
X00659009Y00415988D02*
X00658622D01*
Y00413258D01*
X00661352D01*
Y00413645D01*
X00659009Y00415988D01*
D02*
G37*
G36*
X00656082D02*
X00655695D01*
X00653352Y00413645D01*
Y00413258D01*
X00656082D01*
Y00415988D01*
D02*
G37*
G36*
X00641991D02*
X00641604D01*
Y00413258D01*
X00644334D01*
Y00413645D01*
X00641991Y00415988D01*
D02*
G37*
G36*
X00639064D02*
X00638677D01*
X00636334Y00413645D01*
Y00413258D01*
X00639064D01*
Y00415988D01*
D02*
G37*
G36*
X00625735D02*
X00625348D01*
Y00413258D01*
X00628078D01*
Y00413645D01*
X00625735Y00415988D01*
D02*
G37*
G36*
X00622808D02*
X00622421D01*
X00620078Y00413645D01*
Y00413258D01*
X00622808D01*
Y00415988D01*
D02*
G37*
G36*
X0057169Y0041275D02*
X0056896D01*
Y0041002D01*
X00569347D01*
X0057169Y00412363D01*
Y0041275D01*
D02*
G37*
G36*
X0056642D02*
X0056369D01*
Y00412363D01*
X00566033Y0041002D01*
X0056642D01*
Y0041275D01*
D02*
G37*
G36*
X00661352Y00410718D02*
X00658622D01*
Y00407988D01*
X00659009D01*
X00661352Y00410331D01*
Y00410718D01*
D02*
G37*
G36*
X00656082D02*
X00653352D01*
Y00410331D01*
X00655695Y00407988D01*
X00656082D01*
Y00410718D01*
D02*
G37*
G36*
X00644334D02*
X00641604D01*
Y00407988D01*
X00641991D01*
X00644334Y00410331D01*
Y00410718D01*
D02*
G37*
G36*
X00639064D02*
X00636334D01*
Y00410331D01*
X00638677Y00407988D01*
X00639064D01*
Y00410718D01*
D02*
G37*
G36*
X00628078D02*
X00625348D01*
Y00407988D01*
X00625735D01*
X00628078Y00410331D01*
Y00410718D01*
D02*
G37*
G36*
X00622808D02*
X00620078D01*
Y00410331D01*
X00622421Y00407988D01*
X00622808D01*
Y00410718D01*
D02*
G37*
G36*
X00555973Y00411784D02*
X0054864D01*
Y00407951D01*
X0055462D01*
X00555577Y00408347D01*
X00555973Y00409304D01*
Y00411784D01*
D02*
G37*
G36*
X005461D02*
X00538767D01*
Y00409304D01*
X00539163Y00408347D01*
X0054012Y00407951D01*
X005461D01*
Y00411784D01*
D02*
G37*
G36*
X0059857Y00413798D02*
X0059309D01*
Y00407924D01*
X00600464D01*
Y00411904D01*
X00599909Y00413243D01*
X0059857Y00413798D01*
D02*
G37*
G36*
X00611003Y00410654D02*
X00610616D01*
Y00407924D01*
X00613346D01*
Y00408311D01*
X00611003Y00410654D01*
D02*
G37*
G36*
X00608076D02*
X00607689D01*
X00605346Y00408311D01*
Y00407924D01*
X00608076D01*
Y00410654D01*
D02*
G37*
G36*
X0059055Y00413798D02*
X0058507D01*
X00583731Y00413243D01*
X00583176Y00411904D01*
Y00407924D01*
X0059055D01*
Y00413798D01*
D02*
G37*
G36*
X00300615Y00407606D02*
X00300228D01*
Y00404876D01*
X00302958D01*
Y00405263D01*
X00300615Y00407606D01*
D02*
G37*
G36*
X00297688D02*
X00297301D01*
X00294958Y00405263D01*
Y00404876D01*
X00297688D01*
Y00407606D01*
D02*
G37*
G36*
X00283597D02*
X0028321D01*
Y00404876D01*
X0028594D01*
Y00405263D01*
X00283597Y00407606D01*
D02*
G37*
G36*
X0028067D02*
X00280283D01*
X0027794Y00405263D01*
Y00404876D01*
X0028067D01*
Y00407606D01*
D02*
G37*
G36*
X00267341D02*
X00266954D01*
Y00404876D01*
X00269684D01*
Y00405263D01*
X00267341Y00407606D01*
D02*
G37*
G36*
X00264414D02*
X00264027D01*
X00261684Y00405263D01*
Y00404876D01*
X00264414D01*
Y00407606D01*
D02*
G37*
G36*
X00613346Y00405384D02*
X00610616D01*
Y00402654D01*
X00611003D01*
X00613346Y00404997D01*
Y00405384D01*
D02*
G37*
G36*
X00608076D02*
X00605346D01*
Y00404997D01*
X00607689Y00402654D01*
X00608076D01*
Y00405384D01*
D02*
G37*
G36*
X00569601Y0040405D02*
X00569214D01*
Y0040132D01*
X00571944D01*
Y00401707D01*
X00569601Y0040405D01*
D02*
G37*
G36*
X00566674D02*
X00566287D01*
X00563944Y00401707D01*
Y0040132D01*
X00566674D01*
Y0040405D01*
D02*
G37*
G36*
X00556139D02*
X00555752D01*
Y0040132D01*
X00558482D01*
Y00401707D01*
X00556139Y0040405D01*
D02*
G37*
G36*
X00553212D02*
X00552825D01*
X00550482Y00401707D01*
Y0040132D01*
X00553212D01*
Y0040405D01*
D02*
G37*
G36*
X00541915D02*
X00541528D01*
Y0040132D01*
X00544258D01*
Y00401707D01*
X00541915Y0040405D01*
D02*
G37*
G36*
X00538988D02*
X00538601D01*
X00536258Y00401707D01*
Y0040132D01*
X00538988D01*
Y0040405D01*
D02*
G37*
G36*
X00461075Y00411765D02*
X0045847D01*
Y00401066D01*
X00465269D01*
Y00407571D01*
X00464041Y00410537D01*
X00461075Y00411765D01*
D02*
G37*
G36*
X0045593D02*
X00453325D01*
X00450359Y00410537D01*
X00449131Y00407571D01*
Y00401066D01*
X0045593D01*
Y00411765D01*
D02*
G37*
G36*
X00641991Y00402526D02*
X00641604D01*
Y00399796D01*
X00644334D01*
Y00400183D01*
X00641991Y00402526D01*
D02*
G37*
G36*
X00639064D02*
X00638677D01*
X00636334Y00400183D01*
Y00399796D01*
X00639064D01*
Y00402526D01*
D02*
G37*
G36*
X00302958Y00402336D02*
X00300228D01*
Y00399606D01*
X00300615D01*
X00302958Y00401949D01*
Y00402336D01*
D02*
G37*
G36*
X00297688D02*
X00294958D01*
Y00401949D01*
X00297301Y00399606D01*
X00297688D01*
Y00402336D01*
D02*
G37*
G36*
X0028594D02*
X0028321D01*
Y00399606D01*
X00283597D01*
X0028594Y00401949D01*
Y00402336D01*
D02*
G37*
G36*
X0028067D02*
X0027794D01*
Y00401949D01*
X00280283Y00399606D01*
X0028067D01*
Y00402336D01*
D02*
G37*
G36*
X00269684D02*
X00266954D01*
Y00399606D01*
X00267341D01*
X00269684Y00401949D01*
Y00402336D01*
D02*
G37*
G36*
X00264414D02*
X00261684D01*
Y00401949D01*
X00264027Y00399606D01*
X00264414D01*
Y00402336D01*
D02*
G37*
G36*
X00625735Y00402272D02*
X00625348D01*
Y00399542D01*
X00628078D01*
Y00399929D01*
X00625735Y00402272D01*
D02*
G37*
G36*
X00622808D02*
X00622421D01*
X00620078Y00399929D01*
Y00399542D01*
X00622808D01*
Y00402272D01*
D02*
G37*
G36*
X00600464Y00405384D02*
X0059309D01*
Y0039951D01*
X0059857D01*
X00599909Y00400065D01*
X00600464Y00401404D01*
Y00405384D01*
D02*
G37*
G36*
X0059055D02*
X00583176D01*
Y00401404D01*
X00583731Y00400065D01*
X0058507Y0039951D01*
X0059055D01*
Y00405384D01*
D02*
G37*
G36*
X00659009Y00401764D02*
X00658622D01*
Y00399034D01*
X00661352D01*
Y00399421D01*
X00659009Y00401764D01*
D02*
G37*
G36*
X00656082D02*
X00655695D01*
X00653352Y00399421D01*
Y00399034D01*
X00656082D01*
Y00401764D01*
D02*
G37*
G36*
X00571944Y0039878D02*
X00569214D01*
Y0039605D01*
X00569601D01*
X00571944Y00398393D01*
Y0039878D01*
D02*
G37*
G36*
X00566674D02*
X00563944D01*
Y00398393D01*
X00566287Y0039605D01*
X00566674D01*
Y0039878D01*
D02*
G37*
G36*
X00558482D02*
X00555752D01*
Y0039605D01*
X00556139D01*
X00558482Y00398393D01*
Y0039878D01*
D02*
G37*
G36*
X00553212D02*
X00550482D01*
Y00398393D01*
X00552825Y0039605D01*
X00553212D01*
Y0039878D01*
D02*
G37*
G36*
X00544258D02*
X00541528D01*
Y0039605D01*
X00541915D01*
X00544258Y00398393D01*
Y0039878D01*
D02*
G37*
G36*
X00538988D02*
X00536258D01*
Y00398393D01*
X00538601Y0039605D01*
X00538988D01*
Y0039878D01*
D02*
G37*
G36*
X00611257Y00398208D02*
X0061087D01*
Y00395478D01*
X006136D01*
Y00395865D01*
X00611257Y00398208D01*
D02*
G37*
G36*
X0060833D02*
X00607943D01*
X006056Y00395865D01*
Y00395478D01*
X0060833D01*
Y00398208D01*
D02*
G37*
G36*
X00644334Y00397256D02*
X00641604D01*
Y00394526D01*
X00641991D01*
X00644334Y00396869D01*
Y00397256D01*
D02*
G37*
G36*
X00639064D02*
X00636334D01*
Y00396869D01*
X00638677Y00394526D01*
X00639064D01*
Y00397256D01*
D02*
G37*
G36*
X00628078Y00397002D02*
X00625348D01*
Y00394272D01*
X00625735D01*
X00628078Y00396615D01*
Y00397002D01*
D02*
G37*
G36*
X00622808D02*
X00620078D01*
Y00396615D01*
X00622421Y00394272D01*
X00622808D01*
Y00397002D01*
D02*
G37*
G36*
X00661352Y00396494D02*
X00658622D01*
Y00393764D01*
X00659009D01*
X00661352Y00396107D01*
Y00396494D01*
D02*
G37*
G36*
X00656082D02*
X00653352D01*
Y00396107D01*
X00655695Y00393764D01*
X00656082D01*
Y00396494D01*
D02*
G37*
G36*
X006136Y00392938D02*
X0061087D01*
Y00390208D01*
X00611257D01*
X006136Y00392551D01*
Y00392938D01*
D02*
G37*
G36*
X0060833D02*
X006056D01*
Y00392551D01*
X00607943Y00390208D01*
X0060833D01*
Y00392938D01*
D02*
G37*
G36*
X00300615Y00392112D02*
X00300228D01*
Y00389382D01*
X00302958D01*
Y00389769D01*
X00300615Y00392112D01*
D02*
G37*
G36*
X00297688D02*
X00297301D01*
X00294958Y00389769D01*
Y00389382D01*
X00297688D01*
Y00392112D01*
D02*
G37*
G36*
X00283597D02*
X0028321D01*
Y00389382D01*
X0028594D01*
Y00389769D01*
X00283597Y00392112D01*
D02*
G37*
G36*
X0028067D02*
X00280283D01*
X0027794Y00389769D01*
Y00389382D01*
X0028067D01*
Y00392112D01*
D02*
G37*
G36*
X00267341D02*
X00266954D01*
Y00389382D01*
X00269684D01*
Y00389769D01*
X00267341Y00392112D01*
D02*
G37*
G36*
X00264414D02*
X00264027D01*
X00261684Y00389769D01*
Y00389382D01*
X00264414D01*
Y00392112D01*
D02*
G37*
G36*
X00569855Y00389826D02*
X00569468D01*
Y00387096D01*
X00572198D01*
Y00387483D01*
X00569855Y00389826D01*
D02*
G37*
G36*
X00566928D02*
X00566541D01*
X00564198Y00387483D01*
Y00387096D01*
X00566928D01*
Y00389826D01*
D02*
G37*
G36*
X00556393D02*
X00556006D01*
Y00387096D01*
X00558736D01*
Y00387483D01*
X00556393Y00389826D01*
D02*
G37*
G36*
X00553466D02*
X00553079D01*
X00550736Y00387483D01*
Y00387096D01*
X00553466D01*
Y00389826D01*
D02*
G37*
G36*
X00542169D02*
X00541782D01*
Y00387096D01*
X00544512D01*
Y00387483D01*
X00542169Y00389826D01*
D02*
G37*
G36*
X00539242D02*
X00538855D01*
X00536512Y00387483D01*
Y00387096D01*
X00539242D01*
Y00389826D01*
D02*
G37*
G36*
X00641991Y00387794D02*
X00641604D01*
Y00385064D01*
X00644334D01*
Y00385451D01*
X00641991Y00387794D01*
D02*
G37*
G36*
X00639064D02*
X00638677D01*
X00636334Y00385451D01*
Y00385064D01*
X00639064D01*
Y00387794D01*
D02*
G37*
G36*
X00625735Y0038754D02*
X00625348D01*
Y0038481D01*
X00628078D01*
Y00385197D01*
X00625735Y0038754D01*
D02*
G37*
G36*
X00622808D02*
X00622421D01*
X00620078Y00385197D01*
Y0038481D01*
X00622808D01*
Y0038754D01*
D02*
G37*
G36*
X00659009Y00387032D02*
X00658622D01*
Y00384302D01*
X00661352D01*
Y00384689D01*
X00659009Y00387032D01*
D02*
G37*
G36*
X00656082D02*
X00655695D01*
X00653352Y00384689D01*
Y00384302D01*
X00656082D01*
Y00387032D01*
D02*
G37*
G36*
X00302958Y00386842D02*
X00300228D01*
Y00384112D01*
X00300615D01*
X00302958Y00386455D01*
Y00386842D01*
D02*
G37*
G36*
X00297688D02*
X00294958D01*
Y00386455D01*
X00297301Y00384112D01*
X00297688D01*
Y00386842D01*
D02*
G37*
G36*
X0028594D02*
X0028321D01*
Y00384112D01*
X00283597D01*
X0028594Y00386455D01*
Y00386842D01*
D02*
G37*
G36*
X0028067D02*
X0027794D01*
Y00386455D01*
X00280283Y00384112D01*
X0028067D01*
Y00386842D01*
D02*
G37*
G36*
X00269684D02*
X00266954D01*
Y00384112D01*
X00267341D01*
X00269684Y00386455D01*
Y00386842D01*
D02*
G37*
G36*
X00264414D02*
X00261684D01*
Y00386455D01*
X00264027Y00384112D01*
X00264414D01*
Y00386842D01*
D02*
G37*
G36*
X00572198Y00384556D02*
X00569468D01*
Y00381826D01*
X00569855D01*
X00572198Y00384169D01*
Y00384556D01*
D02*
G37*
G36*
X00566928D02*
X00564198D01*
Y00384169D01*
X00566541Y00381826D01*
X00566928D01*
Y00384556D01*
D02*
G37*
G36*
X00558736D02*
X00556006D01*
Y00381826D01*
X00556393D01*
X00558736Y00384169D01*
Y00384556D01*
D02*
G37*
G36*
X00553466D02*
X00550736D01*
Y00384169D01*
X00553079Y00381826D01*
X00553466D01*
Y00384556D01*
D02*
G37*
G36*
X00544512D02*
X00541782D01*
Y00381826D01*
X00542169D01*
X00544512Y00384169D01*
Y00384556D01*
D02*
G37*
G36*
X00539242D02*
X00536512D01*
Y00384169D01*
X00538855Y00381826D01*
X00539242D01*
Y00384556D01*
D02*
G37*
G36*
X00611257Y00383476D02*
X0061087D01*
Y00380746D01*
X006136D01*
Y00381133D01*
X00611257Y00383476D01*
D02*
G37*
G36*
X0060833D02*
X00607943D01*
X006056Y00381133D01*
Y00380746D01*
X0060833D01*
Y00383476D01*
D02*
G37*
G36*
X00644334Y00382524D02*
X00641604D01*
Y00379794D01*
X00641991D01*
X00644334Y00382137D01*
Y00382524D01*
D02*
G37*
G36*
X00639064D02*
X00636334D01*
Y00382137D01*
X00638677Y00379794D01*
X00639064D01*
Y00382524D01*
D02*
G37*
G36*
X00628078Y0038227D02*
X00625348D01*
Y0037954D01*
X00625735D01*
X00628078Y00381883D01*
Y0038227D01*
D02*
G37*
G36*
X00622808D02*
X00620078D01*
Y00381883D01*
X00622421Y0037954D01*
X00622808D01*
Y0038227D01*
D02*
G37*
G36*
X00661352Y00381762D02*
X00658622D01*
Y00379032D01*
X00659009D01*
X00661352Y00381375D01*
Y00381762D01*
D02*
G37*
G36*
X00656082D02*
X00653352D01*
Y00381375D01*
X00655695Y00379032D01*
X00656082D01*
Y00381762D01*
D02*
G37*
G36*
X006136Y00378206D02*
X0061087D01*
Y00375476D01*
X00611257D01*
X006136Y00377819D01*
Y00378206D01*
D02*
G37*
G36*
X0060833D02*
X006056D01*
Y00377819D01*
X00607943Y00375476D01*
X0060833D01*
Y00378206D01*
D02*
G37*
G36*
X00300615Y00375602D02*
X00300228D01*
Y00372872D01*
X00302958D01*
Y00373259D01*
X00300615Y00375602D01*
D02*
G37*
G36*
X00297688D02*
X00297301D01*
X00294958Y00373259D01*
Y00372872D01*
X00297688D01*
Y00375602D01*
D02*
G37*
G36*
X00283597D02*
X0028321D01*
Y00372872D01*
X0028594D01*
Y00373259D01*
X00283597Y00375602D01*
D02*
G37*
G36*
X0028067D02*
X00280283D01*
X0027794Y00373259D01*
Y00372872D01*
X0028067D01*
Y00375602D01*
D02*
G37*
G36*
X00267341D02*
X00266954D01*
Y00372872D01*
X00269684D01*
Y00373259D01*
X00267341Y00375602D01*
D02*
G37*
G36*
X00264414D02*
X00264027D01*
X00261684Y00373259D01*
Y00372872D01*
X00264414D01*
Y00375602D01*
D02*
G37*
G36*
X00658501Y00371792D02*
X00658114D01*
Y00369062D01*
X00660844D01*
Y00369449D01*
X00658501Y00371792D01*
D02*
G37*
G36*
X00655574D02*
X00655187D01*
X00652844Y00369449D01*
Y00369062D01*
X00655574D01*
Y00371792D01*
D02*
G37*
G36*
X00641483D02*
X00641096D01*
Y00369062D01*
X00643826D01*
Y00369449D01*
X00641483Y00371792D01*
D02*
G37*
G36*
X00638556D02*
X00638169D01*
X00635826Y00369449D01*
Y00369062D01*
X00638556D01*
Y00371792D01*
D02*
G37*
G36*
X00625227D02*
X0062484D01*
Y00369062D01*
X0062757D01*
Y00369449D01*
X00625227Y00371792D01*
D02*
G37*
G36*
X006223D02*
X00621913D01*
X0061957Y00369449D01*
Y00369062D01*
X006223D01*
Y00371792D01*
D02*
G37*
G36*
X00302958Y00370332D02*
X00300228D01*
Y00367602D01*
X00300615D01*
X00302958Y00369945D01*
Y00370332D01*
D02*
G37*
G36*
X00297688D02*
X00294958D01*
Y00369945D01*
X00297301Y00367602D01*
X00297688D01*
Y00370332D01*
D02*
G37*
G36*
X0028594D02*
X0028321D01*
Y00367602D01*
X00283597D01*
X0028594Y00369945D01*
Y00370332D01*
D02*
G37*
G36*
X0028067D02*
X0027794D01*
Y00369945D01*
X00280283Y00367602D01*
X0028067D01*
Y00370332D01*
D02*
G37*
G36*
X00269684D02*
X00266954D01*
Y00367602D01*
X00267341D01*
X00269684Y00369945D01*
Y00370332D01*
D02*
G37*
G36*
X00264414D02*
X00261684D01*
Y00369945D01*
X00264027Y00367602D01*
X00264414D01*
Y00370332D01*
D02*
G37*
G36*
X00660844Y00366522D02*
X00658114D01*
Y00363792D01*
X00658501D01*
X00660844Y00366135D01*
Y00366522D01*
D02*
G37*
G36*
X00655574D02*
X00652844D01*
Y00366135D01*
X00655187Y00363792D01*
X00655574D01*
Y00366522D01*
D02*
G37*
G36*
X00643826D02*
X00641096D01*
Y00363792D01*
X00641483D01*
X00643826Y00366135D01*
Y00366522D01*
D02*
G37*
G36*
X00638556D02*
X00635826D01*
Y00366135D01*
X00638169Y00363792D01*
X00638556D01*
Y00366522D01*
D02*
G37*
G36*
X0062757D02*
X0062484D01*
Y00363792D01*
X00625227D01*
X0062757Y00366135D01*
Y00366522D01*
D02*
G37*
G36*
X006223D02*
X0061957D01*
Y00366135D01*
X00621913Y00363792D01*
X006223D01*
Y00366522D01*
D02*
G37*
G36*
X00610749Y00365696D02*
X00610362D01*
Y00362966D01*
X00613092D01*
Y00363353D01*
X00610749Y00365696D01*
D02*
G37*
G36*
X00607822D02*
X00607435D01*
X00605092Y00363353D01*
Y00362966D01*
X00607822D01*
Y00365696D01*
D02*
G37*
G36*
X00300615Y00360616D02*
X00300228D01*
Y00357886D01*
X00302958D01*
Y00358273D01*
X00300615Y00360616D01*
D02*
G37*
G36*
X00297688D02*
X00297301D01*
X00294958Y00358273D01*
Y00357886D01*
X00297688D01*
Y00360616D01*
D02*
G37*
G36*
X00283597D02*
X0028321D01*
Y00357886D01*
X0028594D01*
Y00358273D01*
X00283597Y00360616D01*
D02*
G37*
G36*
X0028067D02*
X00280283D01*
X0027794Y00358273D01*
Y00357886D01*
X0028067D01*
Y00360616D01*
D02*
G37*
G36*
X00267341D02*
X00266954D01*
Y00357886D01*
X00269684D01*
Y00358273D01*
X00267341Y00360616D01*
D02*
G37*
G36*
X00264414D02*
X00264027D01*
X00261684Y00358273D01*
Y00357886D01*
X00264414D01*
Y00360616D01*
D02*
G37*
G36*
X00613092Y00360426D02*
X00610362D01*
Y00357696D01*
X00610749D01*
X00613092Y00360039D01*
Y00360426D01*
D02*
G37*
G36*
X00607822D02*
X00605092D01*
Y00360039D01*
X00607435Y00357696D01*
X00607822D01*
Y00360426D01*
D02*
G37*
G36*
X00641483Y0035833D02*
X00641096D01*
Y003556D01*
X00643826D01*
Y00355987D01*
X00641483Y0035833D01*
D02*
G37*
G36*
X00638556D02*
X00638169D01*
X00635826Y00355987D01*
Y003556D01*
X00638556D01*
Y0035833D01*
D02*
G37*
G36*
X00625227Y00358076D02*
X0062484D01*
Y00355346D01*
X0062757D01*
Y00355733D01*
X00625227Y00358076D01*
D02*
G37*
G36*
X006223D02*
X00621913D01*
X0061957Y00355733D01*
Y00355346D01*
X006223D01*
Y00358076D01*
D02*
G37*
G36*
X00658501Y00357568D02*
X00658114D01*
Y00354838D01*
X00660844D01*
Y00355225D01*
X00658501Y00357568D01*
D02*
G37*
G36*
X00655574D02*
X00655187D01*
X00652844Y00355225D01*
Y00354838D01*
X00655574D01*
Y00357568D01*
D02*
G37*
G36*
X00302958Y00355346D02*
X00300228D01*
Y00352616D01*
X00300615D01*
X00302958Y00354959D01*
Y00355346D01*
D02*
G37*
G36*
X00297688D02*
X00294958D01*
Y00354959D01*
X00297301Y00352616D01*
X00297688D01*
Y00355346D01*
D02*
G37*
G36*
X0028594D02*
X0028321D01*
Y00352616D01*
X00283597D01*
X0028594Y00354959D01*
Y00355346D01*
D02*
G37*
G36*
X0028067D02*
X0027794D01*
Y00354959D01*
X00280283Y00352616D01*
X0028067D01*
Y00355346D01*
D02*
G37*
G36*
X00269684D02*
X00266954D01*
Y00352616D01*
X00267341D01*
X00269684Y00354959D01*
Y00355346D01*
D02*
G37*
G36*
X00264414D02*
X00261684D01*
Y00354959D01*
X00264027Y00352616D01*
X00264414D01*
Y00355346D01*
D02*
G37*
G36*
X00643826Y0035306D02*
X00641096D01*
Y0035033D01*
X00641483D01*
X00643826Y00352673D01*
Y0035306D01*
D02*
G37*
G36*
X00638556D02*
X00635826D01*
Y00352673D01*
X00638169Y0035033D01*
X00638556D01*
Y0035306D01*
D02*
G37*
G36*
X0062757Y00352806D02*
X0062484D01*
Y00350076D01*
X00625227D01*
X0062757Y00352419D01*
Y00352806D01*
D02*
G37*
G36*
X006223D02*
X0061957D01*
Y00352419D01*
X00621913Y00350076D01*
X006223D01*
Y00352806D01*
D02*
G37*
G36*
X00660844Y00352298D02*
X00658114D01*
Y00349568D01*
X00658501D01*
X00660844Y00351911D01*
Y00352298D01*
D02*
G37*
G36*
X00655574D02*
X00652844D01*
Y00351911D01*
X00655187Y00349568D01*
X00655574D01*
Y00352298D01*
D02*
G37*
G36*
X00465456Y00358343D02*
X00460726D01*
Y00345948D01*
X00467621D01*
Y00356178D01*
X00466987Y00357709D01*
X00465456Y00358343D01*
D02*
G37*
G36*
X00458186D02*
X00453456D01*
X00451925Y00357709D01*
X00451291Y00356178D01*
Y00345948D01*
X00458186D01*
Y00358343D01*
D02*
G37*
G36*
X00300615Y00344614D02*
X00300228D01*
Y00341884D01*
X00302958D01*
Y00342271D01*
X00300615Y00344614D01*
D02*
G37*
G36*
X00297688D02*
X00297301D01*
X00294958Y00342271D01*
Y00341884D01*
X00297688D01*
Y00344614D01*
D02*
G37*
G36*
X00283597D02*
X0028321D01*
Y00341884D01*
X0028594D01*
Y00342271D01*
X00283597Y00344614D01*
D02*
G37*
G36*
X0028067D02*
X00280283D01*
X0027794Y00342271D01*
Y00341884D01*
X0028067D01*
Y00344614D01*
D02*
G37*
G36*
X00267341D02*
X00266954D01*
Y00341884D01*
X00269684D01*
Y00342271D01*
X00267341Y00344614D01*
D02*
G37*
G36*
X00264414D02*
X00264027D01*
X00261684Y00342271D01*
Y00341884D01*
X00264414D01*
Y00344614D01*
D02*
G37*
G36*
X00658501Y00343344D02*
X00658114D01*
Y00340614D01*
X00660844D01*
Y00341001D01*
X00658501Y00343344D01*
D02*
G37*
G36*
X00655574D02*
X00655187D01*
X00652844Y00341001D01*
Y00340614D01*
X00655574D01*
Y00343344D01*
D02*
G37*
G36*
X00641483D02*
X00641096D01*
Y00340614D01*
X00643826D01*
Y00341001D01*
X00641483Y00343344D01*
D02*
G37*
G36*
X00638556D02*
X00638169D01*
X00635826Y00341001D01*
Y00340614D01*
X00638556D01*
Y00343344D01*
D02*
G37*
G36*
X00625227D02*
X0062484D01*
Y00340614D01*
X0062757D01*
Y00341001D01*
X00625227Y00343344D01*
D02*
G37*
G36*
X006223D02*
X00621913D01*
X0061957Y00341001D01*
Y00340614D01*
X006223D01*
Y00343344D01*
D02*
G37*
G36*
X00610749D02*
X00610362D01*
Y00340614D01*
X00613092D01*
Y00341001D01*
X00610749Y00343344D01*
D02*
G37*
G36*
X00607822D02*
X00607435D01*
X00605092Y00341001D01*
Y00340614D01*
X00607822D01*
Y00343344D01*
D02*
G37*
G36*
X00438Y00351788D02*
X0041927D01*
Y00337058D01*
X00438D01*
Y00351788D01*
D02*
G37*
G36*
X0041673D02*
X00398D01*
Y00337058D01*
X0041673D01*
Y00351788D01*
D02*
G37*
G36*
X00302958Y00339344D02*
X00300228D01*
Y00336614D01*
X00300615D01*
X00302958Y00338957D01*
Y00339344D01*
D02*
G37*
G36*
X00297688D02*
X00294958D01*
Y00338957D01*
X00297301Y00336614D01*
X00297688D01*
Y00339344D01*
D02*
G37*
G36*
X0028594D02*
X0028321D01*
Y00336614D01*
X00283597D01*
X0028594Y00338957D01*
Y00339344D01*
D02*
G37*
G36*
X0028067D02*
X0027794D01*
Y00338957D01*
X00280283Y00336614D01*
X0028067D01*
Y00339344D01*
D02*
G37*
G36*
X00269684D02*
X00266954D01*
Y00336614D01*
X00267341D01*
X00269684Y00338957D01*
Y00339344D01*
D02*
G37*
G36*
X00264414D02*
X00261684D01*
Y00338957D01*
X00264027Y00336614D01*
X00264414D01*
Y00339344D01*
D02*
G37*
G36*
X00660844Y00338074D02*
X00658114D01*
Y00335344D01*
X00658501D01*
X00660844Y00337687D01*
Y00338074D01*
D02*
G37*
G36*
X00655574D02*
X00652844D01*
Y00337687D01*
X00655187Y00335344D01*
X00655574D01*
Y00338074D01*
D02*
G37*
G36*
X00643826D02*
X00641096D01*
Y00335344D01*
X00641483D01*
X00643826Y00337687D01*
Y00338074D01*
D02*
G37*
G36*
X00638556D02*
X00635826D01*
Y00337687D01*
X00638169Y00335344D01*
X00638556D01*
Y00338074D01*
D02*
G37*
G36*
X0062757D02*
X0062484D01*
Y00335344D01*
X00625227D01*
X0062757Y00337687D01*
Y00338074D01*
D02*
G37*
G36*
X006223D02*
X0061957D01*
Y00337687D01*
X00621913Y00335344D01*
X006223D01*
Y00338074D01*
D02*
G37*
G36*
X00613092D02*
X00610362D01*
Y00335344D01*
X00610749D01*
X00613092Y00337687D01*
Y00338074D01*
D02*
G37*
G36*
X00607822D02*
X00605092D01*
Y00337687D01*
X00607435Y00335344D01*
X00607822D01*
Y00338074D01*
D02*
G37*
G36*
X00467621Y00343408D02*
X00460726D01*
Y00331013D01*
X00465456D01*
X00466987Y00331647D01*
X00467621Y00333178D01*
Y00343408D01*
D02*
G37*
G36*
X00458186D02*
X00451291D01*
Y00333178D01*
X00451925Y00331647D01*
X00453456Y00331013D01*
X00458186D01*
Y00343408D01*
D02*
G37*
G36*
X00283597Y00331152D02*
X0028321D01*
Y00328422D01*
X0028594D01*
Y00328809D01*
X00283597Y00331152D01*
D02*
G37*
G36*
X0028067D02*
X00280283D01*
X0027794Y00328809D01*
Y00328422D01*
X0028067D01*
Y00331152D01*
D02*
G37*
G36*
X00267341Y00330898D02*
X00266954D01*
Y00328168D01*
X00269684D01*
Y00328555D01*
X00267341Y00330898D01*
D02*
G37*
G36*
X00264414D02*
X00264027D01*
X00261684Y00328555D01*
Y00328168D01*
X00264414D01*
Y00330898D01*
D02*
G37*
G36*
X00300615Y0033039D02*
X00300228D01*
Y0032766D01*
X00302958D01*
Y00328047D01*
X00300615Y0033039D01*
D02*
G37*
G36*
X00297688D02*
X00297301D01*
X00294958Y00328047D01*
Y0032766D01*
X00297688D01*
Y0033039D01*
D02*
G37*
G36*
X00609809Y00329746D02*
X00609422D01*
Y00327016D01*
X00612152D01*
Y00327403D01*
X00609809Y00329746D01*
D02*
G37*
G36*
X00606882D02*
X00606495D01*
X00604152Y00327403D01*
Y00327016D01*
X00606882D01*
Y00329746D01*
D02*
G37*
G36*
X00659009Y00329628D02*
X00658622D01*
Y00326898D01*
X00661352D01*
Y00327285D01*
X00659009Y00329628D01*
D02*
G37*
G36*
X00656082D02*
X00655695D01*
X00653352Y00327285D01*
Y00326898D01*
X00656082D01*
Y00329628D01*
D02*
G37*
G36*
X00641991D02*
X00641604D01*
Y00326898D01*
X00644334D01*
Y00327285D01*
X00641991Y00329628D01*
D02*
G37*
G36*
X00639064D02*
X00638677D01*
X00636334Y00327285D01*
Y00326898D01*
X00639064D01*
Y00329628D01*
D02*
G37*
G36*
X00625735D02*
X00625348D01*
Y00326898D01*
X00628078D01*
Y00327285D01*
X00625735Y00329628D01*
D02*
G37*
G36*
X00622808D02*
X00622421D01*
X00620078Y00327285D01*
Y00326898D01*
X00622808D01*
Y00329628D01*
D02*
G37*
G36*
X00578242Y00329359D02*
X00572262D01*
Y00325526D01*
X00579595D01*
Y00328006D01*
X00579199Y00328963D01*
X00578242Y00329359D01*
D02*
G37*
G36*
X00569722D02*
X00563742D01*
X00562785Y00328963D01*
X00562389Y00328006D01*
Y00325526D01*
X00569722D01*
Y00329359D01*
D02*
G37*
G36*
X00553096Y00329105D02*
X00547116D01*
Y00325272D01*
X00554449D01*
Y00327752D01*
X00554053Y00328709D01*
X00553096Y00329105D01*
D02*
G37*
G36*
X0028594Y00325882D02*
X0028321D01*
Y00323152D01*
X00283597D01*
X0028594Y00325495D01*
Y00325882D01*
D02*
G37*
G36*
X0028067D02*
X0027794D01*
Y00325495D01*
X00280283Y00323152D01*
X0028067D01*
Y00325882D01*
D02*
G37*
G36*
X00269684Y00325628D02*
X00266954D01*
Y00322898D01*
X00267341D01*
X00269684Y00325241D01*
Y00325628D01*
D02*
G37*
G36*
X00264414D02*
X00261684D01*
Y00325241D01*
X00264027Y00322898D01*
X00264414D01*
Y00325628D01*
D02*
G37*
G36*
X00302958Y0032512D02*
X00300228D01*
Y0032239D01*
X00300615D01*
X00302958Y00324733D01*
Y0032512D01*
D02*
G37*
G36*
X00297688D02*
X00294958D01*
Y00324733D01*
X00297301Y0032239D01*
X00297688D01*
Y0032512D01*
D02*
G37*
G36*
X00612152Y00324476D02*
X00609422D01*
Y00321746D01*
X00609809D01*
X00612152Y00324089D01*
Y00324476D01*
D02*
G37*
G36*
X00606882D02*
X00604152D01*
Y00324089D01*
X00606495Y00321746D01*
X00606882D01*
Y00324476D01*
D02*
G37*
G36*
X00661352Y00324358D02*
X00658622D01*
Y00321628D01*
X00659009D01*
X00661352Y00323971D01*
Y00324358D01*
D02*
G37*
G36*
X00656082D02*
X00653352D01*
Y00323971D01*
X00655695Y00321628D01*
X00656082D01*
Y00324358D01*
D02*
G37*
G36*
X00644334D02*
X00641604D01*
Y00321628D01*
X00641991D01*
X00644334Y00323971D01*
Y00324358D01*
D02*
G37*
G36*
X00639064D02*
X00636334D01*
Y00323971D01*
X00638677Y00321628D01*
X00639064D01*
Y00324358D01*
D02*
G37*
G36*
X00628078D02*
X00625348D01*
Y00321628D01*
X00625735D01*
X00628078Y00323971D01*
Y00324358D01*
D02*
G37*
G36*
X00622808D02*
X00620078D01*
Y00323971D01*
X00622421Y00321628D01*
X00622808D01*
Y00324358D01*
D02*
G37*
G36*
X00438Y00334518D02*
X0041927D01*
Y00319788D01*
X00438D01*
Y00334518D01*
D02*
G37*
G36*
X0041673D02*
X00398D01*
Y00319788D01*
X0041673D01*
Y00334518D01*
D02*
G37*
G36*
X00579595Y00322986D02*
X00572262D01*
Y00319153D01*
X00578242D01*
X00579199Y00319549D01*
X00579595Y00320506D01*
Y00322986D01*
D02*
G37*
G36*
X00569722D02*
X00562389D01*
Y00320506D01*
X00562785Y00319549D01*
X00563742Y00319153D01*
X00569722D01*
Y00322986D01*
D02*
G37*
G36*
X00554449Y00322732D02*
X00547116D01*
Y00318899D01*
X00553096D01*
X00554053Y00319295D01*
X00554449Y00320252D01*
Y00322732D01*
D02*
G37*
G36*
X00283597Y0031642D02*
X0028321D01*
Y0031369D01*
X0028594D01*
Y00314077D01*
X00283597Y0031642D01*
D02*
G37*
G36*
X0028067D02*
X00280283D01*
X0027794Y00314077D01*
Y0031369D01*
X0028067D01*
Y0031642D01*
D02*
G37*
G36*
X00267341Y00316166D02*
X00266954D01*
Y00313436D01*
X00269684D01*
Y00313823D01*
X00267341Y00316166D01*
D02*
G37*
G36*
X00264414D02*
X00264027D01*
X00261684Y00313823D01*
Y00313436D01*
X00264414D01*
Y00316166D01*
D02*
G37*
G36*
X00300615Y00315658D02*
X00300228D01*
Y00312928D01*
X00302958D01*
Y00313315D01*
X00300615Y00315658D01*
D02*
G37*
G36*
X00297688D02*
X00297301D01*
X00294958Y00313315D01*
Y00312928D01*
X00297688D01*
Y00315658D01*
D02*
G37*
G36*
X00609809Y0031476D02*
X00609422D01*
Y0031203D01*
X00612152D01*
Y00312417D01*
X00609809Y0031476D01*
D02*
G37*
G36*
X00606882D02*
X00606495D01*
X00604152Y00312417D01*
Y0031203D01*
X00606882D01*
Y0031476D01*
D02*
G37*
G36*
X00659009Y00314642D02*
X00658622D01*
Y00311912D01*
X00661352D01*
Y00312299D01*
X00659009Y00314642D01*
D02*
G37*
G36*
X00656082D02*
X00655695D01*
X00653352Y00312299D01*
Y00311912D01*
X00656082D01*
Y00314642D01*
D02*
G37*
G36*
X00641991D02*
X00641604D01*
Y00311912D01*
X00644334D01*
Y00312299D01*
X00641991Y00314642D01*
D02*
G37*
G36*
X00639064D02*
X00638677D01*
X00636334Y00312299D01*
Y00311912D01*
X00639064D01*
Y00314642D01*
D02*
G37*
G36*
X00625735D02*
X00625348D01*
Y00311912D01*
X00628078D01*
Y00312299D01*
X00625735Y00314642D01*
D02*
G37*
G36*
X00622808D02*
X00622421D01*
X00620078Y00312299D01*
Y00311912D01*
X00622808D01*
Y00314642D01*
D02*
G37*
G36*
X00571125D02*
X00570738D01*
Y00311912D01*
X00573468D01*
Y00312299D01*
X00571125Y00314642D01*
D02*
G37*
G36*
X00568198D02*
X00567811D01*
X00565468Y00312299D01*
Y00311912D01*
X00568198D01*
Y00314642D01*
D02*
G37*
G36*
X00546487D02*
X005461D01*
Y00311912D01*
X0054883D01*
Y00312299D01*
X00546487Y00314642D01*
D02*
G37*
G36*
X0054356D02*
X00543173D01*
X0054083Y00312299D01*
Y00311912D01*
X0054356D01*
Y00314642D01*
D02*
G37*
G36*
X0046441Y00322783D02*
X0045968D01*
Y00310388D01*
X00466575D01*
Y00320618D01*
X00465941Y00322149D01*
X0046441Y00322783D01*
D02*
G37*
G36*
X0045714D02*
X0045241D01*
X00450879Y00322149D01*
X00450245Y00320618D01*
Y00310388D01*
X0045714D01*
Y00322783D01*
D02*
G37*
G36*
X0028594Y0031115D02*
X0028321D01*
Y0030842D01*
X00283597D01*
X0028594Y00310763D01*
Y0031115D01*
D02*
G37*
G36*
X0028067D02*
X0027794D01*
Y00310763D01*
X00280283Y0030842D01*
X0028067D01*
Y0031115D01*
D02*
G37*
G36*
X00269684Y00310896D02*
X00266954D01*
Y00308166D01*
X00267341D01*
X00269684Y00310509D01*
Y00310896D01*
D02*
G37*
G36*
X00264414D02*
X00261684D01*
Y00310509D01*
X00264027Y00308166D01*
X00264414D01*
Y00310896D01*
D02*
G37*
G36*
X00302958Y00310388D02*
X00300228D01*
Y00307658D01*
X00300615D01*
X00302958Y00310001D01*
Y00310388D01*
D02*
G37*
G36*
X00297688D02*
X00294958D01*
Y00310001D01*
X00297301Y00307658D01*
X00297688D01*
Y00310388D01*
D02*
G37*
G36*
X00612152Y0030949D02*
X00609422D01*
Y0030676D01*
X00609809D01*
X00612152Y00309103D01*
Y0030949D01*
D02*
G37*
G36*
X00606882D02*
X00604152D01*
Y00309103D01*
X00606495Y0030676D01*
X00606882D01*
Y0030949D01*
D02*
G37*
G36*
X00661352Y00309372D02*
X00658622D01*
Y00306642D01*
X00659009D01*
X00661352Y00308985D01*
Y00309372D01*
D02*
G37*
G36*
X00656082D02*
X00653352D01*
Y00308985D01*
X00655695Y00306642D01*
X00656082D01*
Y00309372D01*
D02*
G37*
G36*
X00644334D02*
X00641604D01*
Y00306642D01*
X00641991D01*
X00644334Y00308985D01*
Y00309372D01*
D02*
G37*
G36*
X00639064D02*
X00636334D01*
Y00308985D01*
X00638677Y00306642D01*
X00639064D01*
Y00309372D01*
D02*
G37*
G36*
X00628078D02*
X00625348D01*
Y00306642D01*
X00625735D01*
X00628078Y00308985D01*
Y00309372D01*
D02*
G37*
G36*
X00622808D02*
X00620078D01*
Y00308985D01*
X00622421Y00306642D01*
X00622808D01*
Y00309372D01*
D02*
G37*
G36*
X00573468D02*
X00570738D01*
Y00306642D01*
X00571125D01*
X00573468Y00308985D01*
Y00309372D01*
D02*
G37*
G36*
X00568198D02*
X00565468D01*
Y00308985D01*
X00567811Y00306642D01*
X00568198D01*
Y00309372D01*
D02*
G37*
G36*
X0054883D02*
X005461D01*
Y00306642D01*
X00546487D01*
X0054883Y00308985D01*
Y00309372D01*
D02*
G37*
G36*
X0054356D02*
X0054083D01*
Y00308985D01*
X00543173Y00306642D01*
X0054356D01*
Y00309372D01*
D02*
G37*
G36*
X00349383Y00303466D02*
X00348996D01*
Y00300736D01*
X00351726D01*
Y00301123D01*
X00349383Y00303466D01*
D02*
G37*
G36*
X00346456D02*
X00346069D01*
X00343726Y00301123D01*
Y00300736D01*
X00346456D01*
Y00303466D01*
D02*
G37*
G36*
X00334651D02*
X00334264D01*
Y00300736D01*
X00336994D01*
Y00301123D01*
X00334651Y00303466D01*
D02*
G37*
G36*
X00331724D02*
X00331337D01*
X00328994Y00301123D01*
Y00300736D01*
X00331724D01*
Y00303466D01*
D02*
G37*
G36*
X00320427D02*
X0032004D01*
Y00300736D01*
X0032277D01*
Y00301123D01*
X00320427Y00303466D01*
D02*
G37*
G36*
X003175D02*
X00317113D01*
X0031477Y00301123D01*
Y00300736D01*
X003175D01*
Y00303466D01*
D02*
G37*
G36*
X00434727Y00303212D02*
X0043434D01*
Y00300482D01*
X0043707D01*
Y00300869D01*
X00434727Y00303212D01*
D02*
G37*
G36*
X004318D02*
X00431413D01*
X0042907Y00300869D01*
Y00300482D01*
X004318D01*
Y00303212D01*
D02*
G37*
G36*
X00419995D02*
X00419608D01*
Y00300482D01*
X00422338D01*
Y00300869D01*
X00419995Y00303212D01*
D02*
G37*
G36*
X00417068D02*
X00416681D01*
X00414338Y00300869D01*
Y00300482D01*
X00417068D01*
Y00303212D01*
D02*
G37*
G36*
X00405771D02*
X00405384D01*
Y00300482D01*
X00408114D01*
Y00300869D01*
X00405771Y00303212D01*
D02*
G37*
G36*
X00402844D02*
X00402457D01*
X00400114Y00300869D01*
Y00300482D01*
X00402844D01*
Y00303212D01*
D02*
G37*
G36*
X00393579Y00302958D02*
X00393192D01*
Y00300228D01*
X00395922D01*
Y00300615D01*
X00393579Y00302958D01*
D02*
G37*
G36*
X00390652D02*
X00390265D01*
X00387922Y00300615D01*
Y00300228D01*
X00390652D01*
Y00302958D01*
D02*
G37*
G36*
X00378847D02*
X0037846D01*
Y00300228D01*
X0038119D01*
Y00300615D01*
X00378847Y00302958D01*
D02*
G37*
G36*
X0037592D02*
X00375533D01*
X0037319Y00300615D01*
Y00300228D01*
X0037592D01*
Y00302958D01*
D02*
G37*
G36*
X00364623D02*
X00364236D01*
Y00300228D01*
X00366966D01*
Y00300615D01*
X00364623Y00302958D01*
D02*
G37*
G36*
X00361696D02*
X00361309D01*
X00358966Y00300615D01*
Y00300228D01*
X00361696D01*
Y00302958D01*
D02*
G37*
G36*
X00300107Y00300418D02*
X0029972D01*
Y00297688D01*
X0030245D01*
Y00298075D01*
X00300107Y00300418D01*
D02*
G37*
G36*
X0029718D02*
X00296793D01*
X0029445Y00298075D01*
Y00297688D01*
X0029718D01*
Y00300418D01*
D02*
G37*
G36*
X00283089D02*
X00282702D01*
Y00297688D01*
X00285432D01*
Y00298075D01*
X00283089Y00300418D01*
D02*
G37*
G36*
X00280162D02*
X00279775D01*
X00277432Y00298075D01*
Y00297688D01*
X00280162D01*
Y00300418D01*
D02*
G37*
G36*
X00266833D02*
X00266446D01*
Y00297688D01*
X00269176D01*
Y00298075D01*
X00266833Y00300418D01*
D02*
G37*
G36*
X00263906D02*
X00263519D01*
X00261176Y00298075D01*
Y00297688D01*
X00263906D01*
Y00300418D01*
D02*
G37*
G36*
X00351726Y00298196D02*
X00348996D01*
Y00295466D01*
X00349383D01*
X00351726Y00297809D01*
Y00298196D01*
D02*
G37*
G36*
X00346456D02*
X00343726D01*
Y00297809D01*
X00346069Y00295466D01*
X00346456D01*
Y00298196D01*
D02*
G37*
G36*
X00336994D02*
X00334264D01*
Y00295466D01*
X00334651D01*
X00336994Y00297809D01*
Y00298196D01*
D02*
G37*
G36*
X00331724D02*
X00328994D01*
Y00297809D01*
X00331337Y00295466D01*
X00331724D01*
Y00298196D01*
D02*
G37*
G36*
X0032277D02*
X0032004D01*
Y00295466D01*
X00320427D01*
X0032277Y00297809D01*
Y00298196D01*
D02*
G37*
G36*
X003175D02*
X0031477D01*
Y00297809D01*
X00317113Y00295466D01*
X003175D01*
Y00298196D01*
D02*
G37*
G36*
X00466575Y00307848D02*
X0045968D01*
Y00295453D01*
X0046441D01*
X00465941Y00296087D01*
X00466575Y00297618D01*
Y00307848D01*
D02*
G37*
G36*
X0045714D02*
X00450245D01*
Y00297618D01*
X00450879Y00296087D01*
X0045241Y00295453D01*
X0045714D01*
Y00307848D01*
D02*
G37*
G36*
X0043707Y00297942D02*
X0043434D01*
Y00295212D01*
X00434727D01*
X0043707Y00297555D01*
Y00297942D01*
D02*
G37*
G36*
X004318D02*
X0042907D01*
Y00297555D01*
X00431413Y00295212D01*
X004318D01*
Y00297942D01*
D02*
G37*
G36*
X00422338D02*
X00419608D01*
Y00295212D01*
X00419995D01*
X00422338Y00297555D01*
Y00297942D01*
D02*
G37*
G36*
X00417068D02*
X00414338D01*
Y00297555D01*
X00416681Y00295212D01*
X00417068D01*
Y00297942D01*
D02*
G37*
G36*
X00408114D02*
X00405384D01*
Y00295212D01*
X00405771D01*
X00408114Y00297555D01*
Y00297942D01*
D02*
G37*
G36*
X00402844D02*
X00400114D01*
Y00297555D01*
X00402457Y00295212D01*
X00402844D01*
Y00297942D01*
D02*
G37*
G36*
X00395922Y00297688D02*
X00393192D01*
Y00294958D01*
X00393579D01*
X00395922Y00297301D01*
Y00297688D01*
D02*
G37*
G36*
X00390652D02*
X00387922D01*
Y00297301D01*
X00390265Y00294958D01*
X00390652D01*
Y00297688D01*
D02*
G37*
G36*
X0038119D02*
X0037846D01*
Y00294958D01*
X00378847D01*
X0038119Y00297301D01*
Y00297688D01*
D02*
G37*
G36*
X0037592D02*
X0037319D01*
Y00297301D01*
X00375533Y00294958D01*
X0037592D01*
Y00297688D01*
D02*
G37*
G36*
X00366966D02*
X00364236D01*
Y00294958D01*
X00364623D01*
X00366966Y00297301D01*
Y00297688D01*
D02*
G37*
G36*
X00361696D02*
X00358966D01*
Y00297301D01*
X00361309Y00294958D01*
X00361696D01*
Y00297688D01*
D02*
G37*
G36*
X0030245Y00295148D02*
X0029972D01*
Y00292418D01*
X00300107D01*
X0030245Y00294761D01*
Y00295148D01*
D02*
G37*
G36*
X0029718D02*
X0029445D01*
Y00294761D01*
X00296793Y00292418D01*
X0029718D01*
Y00295148D01*
D02*
G37*
G36*
X00285432D02*
X00282702D01*
Y00292418D01*
X00283089D01*
X00285432Y00294761D01*
Y00295148D01*
D02*
G37*
G36*
X00280162D02*
X00277432D01*
Y00294761D01*
X00279775Y00292418D01*
X00280162D01*
Y00295148D01*
D02*
G37*
G36*
X00269176D02*
X00266446D01*
Y00292418D01*
X00266833D01*
X00269176Y00294761D01*
Y00295148D01*
D02*
G37*
G36*
X00263906D02*
X00261176D01*
Y00294761D01*
X00263519Y00292418D01*
X00263906D01*
Y00295148D01*
D02*
G37*
G36*
X00652032Y0029694D02*
X00616952D01*
Y00287688D01*
X00610418D01*
X00610107Y00288439D01*
X00605197Y00290473D01*
X00589647D01*
X00584737Y00288439D01*
X00582704Y00283529D01*
Y00275779D01*
X00584737Y00270869D01*
X00589647Y00268836D01*
X00605197D01*
X00610107Y00270869D01*
X00610312Y00271366D01*
X00616952D01*
Y0026186D01*
X00652032D01*
Y0029694D01*
D02*
G37*
G36*
X00283089Y00286956D02*
X00282702D01*
Y00284226D01*
X00285432D01*
Y00284613D01*
X00283089Y00286956D01*
D02*
G37*
G36*
X00280162D02*
X00279775D01*
X00277432Y00284613D01*
Y00284226D01*
X00280162D01*
Y00286956D01*
D02*
G37*
G36*
X00266833Y00286702D02*
X00266446D01*
Y00283972D01*
X00269176D01*
Y00284359D01*
X00266833Y00286702D01*
D02*
G37*
G36*
X00263906D02*
X00263519D01*
X00261176Y00284359D01*
Y00283972D01*
X00263906D01*
Y00286702D01*
D02*
G37*
G36*
X00348621Y00286448D02*
X00348234D01*
Y00283718D01*
X00350964D01*
Y00284105D01*
X00348621Y00286448D01*
D02*
G37*
G36*
X00345694D02*
X00345307D01*
X00342964Y00284105D01*
Y00283718D01*
X00345694D01*
Y00286448D01*
D02*
G37*
G36*
X00433965Y00286194D02*
X00433578D01*
Y00283464D01*
X00436308D01*
Y00283851D01*
X00433965Y00286194D01*
D02*
G37*
G36*
X00431038D02*
X00430651D01*
X00428308Y00283851D01*
Y00283464D01*
X00431038D01*
Y00286194D01*
D02*
G37*
G36*
X00419233D02*
X00418846D01*
Y00283464D01*
X00421576D01*
Y00283851D01*
X00419233Y00286194D01*
D02*
G37*
G36*
X00416306D02*
X00415919D01*
X00413576Y00283851D01*
Y00283464D01*
X00416306D01*
Y00286194D01*
D02*
G37*
G36*
X00405771D02*
X00405384D01*
Y00283464D01*
X00408114D01*
Y00283851D01*
X00405771Y00286194D01*
D02*
G37*
G36*
X00402844D02*
X00402457D01*
X00400114Y00283851D01*
Y00283464D01*
X00402844D01*
Y00286194D01*
D02*
G37*
G36*
X00300107D02*
X0029972D01*
Y00283464D01*
X0030245D01*
Y00283851D01*
X00300107Y00286194D01*
D02*
G37*
G36*
X0029718D02*
X00296793D01*
X0029445Y00283851D01*
Y00283464D01*
X0029718D01*
Y00286194D01*
D02*
G37*
G36*
X00392817Y0028594D02*
X0039243D01*
Y0028321D01*
X0039516D01*
Y00283597D01*
X00392817Y0028594D01*
D02*
G37*
G36*
X0038989D02*
X00389503D01*
X0038716Y00283597D01*
Y0028321D01*
X0038989D01*
Y0028594D01*
D02*
G37*
G36*
X00378085D02*
X00377698D01*
Y0028321D01*
X00380428D01*
Y00283597D01*
X00378085Y0028594D01*
D02*
G37*
G36*
X00375158D02*
X00374771D01*
X00372428Y00283597D01*
Y0028321D01*
X00375158D01*
Y0028594D01*
D02*
G37*
G36*
X00364623D02*
X00364236D01*
Y0028321D01*
X00366966D01*
Y00283597D01*
X00364623Y0028594D01*
D02*
G37*
G36*
X00361696D02*
X00361309D01*
X00358966Y00283597D01*
Y0028321D01*
X00361696D01*
Y0028594D01*
D02*
G37*
G36*
X00285432Y00281686D02*
X00282702D01*
Y00278956D01*
X00283089D01*
X00285432Y00281299D01*
Y00281686D01*
D02*
G37*
G36*
X00280162D02*
X00277432D01*
Y00281299D01*
X00279775Y00278956D01*
X00280162D01*
Y00281686D01*
D02*
G37*
G36*
X00269176Y00281432D02*
X00266446D01*
Y00278702D01*
X00266833D01*
X00269176Y00281045D01*
Y00281432D01*
D02*
G37*
G36*
X00263906D02*
X00261176D01*
Y00281045D01*
X00263519Y00278702D01*
X00263906D01*
Y00281432D01*
D02*
G37*
G36*
X00350964Y00281178D02*
X00348234D01*
Y00278448D01*
X00348621D01*
X00350964Y00280791D01*
Y00281178D01*
D02*
G37*
G36*
X00345694D02*
X00342964D01*
Y00280791D01*
X00345307Y00278448D01*
X00345694D01*
Y00281178D01*
D02*
G37*
G36*
X00436308Y00280924D02*
X00433578D01*
Y00278194D01*
X00433965D01*
X00436308Y00280537D01*
Y00280924D01*
D02*
G37*
G36*
X00431038D02*
X00428308D01*
Y00280537D01*
X00430651Y00278194D01*
X00431038D01*
Y00280924D01*
D02*
G37*
G36*
X00421576D02*
X00418846D01*
Y00278194D01*
X00419233D01*
X00421576Y00280537D01*
Y00280924D01*
D02*
G37*
G36*
X00416306D02*
X00413576D01*
Y00280537D01*
X00415919Y00278194D01*
X00416306D01*
Y00280924D01*
D02*
G37*
G36*
X00408114D02*
X00405384D01*
Y00278194D01*
X00405771D01*
X00408114Y00280537D01*
Y00280924D01*
D02*
G37*
G36*
X00402844D02*
X00400114D01*
Y00280537D01*
X00402457Y00278194D01*
X00402844D01*
Y00280924D01*
D02*
G37*
G36*
X0030245D02*
X0029972D01*
Y00278194D01*
X00300107D01*
X0030245Y00280537D01*
Y00280924D01*
D02*
G37*
G36*
X0029718D02*
X0029445D01*
Y00280537D01*
X00296793Y00278194D01*
X0029718D01*
Y00280924D01*
D02*
G37*
G36*
X0039516Y0028067D02*
X0039243D01*
Y0027794D01*
X00392817D01*
X0039516Y00280283D01*
Y0028067D01*
D02*
G37*
G36*
X0038989D02*
X0038716D01*
Y00280283D01*
X00389503Y0027794D01*
X0038989D01*
Y0028067D01*
D02*
G37*
G36*
X00380428D02*
X00377698D01*
Y0027794D01*
X00378085D01*
X00380428Y00280283D01*
Y0028067D01*
D02*
G37*
G36*
X00375158D02*
X00372428D01*
Y00280283D01*
X00374771Y0027794D01*
X00375158D01*
Y0028067D01*
D02*
G37*
G36*
X00366966D02*
X00364236D01*
Y0027794D01*
X00364623D01*
X00366966Y00280283D01*
Y0028067D01*
D02*
G37*
G36*
X00361696D02*
X00358966D01*
Y00280283D01*
X00361309Y0027794D01*
X00361696D01*
Y0028067D01*
D02*
G37*
G36*
X00283089Y00272224D02*
X00282702D01*
Y00269494D01*
X00285432D01*
Y00269881D01*
X00283089Y00272224D01*
D02*
G37*
G36*
X00280162D02*
X00279775D01*
X00277432Y00269881D01*
Y00269494D01*
X00280162D01*
Y00272224D01*
D02*
G37*
G36*
X00266833Y0027197D02*
X00266446D01*
Y0026924D01*
X00269176D01*
Y00269627D01*
X00266833Y0027197D01*
D02*
G37*
G36*
X00263906D02*
X00263519D01*
X00261176Y00269627D01*
Y0026924D01*
X00263906D01*
Y0027197D01*
D02*
G37*
G36*
X00300107Y00271462D02*
X0029972D01*
Y00268732D01*
X0030245D01*
Y00269119D01*
X00300107Y00271462D01*
D02*
G37*
G36*
X0029718D02*
X00296793D01*
X0029445Y00269119D01*
Y00268732D01*
X0029718D01*
Y00271462D01*
D02*
G37*
G36*
X00348875Y00270192D02*
X00348488D01*
Y00267462D01*
X00351218D01*
Y00267849D01*
X00348875Y00270192D01*
D02*
G37*
G36*
X00345948D02*
X00345561D01*
X00343218Y00267849D01*
Y00267462D01*
X00345948D01*
Y00270192D01*
D02*
G37*
G36*
X00434219Y00269938D02*
X00433832D01*
Y00267208D01*
X00436562D01*
Y00267595D01*
X00434219Y00269938D01*
D02*
G37*
G36*
X00431292D02*
X00430905D01*
X00428562Y00267595D01*
Y00267208D01*
X00431292D01*
Y00269938D01*
D02*
G37*
G36*
X00419487D02*
X004191D01*
Y00267208D01*
X0042183D01*
Y00267595D01*
X00419487Y00269938D01*
D02*
G37*
G36*
X0041656D02*
X00416173D01*
X0041383Y00267595D01*
Y00267208D01*
X0041656D01*
Y00269938D01*
D02*
G37*
G36*
X00405771D02*
X00405384D01*
Y00267208D01*
X00408114D01*
Y00267595D01*
X00405771Y00269938D01*
D02*
G37*
G36*
X00402844D02*
X00402457D01*
X00400114Y00267595D01*
Y00267208D01*
X00402844D01*
Y00269938D01*
D02*
G37*
G36*
X00393071Y00269684D02*
X00392684D01*
Y00266954D01*
X00395414D01*
Y00267341D01*
X00393071Y00269684D01*
D02*
G37*
G36*
X00390144D02*
X00389757D01*
X00387414Y00267341D01*
Y00266954D01*
X00390144D01*
Y00269684D01*
D02*
G37*
G36*
X00378339D02*
X00377952D01*
Y00266954D01*
X00380682D01*
Y00267341D01*
X00378339Y00269684D01*
D02*
G37*
G36*
X00375412D02*
X00375025D01*
X00372682Y00267341D01*
Y00266954D01*
X00375412D01*
Y00269684D01*
D02*
G37*
G36*
X00364623D02*
X00364236D01*
Y00266954D01*
X00366966D01*
Y00267341D01*
X00364623Y00269684D01*
D02*
G37*
G36*
X00361696D02*
X00361309D01*
X00358966Y00267341D01*
Y00266954D01*
X00361696D01*
Y00269684D01*
D02*
G37*
G36*
X00285432Y00266954D02*
X00282702D01*
Y00264224D01*
X00283089D01*
X00285432Y00266567D01*
Y00266954D01*
D02*
G37*
G36*
X00280162D02*
X00277432D01*
Y00266567D01*
X00279775Y00264224D01*
X00280162D01*
Y00266954D01*
D02*
G37*
G36*
X00269176Y002667D02*
X00266446D01*
Y0026397D01*
X00266833D01*
X00269176Y00266313D01*
Y002667D01*
D02*
G37*
G36*
X00263906D02*
X00261176D01*
Y00266313D01*
X00263519Y0026397D01*
X00263906D01*
Y002667D01*
D02*
G37*
G36*
X0030245Y00266192D02*
X0029972D01*
Y00263462D01*
X00300107D01*
X0030245Y00265805D01*
Y00266192D01*
D02*
G37*
G36*
X0029718D02*
X0029445D01*
Y00265805D01*
X00296793Y00263462D01*
X0029718D01*
Y00266192D01*
D02*
G37*
G36*
X00351218Y00264922D02*
X00348488D01*
Y00262192D01*
X00348875D01*
X00351218Y00264535D01*
Y00264922D01*
D02*
G37*
G36*
X00345948D02*
X00343218D01*
Y00264535D01*
X00345561Y00262192D01*
X00345948D01*
Y00264922D01*
D02*
G37*
G36*
X00436562Y00264668D02*
X00433832D01*
Y00261938D01*
X00434219D01*
X00436562Y00264281D01*
Y00264668D01*
D02*
G37*
G36*
X00431292D02*
X00428562D01*
Y00264281D01*
X00430905Y00261938D01*
X00431292D01*
Y00264668D01*
D02*
G37*
G36*
X0042183D02*
X004191D01*
Y00261938D01*
X00419487D01*
X0042183Y00264281D01*
Y00264668D01*
D02*
G37*
G36*
X0041656D02*
X0041383D01*
Y00264281D01*
X00416173Y00261938D01*
X0041656D01*
Y00264668D01*
D02*
G37*
G36*
X00408114D02*
X00405384D01*
Y00261938D01*
X00405771D01*
X00408114Y00264281D01*
Y00264668D01*
D02*
G37*
G36*
X00402844D02*
X00400114D01*
Y00264281D01*
X00402457Y00261938D01*
X00402844D01*
Y00264668D01*
D02*
G37*
G36*
X00395414Y00264414D02*
X00392684D01*
Y00261684D01*
X00393071D01*
X00395414Y00264027D01*
Y00264414D01*
D02*
G37*
G36*
X00390144D02*
X00387414D01*
Y00264027D01*
X00389757Y00261684D01*
X00390144D01*
Y00264414D01*
D02*
G37*
G36*
X00380682D02*
X00377952D01*
Y00261684D01*
X00378339D01*
X00380682Y00264027D01*
Y00264414D01*
D02*
G37*
G36*
X00375412D02*
X00372682D01*
Y00264027D01*
X00375025Y00261684D01*
X00375412D01*
Y00264414D01*
D02*
G37*
G36*
X00366966D02*
X00364236D01*
Y00261684D01*
X00364623D01*
X00366966Y00264027D01*
Y00264414D01*
D02*
G37*
G36*
X00361696D02*
X00358966D01*
Y00264027D01*
X00361309Y00261684D01*
X00361696D01*
Y00264414D01*
D02*
G37*
%LPD*%
G36*
X00474337Y00454152D02*
X00474646Y00453406D01*
Y00446902D01*
X00475659Y00444455D01*
X00474615Y00441915D01*
X00468077D01*
Y00452374D01*
X00468077Y00452374D01*
X00467272Y00454318D01*
X00467272Y00454318D01*
X00464986Y00456604D01*
X00463042Y00457409D01*
X00463042Y00457409D01*
X0036068D01*
X0036068Y00457409D01*
X00359639Y00456978D01*
X00358736Y00456604D01*
X00358736Y00456604D01*
X00356958Y00454826D01*
X00356958Y00454826D01*
X00356153Y00452882D01*
X00356153Y00452882D01*
Y00426212D01*
X00356153Y00426212D01*
X00354622Y00423758D01*
X00354455Y00423672D01*
X00348697D01*
Y00469777D01*
X00350135Y00471215D01*
X00452906D01*
X00453112Y00468675D01*
X00450914Y00466477D01*
Y0046609D01*
X00458914D01*
Y00466477D01*
X00456716Y00468675D01*
X00456922Y00471215D01*
X00465606D01*
X00465812Y00468675D01*
X00463614Y00466477D01*
Y0046609D01*
X00471614D01*
Y00466477D01*
X00469416Y00468675D01*
X00469622Y00471215D01*
X00474337D01*
Y00454152D01*
D02*
G37*
G36*
X00465328Y00452374D02*
Y00440436D01*
X00466598Y00439166D01*
X00486918D01*
X00487934Y0043815D01*
Y00423164D01*
X00487426Y00422656D01*
X00446518D01*
X00441452Y0041759D01*
Y00368046D01*
X00439928Y00366522D01*
X00423418D01*
X00421386Y00368554D01*
X00421386Y00419354D01*
X00418084Y00422656D01*
X00362458D01*
X00358902Y00426212D01*
Y00452882D01*
X0036068Y0045466D01*
X00463042D01*
X00465328Y00452374D01*
D02*
G37*
G36*
X00521192Y00552198D02*
X00520672Y00495046D01*
X005207D01*
Y00475996D01*
X00518668Y00473964D01*
X00348996D01*
X00345948Y00470916D01*
Y00400304D01*
X00351282Y0039497D01*
X00413004D01*
X00415798Y00392176D01*
Y00368046D01*
X0041402Y00366268D01*
X00372364Y00366268D01*
X00367284Y00361188D01*
Y00315478D01*
X00364118Y00312294D01*
X00317891Y00312042D01*
X0031242Y00317483D01*
Y00493014D01*
X00314452Y00495046D01*
X00500888D01*
Y00554736D01*
X00518677D01*
X00521192Y00552198D01*
D02*
G37*
G36*
X00503428Y00384302D02*
Y00333248D01*
X00506222Y00330454D01*
X00530098D01*
X00532384Y00328168D01*
Y00298958D01*
X00541782Y0028956D01*
X00564134D01*
X0056896Y00284734D01*
Y00261657D01*
X00566656Y00259352D01*
X00500671Y00259559D01*
X00498348Y0026192D01*
Y00287782D01*
X0049403Y002921D01*
X00482092D01*
X00473964Y00300228D01*
Y00357378D01*
X00476758Y00360172D01*
X00489712D01*
X00491744Y00362204D01*
Y00384302D01*
X00492252Y0038481D01*
X0050292D01*
X00503428Y00384302D01*
D02*
G37*
%LPC*%
G36*
X00439045Y00468566D02*
X00438658D01*
Y00465836D01*
X00441388D01*
Y00466223D01*
X00439045Y00468566D01*
D02*
G37*
G36*
X00436118D02*
X00435731D01*
X00433388Y00466223D01*
Y00465836D01*
X00436118D01*
Y00468566D01*
D02*
G37*
G36*
X00423043Y00468312D02*
X00422656D01*
Y00465582D01*
X00425386D01*
Y00465969D01*
X00423043Y00468312D01*
D02*
G37*
G36*
X00420116D02*
X00419729D01*
X00417386Y00465969D01*
Y00465582D01*
X00420116D01*
Y00468312D01*
D02*
G37*
G36*
X00404755D02*
X00404368D01*
Y00465582D01*
X00407098D01*
Y00465969D01*
X00404755Y00468312D01*
D02*
G37*
G36*
X00401828D02*
X00401441D01*
X00399098Y00465969D01*
Y00465582D01*
X00401828D01*
Y00468312D01*
D02*
G37*
G36*
X00386721D02*
X00386334D01*
Y00465582D01*
X00389064D01*
Y00465969D01*
X00386721Y00468312D01*
D02*
G37*
G36*
X00383794D02*
X00383407D01*
X00381064Y00465969D01*
Y00465582D01*
X00383794D01*
Y00468312D01*
D02*
G37*
G36*
X00368179D02*
X00367792D01*
Y00465582D01*
X00370522D01*
Y00465969D01*
X00368179Y00468312D01*
D02*
G37*
G36*
X00365252D02*
X00364865D01*
X00362522Y00465969D01*
Y00465582D01*
X00365252D01*
Y00468312D01*
D02*
G37*
G36*
X00471614Y0046355D02*
X00468884D01*
Y0046082D01*
X00469271D01*
X00471614Y00463163D01*
Y0046355D01*
D02*
G37*
G36*
X00466344D02*
X00463614D01*
Y00463163D01*
X00465957Y0046082D01*
X00466344D01*
Y0046355D01*
D02*
G37*
G36*
X00458914D02*
X00456184D01*
Y0046082D01*
X00456571D01*
X00458914Y00463163D01*
Y0046355D01*
D02*
G37*
G36*
X00453644D02*
X00450914D01*
Y00463163D01*
X00453257Y0046082D01*
X00453644D01*
Y0046355D01*
D02*
G37*
G36*
X00441388Y00463296D02*
X00438658D01*
Y00460566D01*
X00439045D01*
X00441388Y00462909D01*
Y00463296D01*
D02*
G37*
G36*
X00436118D02*
X00433388D01*
Y00462909D01*
X00435731Y00460566D01*
X00436118D01*
Y00463296D01*
D02*
G37*
G36*
X00425386Y00463042D02*
X00422656D01*
Y00460312D01*
X00423043D01*
X00425386Y00462655D01*
Y00463042D01*
D02*
G37*
G36*
X00420116D02*
X00417386D01*
Y00462655D01*
X00419729Y00460312D01*
X00420116D01*
Y00463042D01*
D02*
G37*
G36*
X00407098D02*
X00404368D01*
Y00460312D01*
X00404755D01*
X00407098Y00462655D01*
Y00463042D01*
D02*
G37*
G36*
X00401828D02*
X00399098D01*
Y00462655D01*
X00401441Y00460312D01*
X00401828D01*
Y00463042D01*
D02*
G37*
G36*
X00389064D02*
X00386334D01*
Y00460312D01*
X00386721D01*
X00389064Y00462655D01*
Y00463042D01*
D02*
G37*
G36*
X00383794D02*
X00381064D01*
Y00462655D01*
X00383407Y00460312D01*
X00383794D01*
Y00463042D01*
D02*
G37*
G36*
X00370522D02*
X00367792D01*
Y00460312D01*
X00368179D01*
X00370522Y00462655D01*
Y00463042D01*
D02*
G37*
G36*
X00365252D02*
X00362522D01*
Y00462655D01*
X00364865Y00460312D01*
X00365252D01*
Y00463042D01*
D02*
G37*
%LPD*%
G36*
X00645922Y00680212D02*
Y00638048D01*
X0064262Y00634746D01*
X00615696D01*
X00615696Y00679704D01*
X00617474Y00681482D01*
X00644652D01*
X00645922Y00680212D01*
D02*
G37*
D12*
X00379222Y008475D02*
X00398D01*
X00270764Y00670306D02*
Y00709676D01*
X00312928Y0075184D01*
X00357173D01*
X00270569Y00644413D02*
X00272078Y00645922D01*
X00270569Y00623639D02*
Y00644413D01*
X00314536Y006223D02*
X0031623D01*
X00305178Y00631658D02*
X00314536Y006223D01*
X00305178Y00631658D02*
Y00647972D01*
X00302978Y00650172D02*
X00305178Y00647972D01*
X00300894Y00650172D02*
X00302978D01*
X00295036Y0065603D02*
Y00668894D01*
X00293624Y00670306D02*
X00295036Y00668894D01*
Y0065603D02*
X00300894Y00650172D01*
X0061468Y00738446D02*
X00655828Y00779594D01*
Y00848614D01*
X00425313Y00839099D02*
Y00845587D01*
X00432054Y00812546D02*
Y00832358D01*
X00425313Y00839099D02*
X00432054Y00832358D01*
X004234Y008475D02*
X00425313Y00845587D01*
X00338328Y005715D02*
X00347878Y0058105D01*
X00338328Y00485648D02*
Y005715D01*
X00347878Y0058105D02*
Y00601218D01*
X00409194Y00793852D02*
X00440182D01*
X00389026D02*
X00409194D01*
X00482498Y00454152D02*
Y00479342D01*
X0026923Y006223D02*
X00270569Y00623639D01*
X00357173Y0075184D02*
X00366964Y00742049D01*
Y00729554D02*
Y00742049D01*
Y00729554D02*
X00367538Y0072898D01*
X00631825Y00279527D02*
X00633984Y00281686D01*
X00597549Y00279527D02*
X00631825D01*
X00597422Y00279654D02*
X00597549Y00279527D01*
X0060071Y00820996D02*
X0061468Y00807026D01*
X0060071Y00820996D02*
Y00848868D01*
X0026923Y0080772D02*
Y00843868D01*
X00267532Y00845566D02*
X0026923Y00843868D01*
X00266192Y00845566D02*
X00267532D01*
X0040889Y00813766D02*
X0040894Y00813816D01*
X00560578Y00623692D02*
X0056324Y0062103D01*
X00616204D01*
X00560578Y00623692D02*
Y0062738D01*
X00615154Y0062208D02*
X00616019Y00622945D01*
X00629639Y00644665D02*
Y00659678D01*
X00628864Y0064389D02*
X00629639Y00644665D01*
Y00659678D02*
X00635497Y00665536D01*
X00636556D02*
X00638556Y00667536D01*
X00627764Y0064389D02*
X00629639Y00645765D01*
X00635497Y00665536D02*
X00636556D01*
X00638556Y00667536D02*
Y00669036D01*
X00616019Y00622945D02*
Y00629227D01*
X00626432Y0063964D01*
X00627764D02*
Y00640972D01*
X00626432Y0063964D02*
X00627764D01*
X00661822Y00621748D02*
Y00639724D01*
X00662178Y0064008D01*
X0066168Y00621606D02*
X00661822Y00621748D01*
X0066169Y0064641D02*
Y00668762D01*
X00661416Y00669036D02*
X0066169Y00668762D01*
X00269982Y00644164D02*
Y00669524D01*
X00270764Y00670306D01*
D16*
X0066171Y00644398D02*
D03*
X0062861D02*
D03*
X00304078Y00645922D02*
D03*
X00270978D02*
D03*
D17*
X00482698Y0053336D02*
D03*
Y0053986D02*
D03*
Y0054636D02*
D03*
Y0055286D02*
D03*
Y0055936D02*
D03*
Y0056586D02*
D03*
Y0057236D02*
D03*
Y0057886D02*
D03*
Y0058536D02*
D03*
Y0059186D02*
D03*
X00425098D02*
D03*
Y0058536D02*
D03*
Y0057886D02*
D03*
Y0057236D02*
D03*
Y0056586D02*
D03*
Y0055936D02*
D03*
Y0055286D02*
D03*
Y0054636D02*
D03*
Y0053986D02*
D03*
Y0053336D02*
D03*
D18*
X004572Y00442496D02*
D03*
Y00399796D02*
D03*
D19*
X00433324Y0037592D02*
D03*
X00456184D02*
D03*
X00661416Y00669036D02*
D03*
X00638556D02*
D03*
X00270764Y00670306D02*
D03*
X00293624D02*
D03*
X00508508Y0054102D02*
D03*
X00531368D02*
D03*
Y00518922D02*
D03*
X00508508D02*
D03*
X00296418Y00463042D02*
D03*
X00319278D02*
D03*
Y00439166D02*
D03*
X00296418D02*
D03*
X00407924Y0081407D02*
D03*
X00430784D02*
D03*
D20*
X00487456Y00344678D02*
D03*
X00459456D02*
D03*
X0048641Y00309118D02*
D03*
X0045841D02*
D03*
D21*
X00378612Y00813766D02*
D03*
X00388112Y00794766D02*
D03*
X00369112D02*
D03*
D22*
X00618896Y00716382D02*
D03*
Y00697382D02*
D03*
X00637896Y00706882D02*
D03*
X00292252Y0069977D02*
D03*
X00311252Y0070927D02*
D03*
Y0069027D02*
D03*
D23*
X00589534Y00654812D02*
D03*
Y00677672D02*
D03*
X00343408Y00724154D02*
D03*
Y00701294D02*
D03*
X0055372Y0053975D02*
D03*
Y0056261D02*
D03*
X0059182Y00429514D02*
D03*
Y00406654D02*
D03*
D24*
X00589788Y00715468D02*
D03*
Y00696468D02*
D03*
X00343408Y00655472D02*
D03*
Y00674472D02*
D03*
X00520192Y00343358D02*
D03*
Y00324358D02*
D03*
X00570992Y00324256D02*
D03*
Y00343256D02*
D03*
X00545846Y00343002D02*
D03*
Y00324002D02*
D03*
X0054737Y00432054D02*
D03*
Y00413054D02*
D03*
X00389636Y00488238D02*
D03*
Y00507238D02*
D03*
X0036322Y00488238D02*
D03*
Y00507238D02*
D03*
X00409194Y00774852D02*
D03*
Y00793852D02*
D03*
D25*
X00560426Y00751332D02*
D03*
X00541426D02*
D03*
X00425298Y00754888D02*
D03*
X00406298D02*
D03*
X00347878Y00601218D02*
D03*
X00366878D02*
D03*
X00547522Y0036576D02*
D03*
X00566522D02*
D03*
X00541426Y0045212D02*
D03*
X00560426D02*
D03*
X00595224Y00452374D02*
D03*
X00576224D02*
D03*
X00501498Y00454152D02*
D03*
X00482498D02*
D03*
X00298094Y0048514D02*
D03*
X00317094D02*
D03*
D26*
X00560578Y0062738D02*
D03*
X00535178D02*
D03*
Y0071882D02*
D03*
X00560578D02*
D03*
X00367538Y0072898D02*
D03*
X00392938D02*
D03*
Y0063754D02*
D03*
X00367538D02*
D03*
D27*
X00554722Y00279654D02*
D03*
X00597422D02*
D03*
D28*
X00379476Y00442504D02*
D03*
Y00383504D02*
D03*
D29*
X00294132Y00509524D02*
D03*
X00316992D02*
D03*
D30*
X00344Y00335788D02*
D03*
X00418D02*
D03*
D32*
X00484782Y00376502D02*
D03*
X00497482D02*
D03*
X00510182D02*
D03*
X00522882D02*
D03*
Y00430502D02*
D03*
X00510182D02*
D03*
X00497482D02*
D03*
X00484782D02*
D03*
D33*
X00323469Y00266954D02*
D03*
D57*
X00634492Y002794D02*
D03*
D58*
X00655828Y00848614D02*
D03*
X0060071Y00848868D02*
D03*
X00267716D02*
D03*
X00315214D02*
D03*
X00312928Y0053594D02*
D03*
D59*
X00503832Y00403502D02*
D03*
D60*
X00545863Y00283328D02*
X00551048D01*
X00554722Y00279654D01*
X00541603Y00287587D02*
X00545863Y00283328D01*
X00537151Y00287587D02*
X00541603D01*
X00536194Y00288544D02*
X00537151Y00287587D01*
X00487172Y0030988D02*
X00507746D01*
X0048641Y00309118D02*
X00487172Y0030988D01*
X00493956Y00332052D02*
X00502412Y00323596D01*
X00518414Y0032258D02*
X00520192Y00324358D01*
X00503428Y0032258D02*
X00518414D01*
X00502412Y00323596D02*
X00503428Y0032258D01*
X00497482Y00360659D02*
Y00376502D01*
X00493448Y0035067D02*
Y00356441D01*
X00493956Y00356949D02*
Y00357145D01*
X00495713Y00358902D02*
X00495725D01*
X00487456Y00344678D02*
X00493448Y0035067D01*
Y00356441D02*
X00493956Y00356949D01*
Y00357145D02*
X00495713Y00358902D01*
X00495725D02*
X00497482Y00360659D01*
X00487456Y00338907D02*
Y00344678D01*
Y00338907D02*
X00493956Y00332407D01*
Y00332052D02*
Y00332407D01*
X00421798Y00747426D02*
Y00751388D01*
X00410464Y00736092D02*
X00421798Y00747426D01*
Y00751388D02*
X00425298Y00754888D01*
X00410464Y00593852D02*
Y00736092D01*
X00515366Y0058928D02*
Y0083185D01*
X00525272Y00841756D02*
Y00846582D01*
X00515366Y0083185D02*
X00525272Y00841756D01*
X00509016Y00591566D02*
Y00831342D01*
X004996Y00840758D02*
Y008475D01*
Y00840758D02*
X00509016Y00831342D01*
X0037592Y00775208D02*
X00404622D01*
X00369112Y00782016D02*
Y00794766D01*
Y00782016D02*
X0037592Y00775208D01*
X00406298Y00754888D02*
Y00771956D01*
Y00753212D02*
Y00754888D01*
Y00771956D02*
X00409194Y00774852D01*
X00406298Y00753212D02*
X00406654Y00752856D01*
X00410464Y00593852D02*
X00412456Y0059186D01*
X00424398D01*
X00403716Y0058536D02*
X00424398D01*
X00392684Y00596392D02*
Y00635508D01*
Y00596392D02*
X00403716Y0058536D01*
X00473964Y006096D02*
Y00846836D01*
X00443224Y0057886D02*
X00473964Y006096D01*
X00424398Y0057886D02*
X00443224D01*
X00503428Y00596196D02*
Y00810575D01*
X00499872Y00814131D02*
X00503428Y00810575D01*
X00499872Y00814131D02*
Y00814832D01*
X00499092Y0059186D02*
X00503428Y00596196D01*
X0050281Y0058536D02*
X00509016Y00591566D01*
X00504946Y0057886D02*
X00515366Y0058928D01*
X00483398Y0059186D02*
X00499092D01*
X00483398Y0058536D02*
X0050281D01*
X00483398Y0057886D02*
X00504946D01*
X00506574Y0057236D02*
X00521208Y00586994D01*
Y0066548D01*
X00535178Y0067945D01*
Y00718566D01*
X00483398Y0057236D02*
X00506574D01*
X00483398Y0056586D02*
X0055697D01*
X00551382Y0056459D02*
X00552704Y00565912D01*
X00364367Y00548268D02*
X00366124Y00550025D01*
X00400641D01*
X00363982Y00536956D02*
X00364367Y00537341D01*
Y00548268D01*
X00400641Y00550025D02*
X00404307Y0054636D01*
X00424398D01*
X0036322Y00507238D02*
Y0053594D01*
X00389128D02*
X00400558D01*
X00404478Y0053986D02*
X00424398D01*
X00400558Y0053594D02*
X00404478Y0053986D01*
X00389128Y00507746D02*
Y00535178D01*
Y00507746D02*
X00389636Y00507238D01*
D61*
X00378612Y00814324D02*
Y00848106D01*
X00541731Y00751637D02*
Y00793699D01*
X00637896Y00706882D02*
X00649716D01*
X00661416Y00695182D01*
X00560502Y0072296D02*
Y00751256D01*
X00661416Y00672536D02*
Y00695182D01*
X00292438Y0069977D02*
X00292938Y0069927D01*
Y00674548D02*
Y0069927D01*
Y00674548D02*
X00294386Y006731D01*
X00292252Y0069977D02*
X00292438D01*
X00330884Y0069027D02*
X00339622Y00699008D01*
X00340868D01*
X00311252Y0069027D02*
X00330884D01*
X00297688Y0048514D02*
Y00510286D01*
Y0048514D02*
X00298094D01*
X00336804Y00485648D02*
X00338328D01*
X00595224Y00429814D02*
Y00452374D01*
X00525811Y00361418D02*
X00545022D01*
X00522882Y00364347D02*
Y00376502D01*
Y00364347D02*
X00525811Y00361418D01*
X00547522Y00363918D02*
Y0036576D01*
X00545022Y00361418D02*
X00547522Y00363918D01*
X00566674Y00343256D02*
Y00366776D01*
Y00343256D02*
X00570992D01*
X00516692D02*
X0054803D01*
X00510182Y00349766D02*
X00516692Y00343256D01*
X00510182Y00349766D02*
Y00378534D01*
D62*
X00378968Y00814324D02*
X00407924D01*
Y0081407D02*
Y00814324D01*
X00378612Y00848106D02*
X00379222D01*
X00560553Y00452247D02*
X00573405D01*
X00573786Y00451866D01*
X00560426Y0045212D02*
X00560553Y00452247D01*
X00589534Y00677672D02*
Y00696214D01*
X00589788Y00696468D01*
X00587756Y00675894D02*
X00589534Y00677672D01*
X0055387Y00432054D02*
Y00432308D01*
X00522882Y00432534D02*
X0054737D01*
X00560426Y00751332D02*
X00560502Y00751256D01*
X00541426Y00751332D02*
X00541731Y00751637D01*
Y00793699D02*
X00542036Y00794004D01*
X00589788Y00696468D02*
X00592788Y00699468D01*
X00597982D01*
X00614172Y00715658D01*
Y00715772D01*
X00560502Y0072296D02*
X0056134Y00722122D01*
X0058547Y0071465D02*
Y00716534D01*
X00535178Y00664358D02*
X0058547Y0071465D01*
X00535178Y0062738D02*
Y00664358D01*
X00343408Y00674472D02*
Y00699008D01*
X00392938Y00701802D02*
Y0072898D01*
X00349908Y00658772D02*
X00392938Y00701802D01*
X00346908Y00655472D02*
X00349908Y00658472D01*
X00343408Y00655472D02*
X00346908D01*
X00349908Y00658472D02*
Y00658772D01*
X00501498Y00454152D02*
Y00455724D01*
X00504498Y00458724D01*
X00515366D01*
X0055387Y00432054D02*
X00564896D01*
X0054737D02*
X0055387Y00432308D01*
X0054737Y00432054D02*
Y00432534D01*
D63*
X00589534Y00654812D02*
X00590042Y0065532D01*
X00311252Y0070927D02*
Y0071689D01*
X00318516Y00724154D02*
X00343408D01*
X00311252Y0071689D02*
X00318516Y00724154D01*
X00529136Y0055936D02*
X00531368Y00557128D01*
X00483398Y0055936D02*
X00529136D01*
X00531368Y0054102D02*
Y00557128D01*
D64*
X00315214Y00785124D02*
Y00848868D01*
X0026923Y0073914D02*
X00315214Y00785124D01*
D65*
X00367208Y00600126D02*
Y0063721D01*
X0036703Y00599948D02*
X00367208Y00600126D01*
Y0063721D02*
X00367538Y0063754D01*
X00518855Y00447802D02*
X00537219D01*
X00510642Y00439589D02*
X00518855Y00447802D01*
X00510642Y00430962D02*
Y00439589D01*
X00510182Y00430502D02*
X00510642Y00430962D01*
D66*
X0051181Y00485648D02*
Y00528574D01*
X00511556D02*
Y00552704D01*
X00483398Y0055286D02*
X00504288D01*
X00504952Y00552196D01*
X0051181Y00485648D02*
X00512572D01*
X00511048Y00552704D02*
X00511556D01*
X00514858Y00538226D02*
Y00540766D01*
D67*
X00434721Y00839851D02*
D03*
D68*
X00458597Y00326898D02*
D03*
D69*
X00470296Y00376047D02*
D03*
D70*
X0051689Y0027559D02*
D03*
D71*
X0046609D02*
D03*
D72*
X005504Y008475D02*
D03*
X00525D02*
D03*
X004996D02*
D03*
X004742D02*
D03*
X004488D02*
D03*
X004234D02*
D03*
X00398D02*
D03*
X003726D02*
D03*
D73*
X00338328Y0053594D02*
D03*
D74*
X00363728D02*
D03*
X00389128D02*
D03*
D75*
X00484332Y00397002D02*
D03*
Y00410002D02*
D03*
X00497332Y00397002D02*
D03*
Y00410002D02*
D03*
X00510332Y00397002D02*
D03*
Y00410002D02*
D03*
X00523332Y00397002D02*
D03*
Y00410002D02*
D03*
D76*
X0061468Y00621606D02*
D03*
X0066168D02*
D03*
X0061468Y00738446D02*
D03*
Y00807026D02*
D03*
X0026923Y0080772D02*
D03*
Y0073914D02*
D03*
X0031623Y006223D02*
D03*
X0026923D02*
D03*
D77*
X00536194Y00288544D02*
D03*
X0052197Y00297688D02*
D03*
X00506984Y0029718D02*
D03*
X00507746Y0030988D02*
D03*
X00522224Y00309372D02*
D03*
X00535432Y0026543D02*
D03*
X00503428Y0032258D02*
D03*
X00628142Y0084455D02*
D03*
X00627634Y00829818D02*
D03*
X00292354Y00827532D02*
D03*
X00292862Y00843534D02*
D03*
X00263906Y00788924D02*
D03*
Y00773938D02*
D03*
X00280924D02*
D03*
Y00788924D02*
D03*
X00608838Y00787146D02*
D03*
Y0077216D02*
D03*
X00625856D02*
D03*
Y00787146D02*
D03*
X0064516Y00748538D02*
D03*
Y00733552D02*
D03*
X00662178D02*
D03*
Y00748538D02*
D03*
X0053213Y00583692D02*
D03*
Y00598678D02*
D03*
X00548386D02*
D03*
Y00583692D02*
D03*
X00565404D02*
D03*
Y00598678D02*
D03*
X00553974Y00647954D02*
D03*
X00569188Y00647972D02*
D03*
X00642874Y00691134D02*
D03*
X00575056Y0073914D02*
D03*
Y00753872D02*
D03*
X00592074Y0075311D02*
D03*
Y00738378D02*
D03*
X0058801Y00772668D02*
D03*
X00527304Y00747522D02*
D03*
X00527558Y00766318D02*
D03*
Y0078105D02*
D03*
X0058801Y00801624D02*
D03*
Y007874D02*
D03*
X00570992Y0077343D02*
D03*
Y00788162D02*
D03*
Y00801624D02*
D03*
X00554736D02*
D03*
Y00787908D02*
D03*
Y00773176D02*
D03*
X00555244Y00816102D02*
D03*
X005715Y00816356D02*
D03*
X00588518Y00815594D02*
D03*
X00484124Y00807212D02*
D03*
X00484632Y00822452D02*
D03*
X00464058Y0082296D02*
D03*
X0044704Y00823722D02*
D03*
X00446532Y0080772D02*
D03*
X0046355D02*
D03*
X00457962Y00716026D02*
D03*
X00486156Y0076581D02*
D03*
Y00751586D02*
D03*
X00486664Y0078105D02*
D03*
X00461518Y0075184D02*
D03*
X00445008Y00752602D02*
D03*
X00462534Y00781304D02*
D03*
X00445516D02*
D03*
X0042926D02*
D03*
X0044577Y00766826D02*
D03*
X0046228Y00766064D02*
D03*
X00486664Y0073152D02*
D03*
X00486156Y00687324D02*
D03*
Y00702056D02*
D03*
Y0071628D02*
D03*
X00457962Y00701802D02*
D03*
Y0068707D02*
D03*
X00440944Y00687832D02*
D03*
Y00702564D02*
D03*
Y00716026D02*
D03*
X00424688D02*
D03*
Y0070231D02*
D03*
Y00687578D02*
D03*
X00425196Y00731774D02*
D03*
X00441452Y00732028D02*
D03*
X0045847Y00731266D02*
D03*
X00486156Y00635D02*
D03*
Y00620776D02*
D03*
Y00606044D02*
D03*
X00486664Y0065024D02*
D03*
X00455676Y00649732D02*
D03*
X00438658Y00650494D02*
D03*
X00422402Y0065024D02*
D03*
X00421894Y00606044D02*
D03*
Y00620776D02*
D03*
Y00634492D02*
D03*
X0043815D02*
D03*
Y0062103D02*
D03*
Y00606298D02*
D03*
X00451104Y00607568D02*
D03*
X00455168Y00620268D02*
D03*
Y00634492D02*
D03*
X00378714Y00706882D02*
D03*
X00362204Y00706628D02*
D03*
X00352552Y00624332D02*
D03*
X00381254Y00587756D02*
D03*
X00354584Y00561594D02*
D03*
X0039878Y00575056D02*
D03*
X00398018Y0056134D02*
D03*
X00384048D02*
D03*
X00369062Y00575056D02*
D03*
X00383286D02*
D03*
X00369062Y0056134D02*
D03*
X00454914Y0046482D02*
D03*
X00467614D02*
D03*
X00403098Y00464312D02*
D03*
X00437388Y00464566D02*
D03*
X00421386Y00464312D02*
D03*
X0056769Y0041402D02*
D03*
X00540512Y00385826D02*
D03*
X00554736D02*
D03*
X00568198D02*
D03*
X00624078Y00310642D02*
D03*
Y00325628D02*
D03*
X00640334D02*
D03*
Y00310642D02*
D03*
X00657352D02*
D03*
Y00325628D02*
D03*
X00608152Y00325746D02*
D03*
Y0031076D02*
D03*
X00612648Y00426974D02*
D03*
X00611124Y00442468D02*
D03*
X00611632Y00456946D02*
D03*
X00609092Y00361696D02*
D03*
Y00339344D02*
D03*
X006096Y00379476D02*
D03*
Y00394208D02*
D03*
X00609168Y00561712D02*
D03*
Y00546726D02*
D03*
Y00530724D02*
D03*
Y00517008D02*
D03*
Y00502276D02*
D03*
X0060866Y00486528D02*
D03*
X0060993Y0057746D02*
D03*
Y00592446D02*
D03*
X00531368Y00473202D02*
D03*
X00549148D02*
D03*
X0056388D02*
D03*
X00549148Y0051308D02*
D03*
X00564134D02*
D03*
Y00486664D02*
D03*
Y0050038D02*
D03*
Y00524764D02*
D03*
X00549402Y00486664D02*
D03*
Y0050038D02*
D03*
Y00524764D02*
D03*
X00531622Y00486664D02*
D03*
Y0050038D02*
D03*
X0048779Y00503224D02*
D03*
X00473058D02*
D03*
X00472804Y0051821D02*
D03*
X00487536D02*
D03*
X00456692Y00518414D02*
D03*
X0044196D02*
D03*
X00428498D02*
D03*
Y00503428D02*
D03*
X00442214D02*
D03*
X00456946D02*
D03*
X0041275Y00503936D02*
D03*
X00412496Y00518922D02*
D03*
X00385064Y00464312D02*
D03*
X00366522D02*
D03*
X00569468Y00310642D02*
D03*
X0054483D02*
D03*
X00567944Y0040005D02*
D03*
X00609346Y00406654D02*
D03*
X00554482Y0040005D02*
D03*
X00540258D02*
D03*
X0065913Y00592328D02*
D03*
Y00577342D02*
D03*
X00642112D02*
D03*
Y00592328D02*
D03*
X00625856D02*
D03*
Y00577342D02*
D03*
X0065786Y0048641D02*
D03*
Y00472186D02*
D03*
X00640842Y00458216D02*
D03*
Y00472948D02*
D03*
Y0048641D02*
D03*
X00624586D02*
D03*
Y00472694D02*
D03*
Y00457962D02*
D03*
X00625094Y00502158D02*
D03*
Y0051689D02*
D03*
Y00530606D02*
D03*
Y00546608D02*
D03*
Y00561594D02*
D03*
X0064135D02*
D03*
Y00546608D02*
D03*
Y00530606D02*
D03*
Y00517144D02*
D03*
Y00502412D02*
D03*
X00658368Y0050165D02*
D03*
Y00516382D02*
D03*
Y00530606D02*
D03*
Y00546608D02*
D03*
Y00561594D02*
D03*
X0065786Y00457454D02*
D03*
X00656844Y00339344D02*
D03*
X00657352Y00442976D02*
D03*
Y0042799D02*
D03*
Y00411988D02*
D03*
Y00397764D02*
D03*
Y00383032D02*
D03*
X00640334Y00383794D02*
D03*
Y00398526D02*
D03*
Y00411988D02*
D03*
Y0042799D02*
D03*
Y00442976D02*
D03*
X00624078D02*
D03*
Y0042799D02*
D03*
Y00411988D02*
D03*
Y00398272D02*
D03*
Y0038354D02*
D03*
X0062357Y00339344D02*
D03*
Y00354076D02*
D03*
Y00367792D02*
D03*
X00639826D02*
D03*
Y0035433D02*
D03*
Y00339344D02*
D03*
X00656844Y00353568D02*
D03*
Y00367792D02*
D03*
X00404114Y00299212D02*
D03*
X00418338D02*
D03*
X0043307D02*
D03*
X00432308Y00282194D02*
D03*
X00417576D02*
D03*
X00404114D02*
D03*
Y00265938D02*
D03*
X0041783D02*
D03*
X00432562D02*
D03*
X0031877Y00299466D02*
D03*
X00332994D02*
D03*
X00347726D02*
D03*
X00346964Y00282448D02*
D03*
X00347218Y00266192D02*
D03*
X00391414Y00265684D02*
D03*
X00376682D02*
D03*
X00362966D02*
D03*
Y0028194D02*
D03*
X00376428D02*
D03*
X0039116D02*
D03*
X00391922Y00298958D02*
D03*
X0037719D02*
D03*
X00362966D02*
D03*
X0029845Y00296418D02*
D03*
Y00282194D02*
D03*
Y00267462D02*
D03*
X00281432Y00268224D02*
D03*
Y00282956D02*
D03*
Y00296418D02*
D03*
X00265176D02*
D03*
Y00282702D02*
D03*
Y0026797D02*
D03*
X00265684Y00312166D02*
D03*
Y00326898D02*
D03*
Y00340614D02*
D03*
Y00356616D02*
D03*
Y00371602D02*
D03*
Y00388112D02*
D03*
Y00403606D02*
D03*
X0028194D02*
D03*
Y00388112D02*
D03*
Y00371602D02*
D03*
Y00356616D02*
D03*
Y00340614D02*
D03*
Y00327152D02*
D03*
Y0031242D02*
D03*
X00298958Y00311658D02*
D03*
Y0032639D02*
D03*
Y00340614D02*
D03*
Y00356616D02*
D03*
Y00371602D02*
D03*
Y00388112D02*
D03*
Y00403606D02*
D03*
Y00420116D02*
D03*
X0028194D02*
D03*
X00265684D02*
D03*
X00281432Y0043815D02*
D03*
X00266192Y00437642D02*
D03*
X00281432Y00463296D02*
D03*
X00266192Y0046355D02*
D03*
X00281432Y0048641D02*
D03*
X00266192Y00486664D02*
D03*
Y00509016D02*
D03*
X0028448Y00538988D02*
D03*
X00265684Y00537972D02*
D03*
X00283718Y00563118D02*
D03*
X00266192Y00560324D02*
D03*
X00316484Y00580136D02*
D03*
X0029845Y00581406D02*
D03*
X00282702Y0058039D02*
D03*
X002667Y00579628D02*
D03*
X00316484Y00595376D02*
D03*
X00298196D02*
D03*
X00280924Y00595884D02*
D03*
X00266192Y0059563D02*
D03*
X00358394Y00766318D02*
D03*
X00340868Y00766064D02*
D03*
X00325882Y00716534D02*
D03*
X00542036Y00794004D02*
D03*
X00440944D02*
D03*
X00621284Y00664718D02*
D03*
X0062103Y00674624D02*
D03*
X00605536Y00686308D02*
D03*
X00346964Y00742442D02*
D03*
X00337312Y00742188D02*
D03*
X00499872Y00814832D02*
D03*
X00607314Y00648716D02*
D03*
X0032639Y00732536D02*
D03*
X00515366Y00458724D02*
D03*
X00564896Y00432054D02*
D03*
M02*
