G04*
G04 #@! TF.GenerationSoftware,Altium Limited,Altium Designer,24.1.2 (44)*
G04*
G04 Layer_Color=65535*
%FSTAX44Y44*%
%MOMM*%
G71*
G04*
G04 #@! TF.SameCoordinates,2B49B1F8-7685-4118-9D8F-57346A93B65E*
G04*
G04*
G04 #@! TF.FilePolarity,Positive*
G04*
G01*
G75*
%ADD10C,0.2000*%
%ADD11C,0.2500*%
%ADD12C,1.0000*%
%ADD13C,0.1270*%
%ADD14C,0.1016*%
%ADD15C,0.2540*%
D10*
X0067796Y00643498D02*
G03*
X0067796Y00643498I-00001J0D01*
G01*
X00320328Y00645022D02*
G03*
X00320328Y00645022I-00001J0D01*
G01*
X00499298Y0052926D02*
G03*
X00499298Y0052926I-00001J0D01*
G01*
X004582Y00461146D02*
G03*
X004582Y00461146I-00001J0D01*
G01*
X00537072Y00279654D02*
G03*
X00537072Y00279654I-00001J0D01*
G01*
X00485782Y00362802D02*
G03*
X00485782Y00362802I-00001J0D01*
G01*
X00385612Y00811266D02*
X00393612D01*
Y00806266D02*
Y00811266D01*
X00363612D02*
X00371612D01*
X00363612Y00806266D02*
Y00811266D01*
X00630396Y00721882D02*
X00635396D01*
Y00713882D02*
Y00721882D01*
X00630396Y00691882D02*
X00635396D01*
Y00699882D01*
X00524978Y006401D02*
Y007061D01*
X00570778Y006401D02*
Y007061D01*
X00524978Y006401D02*
X00570778D01*
X00524978Y007061D02*
X00570778D01*
X00403138Y0065026D02*
Y0071626D01*
X00357338Y0065026D02*
Y0071626D01*
X00403138D01*
X00357338Y0065026D02*
X00403138D01*
X003599Y008602D02*
X005631D01*
X003599Y008348D02*
Y008602D01*
Y008348D02*
X005631D01*
Y008602D01*
X003225Y00358788D02*
X004395D01*
Y00312674D02*
Y00358788D01*
X003225Y00312674D02*
X004395D01*
X003225D02*
Y00358788D01*
X0036703Y00355092D02*
X00394716D01*
Y00316992D02*
Y00355092D01*
X00366776Y00316992D02*
X00394716D01*
X00366776D02*
Y00354838D01*
X0031869Y00312674D02*
Y00358788D01*
X0031877Y00358902D02*
X00324612D01*
X0031869Y00312674D02*
X003225D01*
X00401828Y0052324D02*
Y0054864D01*
X00300228Y0052324D02*
X00401828D01*
X00300228Y0054864D02*
X00401828D01*
X00300228Y0052324D02*
Y0054864D01*
X00294752Y0070677D02*
Y0071477D01*
X00299752D01*
X00294752Y0068477D02*
Y0069277D01*
Y0068477D02*
X00299752D01*
D11*
X00361862Y00794766D02*
G03*
X00361862Y00794766I-0000125J0D01*
G01*
X00620146Y00724882D02*
G03*
X00620146Y00724882I-0000125J0D01*
G01*
X00312502Y0068177D02*
G03*
X00312502Y0068177I-0000125J0D01*
G01*
X00361976Y00400504D02*
Y00425504D01*
Y00400504D02*
X00396976D01*
Y00425504D01*
X00361976D02*
X00396976D01*
X00320468Y00312788D02*
Y00358788D01*
D12*
X00564118Y006985D02*
G03*
X00564118Y006985I-00001J0D01*
G01*
X00365998Y0065786D02*
G03*
X00365998Y0065786I-00001J0D01*
G01*
D13*
X0063801Y00652648D02*
X0065231D01*
X0063801Y00636148D02*
X0065231D01*
X00280378Y00654172D02*
X00294678D01*
X00280378Y00637672D02*
X00294678D01*
X00431398Y0052811D02*
X00476398D01*
X00431398Y0059711D02*
X00476398D01*
X004718Y00395146D02*
Y00447146D01*
X004426Y00395146D02*
Y00447146D01*
X00550072Y00294254D02*
X00602072D01*
X00550072Y00265054D02*
X00602072D01*
X00529082Y00384002D02*
Y00423002D01*
X00478582Y00384002D02*
Y00423002D01*
D14*
X00316992Y00517144D02*
Y00518414D01*
X00294132D02*
X00316992D01*
X00294132Y00517144D02*
Y00518414D01*
X00316992Y00500634D02*
Y00501904D01*
X00294132Y00500634D02*
X00316992D01*
X00294132D02*
Y00501904D01*
D15*
X00254Y00247904D02*
Y00867904D01*
X00254254Y00867918D02*
X00674624Y00867918D01*
X00674624Y00247904D01*
X00254D02*
X00674624D01*
X00264668Y00680715D02*
Y0066548D01*
X00272285D01*
X00274825Y00668019D01*
Y00678176D01*
X00272285Y00680715D01*
X00264668D01*
X00287521Y0066548D02*
Y00680715D01*
X00279903Y00673098D01*
X0029006D01*
X006223Y00679191D02*
Y00663956D01*
X00629917D01*
X00632457Y00666495D01*
Y00676652D01*
X00629917Y00679191D01*
X006223D01*
X00637535Y00676652D02*
X00640074Y00679191D01*
X00645153D01*
X00647692Y00676652D01*
Y00674113D01*
X00645153Y00671573D01*
X00642613D01*
X00645153D01*
X00647692Y00669034D01*
Y00666495D01*
X00645153Y00663956D01*
X00640074D01*
X00637535Y00666495D01*
X00301752Y00557276D02*
Y00567273D01*
X0030675D01*
X00308417Y00565607D01*
Y00562274D01*
X0030675Y00560608D01*
X00301752D01*
X00318413Y00557276D02*
X00311749D01*
X00318413Y00563941D01*
Y00565607D01*
X00316747Y00567273D01*
X00313415D01*
X00311749Y00565607D01*
X0062611Y00307939D02*
X00632775D01*
X00629442D01*
Y00297942D01*
X00636107D02*
Y00307939D01*
X00641105D01*
X00642771Y00306273D01*
Y0030294D01*
X00641105Y00301274D01*
X00636107D01*
X00652768Y00307939D02*
X00646104D01*
Y0030294D01*
X00649436Y00304606D01*
X00651102D01*
X00652768Y0030294D01*
Y00299608D01*
X00651102Y00297942D01*
X0064777D01*
X00646104Y00299608D01*
X00443281Y00471088D02*
Y00461092D01*
X0044828D01*
X00449946Y00462758D01*
Y00469422D01*
X0044828Y00471088D01*
X00443281D01*
X00459943Y00461092D02*
X00453278D01*
X00459943Y00467756D01*
Y00469422D01*
X00458276Y00471088D01*
X00454944D01*
X00453278Y00469422D01*
X00295484Y00397449D02*
X0030548D01*
Y00404114D01*
Y00407446D02*
Y00410779D01*
Y00409112D01*
X00295484D01*
X0029715Y00407446D01*
X00651135Y0091127D02*
X006578D01*
X00654467D01*
Y00901274D01*
X00661132D02*
Y0091127D01*
X0066613D01*
X00667796Y00909604D01*
Y00906272D01*
X0066613Y00904606D01*
X00661132D01*
X00676127Y00901274D02*
Y0091127D01*
X00671128Y00906272D01*
X00677793D01*
X00597033Y00892728D02*
X00603698D01*
X00600365D01*
Y00882732D01*
X0060703D02*
Y00892728D01*
X00612028D01*
X00613694Y00891062D01*
Y0088773D01*
X00612028Y00886064D01*
X0060703D01*
X00617026Y00891062D02*
X00618693Y00892728D01*
X00622025D01*
X00623691Y00891062D01*
Y00889396D01*
X00622025Y0088773D01*
X00620359D01*
X00622025D01*
X00623691Y00886064D01*
Y00884398D01*
X00622025Y00882732D01*
X00618693D01*
X00617026Y00884398D01*
X00320427Y00834308D02*
X00327091D01*
X00323759D01*
Y00824312D01*
X00330424D02*
Y00834308D01*
X00335422D01*
X00337088Y00832642D01*
Y0082931D01*
X00335422Y00827644D01*
X00330424D01*
X00347085Y00824312D02*
X0034042D01*
X00347085Y00830976D01*
Y00832642D01*
X00345419Y00834308D01*
X00342087D01*
X0034042Y00832642D01*
X00274595Y008338D02*
X0028126D01*
X00277927D01*
Y00823804D01*
X00284592D02*
Y008338D01*
X0028959D01*
X00291256Y00832134D01*
Y00828802D01*
X0028959Y00827136D01*
X00284592D01*
X00294589Y00823804D02*
X00297921D01*
X00296255D01*
Y008338D01*
X00294589Y00832134D01*
X00499822Y00746588D02*
Y00756584D01*
X0050482D01*
X00506487Y00754918D01*
Y00751586D01*
X0050482Y0074992D01*
X00499822D01*
X00503154D02*
X00506487Y00746588D01*
X00509819D02*
X00513151D01*
X00511485D01*
Y00756584D01*
X00509819Y00754918D01*
X00524814Y00746588D02*
X00518149D01*
X00524814Y00753252D01*
Y00754918D01*
X00523148Y00756584D01*
X00519816D01*
X00518149Y00754918D01*
X0041394Y00700196D02*
X00417272D01*
X00415606D01*
Y006902D01*
X0041394D01*
X00417272D01*
X00428935Y0069853D02*
X00427269Y00700196D01*
X00423937D01*
X0042227Y0069853D01*
Y00696864D01*
X00423937Y00695198D01*
X00427269D01*
X00428935Y00693532D01*
Y00691866D01*
X00427269Y006902D01*
X00423937D01*
X0042227Y00691866D01*
X00437266Y00700196D02*
X00433933D01*
X00432267Y0069853D01*
Y00691866D01*
X00433933Y006902D01*
X00437266D01*
X00438932Y00691866D01*
Y0069853D01*
X00437266Y00700196D01*
X00442264Y006902D02*
X00445596D01*
X0044393D01*
Y00700196D01*
X00442264Y0069853D01*
X00352756Y00460838D02*
Y00470834D01*
X00357754D01*
X00359421Y00469168D01*
Y00465836D01*
X00357754Y0046417D01*
X00352756D01*
X00356088D02*
X00359421Y00460838D01*
X00362753D02*
X00366085D01*
X00364419D01*
Y00470834D01*
X00362753Y00469168D01*
X00377748Y00470834D02*
X00374416Y00469168D01*
X00371083Y00465836D01*
Y00462504D01*
X0037275Y00460838D01*
X00376082D01*
X00377748Y00462504D01*
Y0046417D01*
X00376082Y00465836D01*
X00371083D01*
X00385776Y00460584D02*
Y0047058D01*
X00390774D01*
X0039244Y00468914D01*
Y00465582D01*
X00390774Y00463916D01*
X00385776D01*
X00389108D02*
X0039244Y00460584D01*
X00395773D02*
X00399105D01*
X00397439D01*
Y0047058D01*
X00395773Y00468914D01*
X00404104Y0047058D02*
X00410768D01*
Y00468914D01*
X00404104Y0046225D01*
Y00460584D01*
X00479044Y00458561D02*
Y0045023D01*
X0048071Y00448564D01*
X00484042D01*
X00485709Y0045023D01*
Y00458561D01*
X00489041Y00448564D02*
X00492373D01*
X00490707D01*
Y00458561D01*
X00489041Y00456895D01*
X00440132Y00751414D02*
Y0076141D01*
X0044513D01*
X00446796Y00759744D01*
Y00756412D01*
X0044513Y00754746D01*
X00440132D01*
X00443464D02*
X00446796Y00751414D01*
X00450129D02*
X00453461D01*
X00451795D01*
Y0076141D01*
X00450129Y00759744D01*
X00465124Y0076141D02*
X0045846D01*
Y00756412D01*
X00461792Y00758078D01*
X00463458D01*
X00465124Y00756412D01*
Y0075308D01*
X00463458Y00751414D01*
X00460126D01*
X0045846Y0075308D01*
X00399542Y00850138D02*
Y00860135D01*
X0040454D01*
X00406207Y00858469D01*
Y00855136D01*
X0040454Y0085347D01*
X00399542D01*
X00402874D02*
X00406207Y00850138D01*
X00409539D02*
X00412871D01*
X00411205D01*
Y00860135D01*
X00409539Y00858469D01*
X00422868Y00850138D02*
Y00860135D01*
X00417869Y00855136D01*
X00424534D01*
X00571704Y0074735D02*
Y00757346D01*
X00576702D01*
X00578368Y0075568D01*
Y00752348D01*
X00576702Y00750682D01*
X00571704D01*
X00575036D02*
X00578368Y0074735D01*
X00581701D02*
X00585033D01*
X00583367D01*
Y00757346D01*
X00581701Y0075568D01*
X00590032D02*
X00591698Y00757346D01*
X0059503D01*
X00596696Y0075568D01*
Y00754014D01*
X0059503Y00752348D01*
X00593364D01*
X0059503D01*
X00596696Y00750682D01*
Y00749016D01*
X0059503Y0074735D01*
X00591698D01*
X00590032Y00749016D01*
X00332832Y00618318D02*
Y00628314D01*
X00337831D01*
X00339497Y00626648D01*
Y00623316D01*
X00337831Y0062165D01*
X00332832D01*
X00336164D02*
X00339497Y00618318D01*
X00342829D02*
X00346161D01*
X00344495D01*
Y00628314D01*
X00342829Y00626648D01*
X0035116Y00618318D02*
X00354492D01*
X00352826D01*
Y00628314D01*
X0035116Y00626648D01*
X00344882Y00575138D02*
Y00585134D01*
X0034988D01*
X00351547Y00583468D01*
Y00580136D01*
X0034988Y0057847D01*
X00344882D01*
X00348214D02*
X00351547Y00575138D01*
X00354879D02*
X00358211D01*
X00356545D01*
Y00585134D01*
X00354879Y00583468D01*
X00363209D02*
X00364876Y00585134D01*
X00368208D01*
X00369874Y00583468D01*
Y00576804D01*
X00368208Y00575138D01*
X00364876D01*
X00363209Y00576804D01*
Y00583468D01*
X00591617Y00330282D02*
Y00340278D01*
X00596616D01*
X00598282Y00338612D01*
Y0033528D01*
X00596616Y00333614D01*
X00591617D01*
X0059495D02*
X00598282Y00330282D01*
X00601614Y00331948D02*
X0060328Y00330282D01*
X00606613D01*
X00608279Y00331948D01*
Y00338612D01*
X00606613Y00340278D01*
X0060328D01*
X00601614Y00338612D01*
Y00336946D01*
X0060328Y0033528D01*
X00608279D01*
X00559867Y00415626D02*
Y00425622D01*
X00564866D01*
X00566532Y00423956D01*
Y00420624D01*
X00564866Y00418958D01*
X00559867D01*
X005632D02*
X00566532Y00415626D01*
X00569864Y00423956D02*
X0057153Y00425622D01*
X00574863D01*
X00576529Y00423956D01*
Y0042229D01*
X00574863Y00420624D01*
X00576529Y00418958D01*
Y00417292D01*
X00574863Y00415626D01*
X0057153D01*
X00569864Y00417292D01*
Y00418958D01*
X0057153Y00420624D01*
X00569864Y0042229D01*
Y00423956D01*
X0057153Y00420624D02*
X00574863D01*
X00575361Y00470998D02*
Y00480994D01*
X0058036D01*
X00582026Y00479328D01*
Y00475996D01*
X0058036Y0047433D01*
X00575361D01*
X00578694D02*
X00582026Y00470998D01*
X00585358Y00480994D02*
X00592023D01*
Y00479328D01*
X00585358Y00472664D01*
Y00470998D01*
X00536753Y00299548D02*
Y00309544D01*
X00541752D01*
X00543418Y00307878D01*
Y00304546D01*
X00541752Y0030288D01*
X00536753D01*
X00540086D02*
X00543418Y00299548D01*
X00553415Y00309544D02*
X00550082Y00307878D01*
X0054675Y00304546D01*
Y00301214D01*
X00548416Y00299548D01*
X00551749D01*
X00553415Y00301214D01*
Y0030288D01*
X00551749Y00304546D01*
X0054675D01*
X00548437Y00383876D02*
Y00393872D01*
X00553436D01*
X00555102Y00392206D01*
Y00388874D01*
X00553436Y00387208D01*
X00548437D01*
X0055177D02*
X00555102Y00383876D01*
X00565099Y00393872D02*
X00558434D01*
Y00388874D01*
X00561766Y0039054D01*
X00563433D01*
X00565099Y00388874D01*
Y00385542D01*
X00563433Y00383876D01*
X005601D01*
X00558434Y00385542D01*
X00540563Y00468966D02*
Y00478962D01*
X00545562D01*
X00547228Y00477296D01*
Y00473964D01*
X00545562Y00472298D01*
X00540563D01*
X00543896D02*
X00547228Y00468966D01*
X00555559D02*
Y00478962D01*
X0055056Y00473964D01*
X00557225D01*
X00266243Y00492334D02*
Y0050233D01*
X00271242D01*
X00272908Y00500664D01*
Y00497332D01*
X00271242Y00495666D01*
X00266243D01*
X00269576D02*
X00272908Y00492334D01*
X0027624Y00500664D02*
X00277906Y0050233D01*
X00281238D01*
X00282905Y00500664D01*
Y00498998D01*
X00281238Y00497332D01*
X00279572D01*
X00281238D01*
X00282905Y00495666D01*
Y00494D01*
X00281238Y00492334D01*
X00277906D01*
X0027624Y00494D01*
X00475793Y00480142D02*
Y00490138D01*
X00480792D01*
X00482458Y00488472D01*
Y0048514D01*
X00480792Y00483474D01*
X00475793D01*
X00479126D02*
X00482458Y00480142D01*
X00492455D02*
X0048579D01*
X00492455Y00486806D01*
Y00488472D01*
X00490788Y00490138D01*
X00487456D01*
X0048579Y00488472D01*
X00512257Y00298786D02*
Y00308782D01*
X00517256D01*
X00518922Y00307116D01*
Y00303784D01*
X00517256Y00302118D01*
X00512257D01*
X0051559D02*
X00518922Y00298786D01*
X00522254D02*
X00525587D01*
X0052392D01*
Y00308782D01*
X00522254Y00307116D01*
X00648828Y00748508D02*
Y00755172D01*
X00647162Y00756838D01*
X00643829D01*
X00642163Y00755172D01*
Y00748508D01*
X00643829Y00746842D01*
X00647162D01*
X00645496Y00750174D02*
X00648828Y00746842D01*
X00647162D02*
X00648828Y00748508D01*
X0065216Y00755172D02*
X00653826Y00756838D01*
X00657159D01*
X00658825Y00755172D01*
Y00753506D01*
X00657159Y0075184D01*
X00655492D01*
X00657159D01*
X00658825Y00750174D01*
Y00748508D01*
X00657159Y00746842D01*
X00653826D01*
X0065216Y00748508D01*
X00291653Y0072709D02*
Y00733755D01*
X00289986Y00735421D01*
X00286654D01*
X00284988Y00733755D01*
Y0072709D01*
X00286654Y00725424D01*
X00289986D01*
X0028832Y00728756D02*
X00291653Y00725424D01*
X00289986D02*
X00291653Y0072709D01*
X00301649Y00725424D02*
X00294985D01*
X00301649Y00732088D01*
Y00733755D01*
X00299983Y00735421D01*
X00296651D01*
X00294985Y00733755D01*
X0034925Y0080896D02*
Y00815624D01*
X00347584Y0081729D01*
X00344252D01*
X00342585Y00815624D01*
Y0080896D01*
X00344252Y00807294D01*
X00347584D01*
X00345918Y00810626D02*
X0034925Y00807294D01*
X00347584D02*
X0034925Y0080896D01*
X00352582Y00807294D02*
X00355914D01*
X00354248D01*
Y0081729D01*
X00352582Y00815624D01*
X00480346Y007068D02*
X00483678D01*
X00482012D01*
Y00696804D01*
X00480346D01*
X00483678D01*
X00495341Y00705134D02*
X00493675Y007068D01*
X00490342D01*
X00488676Y00705134D01*
Y00703468D01*
X00490342Y00701802D01*
X00493675D01*
X00495341Y00700136D01*
Y0069847D01*
X00493675Y00696804D01*
X00490342D01*
X00488676Y0069847D01*
X00503671Y007068D02*
X00500339D01*
X00498673Y00705134D01*
Y0069847D01*
X00500339Y00696804D01*
X00503671D01*
X00505338Y0069847D01*
Y00705134D01*
X00503671Y007068D01*
X00515334Y00696804D02*
X0050867D01*
X00515334Y00703468D01*
Y00705134D01*
X00513668Y007068D01*
X00510336D01*
X0050867Y00705134D01*
X00567122Y00309798D02*
Y00299802D01*
X0057212D01*
X00573786Y00301468D01*
Y00308132D01*
X0057212Y00309798D01*
X00567122D01*
X00577118Y00299802D02*
X00580451D01*
X00578784D01*
Y00309798D01*
X00577118Y00308132D01*
X00406207Y00842213D02*
X0040454Y00843879D01*
X00401208D01*
X00399542Y00842213D01*
Y00835548D01*
X00401208Y00833882D01*
X0040454D01*
X00406207Y00835548D01*
X00409539Y00833882D02*
X00412871D01*
X00411205D01*
Y00843879D01*
X00409539Y00842213D01*
X00424534Y00843879D02*
X00417869D01*
Y0083888D01*
X00421202Y00840546D01*
X00422868D01*
X00424534Y0083888D01*
Y00835548D01*
X00422868Y00833882D01*
X00419536D01*
X00417869Y00835548D01*
X00581162Y00737392D02*
X00579496Y00739058D01*
X00576164D01*
X00574498Y00737392D01*
Y00730728D01*
X00576164Y00729062D01*
X00579496D01*
X00581162Y00730728D01*
X00584495Y00729062D02*
X00587827D01*
X00586161D01*
Y00739058D01*
X00584495Y00737392D01*
X00597824Y00729062D02*
Y00739058D01*
X00592826Y0073406D01*
X0059949D01*
X00645171Y00738154D02*
X00643504Y0073982D01*
X00640172D01*
X00638506Y00738154D01*
Y0073149D01*
X00640172Y00729824D01*
X00643504D01*
X00645171Y0073149D01*
X00648503Y00729824D02*
X00651835D01*
X00650169D01*
Y0073982D01*
X00648503Y00738154D01*
X00656833D02*
X006585Y0073982D01*
X00661832D01*
X00663498Y00738154D01*
Y00736488D01*
X00661832Y00734822D01*
X00660166D01*
X00661832D01*
X00663498Y00733156D01*
Y0073149D01*
X00661832Y00729824D01*
X006585D01*
X00656833Y0073149D01*
X00573797Y00565434D02*
X0057213Y005671D01*
X00568798D01*
X00567132Y00565434D01*
Y0055877D01*
X00568798Y00557104D01*
X0057213D01*
X00573797Y0055877D01*
X00577129Y00557104D02*
X00580461D01*
X00578795D01*
Y005671D01*
X00577129Y00565434D01*
X00592124Y00557104D02*
X0058546D01*
X00592124Y00563768D01*
Y00565434D01*
X00590458Y005671D01*
X00587126D01*
X0058546Y00565434D01*
X00338227Y00643666D02*
X00336561Y00645332D01*
X00333228D01*
X00331562Y00643666D01*
Y00637002D01*
X00333228Y00635336D01*
X00336561D01*
X00338227Y00637002D01*
X00341559Y00635336D02*
X00344891D01*
X00343225D01*
Y00645332D01*
X00341559Y00643666D01*
X0034989Y00635336D02*
X00353222D01*
X00351556D01*
Y00645332D01*
X0034989Y00643666D01*
X00286777Y00625378D02*
X0028511Y00627044D01*
X00281778D01*
X00280112Y00625378D01*
Y00618714D01*
X00281778Y00617048D01*
X0028511D01*
X00286777Y00618714D01*
X00290109Y00617048D02*
X00293441D01*
X00291775D01*
Y00627044D01*
X00290109Y00625378D01*
X0029844D02*
X00300106Y00627044D01*
X00303438D01*
X00305104Y00625378D01*
Y00618714D01*
X00303438Y00617048D01*
X00300106D01*
X0029844Y00618714D01*
Y00625378D01*
X00574406Y00543336D02*
X0057274Y00545002D01*
X00569408D01*
X00567741Y00543336D01*
Y00536672D01*
X00569408Y00535006D01*
X0057274D01*
X00574406Y00536672D01*
X00577738D02*
X00579404Y00535006D01*
X00582737D01*
X00584403Y00536672D01*
Y00543336D01*
X00582737Y00545002D01*
X00579404D01*
X00577738Y00543336D01*
Y0054167D01*
X00579404Y00540004D01*
X00584403D01*
X0057339Y00520476D02*
X00571724Y00522142D01*
X00568391D01*
X00566725Y00520476D01*
Y00513812D01*
X00568391Y00512146D01*
X00571724D01*
X0057339Y00513812D01*
X00576722Y00520476D02*
X00578388Y00522142D01*
X00581721D01*
X00583387Y00520476D01*
Y0051881D01*
X00581721Y00517144D01*
X00583387Y00515478D01*
Y00513812D01*
X00581721Y00512146D01*
X00578388D01*
X00576722Y00513812D01*
Y00515478D01*
X00578388Y00517144D01*
X00576722Y0051881D01*
Y00520476D01*
X00578388Y00517144D02*
X00581721D01*
X005899Y00390174D02*
X00588234Y0039184D01*
X00584902D01*
X00583235Y00390174D01*
Y0038351D01*
X00584902Y00381844D01*
X00588234D01*
X005899Y0038351D01*
X00593232Y0039184D02*
X00599897D01*
Y00390174D01*
X00593232Y0038351D01*
Y00381844D01*
X00272908Y00454182D02*
X00271242Y00455848D01*
X0026791D01*
X00266243Y00454182D01*
Y00447518D01*
X0026791Y00445852D01*
X00271242D01*
X00272908Y00447518D01*
X00282905Y00455848D02*
X0027624D01*
Y0045085D01*
X00279572Y00452516D01*
X00281238D01*
X00282905Y0045085D01*
Y00447518D01*
X00281238Y00445852D01*
X00277906D01*
X0027624Y00447518D01*
X00273924Y0047882D02*
X00272258Y00480486D01*
X00268925D01*
X00267259Y0047882D01*
Y00472156D01*
X00268925Y0047049D01*
X00272258D01*
X00273924Y00472156D01*
X00282255Y0047049D02*
Y00480486D01*
X00277256Y00475488D01*
X00283921D01*
X00424038Y0030737D02*
X00422372Y00309036D01*
X00419039D01*
X00417373Y0030737D01*
Y00300706D01*
X00419039Y0029904D01*
X00422372D01*
X00424038Y00300706D01*
X0042737Y0030737D02*
X00429036Y00309036D01*
X00432369D01*
X00434035Y0030737D01*
Y00305704D01*
X00432369Y00304038D01*
X00430702D01*
X00432369D01*
X00434035Y00302372D01*
Y00300706D01*
X00432369Y0029904D01*
X00429036D01*
X0042737Y00300706D01*
X00423784Y00293146D02*
X00422118Y00294812D01*
X00418786D01*
X00417119Y00293146D01*
Y00286482D01*
X00418786Y00284816D01*
X00422118D01*
X00423784Y00286482D01*
X00433781Y00284816D02*
X00427116D01*
X00433781Y0029148D01*
Y00293146D01*
X00432114Y00294812D01*
X00428782D01*
X00427116Y00293146D01*
X00381508Y00302036D02*
X00379842Y00303702D01*
X0037651D01*
X00374843Y00302036D01*
Y00295372D01*
X0037651Y00293706D01*
X00379842D01*
X00381508Y00295372D01*
X0038484Y00293706D02*
X00388172D01*
X00386506D01*
Y00303702D01*
X0038484Y00302036D01*
X00258197Y00531032D02*
Y00521036D01*
X00264862D01*
X00274858Y00531032D02*
X00268194D01*
Y00521036D01*
X00274858D01*
X00268194Y00526034D02*
X00271526D01*
X0027819Y00531032D02*
Y00521036D01*
X00283189D01*
X00284855Y00522702D01*
Y00529366D01*
X00283189Y00531032D01*
X0027819D01*
X00481524Y00819486D02*
Y00829482D01*
X00486522D01*
X00488188Y00827816D01*
Y00824484D01*
X00486522Y00822818D01*
X00481524D01*
X0049152Y00819486D02*
X00494852D01*
X00493186D01*
Y00829482D01*
X0049152Y00827816D01*
M02*
