G04*
G04 #@! TF.GenerationSoftware,Altium Limited,Altium Designer,20.1.11 (218)*
G04*
G04 Layer_Color=16711935*
%FSTAX24Y24*%
%MOIN*%
G70*
G04*
G04 #@! TF.SameCoordinates,E2051E8E-EE30-42B2-978D-12B425F2BF15*
G04*
G04*
G04 #@! TF.FilePolarity,Negative*
G04*
G01*
G75*
G04:AMPARAMS|DCode=32|XSize=45mil|YSize=37mil|CornerRadius=11.3mil|HoleSize=0mil|Usage=FLASHONLY|Rotation=0.000|XOffset=0mil|YOffset=0mil|HoleType=Round|Shape=RoundedRectangle|*
%AMROUNDEDRECTD32*
21,1,0.0450,0.0145,0,0,0.0*
21,1,0.0225,0.0370,0,0,0.0*
1,1,0.0225,0.0113,-0.0073*
1,1,0.0225,-0.0113,-0.0073*
1,1,0.0225,-0.0113,0.0073*
1,1,0.0225,0.0113,0.0073*
%
%ADD32ROUNDEDRECTD32*%
G04:AMPARAMS|DCode=33|XSize=45mil|YSize=37mil|CornerRadius=11.3mil|HoleSize=0mil|Usage=FLASHONLY|Rotation=270.000|XOffset=0mil|YOffset=0mil|HoleType=Round|Shape=RoundedRectangle|*
%AMROUNDEDRECTD33*
21,1,0.0450,0.0145,0,0,270.0*
21,1,0.0225,0.0370,0,0,270.0*
1,1,0.0225,-0.0073,-0.0113*
1,1,0.0225,-0.0073,0.0113*
1,1,0.0225,0.0073,0.0113*
1,1,0.0225,0.0073,-0.0113*
%
%ADD33ROUNDEDRECTD33*%
%ADD38O,0.0980X0.0730*%
%ADD39R,0.0980X0.0730*%
%ADD40O,0.0730X0.0980*%
%ADD41R,0.0730X0.0980*%
%ADD42R,0.0710X0.0710*%
%ADD43C,0.0710*%
%ADD44C,0.0080*%
G04:AMPARAMS|DCode=64|XSize=45mil|YSize=38mil|CornerRadius=11.5mil|HoleSize=0mil|Usage=FLASHONLY|Rotation=270.000|XOffset=0mil|YOffset=0mil|HoleType=Round|Shape=RoundedRectangle|*
%AMROUNDEDRECTD64*
21,1,0.0450,0.0150,0,0,270.0*
21,1,0.0220,0.0380,0,0,270.0*
1,1,0.0230,-0.0075,-0.0110*
1,1,0.0230,-0.0075,0.0110*
1,1,0.0230,0.0075,0.0110*
1,1,0.0230,0.0075,-0.0110*
%
%ADD64ROUNDEDRECTD64*%
G04:AMPARAMS|DCode=65|XSize=45mil|YSize=38mil|CornerRadius=11.5mil|HoleSize=0mil|Usage=FLASHONLY|Rotation=0.000|XOffset=0mil|YOffset=0mil|HoleType=Round|Shape=RoundedRectangle|*
%AMROUNDEDRECTD65*
21,1,0.0450,0.0150,0,0,0.0*
21,1,0.0220,0.0380,0,0,0.0*
1,1,0.0230,0.0110,-0.0075*
1,1,0.0230,-0.0110,-0.0075*
1,1,0.0230,-0.0110,0.0075*
1,1,0.0230,0.0110,0.0075*
%
%ADD65ROUNDEDRECTD65*%
G04:AMPARAMS|DCode=66|XSize=63.1mil|YSize=86.7mil|CornerRadius=17.8mil|HoleSize=0mil|Usage=FLASHONLY|Rotation=180.000|XOffset=0mil|YOffset=0mil|HoleType=Round|Shape=RoundedRectangle|*
%AMROUNDEDRECTD66*
21,1,0.0631,0.0512,0,0,180.0*
21,1,0.0276,0.0867,0,0,180.0*
1,1,0.0356,-0.0138,0.0256*
1,1,0.0356,0.0138,0.0256*
1,1,0.0356,0.0138,-0.0256*
1,1,0.0356,-0.0138,-0.0256*
%
%ADD66ROUNDEDRECTD66*%
%ADD67R,0.1379X0.1025*%
G04:AMPARAMS|DCode=68|XSize=48mil|YSize=60mil|CornerRadius=14mil|HoleSize=0mil|Usage=FLASHONLY|Rotation=90.000|XOffset=0mil|YOffset=0mil|HoleType=Round|Shape=RoundedRectangle|*
%AMROUNDEDRECTD68*
21,1,0.0480,0.0320,0,0,90.0*
21,1,0.0200,0.0600,0,0,90.0*
1,1,0.0280,0.0160,0.0100*
1,1,0.0280,0.0160,-0.0100*
1,1,0.0280,-0.0160,-0.0100*
1,1,0.0280,-0.0160,0.0100*
%
%ADD68ROUNDEDRECTD68*%
%ADD69R,0.0474X0.1025*%
%ADD70R,0.0380X0.0480*%
D32*
X050502Y035566D02*
D03*
Y034946D02*
D03*
X049705Y035556D02*
D03*
Y034936D02*
D03*
X054537Y034404D02*
D03*
Y033784D02*
D03*
X055226D02*
D03*
Y034404D02*
D03*
X055915Y033784D02*
D03*
Y034404D02*
D03*
D33*
X052387Y03063D02*
D03*
X053942Y03061D02*
D03*
X062239Y03315D02*
D03*
X061619D02*
D03*
X051767Y031181D02*
D03*
X052387D02*
D03*
X051767Y03063D02*
D03*
X050467Y029429D02*
D03*
X049847D02*
D03*
X053322Y03061D02*
D03*
X053942Y031181D02*
D03*
X053322D02*
D03*
X065251Y028031D02*
D03*
X065871D02*
D03*
X065881Y028917D02*
D03*
X065261D02*
D03*
X065881Y029547D02*
D03*
X065261D02*
D03*
D38*
X066693Y03163D02*
D03*
Y03463D02*
D03*
Y03363D02*
D03*
Y03263D02*
D03*
X066732Y030244D02*
D03*
Y027244D02*
D03*
Y028244D02*
D03*
Y029244D02*
D03*
D39*
X066693Y03563D02*
D03*
X066732Y026244D02*
D03*
D40*
X053827Y026614D02*
D03*
X050827D02*
D03*
X051827D02*
D03*
X052827D02*
D03*
X05615Y035433D02*
D03*
X05315D02*
D03*
X05415D02*
D03*
X05515D02*
D03*
D41*
X049827Y026614D02*
D03*
X05215Y035433D02*
D03*
D42*
X06276Y024591D02*
D03*
D43*
X06176D02*
D03*
X06076D02*
D03*
X05976D02*
D03*
X05876D02*
D03*
X05776D02*
D03*
X05676D02*
D03*
X05576D02*
D03*
X05476D02*
D03*
X05376D02*
D03*
Y025591D02*
D03*
X05476D02*
D03*
X05576D02*
D03*
X05676D02*
D03*
X05776D02*
D03*
X05876D02*
D03*
X05976D02*
D03*
X06076D02*
D03*
X06176D02*
D03*
X06276D02*
D03*
D44*
X051234Y024803D02*
D03*
X065092D02*
D03*
X051234D02*
D03*
X065092D02*
D03*
X051234D02*
D03*
X065092D02*
D03*
D64*
X059488Y030787D02*
D03*
X060108D02*
D03*
X06342Y028976D02*
D03*
X0628D02*
D03*
X050536Y027677D02*
D03*
X049916D02*
D03*
X050487Y028907D02*
D03*
X049867D02*
D03*
X0628Y029567D02*
D03*
X06342D02*
D03*
X065261Y027382D02*
D03*
X065881D02*
D03*
X060113Y029449D02*
D03*
X059493D02*
D03*
X064729Y033189D02*
D03*
X065349D02*
D03*
X064168D02*
D03*
X063548D02*
D03*
D65*
X061772Y02843D02*
D03*
Y02905D02*
D03*
X065669Y035507D02*
D03*
Y034887D02*
D03*
X053848Y034404D02*
D03*
Y033784D02*
D03*
X061339Y032136D02*
D03*
Y032756D02*
D03*
D66*
X063583Y032165D02*
D03*
X065315D02*
D03*
D67*
X057589Y029232D02*
D03*
D68*
X055718Y029409D02*
D03*
Y026673D02*
D03*
Y027539D02*
D03*
Y028543D02*
D03*
D69*
X057589Y026949D02*
D03*
X056683D02*
D03*
X058494D02*
D03*
D70*
X052465Y030008D02*
D03*
X054049Y029998D02*
D03*
X052079Y028968D02*
D03*
X051707Y030008D02*
D03*
X053291Y029998D02*
D03*
X053663Y028958D02*
D03*
M02*
