G04*
G04 #@! TF.GenerationSoftware,Altium Limited,Altium Designer,20.1.11 (218)*
G04*
G04 Layer_Physical_Order=1*
G04 Layer_Color=255*
%FSTAX24Y24*%
%MOIN*%
G70*
G04*
G04 #@! TF.SameCoordinates,E2051E8E-EE30-42B2-978D-12B425F2BF15*
G04*
G04*
G04 #@! TF.FilePolarity,Positive*
G04*
G01*
G75*
%ADD11C,0.0150*%
%ADD12C,0.0080*%
%ADD16C,0.0100*%
%ADD20O,0.0098X0.0551*%
%ADD21O,0.0551X0.0098*%
%ADD22R,0.0400X0.0300*%
G04:AMPARAMS|DCode=23|XSize=37mil|YSize=29mil|CornerRadius=7.3mil|HoleSize=0mil|Usage=FLASHONLY|Rotation=0.000|XOffset=0mil|YOffset=0mil|HoleType=Round|Shape=RoundedRectangle|*
%AMROUNDEDRECTD23*
21,1,0.0370,0.0145,0,0,0.0*
21,1,0.0225,0.0290,0,0,0.0*
1,1,0.0145,0.0113,-0.0073*
1,1,0.0145,-0.0113,-0.0073*
1,1,0.0145,-0.0113,0.0073*
1,1,0.0145,0.0113,0.0073*
%
%ADD23ROUNDEDRECTD23*%
G04:AMPARAMS|DCode=24|XSize=37mil|YSize=29mil|CornerRadius=7.3mil|HoleSize=0mil|Usage=FLASHONLY|Rotation=270.000|XOffset=0mil|YOffset=0mil|HoleType=Round|Shape=RoundedRectangle|*
%AMROUNDEDRECTD24*
21,1,0.0370,0.0145,0,0,270.0*
21,1,0.0225,0.0290,0,0,270.0*
1,1,0.0145,-0.0073,-0.0113*
1,1,0.0145,-0.0073,0.0113*
1,1,0.0145,0.0073,0.0113*
1,1,0.0145,0.0073,-0.0113*
%
%ADD24ROUNDEDRECTD24*%
%ADD25R,0.0709X0.0276*%
%ADD26R,0.0276X0.0709*%
%ADD27R,0.0394X0.0550*%
%ADD28R,0.0550X0.0394*%
%ADD45C,0.0200*%
%ADD46C,0.0250*%
%ADD47O,0.0900X0.0650*%
%ADD48R,0.0900X0.0650*%
%ADD49O,0.0650X0.0900*%
%ADD50R,0.0650X0.0900*%
%ADD51R,0.0630X0.0630*%
%ADD52C,0.0630*%
%ADD53C,0.0280*%
%ADD54C,0.0350*%
%ADD55C,0.0250*%
%ADD56C,0.0320*%
G36*
X063438Y035629D02*
X063428Y035642D01*
X063417Y035654D01*
X063404Y035664D01*
X063389Y035673D01*
X063373Y035681D01*
X063355Y035687D01*
X063335Y035692D01*
X063314Y035695D01*
X063291Y035697D01*
X063289Y035697D01*
X063284Y035697D01*
X063254Y035695D01*
X063228Y035691D01*
X063205Y035686D01*
X063187Y035679D01*
X063171Y035671D01*
X06316Y035662D01*
X063152Y03565D01*
X063148Y035638D01*
X063148Y035624D01*
X063123Y035883D01*
X063134Y035876D01*
X063147Y03587D01*
X063161Y035865D01*
X063177Y035861D01*
X063195Y035857D01*
X063236Y035851D01*
X063258Y035849D01*
X063294Y035848D01*
X063296Y035849D01*
X063341Y035852D01*
X063362Y035855D01*
X063381Y035859D01*
X0634Y035864D01*
X063417Y03587D01*
X063433Y035877D01*
X063448Y035884D01*
X063462Y035893D01*
X063438Y035629D01*
D02*
G37*
G36*
X061583Y035668D02*
X061582Y035677D01*
X061579Y035686D01*
X061574Y035693D01*
X061567Y0357D01*
X061558Y035705D01*
X061547Y03571D01*
X061534Y035713D01*
X061519Y035716D01*
X061501Y035717D01*
X061499Y035717D01*
X061497Y035717D01*
X06148Y035716D01*
X061465Y035713D01*
X061451Y03571D01*
X06144Y035705D01*
X061431Y0357D01*
X061424Y035693D01*
X061419Y035686D01*
X061416Y035677D01*
X061415Y035668D01*
Y035868D01*
X061416Y035858D01*
X061419Y03585D01*
X061424Y035842D01*
X061431Y035836D01*
X06144Y03583D01*
X061451Y035826D01*
X061465Y035822D01*
X06148Y03582D01*
X061497Y035818D01*
X061499Y035818D01*
X061501Y035818D01*
X061519Y03582D01*
X061534Y035822D01*
X061547Y035826D01*
X061558Y03583D01*
X061567Y035836D01*
X061574Y035842D01*
X061579Y03585D01*
X061582Y035858D01*
X061583Y035868D01*
Y035668D01*
D02*
G37*
G36*
X066043Y035787D02*
X06603Y035786D01*
X065989Y035785D01*
X065984Y035784D01*
X065935D01*
X065929Y035785D01*
X065929Y035785D01*
X065929Y035785D01*
X065689Y035784D01*
X065687Y035784D01*
X065685D01*
X065684Y035784D01*
X065676Y035784D01*
X065676Y035784D01*
X065506D01*
X065484Y035781D01*
X065081D01*
Y035081D01*
X065666D01*
X065679Y035078D01*
X065692Y035081D01*
X065706Y03508D01*
X065709Y035081D01*
X065881D01*
Y035126D01*
X06589Y035127D01*
X065932Y035127D01*
X065937Y035128D01*
X065986D01*
X065991Y035127D01*
X066043Y035126D01*
Y035105D01*
X06623D01*
X066244Y035102D01*
X066253Y035104D01*
X066263Y035103D01*
X066269Y035105D01*
X066537D01*
X06654Y035055D01*
X066457Y035044D01*
X066354Y035001D01*
X066265Y034933D01*
X066197Y034844D01*
X066154Y034741D01*
X066146Y03468D01*
X066693D01*
Y03458D01*
X066146D01*
X066154Y034519D01*
X066197Y034416D01*
X066265Y034327D01*
X066354Y034259D01*
X066457Y034216D01*
X066535Y034206D01*
Y034155D01*
X066431Y034141D01*
X066303Y034089D01*
X066193Y034004D01*
X066109Y033895D01*
X066056Y033767D01*
X066038Y03363D01*
X066031Y033621D01*
X062972D01*
X062875Y033602D01*
X062792Y033546D01*
X062763Y033503D01*
X062663Y033403D01*
X062605Y033427D01*
X06252Y033438D01*
X062504Y033436D01*
X062477Y033483D01*
X062489Y033498D01*
X062521Y033577D01*
X062533Y033661D01*
X062521Y033746D01*
X062489Y033825D01*
X062437Y033893D01*
X062369Y033945D01*
X06229Y033978D01*
X062205Y033989D01*
X06212Y033978D01*
X062041Y033945D01*
X061973Y033893D01*
X061944D01*
X061877Y033945D01*
X061797Y033978D01*
X061713Y033989D01*
X061628Y033978D01*
X061549Y033945D01*
X061481Y033893D01*
X061429Y033825D01*
X061396Y033746D01*
X061385Y033661D01*
X061396Y033577D01*
X061429Y033498D01*
X06145Y03347D01*
X061429Y033436D01*
X06142Y033427D01*
X061339Y033438D01*
X061254Y033427D01*
X061175Y033394D01*
X061107Y033342D01*
X061055Y033274D01*
X061033Y033221D01*
X060983Y033231D01*
Y034101D01*
X061086Y034204D01*
X06252D01*
X06256Y034212D01*
X062605Y034182D01*
X062611Y034174D01*
X062611Y034171D01*
X06262Y034108D01*
X062647Y034041D01*
X062691Y033984D01*
X062748Y033941D01*
X062814Y033913D01*
X062885Y033904D01*
X06303D01*
X063101Y033913D01*
X063168Y033941D01*
X063225Y033984D01*
X063243Y034008D01*
X063293D01*
X063311Y033984D01*
X063368Y033941D01*
X063434Y033913D01*
X063505Y033904D01*
X06365D01*
X063721Y033913D01*
X063788Y033941D01*
X063845Y033984D01*
X063866Y034012D01*
X063878Y034012D01*
X063884Y034014D01*
X064111D01*
Y033836D01*
X064905D01*
Y034786D01*
X064841D01*
Y035395D01*
X064041D01*
Y035395D01*
X063991Y035393D01*
X063941Y035397D01*
X063922Y0354D01*
X063908Y035403D01*
X063904Y035404D01*
X063894Y035411D01*
X063893Y035413D01*
X063889Y03546D01*
X063894Y035475D01*
X063909Y035486D01*
X063912Y035489D01*
X063916Y035493D01*
X063916Y035493D01*
X063926Y035494D01*
X063943Y035494D01*
X063944Y035494D01*
X063944Y035494D01*
X06395Y035496D01*
X064041D01*
Y035453D01*
X064228D01*
X064242Y03545D01*
X064255Y035453D01*
X064841D01*
Y035976D01*
X066043D01*
Y035787D01*
D02*
G37*
G36*
X060199Y035707D02*
X060198Y035715D01*
X060196Y035722D01*
X060192Y035728D01*
X060186Y035733D01*
X060179Y035737D01*
X06017Y035741D01*
X060159Y035744D01*
X060147Y035746D01*
X060133Y035747D01*
X060118Y035747D01*
Y035827D01*
X060133Y035828D01*
X060147Y035829D01*
X060159Y035831D01*
X06017Y035834D01*
X060179Y035837D01*
X060186Y035842D01*
X060192Y035847D01*
X060196Y035853D01*
X060198Y03586D01*
X060199Y035867D01*
Y035707D01*
D02*
G37*
G36*
X064242Y035654D02*
X06424Y035663D01*
X064236Y03567D01*
X064228Y035677D01*
X064218Y035682D01*
X064204Y035687D01*
X064188Y035691D01*
X064168Y035694D01*
X064146Y035696D01*
X064092Y035698D01*
Y035848D01*
X06412Y035849D01*
X064146Y035851D01*
X064168Y035855D01*
X064188Y03586D01*
X064204Y035867D01*
X064218Y035875D01*
X064228Y035885D01*
X064236Y035896D01*
X06424Y035909D01*
X064242Y035923D01*
Y035654D01*
D02*
G37*
G36*
X063757Y035884D02*
X063772Y035877D01*
X063788Y03587D01*
X063805Y035864D01*
X063824Y035859D01*
X063843Y035855D01*
X063864Y035852D01*
X063909Y035849D01*
X063933Y035848D01*
X063938Y035698D01*
X063913Y035697D01*
X063891Y035695D01*
X06387Y035692D01*
X06385Y035687D01*
X063832Y035681D01*
X063816Y035673D01*
X063801Y035664D01*
X063788Y035654D01*
X063776Y035642D01*
X063766Y035629D01*
X063743Y035893D01*
X063757Y035884D01*
D02*
G37*
G36*
X062438Y035588D02*
X062429Y035585D01*
X062422Y03558D01*
X062415Y035572D01*
X06241Y035563D01*
X062405Y035551D01*
X062402Y035537D01*
X062399Y035521D01*
X062398Y035503D01*
X062397Y035483D01*
X062297D01*
X062297Y035503D01*
X062295Y035521D01*
X062293Y035537D01*
X062289Y035551D01*
X062285Y035563D01*
X062279Y035572D01*
X062273Y03558D01*
X062266Y035585D01*
X062257Y035588D01*
X062248Y035589D01*
X062447D01*
X062438Y035588D01*
D02*
G37*
G36*
X062398Y035393D02*
X062399Y035375D01*
X062402Y035359D01*
X062405Y035345D01*
X06241Y035333D01*
X062415Y035324D01*
X062422Y035316D01*
X062429Y035311D01*
X062438Y035308D01*
X062447Y035306D01*
X062248D01*
X062257Y035308D01*
X062266Y035311D01*
X062273Y035316D01*
X062279Y035324D01*
X062285Y035333D01*
X062289Y035345D01*
X062293Y035359D01*
X062295Y035375D01*
X062297Y035393D01*
X062297Y035413D01*
X062397D01*
X062398Y035393D01*
D02*
G37*
G36*
X066244Y035306D02*
X066242Y035311D01*
X066234Y035315D01*
X066222Y035319D01*
X066204Y035322D01*
X066182Y035325D01*
X066122Y035329D01*
X065994Y035331D01*
Y035581D01*
X066042Y035582D01*
X066084Y035586D01*
X066122Y035592D01*
X066155Y035601D01*
X066182Y035612D01*
X066205Y035626D01*
X066223Y035642D01*
X066235Y035661D01*
X066243Y035682D01*
X066245Y035706D01*
X066244Y035306D01*
D02*
G37*
G36*
X065929Y035331D02*
X065882Y035331D01*
X065769Y035323D01*
X065742Y035319D01*
X065719Y035313D01*
X065702Y035307D01*
X065689Y0353D01*
X065682Y035292D01*
X065679Y035282D01*
Y03558D01*
X065682Y03558D01*
X065689Y03558D01*
X065929Y035581D01*
Y035331D01*
D02*
G37*
G36*
X056475Y035446D02*
X056477Y035439D01*
X056482Y035433D01*
X056488Y035428D01*
X056496Y035423D01*
X056507Y03542D01*
X056519Y035417D01*
X056533Y035415D01*
X056548Y035414D01*
X056566Y035413D01*
Y035313D01*
X056548Y035313D01*
X056532Y035311D01*
X056518Y035309D01*
X056505Y035307D01*
X056495Y035303D01*
X056486Y035298D01*
X056479Y035293D01*
X056474Y035287D01*
X056471Y03528D01*
X05647Y035272D01*
X056474Y035454D01*
X056475Y035446D01*
D02*
G37*
G36*
X061583Y035028D02*
X061582Y035037D01*
X061579Y035046D01*
X061574Y035053D01*
X061567Y03506D01*
X061558Y035065D01*
X061547Y03507D01*
X061534Y035073D01*
X061519Y035076D01*
X061509Y035077D01*
X061499Y035076D01*
X061484Y035073D01*
X061471Y03507D01*
X06146Y035065D01*
X061451Y03506D01*
X061444Y035053D01*
X061439Y035046D01*
X061436Y035037D01*
X061435Y035028D01*
Y035228D01*
X061436Y035218D01*
X061439Y03521D01*
X061444Y035202D01*
X061451Y035196D01*
X06146Y03519D01*
X061471Y035186D01*
X061484Y035182D01*
X061499Y03518D01*
X061509Y035179D01*
X061519Y03518D01*
X061534Y035182D01*
X061547Y035186D01*
X061558Y03519D01*
X061567Y035196D01*
X061574Y035202D01*
X061579Y03521D01*
X061582Y035218D01*
X061583Y035228D01*
Y035028D01*
D02*
G37*
G36*
X062937Y034979D02*
X06293Y034981D01*
X062923Y03498D01*
X062917Y034977D01*
X062912Y034972D01*
X062907Y034965D01*
X062904Y034956D01*
X062901Y034945D01*
X062899Y034931D01*
X062898Y034916D01*
X062897Y034898D01*
X062817Y034921D01*
X062817Y034936D01*
X062814Y034986D01*
X062812Y034996D01*
X06281Y035004D01*
X062808Y035012D01*
X062805Y035018D01*
X062803Y035023D01*
X062937Y034979D01*
D02*
G37*
G36*
X063777Y035244D02*
X063792Y035232D01*
X06381Y035222D01*
X063832Y035213D01*
X063857Y035205D01*
X063886Y035199D01*
X063919Y035194D01*
X063994Y035189D01*
X064038Y035188D01*
Y034938D01*
X063967Y034938D01*
X063775Y034952D01*
X063765Y034954D01*
X063761Y034914D01*
X063757Y034799D01*
X063757Y034753D01*
X063544Y03474D01*
Y034646D01*
X063534Y034653D01*
X06352Y03466D01*
X063507Y034664D01*
Y034612D01*
X063493Y034626D01*
X063478Y034638D01*
X063464Y034649D01*
X063449Y034658D01*
X063434Y034666D01*
X06342Y034673D01*
X063405Y034678D01*
X063392Y034681D01*
X063313Y034684D01*
X063267Y034684D01*
Y034784D01*
X063313Y034785D01*
X063404Y034791D01*
X063405Y034791D01*
X06342Y034796D01*
X063434Y034802D01*
X063449Y03481D01*
X063464Y03482D01*
X063478Y034831D01*
X063493Y034843D01*
X063501Y034851D01*
X063501Y034857D01*
X063496Y034889D01*
X06349Y034918D01*
X063482Y034944D01*
X063473Y034965D01*
X063463Y034984D01*
X063451Y034998D01*
X063438Y035009D01*
X063746Y03503D01*
X063766Y035257D01*
X063777Y035244D01*
D02*
G37*
G36*
X062438Y034948D02*
X062429Y034945D01*
X062422Y03494D01*
X062415Y034932D01*
X06241Y034923D01*
X062405Y034911D01*
X062402Y034897D01*
X062401Y034892D01*
X062403Y034882D01*
X062407Y034872D01*
X062411Y034862D01*
X062416Y034853D01*
X062421Y034844D01*
X062428Y034836D01*
X062435Y034828D01*
X06226D01*
X062267Y034836D01*
X062273Y034844D01*
X062279Y034853D01*
X062284Y034862D01*
X062288Y034872D01*
X062291Y034882D01*
X062294Y034892D01*
X062293Y034897D01*
X062289Y034911D01*
X062285Y034923D01*
X062279Y034932D01*
X062273Y03494D01*
X062266Y034945D01*
X062257Y034948D01*
X062248Y034949D01*
X062447D01*
X062438Y034948D01*
D02*
G37*
G36*
X060609Y034834D02*
X060611Y034834D01*
X060613Y034831D01*
X060615Y034827D01*
X060617Y034822D01*
X060618Y034814D01*
X060619Y034806D01*
X06062Y034783D01*
X060621Y034754D01*
X060541D01*
X06054Y03477D01*
X060539Y034784D01*
X060537Y034796D01*
X060534Y034806D01*
X060531Y034815D01*
X060526Y034822D01*
X060521Y034828D01*
X060515Y034832D01*
X060508Y034835D01*
X060501Y034836D01*
X060609Y034834D01*
D02*
G37*
G36*
X05734Y034669D02*
X057176Y034621D01*
X05718Y034629D01*
X057182Y034637D01*
X057183Y034645D01*
X057183Y034653D01*
X057181Y034662D01*
X057178Y03467D01*
X057174Y034679D01*
X057168Y034688D01*
X05716Y034698D01*
X057151Y034707D01*
X057234Y034766D01*
X05734Y034669D01*
D02*
G37*
G36*
X05679Y034728D02*
X0568Y03472D01*
X056809Y034713D01*
X056818Y034708D01*
X056828Y034703D01*
X056838Y034699D01*
X056848Y034696D01*
X056858Y034694D01*
X056868Y034692D01*
X056879Y034692D01*
X056755Y034568D01*
X056755Y034579D01*
X056753Y034589D01*
X056751Y034599D01*
X056748Y034609D01*
X056744Y034619D01*
X056739Y034628D01*
X056733Y034638D01*
X056727Y034647D01*
X056719Y034657D01*
X056711Y034666D01*
X056781Y034736D01*
X05679Y034728D01*
D02*
G37*
G36*
X063008Y034556D02*
X06301Y034538D01*
X063012Y034522D01*
X063016Y034508D01*
X06302Y034497D01*
X063026Y034487D01*
X063032Y034479D01*
X06304Y034474D01*
X063048Y034471D01*
X063057Y03447D01*
X062858D01*
X062867Y034471D01*
X062876Y034474D01*
X062883Y034479D01*
X06289Y034487D01*
X062895Y034497D01*
X0629Y034508D01*
X062903Y034522D01*
X062906Y034538D01*
X062907Y034556D01*
X062908Y034577D01*
X063008D01*
X063008Y034556D01*
D02*
G37*
G36*
X056387Y034342D02*
X056384Y034344D01*
X05638Y034346D01*
X056374Y034348D01*
X056368Y03435D01*
X05636Y034351D01*
X05634Y034353D01*
X056315Y034354D01*
X056301Y034354D01*
Y034504D01*
X056315Y034504D01*
X05636Y034507D01*
X056368Y034509D01*
X056374Y03451D01*
X05638Y034512D01*
X056384Y034514D01*
X056387Y034517D01*
Y034342D01*
D02*
G37*
G36*
X059753Y035926D02*
X059709Y035882D01*
X059656Y035802D01*
X059637Y035709D01*
Y034724D01*
X059656Y034631D01*
X059709Y034551D01*
X060179Y034082D01*
Y032518D01*
X060178Y032507D01*
X060177Y032498D01*
X060178Y032495D01*
X060169Y032451D01*
Y032006D01*
X059724D01*
X059692Y032D01*
X059691Y032D01*
X059639Y031997D01*
X059097D01*
X05871Y032384D01*
X058708Y032391D01*
X058706Y032397D01*
X058703Y032404D01*
X058702Y032408D01*
X05867Y032487D01*
X058618Y032555D01*
X05855Y032607D01*
X058471Y032639D01*
X058386Y032651D01*
X058301Y032639D01*
X058222Y032607D01*
X058154Y032555D01*
X058102Y032487D01*
X058069Y032408D01*
X058058Y032323D01*
X058069Y032238D01*
X058102Y032159D01*
X058154Y032091D01*
Y032082D01*
X058102Y032014D01*
X058069Y031935D01*
X058058Y03185D01*
X058069Y031766D01*
X058102Y031686D01*
X058111Y031675D01*
X058095Y031619D01*
X058062Y031597D01*
X057937Y031472D01*
X057884Y031393D01*
X057866Y031299D01*
Y029921D01*
X057884Y029828D01*
X057937Y029748D01*
X058044Y029642D01*
X058025Y029595D01*
X057792D01*
X057752Y029647D01*
X057695Y029691D01*
X057629Y029719D01*
X057558Y029728D01*
X057413D01*
X057342Y029719D01*
X057275Y029691D01*
X057218Y029647D01*
X0572Y029624D01*
X05715D01*
X057132Y029647D01*
X057075Y029691D01*
X057009Y029719D01*
X056938Y029728D01*
X056793D01*
X056722Y029719D01*
X056655Y029691D01*
X056598Y029647D01*
X056555Y02959D01*
X056539Y029554D01*
X056489Y029563D01*
Y030115D01*
Y030592D01*
X056732D01*
X05683Y030611D01*
X056913Y030666D01*
X057427Y031181D01*
X057482Y031264D01*
X057502Y031361D01*
Y032353D01*
X057531Y032391D01*
X057564Y03247D01*
X057575Y032555D01*
X057564Y032639D01*
X057531Y032719D01*
X057479Y032786D01*
X057411Y032839D01*
X057332Y032871D01*
X057247Y032882D01*
X057162Y032871D01*
X057083Y032839D01*
X05708Y032836D01*
X057076Y032839D01*
X056997Y032871D01*
X056912Y032882D01*
X056827Y032871D01*
X056748Y032839D01*
X05668Y032786D01*
X056628Y032719D01*
X056596Y032639D01*
X056584Y032555D01*
X056596Y03247D01*
X056628Y032391D01*
X056657Y032353D01*
Y03176D01*
X056536Y031638D01*
X056489Y031657D01*
Y032365D01*
X056389D01*
Y032371D01*
X055935D01*
X055582D01*
Y032285D01*
X05558Y032296D01*
X055576Y032307D01*
X055568Y032316D01*
X055558Y032324D01*
X055544Y032331D01*
X055528Y032336D01*
X055508Y032341D01*
X055486Y032344D01*
X05546Y032346D01*
X055432Y032346D01*
Y032365D01*
X055381D01*
Y03169D01*
Y031296D01*
Y030902D01*
Y030559D01*
X055331Y030549D01*
X055323Y030567D01*
X055271Y030635D01*
X055203Y030687D01*
X055124Y03072D01*
X055039Y030731D01*
X054282D01*
X054197Y03072D01*
X054191Y030718D01*
X05271D01*
X052625Y030707D01*
X052546Y030674D01*
X052478Y030622D01*
X052426Y030554D01*
X052394Y030475D01*
X052382Y03039D01*
X052394Y030305D01*
X052426Y030226D01*
X052478Y030158D01*
X052546Y030106D01*
X052625Y030073D01*
X05271Y030062D01*
X054268D01*
X05431Y030068D01*
X054353Y030073D01*
X054358Y030076D01*
X055039D01*
X055124Y030087D01*
X055203Y03012D01*
X055271Y030172D01*
X055323Y03024D01*
X055331Y030258D01*
X055381Y030248D01*
Y029721D01*
Y029328D01*
Y028934D01*
Y02854D01*
Y028146D01*
X056098D01*
X056117Y0281D01*
X054392Y026375D01*
X054344Y026398D01*
X054356Y026489D01*
Y026739D01*
X054338Y026876D01*
X054285Y027004D01*
X054201Y027114D01*
X054174Y027135D01*
X05419Y027182D01*
X054737D01*
Y028291D01*
X052881D01*
Y028239D01*
X0529D01*
X0529Y028211D01*
X052905Y028163D01*
X05291Y028143D01*
X052915Y028127D01*
X052922Y028113D01*
X05293Y028103D01*
X052939Y028095D01*
X05295Y028091D01*
X052961Y028089D01*
X052875D01*
Y027736D01*
X052775D01*
Y028089D01*
X052688D01*
X0527Y028091D01*
X05271Y028095D01*
X05272Y028103D01*
X052728Y028113D01*
X052734Y028127D01*
X05274Y028143D01*
X052744Y028163D01*
X052747Y028185D01*
X052749Y028211D01*
X05275Y028239D01*
X052769D01*
Y028291D01*
X051306D01*
Y027182D01*
X051464D01*
X05148Y027135D01*
X051452Y027114D01*
X051368Y027004D01*
X051352Y026964D01*
X051302D01*
X051285Y027004D01*
X051201Y027114D01*
X051092Y027198D01*
X050964Y027251D01*
X050827Y027269D01*
X05069Y027251D01*
X050562Y027198D01*
X050452Y027114D01*
X050368Y027004D01*
X050315Y026876D01*
X050302Y026774D01*
X050252Y026777D01*
Y027164D01*
X049877D01*
Y026614D01*
Y026064D01*
X050252D01*
Y026451D01*
X050302Y026455D01*
X050315Y026352D01*
X050368Y026224D01*
X050452Y026115D01*
X050562Y026031D01*
X05069Y025978D01*
X050827Y02596D01*
X050964Y025978D01*
X051092Y026031D01*
X051201Y026115D01*
X051285Y026224D01*
X051302Y026264D01*
X051352D01*
X051368Y026224D01*
X051452Y026115D01*
X051562Y026031D01*
X05169Y025978D01*
X051827Y02596D01*
X051964Y025978D01*
X052092Y026031D01*
X052201Y026115D01*
X052285Y026224D01*
X052302Y026264D01*
X052352D01*
X052368Y026224D01*
X052452Y026115D01*
X052562Y026031D01*
X05269Y025978D01*
X052827Y02596D01*
X052964Y025978D01*
X053092Y026031D01*
X053201Y026115D01*
X053285Y026224D01*
X053302Y026264D01*
X053352D01*
X053368Y026224D01*
X053452Y026115D01*
X05349Y026086D01*
X053484Y026028D01*
X053393Y025958D01*
X05331Y02585D01*
X053258Y025725D01*
X05324Y025591D01*
X053258Y025456D01*
X05331Y025331D01*
X053393Y025223D01*
X0535Y025141D01*
X053625Y025089D01*
X05376Y025071D01*
X053894Y025089D01*
X05402Y025141D01*
X054127Y025223D01*
X05421Y025331D01*
X054233Y025387D01*
X054284Y025395D01*
X05431Y025331D01*
X054393Y025223D01*
X0545Y025141D01*
X054561Y025116D01*
Y025066D01*
X0545Y02504D01*
X054393Y024958D01*
X05431Y02485D01*
X054258Y024725D01*
X05424Y024591D01*
X054258Y024456D01*
X05431Y024331D01*
X054393Y024223D01*
X0545Y024141D01*
X054625Y024089D01*
X05476Y024071D01*
X054894Y024089D01*
X05502Y024141D01*
X055127Y024223D01*
X05521Y024331D01*
X055235Y024392D01*
X055285D01*
X05531Y024331D01*
X055393Y024223D01*
X0555Y024141D01*
X055625Y024089D01*
X05576Y024071D01*
X055894Y024089D01*
X05602Y024141D01*
X056127Y024223D01*
X05621Y024331D01*
X056235Y024392D01*
X056285D01*
X05631Y024331D01*
X056393Y024223D01*
X0565Y024141D01*
X056625Y024089D01*
X05676Y024071D01*
X056894Y024089D01*
X05702Y024141D01*
X057127Y024223D01*
X05721Y024331D01*
X057235Y024392D01*
X057285D01*
X05731Y024331D01*
X057393Y024223D01*
X0575Y024141D01*
X057625Y024089D01*
X05776Y024071D01*
X057894Y024089D01*
X05802Y024141D01*
X058127Y024223D01*
X05821Y024331D01*
X058235Y024392D01*
X058285D01*
X05831Y024331D01*
X058393Y024223D01*
X0585Y024141D01*
X058625Y024089D01*
X05876Y024071D01*
X058894Y024089D01*
X05902Y024141D01*
X059127Y024223D01*
X05921Y024331D01*
X059235Y024392D01*
X059285D01*
X05931Y024331D01*
X059393Y024223D01*
X0595Y024141D01*
X059625Y024089D01*
X05976Y024071D01*
X059894Y024089D01*
X06002Y024141D01*
X060127Y024223D01*
X06021Y024331D01*
X060235Y024392D01*
X060285D01*
X06031Y024331D01*
X060393Y024223D01*
X0605Y024141D01*
X060625Y024089D01*
X06076Y024071D01*
X060894Y024089D01*
X06102Y024141D01*
X061127Y024223D01*
X06121Y024331D01*
X061235Y024392D01*
X061285D01*
X06131Y024331D01*
X061393Y024223D01*
X0615Y024141D01*
X061625Y024089D01*
X06176Y024071D01*
X061894Y024089D01*
X06202Y024141D01*
X062127Y024223D01*
X062195Y024312D01*
X062245Y024295D01*
Y024076D01*
X063275D01*
Y025106D01*
X063056D01*
X063039Y025156D01*
X063127Y025223D01*
X06321Y025331D01*
X063262Y025456D01*
X063279Y025591D01*
X063262Y025725D01*
X06321Y02585D01*
X063127Y025958D01*
X06302Y02604D01*
X062894Y026092D01*
X06276Y02611D01*
X062625Y026092D01*
X0625Y02604D01*
X062468Y026079D01*
X062958Y026569D01*
X063012Y026648D01*
X06303Y026742D01*
Y028624D01*
X06303Y028635D01*
X063031Y028644D01*
X063031Y028647D01*
X06304Y028691D01*
Y029136D01*
X063387D01*
X063412Y029086D01*
X063411Y029082D01*
X063407Y029064D01*
X063406Y02906D01*
X063405Y029059D01*
X063405Y029058D01*
X063404Y029049D01*
X063402Y029044D01*
X063391Y028959D01*
X063402Y028874D01*
X063435Y028795D01*
X063487Y028727D01*
X063555Y028675D01*
X063634Y028642D01*
X063718Y028631D01*
X063803Y028642D01*
X063882Y028675D01*
X06395Y028727D01*
X064002Y028795D01*
X064035Y028874D01*
X064046Y028959D01*
X064035Y029044D01*
X064031Y029053D01*
X064056Y029096D01*
X06407Y029098D01*
X064093Y029108D01*
X064169D01*
X064969Y028307D01*
X064972Y028301D01*
X065024Y028233D01*
X065092Y028181D01*
X065099Y028178D01*
X066075Y027202D01*
X066084Y027194D01*
X066096Y027107D01*
X066149Y026979D01*
X066233Y02687D01*
X066343Y026786D01*
X06647Y026733D01*
X066573Y026719D01*
X06657Y026669D01*
X066182D01*
Y026294D01*
X066732D01*
Y026244D01*
X066782D01*
Y025819D01*
X067088D01*
Y023867D01*
X049457D01*
Y026064D01*
X049777D01*
Y026614D01*
Y027164D01*
X049457D01*
Y028163D01*
X049499Y028191D01*
X049531Y028177D01*
X049554Y028174D01*
Y028146D01*
X050663D01*
Y028803D01*
X05066Y028803D01*
X050656Y028822D01*
X050611D01*
Y028803D01*
X050583Y028802D01*
X050535Y028797D01*
X050515Y028793D01*
X050499Y028788D01*
X050485Y028781D01*
X050475Y028773D01*
X050467Y028764D01*
X050463Y028753D01*
X050461Y028741D01*
Y028828D01*
X050108D01*
Y028928D01*
X050461D01*
Y029015D01*
X050463Y029003D01*
X050467Y028992D01*
X050475Y028983D01*
X050485Y028975D01*
X050499Y028968D01*
X050515Y028963D01*
X050535Y028958D01*
X050557Y028955D01*
X050583Y028954D01*
X050611Y028953D01*
Y028934D01*
X050634D01*
X05063Y028953D01*
X050644Y028953D01*
X050657Y028954D01*
X050663Y028954D01*
Y029328D01*
Y029721D01*
Y030397D01*
X049796D01*
X049752Y030447D01*
X049757Y030482D01*
X049746Y030567D01*
X049713Y030646D01*
X049661Y030714D01*
X049593Y030766D01*
X049514Y030799D01*
X049457Y030806D01*
Y034526D01*
X049627D01*
X049627Y034532D01*
X049623Y034554D01*
X049618Y034574D01*
X049611Y034591D01*
X049603Y034604D01*
X049593Y034615D01*
X049582Y034622D01*
X049569Y034627D01*
X049555Y034628D01*
X049655D01*
Y034823D01*
X049755D01*
Y034628D01*
X049855D01*
X049841Y034627D01*
X049828Y034622D01*
X049817Y034615D01*
X049807Y034604D01*
X049799Y034591D01*
X049792Y034574D01*
X049787Y034554D01*
X049783Y034532D01*
X049782Y034526D01*
X050017D01*
Y034426D01*
X050531D01*
X050537Y034418D01*
X050597Y034357D01*
X05068Y034302D01*
X050778Y034283D01*
X051306D01*
Y033206D01*
X053163D01*
Y034314D01*
X052992D01*
Y034369D01*
X052972Y034467D01*
X052917Y03455D01*
X052749Y034718D01*
X052666Y034773D01*
X052569Y034792D01*
X050967D01*
Y03522D01*
X050967D01*
Y035253D01*
X050967D01*
Y035976D01*
X051725D01*
Y035483D01*
X05215D01*
Y035433D01*
X0522D01*
Y034883D01*
X052575D01*
Y03527D01*
X052625Y035274D01*
X052638Y035171D01*
X052691Y035043D01*
X052775Y034934D01*
X052885Y034849D01*
X053013Y034797D01*
X053101Y034785D01*
X053102Y034783D01*
X053652Y034233D01*
X05371Y034189D01*
X053777Y034161D01*
X053848Y034152D01*
X056292D01*
X0563Y03415D01*
X056306Y03415D01*
X056312Y034145D01*
X056392Y034113D01*
X056476Y034101D01*
X056561Y034113D01*
X05664Y034145D01*
X056708Y034197D01*
X05676Y034265D01*
X056795Y03425D01*
X05688Y034239D01*
X056965Y03425D01*
X057044Y034283D01*
X057075Y034307D01*
X05712Y034273D01*
X057199Y03424D01*
X057283Y034229D01*
X057368Y03424D01*
X057447Y034273D01*
X057515Y034325D01*
X057567Y034393D01*
X0576Y034472D01*
X057611Y034557D01*
X0576Y034642D01*
X057567Y034721D01*
X057515Y034789D01*
X05748Y034816D01*
X057478Y034819D01*
X057392Y034898D01*
X056746Y035543D01*
X056675Y035591D01*
X056661Y035695D01*
X056608Y035823D01*
X056529Y035926D01*
X056541Y035976D01*
X059732D01*
X059753Y035926D01*
D02*
G37*
G36*
X063712Y034427D02*
X063716Y034414D01*
X063725Y034403D01*
X063736Y034393D01*
X063751Y034385D01*
X063769Y034378D01*
X06379Y034373D01*
X063814Y034369D01*
X063842Y034367D01*
X063873Y034366D01*
Y034216D01*
X063842Y034216D01*
X063814Y034213D01*
X06379Y03421D01*
X063769Y034204D01*
X063751Y034198D01*
X063736Y03419D01*
X063725Y03418D01*
X063716Y034169D01*
X063712Y034156D01*
X06371Y034142D01*
Y034441D01*
X063712Y034427D01*
D02*
G37*
G36*
X064313Y034141D02*
X064312Y034156D01*
X064307Y034168D01*
X0643Y03418D01*
X064289Y034189D01*
X064276Y034198D01*
X064259Y034204D01*
X064239Y03421D01*
X064217Y034213D01*
X064191Y034216D01*
X064162Y034216D01*
Y034366D01*
X064191Y034367D01*
X064217Y034369D01*
X064239Y034373D01*
X064259Y034378D01*
X064276Y034385D01*
X064289Y034393D01*
X0643Y034403D01*
X064307Y034414D01*
X064312Y034427D01*
X064313Y034441D01*
Y034141D01*
D02*
G37*
G36*
X052788Y034194D02*
X052789Y034177D01*
X052792Y034162D01*
X052795Y034148D01*
X0528Y034137D01*
X052805Y034128D01*
X052812Y034121D01*
X052819Y034116D01*
X052828Y034113D01*
X052837Y034112D01*
X052688Y034113D01*
X052688Y034114D01*
X052688Y034117D01*
X052687Y034162D01*
X052687Y034213D01*
X052787D01*
X052788Y034194D01*
D02*
G37*
G36*
X062134Y033558D02*
X062125Y033564D01*
X062116Y033567D01*
X062108Y03357D01*
X062099Y03357D01*
X06209Y03357D01*
X062081Y033567D01*
X062072Y033564D01*
X062063Y033558D01*
X062054Y033552D01*
X062045Y033543D01*
X062001Y033612D01*
X062015Y033627D01*
X062086Y033707D01*
X062091Y033715D01*
X062096Y033722D01*
X062134Y033558D01*
D02*
G37*
G36*
X061833Y033626D02*
X061833Y03362D01*
X061834Y033614D01*
X061836Y033607D01*
X061839Y0336D01*
X061843Y033593D01*
X061848Y033586D01*
X061854Y033578D01*
X061861Y03357D01*
X061869Y033562D01*
X061812Y033505D01*
X061804Y033513D01*
X061788Y033526D01*
X061781Y033531D01*
X061774Y033535D01*
X061767Y033538D01*
X06176Y03354D01*
X061754Y033541D01*
X061748Y033541D01*
X061742Y03354D01*
X061834Y033632D01*
X061833Y033626D01*
D02*
G37*
G36*
X066379Y033368D02*
X066373Y033374D01*
X066366Y033378D01*
X066358Y03338D01*
X06635Y033379D01*
X06634Y033377D01*
X066329Y033372D01*
X066318Y033365D01*
X066306Y033356D01*
X066292Y033344D01*
X066278Y033331D01*
X066212Y033406D01*
X066227Y033421D01*
X06625Y03345D01*
X066258Y033462D01*
X066264Y033474D01*
X066269Y033485D01*
X066271Y033496D01*
X06627Y033505D01*
X066268Y033514D01*
X066264Y033521D01*
X066379Y033368D01*
D02*
G37*
G36*
X062632Y033054D02*
X06263Y033046D01*
X06263Y033038D01*
X06263Y03303D01*
X062632Y033023D01*
X062635Y033015D01*
X062638Y033007D01*
X062643Y032999D01*
X062649Y032992D01*
X062656Y032984D01*
X062593Y032934D01*
X062584Y032943D01*
X062566Y032958D01*
X062557Y032965D01*
X062548Y03297D01*
X062539Y032975D01*
X06253Y032979D01*
X062521Y032982D01*
X062512Y032985D01*
X062504Y032986D01*
X062635Y033062D01*
X062632Y033054D01*
D02*
G37*
G36*
X06144Y033035D02*
X061435Y033026D01*
X061431Y033017D01*
X061428Y033007D01*
X061425Y032996D01*
X061422Y032986D01*
X06142Y032975D01*
X061418Y032951D01*
X061418Y032939D01*
X061318Y032912D01*
X061318Y032925D01*
X061316Y032936D01*
X061314Y032947D01*
X061311Y032958D01*
X061307Y032967D01*
X061302Y032976D01*
X061297Y032984D01*
X06129Y032991D01*
X061283Y032997D01*
X061275Y033003D01*
X061445Y033044D01*
X06144Y033035D01*
D02*
G37*
G36*
X062825Y032542D02*
X06283Y032472D01*
X062831Y03247D01*
X06274D01*
X062741Y032472D01*
X062742Y032476D01*
X062743Y032481D01*
X062744Y032495D01*
X062745Y032542D01*
X062745Y032557D01*
X062825D01*
X062825Y032542D01*
D02*
G37*
G36*
X062668D02*
X062672Y032472D01*
X062673Y03247D01*
X062583D01*
X062584Y032472D01*
X062585Y032476D01*
X062585Y032481D01*
X062587Y032495D01*
X062588Y032542D01*
X062588Y032557D01*
X062668D01*
X062668Y032542D01*
D02*
G37*
G36*
X062038D02*
X062042Y032472D01*
X062043Y03247D01*
X061953D01*
X061954Y032472D01*
X061955Y032476D01*
X061955Y032481D01*
X061957Y032495D01*
X061958Y032542D01*
X061958Y032557D01*
X062038D01*
X062038Y032542D01*
D02*
G37*
G36*
X061881D02*
X061885Y032472D01*
X061886Y03247D01*
X061795D01*
X061796Y032472D01*
X061797Y032476D01*
X061798Y032481D01*
X061799Y032495D01*
X0618Y032542D01*
X061801Y032557D01*
X061881D01*
X061881Y032542D01*
D02*
G37*
G36*
X060778D02*
X060782Y032472D01*
X060783Y03247D01*
X060693D01*
X060694Y032472D01*
X060695Y032476D01*
X060696Y032481D01*
X060697Y032495D01*
X060698Y032542D01*
X060698Y032557D01*
X060778D01*
X060778Y032542D01*
D02*
G37*
G36*
X060621D02*
X060625Y032472D01*
X060626Y03247D01*
X060535D01*
X060536Y032472D01*
X060537Y032476D01*
X060538Y032481D01*
X060539Y032495D01*
X060541Y032542D01*
X060541Y032557D01*
X060621D01*
X060621Y032542D01*
D02*
G37*
G36*
X060463D02*
X060467Y032472D01*
X060468Y03247D01*
X060378D01*
X060379Y032472D01*
X06038Y032476D01*
X060381Y032481D01*
X060382Y032495D01*
X060383Y032542D01*
X060383Y032557D01*
X060463D01*
X060463Y032542D01*
D02*
G37*
G36*
X057327Y032458D02*
X057321Y03245D01*
X057315Y032441D01*
X05731Y032432D01*
X057306Y032422D01*
X057303Y032412D01*
X0573Y032401D01*
X057298Y032389D01*
X057297Y032378D01*
X057297Y032365D01*
X057197D01*
X057197Y032378D01*
X057195Y032389D01*
X057194Y032401D01*
X057191Y032412D01*
X057188Y032422D01*
X057183Y032432D01*
X057179Y032441D01*
X057173Y03245D01*
X057167Y032458D01*
X057159Y032465D01*
X057334D01*
X057327Y032458D01*
D02*
G37*
G36*
X056993D02*
X056986Y03245D01*
X056981Y032441D01*
X056976Y032432D01*
X056972Y032422D01*
X056968Y032412D01*
X056966Y032401D01*
X056964Y032389D01*
X056963Y032378D01*
X056962Y032365D01*
X056862D01*
X056862Y032378D01*
X056861Y032389D01*
X056859Y032401D01*
X056856Y032412D01*
X056853Y032422D01*
X056849Y032432D01*
X056844Y032441D01*
X056838Y03245D01*
X056832Y032458D01*
X056825Y032465D01*
X057D01*
X056993Y032458D01*
D02*
G37*
G36*
X058511Y032336D02*
X058519Y032312D01*
X058524Y0323D01*
X058529Y032289D01*
X058534Y032279D01*
X05854Y032269D01*
X058547Y03226D01*
X058554Y032252D01*
X058561Y032244D01*
X058518Y032173D01*
X05851Y032181D01*
X0585Y032188D01*
X058491Y032194D01*
X058481Y032198D01*
X058471Y032202D01*
X058461Y032204D01*
X05845Y032205D01*
X058438Y032205D01*
X058427Y032204D01*
X058415Y032201D01*
X058508Y032349D01*
X058511Y032336D01*
D02*
G37*
G36*
X066275Y033067D02*
X066193Y033004D01*
X066109Y032895D01*
X066056Y032767D01*
X066053Y032739D01*
X066014Y032713D01*
X065308Y032007D01*
X063258D01*
X063254Y032006D01*
X06304D01*
Y032451D01*
X063033Y032483D01*
X063033Y032484D01*
X06303Y032536D01*
Y033078D01*
X063064Y033111D01*
X066243D01*
X066253Y033113D01*
X066275Y033067D01*
D02*
G37*
G36*
X061271Y031763D02*
X061368Y031744D01*
X061447Y03176D01*
X061526Y031744D01*
X061604Y03176D01*
X061683Y031744D01*
X061762Y03176D01*
X061841Y031744D01*
X061919Y03176D01*
X061998Y031744D01*
X062077Y03176D01*
X062156Y031744D01*
X062234Y03176D01*
X062313Y031744D01*
X062392Y03176D01*
X06247Y031744D01*
X062549Y03176D01*
X062628Y031744D01*
X062707Y03176D01*
X062779Y031745D01*
X062793Y031673D01*
X062777Y031594D01*
X062793Y031516D01*
X062777Y031437D01*
X062793Y031358D01*
X062777Y03128D01*
X062793Y031201D01*
X062777Y031122D01*
X062793Y031043D01*
X062777Y030965D01*
X062793Y030886D01*
X062777Y030807D01*
X062793Y030728D01*
X062777Y03065D01*
X062793Y030571D01*
X062777Y030492D01*
X062793Y030413D01*
X062777Y030335D01*
X062793Y030256D01*
X062777Y030177D01*
X062793Y030098D01*
X062777Y03002D01*
X062793Y029941D01*
X062777Y029862D01*
X062797Y029765D01*
X062837Y029705D01*
X062797Y029644D01*
X062777Y029547D01*
X062793Y029469D01*
X062779Y029396D01*
X062707Y029382D01*
X062628Y029398D01*
X062549Y029382D01*
X06247Y029398D01*
X062392Y029382D01*
X062313Y029398D01*
X062234Y029382D01*
X062156Y029398D01*
X062077Y029382D01*
X061998Y029398D01*
X061901Y029378D01*
X061841Y029338D01*
X06178Y029378D01*
X061683Y029398D01*
X061604Y029382D01*
X061526Y029398D01*
X061447Y029382D01*
X061368Y029398D01*
X061289Y029382D01*
X061211Y029398D01*
X061132Y029382D01*
X061053Y029398D01*
X060974Y029382D01*
X060896Y029398D01*
X060817Y029382D01*
X060738Y029398D01*
X060659Y029382D01*
X060581Y029398D01*
X060502Y029382D01*
X060436Y029395D01*
X060406Y029442D01*
X060412Y02945D01*
X060431Y029547D01*
X060416Y029626D01*
X060431Y029705D01*
X060416Y029783D01*
X060431Y029862D01*
X060416Y029941D01*
X060431Y03002D01*
X060416Y030098D01*
X060431Y030177D01*
X060416Y030256D01*
X060431Y030335D01*
X060416Y030413D01*
X060431Y030492D01*
X060412Y030589D01*
X060372Y03065D01*
X060412Y03071D01*
X060431Y030807D01*
X060416Y030886D01*
X060431Y030965D01*
X060416Y031043D01*
X060431Y031122D01*
X060416Y031201D01*
X060431Y03128D01*
X060416Y031358D01*
X060431Y031437D01*
X060416Y031516D01*
X060431Y031594D01*
X060416Y031673D01*
X06043Y031745D01*
X060502Y03176D01*
X060581Y031744D01*
X060659Y03176D01*
X060738Y031744D01*
X060817Y03176D01*
X060896Y031744D01*
X060974Y03176D01*
X061053Y031744D01*
X06115Y031763D01*
X061211Y031804D01*
X061271Y031763D01*
D02*
G37*
G36*
X059706Y031707D02*
X059703Y031708D01*
X0597Y031709D01*
X059694Y031709D01*
X05968Y031711D01*
X059633Y031712D01*
X059618Y031712D01*
Y031792D01*
X059633Y031792D01*
X059703Y031796D01*
X059706Y031797D01*
Y031707D01*
D02*
G37*
G36*
X058511Y031864D02*
X058519Y031839D01*
X058524Y031828D01*
X058529Y031817D01*
X058534Y031806D01*
X05854Y031797D01*
X058547Y031788D01*
X058554Y031779D01*
X058561Y031771D01*
X058518Y031701D01*
X05851Y031709D01*
X0585Y031716D01*
X058491Y031721D01*
X058481Y031726D01*
X058471Y031729D01*
X058461Y031731D01*
X05845Y031732D01*
X058438Y031732D01*
X058427Y031731D01*
X058415Y031729D01*
X058508Y031877D01*
X058511Y031864D01*
D02*
G37*
G36*
X059706Y031549D02*
X059703Y03155D01*
X0597Y031551D01*
X059694Y031552D01*
X05968Y031553D01*
X059633Y031554D01*
X059618Y031554D01*
Y031634D01*
X059633Y031635D01*
X059703Y031639D01*
X059706Y03164D01*
Y031549D01*
D02*
G37*
G36*
X066274Y031496D02*
X066272Y031505D01*
X066267Y031514D01*
X066261Y031521D01*
X066252Y031527D01*
X066241Y031533D01*
X066228Y031537D01*
X066213Y031541D01*
X066196Y031543D01*
X066177Y031545D01*
X066155Y031545D01*
X066144Y031645D01*
X066165Y031646D01*
X066184Y031647D01*
X066201Y03165D01*
X066215Y031653D01*
X066227Y031658D01*
X066236Y031663D01*
X066243Y03167D01*
X066248Y031677D01*
X066251Y031685D01*
X066251Y031695D01*
X066274Y031496D01*
D02*
G37*
G36*
X056288Y031331D02*
X056291Y031322D01*
X056296Y031315D01*
X056303Y031308D01*
X056312Y031303D01*
X056323Y031298D01*
X056337Y031295D01*
X056352Y031292D01*
X056369Y031291D01*
X056388Y03129D01*
Y03119D01*
X056369Y03119D01*
X056352Y031188D01*
X056337Y031186D01*
X056323Y031182D01*
X056312Y031178D01*
X056303Y031172D01*
X056296Y031166D01*
X056291Y031158D01*
X056288Y03115D01*
X056287Y03114D01*
Y03134D01*
X056288Y031331D01*
D02*
G37*
G36*
X064479Y03104D02*
X064467Y031042D01*
X064455Y031043D01*
X064444Y031043D01*
X064433Y031042D01*
X064423Y03104D01*
X064412Y031037D01*
X064403Y031032D01*
X064393Y031027D01*
X064384Y03102D01*
X064375Y031012D01*
X064333Y031082D01*
X06434Y03109D01*
X064347Y031099D01*
X064354Y031108D01*
X06436Y031117D01*
X064365Y031128D01*
X06437Y031139D01*
X064375Y03115D01*
X064383Y031175D01*
X064386Y031188D01*
X064479Y03104D01*
D02*
G37*
G36*
X065353Y031017D02*
X06534Y031016D01*
X065328Y031015D01*
X065315Y031013D01*
X065304Y031011D01*
X065293Y031007D01*
X065283Y031003D01*
X065273Y030997D01*
X065263Y030991D01*
X065254Y030984D01*
X065246Y030977D01*
X065189Y031033D01*
X065197Y031042D01*
X065204Y031051D01*
X06521Y03106D01*
X065215Y03107D01*
X06522Y03108D01*
X065223Y031091D01*
X065226Y031103D01*
X065228Y031115D01*
X065229Y031127D01*
X065229Y03114D01*
X065353Y031017D01*
D02*
G37*
G36*
X06492D02*
X064907Y031016D01*
X064894Y031015D01*
X064882Y031013D01*
X064871Y031011D01*
X06486Y031007D01*
X064849Y031003D01*
X06484Y030997D01*
X06483Y030991D01*
X064821Y030984D01*
X064813Y030977D01*
X064756Y031033D01*
X064764Y031042D01*
X064771Y031051D01*
X064777Y03106D01*
X064782Y03107D01*
X064787Y03108D01*
X06479Y031091D01*
X064793Y031103D01*
X064795Y031115D01*
X064796Y031127D01*
X064796Y03114D01*
X06492Y031017D01*
D02*
G37*
G36*
X063505Y031009D02*
X063509Y031008D01*
X063514Y031007D01*
X063529Y031006D01*
X063576Y031005D01*
X063591Y031005D01*
Y030925D01*
X063576Y030925D01*
X063505Y03092D01*
X063503Y030919D01*
Y03101D01*
X063505Y031009D01*
D02*
G37*
G36*
X058466Y030966D02*
X05846Y030958D01*
X058454Y030949D01*
X058449Y03094D01*
X058445Y03093D01*
X058442Y03092D01*
X058439Y030909D01*
X058437Y030898D01*
X058436Y030886D01*
X058436Y030873D01*
X058336D01*
X058335Y030886D01*
X058334Y030898D01*
X058332Y030909D01*
X05833Y03092D01*
X058326Y03093D01*
X058322Y03094D01*
X058317Y030949D01*
X058312Y030958D01*
X058305Y030966D01*
X058298Y030974D01*
X058473D01*
X058466Y030966D01*
D02*
G37*
G36*
X063505Y030851D02*
X063509Y03085D01*
X063514Y03085D01*
X063529Y030848D01*
X063576Y030847D01*
X063591Y030847D01*
Y030767D01*
X063576Y030767D01*
X063505Y030763D01*
X063503Y030762D01*
Y030852D01*
X063505Y030851D01*
D02*
G37*
G36*
X056288Y030937D02*
X056291Y030928D01*
X056296Y030921D01*
X056303Y030914D01*
X056312Y030909D01*
X056323Y030904D01*
X056337Y030901D01*
X056352Y030898D01*
X056369Y030897D01*
X056388Y030896D01*
Y030796D01*
X056369Y030796D01*
X056352Y030794D01*
X056337Y030792D01*
X056323Y030788D01*
X056312Y030784D01*
X056303Y030778D01*
X056296Y030772D01*
X056291Y030764D01*
X056288Y030756D01*
X056287Y030746D01*
Y030946D01*
X056288Y030937D01*
D02*
G37*
G36*
X059296Y030881D02*
X059305Y030876D01*
X059314Y030872D01*
X059324Y030867D01*
X059334Y030864D01*
X059345Y030861D01*
X059356Y030859D01*
X059368Y030858D01*
X05938Y030857D01*
X059392Y030856D01*
X059409Y030756D01*
X059396Y030756D01*
X059384Y030755D01*
X059373Y030753D01*
X059363Y03075D01*
X059353Y030746D01*
X059344Y030741D01*
X059335Y030736D01*
X059328Y030729D01*
X05932Y030722D01*
X059314Y030714D01*
X059288Y030887D01*
X059296Y030881D01*
D02*
G37*
G36*
X063505Y030694D02*
X063509Y030693D01*
X063514Y030692D01*
X063529Y030691D01*
X063576Y03069D01*
X063591Y03069D01*
Y03061D01*
X063576Y03061D01*
X063505Y030605D01*
X063503Y030604D01*
Y030695D01*
X063505Y030694D01*
D02*
G37*
G36*
Y030536D02*
X063509Y030535D01*
X063514Y030535D01*
X063529Y030533D01*
X063576Y030532D01*
X063591Y030532D01*
Y030452D01*
X063576Y030452D01*
X063505Y030448D01*
X063503Y030447D01*
Y030537D01*
X063505Y030536D01*
D02*
G37*
G36*
X065096Y030406D02*
X065086Y030415D01*
X065076Y030423D01*
X065066Y03043D01*
X065056Y030436D01*
X065045Y030441D01*
X065035Y030445D01*
X065024Y030448D01*
X065013Y03045D01*
X065002Y030452D01*
X06499Y030452D01*
X064987Y030532D01*
X064999Y030533D01*
X06501Y030534D01*
X065021Y030537D01*
X065031Y03054D01*
X065042Y030544D01*
X065052Y03055D01*
X065062Y030556D01*
X065071Y030563D01*
X06508Y030572D01*
X065089Y030581D01*
X065096Y030406D01*
D02*
G37*
G36*
X063505Y030379D02*
X063509Y030378D01*
X063514Y030377D01*
X063529Y030376D01*
X063576Y030375D01*
X063591Y030375D01*
Y030295D01*
X063576Y030295D01*
X063505Y03029D01*
X063503Y030289D01*
Y03038D01*
X063505Y030379D01*
D02*
G37*
G36*
X049501Y03038D02*
X049493Y030374D01*
X049486Y030367D01*
X04948Y030359D01*
X049475Y030351D01*
X04947Y030342D01*
X049466Y030332D01*
X049463Y030322D01*
X049461Y03031D01*
X04946Y030299D01*
X049459Y030286D01*
X049359Y030304D01*
X049359Y030316D01*
X049357Y030339D01*
X049355Y03035D01*
X049352Y030361D01*
X049348Y030371D01*
X049344Y030381D01*
X04934Y03039D01*
X049335Y030399D01*
X049329Y030408D01*
X049501Y03038D01*
D02*
G37*
G36*
X06439Y030358D02*
X064403Y030346D01*
X064407Y030344D01*
X06441Y030342D01*
X064413Y03034D01*
X064415Y030339D01*
X064417Y030339D01*
X064418Y03034D01*
X064366Y030262D01*
X064366Y030264D01*
X064365Y030266D01*
X064363Y030268D01*
X06436Y030272D01*
X064353Y030281D01*
X064328Y030306D01*
X064385Y030363D01*
X06439Y030358D01*
D02*
G37*
G36*
X063505Y030221D02*
X063509Y030221D01*
X063514Y03022D01*
X063529Y030218D01*
X063576Y030217D01*
X063591Y030217D01*
Y030137D01*
X063576Y030137D01*
X063505Y030133D01*
X063503Y030132D01*
Y030222D01*
X063505Y030221D01*
D02*
G37*
G36*
X064034Y030196D02*
X064044Y030189D01*
X064053Y030182D01*
X064063Y030177D01*
X064072Y030172D01*
X064082Y030169D01*
X064093Y030166D01*
X064103Y030164D01*
X064114Y030164D01*
X064124Y030164D01*
X064009Y030049D01*
X06401Y03006D01*
X064009Y03007D01*
X064007Y030081D01*
X064005Y030091D01*
X064001Y030101D01*
X063997Y030111D01*
X063991Y03012D01*
X063985Y03013D01*
X063977Y030139D01*
X063969Y030148D01*
X064025Y030204D01*
X064034Y030196D01*
D02*
G37*
G36*
X065799Y030021D02*
X065792Y030013D01*
X065787Y030004D01*
X065782Y029995D01*
X065778Y029985D01*
X065774Y029975D01*
X065772Y029964D01*
X06577Y029953D01*
X065769Y029941D01*
X065768Y029929D01*
X065669D01*
X065668Y029941D01*
X065667Y029953D01*
X065665Y029964D01*
X065662Y029975D01*
X065659Y029985D01*
X065655Y029995D01*
X06565Y030004D01*
X065644Y030013D01*
X065638Y030021D01*
X065631Y030029D01*
X065806D01*
X065799Y030021D01*
D02*
G37*
G36*
X063505Y029906D02*
X063509Y029906D01*
X063514Y029905D01*
X063529Y029904D01*
X063576Y029902D01*
X063591Y029902D01*
Y029822D01*
X063576Y029822D01*
X063505Y029818D01*
X063503Y029817D01*
Y029907D01*
X063505Y029906D01*
D02*
G37*
G36*
X059706Y029817D02*
X059703Y029818D01*
X0597Y029819D01*
X059694Y02982D01*
X05968Y029821D01*
X059633Y029822D01*
X059618Y029822D01*
Y029902D01*
X059633Y029902D01*
X059703Y029906D01*
X059706Y029907D01*
Y029817D01*
D02*
G37*
G36*
Y02966D02*
X059703Y02966D01*
X0597Y029661D01*
X059694Y029662D01*
X05968Y029663D01*
X059633Y029665D01*
X059618Y029665D01*
Y029745D01*
X059633Y029745D01*
X059703Y029749D01*
X059706Y02975D01*
Y02966D01*
D02*
G37*
G36*
X049756Y029625D02*
X049756Y029625D01*
X049754Y029625D01*
X049705Y029625D01*
Y029725D01*
X049756Y029726D01*
Y029625D01*
D02*
G37*
G36*
X049798Y029758D02*
X049805Y029751D01*
X049814Y029745D01*
X049822Y02974D01*
X049832Y029735D01*
X049842Y029732D01*
X049853Y029729D01*
X049864Y029727D01*
X049876Y029726D01*
X049888Y029725D01*
X04988Y029625D01*
X049867Y029625D01*
X049855Y029624D01*
X049844Y029622D01*
X049833Y02962D01*
X049822Y029617D01*
X049812Y029613D01*
X049803Y029608D01*
X049794Y029603D01*
X049785Y029597D01*
X049777Y029591D01*
X049791Y029765D01*
X049798Y029758D01*
D02*
G37*
G36*
X063505Y029591D02*
X063509Y029591D01*
X063514Y02959D01*
X063529Y029589D01*
X063576Y029587D01*
X063591Y029587D01*
Y029507D01*
X063576Y029507D01*
X063505Y029503D01*
X063503Y029502D01*
Y029592D01*
X063505Y029591D01*
D02*
G37*
G36*
X059706Y029502D02*
X059703Y029503D01*
X0597Y029504D01*
X059694Y029505D01*
X05968Y029506D01*
X059633Y029507D01*
X059618Y029507D01*
Y029587D01*
X059633Y029587D01*
X059703Y029591D01*
X059706Y029592D01*
Y029502D01*
D02*
G37*
G36*
X063505Y029434D02*
X063509Y029433D01*
X063514Y029432D01*
X063529Y029431D01*
X063576Y02943D01*
X063591Y02943D01*
Y02935D01*
X063576Y02935D01*
X063505Y029346D01*
X063503Y029345D01*
Y029435D01*
X063505Y029434D01*
D02*
G37*
G36*
X05763Y029431D02*
X057633Y029423D01*
X057638Y029415D01*
X057645Y029409D01*
X057654Y029403D01*
X057666Y029399D01*
X057679Y029395D01*
X057694Y029393D01*
X057711Y029391D01*
X05773Y029391D01*
Y029291D01*
X057711Y02929D01*
X057694Y029289D01*
X057679Y029286D01*
X057666Y029283D01*
X057654Y029278D01*
X057645Y029273D01*
X057638Y029266D01*
X057633Y029259D01*
X05763Y02925D01*
X057629Y029241D01*
Y029441D01*
X05763Y029431D01*
D02*
G37*
G36*
X049756Y029172D02*
X049755Y029181D01*
X049752Y02919D01*
X049747Y029197D01*
X04974Y029204D01*
X049731Y029209D01*
X04972Y029214D01*
X049707Y029217D01*
X049692Y02922D01*
X049674Y029221D01*
X049655Y029222D01*
Y029322D01*
X049674Y029322D01*
X049692Y029324D01*
X049707Y029326D01*
X04972Y02933D01*
X049731Y029334D01*
X04974Y02934D01*
X049747Y029346D01*
X049752Y029354D01*
X049755Y029362D01*
X049756Y029372D01*
Y029172D01*
D02*
G37*
G36*
X056821Y029157D02*
X056816Y029164D01*
X056808Y029168D01*
X056799Y02917D01*
X056788Y029168D01*
X056776Y029163D01*
X056762Y029155D01*
X056746Y029144D01*
X056729Y029131D01*
X05671Y029114D01*
X056689Y029094D01*
X056619Y029165D01*
X056643Y02919D01*
X056682Y029234D01*
X056696Y029254D01*
X056708Y029272D01*
X056717Y029288D01*
X056722Y029303D01*
X056725Y029316D01*
X056725Y029327D01*
X056721Y029337D01*
X056821Y029157D01*
D02*
G37*
G36*
X0663Y029144D02*
X066299Y029154D01*
X066296Y029162D01*
X06629Y02917D01*
X066282Y029176D01*
X066272Y029182D01*
X06626Y029186D01*
X066245Y02919D01*
X066228Y029192D01*
X066208Y029194D01*
X066187Y029194D01*
Y029294D01*
X066208Y029295D01*
X066228Y029296D01*
X066245Y029299D01*
X06626Y029302D01*
X066272Y029307D01*
X066282Y029312D01*
X06629Y029318D01*
X066296Y029326D01*
X066299Y029334D01*
X0663Y029344D01*
Y029144D01*
D02*
G37*
G36*
X063698Y029145D02*
X063699Y029134D01*
X063702Y029124D01*
X063706Y029114D01*
X063711Y029106D01*
X063717Y029099D01*
X063724Y029093D01*
X063732Y029087D01*
X063741Y029083D01*
X063751Y029079D01*
X0636Y028999D01*
X063603Y029009D01*
X063611Y029041D01*
X063613Y029052D01*
X063617Y029085D01*
X063617Y029096D01*
X063617Y029107D01*
X063697Y029157D01*
X063698Y029145D01*
D02*
G37*
G36*
X056388Y028916D02*
X056369Y028915D01*
X056352Y028914D01*
X056337Y028911D01*
X056324Y028908D01*
X056312Y028903D01*
X056303Y028898D01*
X056296Y028891D01*
X056291Y028884D01*
X056288Y028875D01*
X056287Y028866D01*
X056288Y029015D01*
X056289Y029015D01*
X056292Y029015D01*
X056337Y029016D01*
X056388Y029016D01*
Y028916D01*
D02*
G37*
G36*
X05763Y02884D02*
X057633Y028832D01*
X057638Y028825D01*
X057645Y028818D01*
X057654Y028812D01*
X057666Y028808D01*
X057679Y028805D01*
X057694Y028802D01*
X057711Y0288D01*
X05773Y0288D01*
Y0287D01*
X057711Y0287D01*
X057694Y028698D01*
X057679Y028695D01*
X057666Y028692D01*
X057654Y028688D01*
X057645Y028682D01*
X057638Y028675D01*
X057633Y028668D01*
X05763Y02866D01*
X057629Y02865D01*
Y02885D01*
X05763Y02884D01*
D02*
G37*
G36*
X06283Y02867D02*
X062829Y028666D01*
X062828Y028661D01*
X062827Y028646D01*
X062825Y0286D01*
X062825Y028584D01*
X062745D01*
X062745Y0286D01*
X062741Y02867D01*
X06274Y028672D01*
X062831D01*
X06283Y02867D01*
D02*
G37*
G36*
X062672D02*
X062671Y028666D01*
X062671Y028661D01*
X062669Y028646D01*
X062668Y0286D01*
X062668Y028584D01*
X062588D01*
X062588Y0286D01*
X062584Y02867D01*
X062583Y028672D01*
X062673D01*
X062672Y02867D01*
D02*
G37*
G36*
X062357D02*
X062356Y028666D01*
X062356Y028661D01*
X062354Y028646D01*
X062353Y0286D01*
X062353Y028584D01*
X062273D01*
X062273Y0286D01*
X062269Y02867D01*
X062268Y028672D01*
X062358D01*
X062357Y02867D01*
D02*
G37*
G36*
X0622D02*
X062199Y028666D01*
X062198Y028661D01*
X062197Y028646D01*
X062196Y0286D01*
X062196Y028584D01*
X062116D01*
X062115Y0286D01*
X062111Y02867D01*
X06211Y028672D01*
X062201D01*
X0622Y02867D01*
D02*
G37*
G36*
X062042D02*
X062041Y028666D01*
X062041Y028661D01*
X062039Y028646D01*
X062038Y0286D01*
X062038Y028584D01*
X061958D01*
X061958Y0286D01*
X061954Y02867D01*
X061953Y028672D01*
X062043D01*
X062042Y02867D01*
D02*
G37*
G36*
X061412D02*
X061411Y028666D01*
X061411Y028661D01*
X061409Y028646D01*
X061408Y0286D01*
X061408Y028584D01*
X061328D01*
X061328Y0286D01*
X061324Y02867D01*
X061323Y028672D01*
X061413D01*
X061412Y02867D01*
D02*
G37*
G36*
X061255D02*
X061254Y028666D01*
X061253Y028661D01*
X061252Y028646D01*
X061251Y0286D01*
X061251Y028584D01*
X061171D01*
X061171Y0286D01*
X061166Y02867D01*
X061165Y028672D01*
X061256D01*
X061255Y02867D01*
D02*
G37*
G36*
X061097D02*
X061097Y028666D01*
X061096Y028661D01*
X061094Y028646D01*
X061093Y0286D01*
X061093Y028584D01*
X061013D01*
X061013Y0286D01*
X061009Y02867D01*
X061008Y028672D01*
X061098D01*
X061097Y02867D01*
D02*
G37*
G36*
X06094D02*
X060939Y028666D01*
X060938Y028661D01*
X060937Y028646D01*
X060936Y0286D01*
X060936Y028584D01*
X060856D01*
X060856Y0286D01*
X060851Y02867D01*
X06085Y028672D01*
X060941D01*
X06094Y02867D01*
D02*
G37*
G36*
X060782D02*
X060782Y028666D01*
X060781Y028661D01*
X06078Y028646D01*
X060778Y0286D01*
X060778Y028584D01*
X060698D01*
X060698Y0286D01*
X060694Y02867D01*
X060693Y028672D01*
X060783D01*
X060782Y02867D01*
D02*
G37*
G36*
X060625D02*
X060624Y028666D01*
X060623Y028661D01*
X060622Y028646D01*
X060621Y0286D01*
X060621Y028584D01*
X060541D01*
X060541Y0286D01*
X060536Y02867D01*
X060535Y028672D01*
X060626D01*
X060625Y02867D01*
D02*
G37*
G36*
X060467D02*
X060467Y028666D01*
X060466Y028661D01*
X060465Y028646D01*
X060463Y0286D01*
X060463Y028584D01*
X060383D01*
X060383Y0286D01*
X060379Y02867D01*
X060378Y028672D01*
X060468D01*
X060467Y02867D01*
D02*
G37*
G36*
X061568Y028668D02*
X061566Y028662D01*
X061564Y028655D01*
X061562Y028647D01*
X061561Y028638D01*
X061558Y028616D01*
X061557Y028589D01*
X061557Y028574D01*
X061477Y028608D01*
X06148Y028672D01*
X061571D01*
X061568Y028668D01*
D02*
G37*
G36*
X056853Y028566D02*
X056846Y028572D01*
X056837Y028575D01*
X056827Y028575D01*
X056815Y028572D01*
X056802Y028567D01*
X056787Y028558D01*
X056771Y028547D01*
X056753Y028533D01*
X056714Y028496D01*
X056649Y028573D01*
X056669Y028593D01*
X0567Y02863D01*
X056711Y028646D01*
X05672Y028661D01*
X056725Y028674D01*
X056728Y028686D01*
X056729Y028697D01*
X056726Y028706D01*
X056721Y028714D01*
X056853Y028566D01*
D02*
G37*
G36*
X059538Y028683D02*
X059547Y028675D01*
X059556Y028669D01*
X059566Y028663D01*
X059576Y028658D01*
X059585Y028653D01*
X059595Y02865D01*
X059605Y028648D01*
X059616Y028646D01*
X059626Y028645D01*
X059498Y028526D01*
X059498Y028537D01*
X059497Y028547D01*
X059495Y028557D01*
X059492Y028567D01*
X059488Y028577D01*
X059484Y028586D01*
X059478Y028596D01*
X059471Y028605D01*
X059464Y028615D01*
X059455Y028624D01*
X059529Y028691D01*
X059538Y028683D01*
D02*
G37*
G36*
X059084Y028625D02*
X059093Y028618D01*
X059102Y028611D01*
X059112Y028605D01*
X059121Y0286D01*
X059131Y028596D01*
X059141Y028593D01*
X059151Y028591D01*
X059162Y02859D01*
X059172Y02859D01*
X059048Y028466D01*
X059048Y028476D01*
X059047Y028487D01*
X059044Y028497D01*
X059041Y028507D01*
X059037Y028516D01*
X059033Y028526D01*
X059027Y028536D01*
X05902Y028545D01*
X059012Y028554D01*
X059004Y028563D01*
X059075Y028634D01*
X059084Y028625D01*
D02*
G37*
G36*
X056288Y028575D02*
X056291Y028566D01*
X056296Y028559D01*
X056303Y028552D01*
X056312Y028547D01*
X056323Y028542D01*
X056337Y028539D01*
X056352Y028536D01*
X056369Y028535D01*
X056388Y028534D01*
Y028434D01*
X056369Y028434D01*
X056352Y028432D01*
X056337Y02843D01*
X056323Y028426D01*
X056312Y028422D01*
X056303Y028416D01*
X056296Y02841D01*
X056291Y028402D01*
X056288Y028394D01*
X056287Y028384D01*
Y028584D01*
X056288Y028575D01*
D02*
G37*
G36*
X049735Y028536D02*
X049738Y028533D01*
X049743Y02853D01*
X049748Y028528D01*
X049748Y028528D01*
X049753Y02853D01*
X049755Y028533D01*
X049756Y028536D01*
Y028525D01*
X049757Y028525D01*
X049765Y028524D01*
X049775Y028522D01*
X049799Y028521D01*
X049813Y02852D01*
X049806Y02837D01*
X049756Y028373D01*
Y028355D01*
X049755Y028358D01*
X049753Y028361D01*
X049748Y028363D01*
X049742Y028365D01*
X049733Y028367D01*
X049723Y028368D01*
X049698Y02837D01*
X049665Y02837D01*
Y028379D01*
X049664Y028379D01*
X049665Y02838D01*
Y02852D01*
X049682Y028521D01*
X049726Y028524D01*
X049732Y02854D01*
X049735Y028536D01*
D02*
G37*
G36*
X0663Y028144D02*
X066299Y028154D01*
X066296Y028162D01*
X06629Y02817D01*
X066282Y028176D01*
X066272Y028182D01*
X06626Y028186D01*
X066245Y02819D01*
X066228Y028192D01*
X066208Y028194D01*
X066187Y028194D01*
Y028294D01*
X066208Y028295D01*
X066228Y028296D01*
X066245Y028299D01*
X06626Y028302D01*
X066272Y028307D01*
X066282Y028312D01*
X06629Y028318D01*
X066296Y028326D01*
X066299Y028334D01*
X0663Y028344D01*
Y028144D01*
D02*
G37*
G36*
X057454Y028027D02*
X057449Y028031D01*
X057442Y028035D01*
X057433Y028039D01*
X057423Y028042D01*
X057412Y028044D01*
X057399Y028046D01*
X057368Y028049D01*
X05733Y02805D01*
Y02825D01*
X05735Y02825D01*
X057399Y028253D01*
X057412Y028255D01*
X057423Y028258D01*
X057433Y028261D01*
X057442Y028264D01*
X057449Y028268D01*
X057454Y028272D01*
Y028027D01*
D02*
G37*
G36*
X061734Y028061D02*
X061735Y028049D01*
X061737Y028039D01*
X06174Y028029D01*
X061744Y02802D01*
X061749Y028012D01*
X061755Y028005D01*
X061762Y027999D01*
X061769Y027994D01*
X061778Y027991D01*
X061617Y027922D01*
X06162Y02793D01*
X061623Y027938D01*
X061627Y027957D01*
X061629Y027967D01*
X061632Y027989D01*
X061633Y028013D01*
X061633Y028025D01*
X061733Y028074D01*
X061734Y028061D01*
D02*
G37*
G36*
X060846Y027926D02*
X060838Y027917D01*
X060831Y027908D01*
X060826Y027898D01*
X060822Y027889D01*
X060819Y027879D01*
X060818Y027869D01*
X060817Y027859D01*
X060819Y027848D01*
X060821Y027838D01*
X060825Y027827D01*
X060665Y027897D01*
X060677Y027903D01*
X060712Y027919D01*
X060722Y027925D01*
X060742Y027938D01*
X06075Y027944D01*
X060766Y027958D01*
X060846Y027926D01*
D02*
G37*
G36*
X060099Y027834D02*
X060108Y027826D01*
X060118Y027819D01*
X060128Y027813D01*
X060139Y027808D01*
X060149Y027804D01*
X06016Y0278D01*
X060171Y027798D01*
X060182Y027796D01*
X060193Y027796D01*
Y027716D01*
X060182Y027715D01*
X060171Y027714D01*
X06016Y027712D01*
X060149Y027708D01*
X060139Y027704D01*
X060128Y027699D01*
X060118Y027693D01*
X060108Y027686D01*
X060099Y027677D01*
X060089Y027668D01*
Y027843D01*
X060099Y027834D01*
D02*
G37*
G36*
X058802Y026071D02*
X058807Y026049D01*
X058816Y026025D01*
X058829Y026D01*
X058845Y025973D01*
X058865Y025945D01*
X058888Y025915D01*
X058946Y02585D01*
X05898Y025815D01*
X058539D01*
X058574Y02585D01*
X058655Y025945D01*
X058675Y025973D01*
X058691Y026D01*
X058704Y026025D01*
X058713Y026049D01*
X058718Y026071D01*
X05872Y026092D01*
X0588D01*
X058802Y026071D01*
D02*
G37*
G36*
X057802D02*
X057807Y026049D01*
X057816Y026025D01*
X057829Y026D01*
X057845Y025973D01*
X057865Y025945D01*
X057888Y025915D01*
X057946Y02585D01*
X05798Y025815D01*
X057539D01*
X057574Y02585D01*
X057655Y025945D01*
X057675Y025973D01*
X057691Y026D01*
X057704Y026025D01*
X057713Y026049D01*
X057718Y026071D01*
X05772Y026092D01*
X0578D01*
X057802Y026071D01*
D02*
G37*
G36*
X056802D02*
X056807Y026049D01*
X056816Y026025D01*
X056829Y026D01*
X056845Y025973D01*
X056865Y025945D01*
X056888Y025915D01*
X056946Y02585D01*
X05698Y025815D01*
X056539D01*
X056574Y02585D01*
X056655Y025945D01*
X056675Y025973D01*
X056691Y026D01*
X056704Y026025D01*
X056713Y026049D01*
X056718Y026071D01*
X05672Y026092D01*
X0568D01*
X056802Y026071D01*
D02*
G37*
G36*
X055802D02*
X055807Y026049D01*
X055816Y026025D01*
X055829Y026D01*
X055845Y025973D01*
X055865Y025945D01*
X055888Y025915D01*
X055946Y02585D01*
X05598Y025815D01*
X055539D01*
X055574Y02585D01*
X055655Y025945D01*
X055675Y025973D01*
X055691Y026D01*
X055704Y026025D01*
X055713Y026049D01*
X055718Y026071D01*
X05572Y026092D01*
X0558D01*
X055802Y026071D01*
D02*
G37*
G36*
X060827Y026087D02*
X060829Y026068D01*
X060834Y026046D01*
X060843Y026023D01*
X060855Y025997D01*
X06087Y025969D01*
X060889Y025938D01*
X060937Y025871D01*
X060999Y025795D01*
X06056Y025834D01*
X060596Y025864D01*
X060656Y025922D01*
X06068Y02595D01*
X060701Y025976D01*
X060717Y026002D01*
X060731Y026026D01*
X06074Y02605D01*
X060746Y026073D01*
X060747Y026094D01*
X060827Y026087D01*
D02*
G37*
G36*
X061143Y024917D02*
X061129Y024901D01*
X061117Y024881D01*
X061107Y024858D01*
X061098Y024831D01*
X06109Y024801D01*
X061084Y024767D01*
X06108Y024729D01*
X061075Y024642D01*
X061075Y024594D01*
X060763Y024906D01*
X060812Y024906D01*
X060936Y024915D01*
X06097Y024921D01*
X061001Y024929D01*
X061027Y024938D01*
X061051Y024948D01*
X06107Y02496D01*
X061086Y024973D01*
X061143Y024917D01*
D02*
G37*
G36*
X059143D02*
X059129Y024901D01*
X059117Y024881D01*
X059107Y024858D01*
X059098Y024831D01*
X05909Y024801D01*
X059084Y024767D01*
X05908Y024729D01*
X059075Y024642D01*
X059075Y024594D01*
X058763Y024906D01*
X058812Y024906D01*
X058936Y024915D01*
X05897Y024921D01*
X059001Y024929D01*
X059027Y024938D01*
X059051Y024948D01*
X05907Y02496D01*
X059086Y024973D01*
X059143Y024917D01*
D02*
G37*
G36*
X058143D02*
X058129Y024901D01*
X058117Y024881D01*
X058107Y024858D01*
X058098Y024831D01*
X05809Y024801D01*
X058084Y024767D01*
X05808Y024729D01*
X058075Y024642D01*
X058075Y024594D01*
X057763Y024906D01*
X057812Y024906D01*
X057936Y024915D01*
X05797Y024921D01*
X058001Y024929D01*
X058027Y024938D01*
X058051Y024948D01*
X05807Y02496D01*
X058086Y024973D01*
X058143Y024917D01*
D02*
G37*
G36*
X057143D02*
X057129Y024901D01*
X057117Y024881D01*
X057107Y024858D01*
X057098Y024831D01*
X05709Y024801D01*
X057084Y024767D01*
X05708Y024729D01*
X057075Y024642D01*
X057075Y024594D01*
X056763Y024906D01*
X056812Y024906D01*
X056936Y024915D01*
X05697Y024921D01*
X057001Y024929D01*
X057027Y024938D01*
X057051Y024948D01*
X05707Y02496D01*
X057086Y024973D01*
X057143Y024917D01*
D02*
G37*
G36*
X056143D02*
X056129Y024901D01*
X056117Y024881D01*
X056107Y024858D01*
X056098Y024831D01*
X05609Y024801D01*
X056084Y024767D01*
X05608Y024729D01*
X056075Y024642D01*
X056075Y024594D01*
X055763Y024906D01*
X055812Y024906D01*
X055936Y024915D01*
X05597Y024921D01*
X056001Y024929D01*
X056027Y024938D01*
X056051Y024948D01*
X05607Y02496D01*
X056086Y024973D01*
X056143Y024917D01*
D02*
G37*
G36*
X055143D02*
X055129Y024901D01*
X055117Y024881D01*
X055107Y024858D01*
X055098Y024831D01*
X05509Y024801D01*
X055084Y024767D01*
X05508Y024729D01*
X055075Y024642D01*
X055075Y024594D01*
X054763Y024906D01*
X054812Y024906D01*
X054936Y024915D01*
X05497Y024921D01*
X055001Y024929D01*
X055027Y024938D01*
X055051Y024948D01*
X05507Y02496D01*
X055086Y024973D01*
X055143Y024917D01*
D02*
G37*
%LPC*%
G36*
X065631Y034686D02*
X065385D01*
Y034361D01*
X065631D01*
Y034686D01*
D02*
G37*
G36*
X065285D02*
X065038D01*
Y034361D01*
X065285D01*
Y034686D01*
D02*
G37*
G36*
X065631Y034261D02*
X065385D01*
Y033936D01*
X065631D01*
Y034261D01*
D02*
G37*
G36*
X065285D02*
X065038D01*
Y033936D01*
X065285D01*
Y034261D01*
D02*
G37*
G36*
X0521Y035383D02*
X051725D01*
Y034883D01*
X0521D01*
Y035383D01*
D02*
G37*
G36*
X050563Y033053D02*
X050158D01*
Y032865D01*
X050563D01*
Y033053D01*
D02*
G37*
G36*
X050058D02*
X049654D01*
Y032865D01*
X050058D01*
Y033053D01*
D02*
G37*
G36*
X050563Y032765D02*
X050108D01*
X049654D01*
Y032577D01*
Y032471D01*
X050108D01*
X050461D01*
Y032558D01*
X050463Y032546D01*
X050467Y032536D01*
X050475Y032526D01*
X050485Y032518D01*
X050499Y032512D01*
X050515Y032506D01*
X050535Y032502D01*
X050557Y032499D01*
X050563Y032498D01*
Y032577D01*
Y032765D01*
D02*
G37*
G36*
X056489Y033153D02*
X055381D01*
Y032477D01*
X055432D01*
Y032496D01*
X05546Y032497D01*
X055508Y032502D01*
X055528Y032506D01*
X055544Y032512D01*
X055558Y032518D01*
X055568Y032526D01*
X055576Y032536D01*
X05558Y032546D01*
X055582Y032558D01*
Y032471D01*
X055935D01*
X056389D01*
Y032477D01*
X056489D01*
Y033153D01*
D02*
G37*
G36*
X050461Y032371D02*
X050108D01*
X049654D01*
Y032365D01*
X049554D01*
Y03169D01*
X050663D01*
Y032365D01*
X050611D01*
Y032346D01*
X050583Y032346D01*
X050535Y032341D01*
X050515Y032336D01*
X050499Y032331D01*
X050485Y032324D01*
X050475Y032316D01*
X050467Y032307D01*
X050463Y032296D01*
X050461Y032285D01*
Y032371D01*
D02*
G37*
G36*
X066682Y026194D02*
X066182D01*
Y025819D01*
X066682D01*
Y026194D01*
D02*
G37*
G36*
X05381Y025003D02*
Y024641D01*
X054172D01*
X054164Y024699D01*
X054122Y0248D01*
X054056Y024887D01*
X053969Y024953D01*
X053868Y024995D01*
X05381Y025003D01*
D02*
G37*
G36*
X05371Y025003D02*
X053652Y024995D01*
X053551Y024953D01*
X053464Y024887D01*
X053397Y0248D01*
X053356Y024699D01*
X053352Y024672D01*
X053354Y024672D01*
X05338Y02468D01*
X053405Y024689D01*
X053427Y024701D01*
X053448Y024715D01*
X053468Y024731D01*
X053485Y024749D01*
X053501Y02477D01*
X053523Y024641D01*
X05371D01*
Y025003D01*
D02*
G37*
G36*
Y024541D02*
X05354D01*
X053575Y024335D01*
X053554Y02435D01*
X053531Y024363D01*
X053507Y024375D01*
X053482Y024385D01*
X053456Y024393D01*
X053429Y0244D01*
X053401Y024405D01*
X053387Y024407D01*
X053397Y024381D01*
X053464Y024295D01*
X053551Y024228D01*
X053652Y024186D01*
X05371Y024179D01*
Y024541D01*
D02*
G37*
G36*
X054172D02*
X05381D01*
Y024179D01*
X053868Y024186D01*
X053969Y024228D01*
X054056Y024295D01*
X054122Y024381D01*
X054164Y024482D01*
X054172Y024541D01*
D02*
G37*
G36*
X065092Y025657D02*
X064925Y02564D01*
X064765Y025592D01*
X064618Y025513D01*
X064488Y025407D01*
X064382Y025277D01*
X064303Y02513D01*
X064255Y02497D01*
X064238Y024803D01*
X064255Y024637D01*
X064303Y024476D01*
X064382Y024329D01*
X064488Y024199D01*
X064618Y024093D01*
X064765Y024014D01*
X064925Y023966D01*
X065092Y023949D01*
X065259Y023966D01*
X065419Y024014D01*
X065566Y024093D01*
X065696Y024199D01*
X065802Y024329D01*
X065881Y024476D01*
X065929Y024637D01*
X065946Y024803D01*
X065929Y02497D01*
X065881Y02513D01*
X065802Y025277D01*
X065696Y025407D01*
X065566Y025513D01*
X065419Y025592D01*
X065259Y02564D01*
X065092Y025657D01*
D02*
G37*
G36*
X051234D02*
X051067Y02564D01*
X050907Y025592D01*
X050759Y025513D01*
X05063Y025407D01*
X050524Y025277D01*
X050445Y02513D01*
X050396Y02497D01*
X05038Y024803D01*
X050396Y024637D01*
X050445Y024476D01*
X050524Y024329D01*
X05063Y024199D01*
X050759Y024093D01*
X050907Y024014D01*
X051067Y023966D01*
X051234Y023949D01*
X0514Y023966D01*
X05156Y024014D01*
X051708Y024093D01*
X051837Y024199D01*
X051944Y024329D01*
X052022Y024476D01*
X052071Y024637D01*
X052087Y024803D01*
X052071Y02497D01*
X052022Y02513D01*
X051944Y025277D01*
X051837Y025407D01*
X051708Y025513D01*
X05156Y025592D01*
X0514Y02564D01*
X051234Y025657D01*
D02*
G37*
%LPD*%
G36*
X050184Y03268D02*
X050258D01*
X050244Y032678D01*
X050231Y032674D01*
X05022Y032666D01*
X05021Y032655D01*
X050202Y032642D01*
X050195Y032625D01*
X050193Y032618D01*
X050195Y032611D01*
X050202Y032594D01*
X05021Y032581D01*
X05022Y03257D01*
X050231Y032563D01*
X050244Y032558D01*
X050258Y032557D01*
X050184D01*
X050183Y032528D01*
X050033D01*
X050033Y032557D01*
X049958D01*
X049973Y032558D01*
X049985Y032563D01*
X049997Y03257D01*
X050006Y032581D01*
X050015Y032594D01*
X050021Y032611D01*
X050023Y032618D01*
X050021Y032625D01*
X050015Y032642D01*
X050006Y032655D01*
X049997Y032666D01*
X049985Y032674D01*
X049973Y032678D01*
X049958Y03268D01*
X050033D01*
X050033Y032708D01*
X050183D01*
X050184Y03268D01*
D02*
G37*
D11*
X050108Y028878D02*
X052638D01*
X064236Y035063D02*
X064263Y035035D01*
X063492Y034993D02*
Y035063D01*
X049705Y034094D02*
Y034823D01*
Y034094D02*
X049715Y034085D01*
X050108Y032421D02*
Y032815D01*
Y032421D02*
X050108Y032421D01*
X052638Y028878D02*
X052825Y028691D01*
Y027736D02*
Y028691D01*
X050108Y032421D02*
X055935D01*
X053848Y034429D02*
X056476D01*
X05315Y035173D02*
X053298Y035024D01*
Y034979D02*
X053848Y034429D01*
X05315Y035173D02*
Y035433D01*
X053298Y034979D02*
Y035024D01*
X063578Y034291D02*
X064488D01*
X064508Y034311D01*
X063642Y035773D02*
X064243D01*
X063111D02*
X063642D01*
X064243D02*
X064263Y035793D01*
X063091Y035753D02*
X063111Y035773D01*
X049616Y028494D02*
X049665Y028445D01*
X050069D01*
X050108Y028484D01*
D12*
X055295Y025126D02*
Y026467D01*
X056688Y027859D02*
X059326D01*
X055295Y026467D02*
X056688Y027859D01*
X059326D02*
X059646Y028179D01*
X060197D01*
X05576Y026616D02*
X056796Y027653D01*
X059744Y027992D02*
X060276D01*
X056796Y027653D02*
X059405D01*
X059744Y027992D01*
X058386Y032323D02*
X058425D01*
X058386Y03185D02*
X058425D01*
X058681Y031594D01*
X058425Y032323D02*
X058996Y031752D01*
X062106Y033661D02*
X062205D01*
X061998Y033553D02*
X062106Y033661D01*
X061998Y032224D02*
Y033553D01*
X061713Y033661D02*
X061841Y033533D01*
Y032224D02*
Y033533D01*
X062785Y033179D02*
X062972Y033366D01*
X064272Y030965D02*
X064468Y031161D01*
X064508D01*
X064587Y030807D02*
X064921Y031142D01*
X063258Y030807D02*
X064587D01*
X065177Y030492D02*
X065182Y030497D01*
X063258Y030492D02*
X065177D01*
X064862Y03065D02*
X065354Y031142D01*
X063258Y03065D02*
X064862D01*
X063258Y030965D02*
X064272D01*
X064134Y029724D02*
X064567D01*
X060709Y027781D02*
Y027844D01*
X061517Y028909D02*
X061526Y028917D01*
X061517Y027354D02*
Y028909D01*
X061093Y026929D02*
X061517Y027354D01*
X061998Y027372D02*
Y028917D01*
X062156Y027126D02*
Y028917D01*
X061604Y026575D02*
X062156Y027126D01*
X061398Y026772D02*
X061998Y027372D01*
X063657Y02902D02*
X063718Y028959D01*
X063657Y02902D02*
Y029343D01*
X063258Y02939D02*
X06361D01*
X063657Y029343D01*
X063996Y029862D02*
X064134Y029724D01*
X063258Y029862D02*
X063996D01*
X06252Y034449D02*
X062857Y034786D01*
Y035021D01*
X06296Y035123D01*
X060984Y034449D02*
X06252D01*
X060738Y034203D02*
X060984Y034449D01*
X060738Y032224D02*
Y034203D01*
X05935Y029547D02*
X059951D01*
X059252Y029449D02*
X05935Y029547D01*
X063258Y030335D02*
X064356D01*
X064455Y030236D01*
X064488D01*
X062785Y032224D02*
Y033179D01*
X062628Y032224D02*
Y032956D01*
X06252Y033064D02*
X062628Y032956D01*
X06252Y033064D02*
Y03311D01*
X060423Y032224D02*
Y034183D01*
X059882Y034724D02*
X060423Y034183D01*
X059882Y034724D02*
Y035709D01*
X059961Y035787D01*
X060394D01*
X060581Y032224D02*
Y034863D01*
X060413Y03503D02*
X060581Y034863D01*
X060413Y03503D02*
Y035108D01*
X05811Y029921D02*
Y031299D01*
X058353Y031424D02*
X058386Y031457D01*
X058235Y031424D02*
X058353D01*
X05811Y031299D02*
X058235Y031424D01*
X058681Y031594D02*
X059951D01*
X058996Y031752D02*
X059951D01*
X05811Y029921D02*
X058327Y029705D01*
X059951D01*
X058386Y03D02*
X058524Y029862D01*
X059951D01*
X063996Y030177D02*
X064134Y030039D01*
X063258Y030177D02*
X063996D01*
X063258Y029547D02*
X063839D01*
X059488Y026396D02*
X061878D01*
X059301Y025132D02*
Y026209D01*
X059488Y026396D01*
X05876Y025768D02*
Y026398D01*
X058937Y026575D02*
X061604D01*
X05876Y026398D02*
X058937Y026575D01*
X058465Y026772D02*
X061398D01*
X058238Y025069D02*
Y026545D01*
X058465Y026772D01*
X05776Y026579D02*
X05811Y026929D01*
X061093D01*
X057274Y026673D02*
X057687Y027087D01*
X060955D01*
X061368Y0275D01*
X05622Y025051D02*
Y026654D01*
X057047Y02748D01*
X060886D01*
X060915Y027283D02*
X061211Y027579D01*
X05676Y026671D02*
X057372Y027283D01*
X060915D01*
X060886Y02748D02*
X061053Y027648D01*
X060709Y027844D02*
X060896Y028031D01*
X06Y027756D02*
X060315D01*
X060738Y028179D02*
Y028917D01*
X060315Y027756D02*
X060738Y028179D01*
X060276Y027992D02*
X060581Y028297D01*
Y028917D01*
X062785Y026742D02*
Y028917D01*
X062106Y026063D02*
X062785Y026742D01*
X06126Y025984D02*
X061339Y026063D01*
X062106D01*
X06126Y025091D02*
Y025984D01*
X06076Y024591D02*
X06126Y025091D01*
X062628Y02685D02*
Y028917D01*
X062008Y02623D02*
X062628Y02685D01*
X060837Y02623D02*
X062008D01*
X060787Y026181D02*
X060837Y02623D01*
X060787Y025618D02*
Y026181D01*
X06076Y025591D02*
X060787Y025618D01*
X062313Y026831D02*
Y028917D01*
X061878Y026396D02*
X062313Y026831D01*
X05876Y024591D02*
X059301Y025132D01*
X05876Y025768D02*
X058848Y025679D01*
X05876Y025591D02*
X058848Y025679D01*
X05776Y024591D02*
X058238Y025069D01*
X061368Y0275D02*
Y028917D01*
X061211Y027579D02*
Y028917D01*
X061053Y027648D02*
Y028917D01*
X05776Y025591D02*
Y026579D01*
X057274Y025104D02*
Y026673D01*
X05676Y025591D02*
Y026671D01*
X05576Y025591D02*
Y026616D01*
X060197Y028179D02*
X060423Y028406D01*
X061368Y028917D02*
X061368Y028917D01*
X061211Y028917D02*
X061211Y028917D01*
X061053Y028917D02*
X061053Y028917D01*
X060423Y028406D02*
Y028917D01*
X060896Y028031D02*
Y028917D01*
X05676Y024591D02*
X057274Y025104D01*
X05576Y024591D02*
X05622Y025051D01*
X05476Y024591D02*
X055295Y025126D01*
D16*
X063258Y031752D02*
X065413D01*
X066194Y032532D02*
X066595D01*
X066693Y03263D01*
X065413Y031752D02*
X066194Y032532D01*
X065835Y029244D02*
X066732D01*
X065718Y02936D02*
X065835Y029244D01*
X065718Y02936D02*
Y030118D01*
X066507Y03363D02*
X066693D01*
X066243Y033366D02*
X066507Y03363D01*
X062972Y033366D02*
X066243D01*
X066047Y028244D02*
X066732D01*
X064567Y029724D02*
X066047Y028244D01*
X061683Y027923D02*
Y028917D01*
Y027923D02*
X061732Y027874D01*
X059623Y02852D02*
Y028527D01*
X058809Y029341D02*
X059623Y028527D01*
X062347Y035128D02*
Y035768D01*
Y034739D02*
Y035128D01*
X057247Y031361D02*
Y032555D01*
X056912Y031655D02*
Y032555D01*
X061841Y030039D02*
Y03063D01*
Y028917D02*
Y030039D01*
X062205D02*
X062539Y029705D01*
X061841Y030039D02*
X062205D01*
X062539Y029705D02*
X063258D01*
X05995Y030806D02*
X059951Y030807D01*
X059232Y030806D02*
X05995D01*
X059213Y030787D02*
X059232Y030806D01*
X059951Y03065D02*
X061555D01*
X061575Y03063D01*
X061841D02*
Y030758D01*
X060335Y02939D02*
X061575Y03063D01*
X061841D01*
X059951Y02939D02*
X060335D01*
X061211Y031388D02*
Y032224D01*
Y031388D02*
X061841Y030758D01*
X057485Y029341D02*
X058809D01*
X063016Y034734D02*
X063632D01*
X062958Y034676D02*
X063016Y034734D01*
X062958Y034291D02*
Y034676D01*
X061368Y032224D02*
Y033081D01*
X061339Y03311D02*
X061368Y033081D01*
X058386Y03D02*
Y031063D01*
X064488Y030157D02*
Y030236D01*
X063258Y031594D02*
X063259Y031595D01*
X066658D01*
X066693Y03163D01*
X058888Y02875D02*
X059173Y028465D01*
X057485Y02875D02*
X058888D01*
X050778Y034537D02*
X052569D01*
X052737Y033867D02*
Y034369D01*
X052569Y034537D02*
X052737Y034369D01*
Y033867D02*
X052746Y033858D01*
X056878Y034569D02*
X05688Y034567D01*
X056713Y034734D02*
X05688Y034567D01*
X055541Y034734D02*
X056713D01*
X055294Y034981D02*
X055541Y034734D01*
X056566Y035363D02*
X057283Y034646D01*
Y034557D02*
Y034646D01*
X05615Y035433D02*
X05622Y035363D01*
X056566D01*
X049409Y02933D02*
Y030482D01*
X050492Y034823D02*
X05057D01*
X050717Y034598D02*
X050778Y034537D01*
X05057Y034823D02*
X050717Y034676D01*
Y034598D02*
Y034676D01*
X049468Y029272D02*
X050108D01*
X049409Y02933D02*
X049468Y029272D01*
X056498Y03124D02*
X056912Y031655D01*
X055935Y03124D02*
X056498D01*
X056732Y030846D02*
X057247Y031361D01*
X056023Y028966D02*
X05649D01*
X056865Y029313D02*
Y029341D01*
X056772Y029219D02*
X056865Y029313D01*
X056744Y029219D02*
X056772D01*
X05649Y028966D02*
X056744Y029219D01*
X055935Y028484D02*
X056631D01*
X056865Y028718D01*
Y02875D01*
X055935Y028878D02*
X056023Y028966D01*
X050098Y029675D02*
X050108Y029665D01*
X052825Y033484D02*
Y03376D01*
X055935Y030846D02*
X056732D01*
X049801Y029575D02*
X050252D01*
X049705Y029675D02*
X050098D01*
X049695Y029685D02*
X049705Y029675D01*
X05515Y035159D02*
Y035433D01*
Y035159D02*
X055294Y035014D01*
Y034981D02*
Y035014D01*
X06126Y035128D02*
X061727D01*
X06124Y035108D02*
X06126Y035128D01*
X06124Y035768D02*
X061727D01*
X06122Y035787D02*
X06124Y035768D01*
D20*
X060423Y028917D02*
D03*
X060581D02*
D03*
X060738D02*
D03*
X060896D02*
D03*
X061053D02*
D03*
X061211D02*
D03*
X061368D02*
D03*
X061526D02*
D03*
X061683D02*
D03*
X061841D02*
D03*
X061998D02*
D03*
X062156D02*
D03*
X062313D02*
D03*
X06247D02*
D03*
X062628D02*
D03*
X062785D02*
D03*
Y032224D02*
D03*
X062628D02*
D03*
X06247D02*
D03*
X062313D02*
D03*
X062156D02*
D03*
X061998D02*
D03*
X061841D02*
D03*
X061683D02*
D03*
X061526D02*
D03*
X061368D02*
D03*
X061211D02*
D03*
X061053D02*
D03*
X060896D02*
D03*
X060738D02*
D03*
X060581D02*
D03*
X060423D02*
D03*
D21*
X063258Y02939D02*
D03*
Y029547D02*
D03*
Y029705D02*
D03*
Y029862D02*
D03*
Y03002D02*
D03*
Y030177D02*
D03*
Y030335D02*
D03*
Y030492D02*
D03*
Y03065D02*
D03*
Y030807D02*
D03*
Y030965D02*
D03*
Y031122D02*
D03*
Y03128D02*
D03*
Y031437D02*
D03*
Y031594D02*
D03*
Y031752D02*
D03*
X059951D02*
D03*
Y031594D02*
D03*
Y031437D02*
D03*
Y03128D02*
D03*
Y031122D02*
D03*
Y030965D02*
D03*
Y030807D02*
D03*
Y03065D02*
D03*
Y030492D02*
D03*
Y030335D02*
D03*
Y030177D02*
D03*
Y03002D02*
D03*
Y029862D02*
D03*
Y029705D02*
D03*
Y029547D02*
D03*
Y02939D02*
D03*
D22*
X064441Y035045D02*
D03*
X065481Y035431D02*
D03*
X064441Y035803D02*
D03*
D23*
X063602Y035133D02*
D03*
Y035753D02*
D03*
X062982Y035743D02*
D03*
Y035123D02*
D03*
D24*
X062958Y034291D02*
D03*
X062347Y035128D02*
D03*
X061727D02*
D03*
X062347Y035768D02*
D03*
X061727D02*
D03*
X063578Y034291D02*
D03*
X056865Y02875D02*
D03*
X057485D02*
D03*
X056865Y029341D02*
D03*
X057485D02*
D03*
D25*
X055935Y030059D02*
D03*
Y030453D02*
D03*
Y029665D02*
D03*
Y028878D02*
D03*
Y029272D02*
D03*
Y030846D02*
D03*
Y032421D02*
D03*
Y032815D02*
D03*
Y032028D02*
D03*
Y03124D02*
D03*
Y031634D02*
D03*
Y028484D02*
D03*
X050108D02*
D03*
Y028878D02*
D03*
Y029665D02*
D03*
Y029272D02*
D03*
Y030059D02*
D03*
Y032421D02*
D03*
Y032028D02*
D03*
Y032815D02*
D03*
D26*
X053218Y027736D02*
D03*
X053612D02*
D03*
X052825D02*
D03*
X052037D02*
D03*
X052431D02*
D03*
X054006D02*
D03*
X0544D02*
D03*
X051644D02*
D03*
X052037Y03376D02*
D03*
X051644D02*
D03*
X052431D02*
D03*
X052825D02*
D03*
D27*
X064508Y034311D02*
D03*
X065335D02*
D03*
X06122Y035787D02*
D03*
X060394D02*
D03*
X06124Y035108D02*
D03*
X060413D02*
D03*
D28*
X050492Y03565D02*
D03*
Y034823D02*
D03*
X049705Y03565D02*
D03*
Y034823D02*
D03*
D45*
X056594Y02815D02*
X057579D01*
X05376Y025591D02*
X053842Y025673D01*
X054118D01*
X056594Y02815D01*
D46*
X064305Y029435D02*
X066307Y027433D01*
X06399Y029435D02*
X064305D01*
X066499Y027244D02*
X066732D01*
X066307Y027433D02*
X06631D01*
X066499Y027244D01*
X063976Y029449D02*
X06399Y029435D01*
X065481Y035431D02*
X065506Y035456D01*
X066519D01*
X066693Y03563D01*
X05271Y03039D02*
X054268D01*
X054282Y030404D02*
X055039D01*
X054268Y03039D02*
X054282Y030404D01*
X063632Y035063D02*
X064236D01*
X063632Y034734D02*
Y035063D01*
X063612Y035133D02*
X063632Y035113D01*
X063602Y035133D02*
X063612D01*
X063632Y035063D02*
Y035113D01*
X049799Y026642D02*
X049827Y026614D01*
X05279Y034792D02*
X052816D01*
X05215Y035308D02*
X05235Y035108D01*
X052475D01*
X05279Y034792D01*
X05215Y035308D02*
Y035433D01*
X052816Y034792D02*
X053701Y033907D01*
X053707Y024537D02*
X05376Y024591D01*
X052982Y024537D02*
X053707D01*
D47*
X066693Y03163D02*
D03*
Y03463D02*
D03*
Y03363D02*
D03*
Y03263D02*
D03*
X066732Y030244D02*
D03*
Y027244D02*
D03*
Y028244D02*
D03*
Y029244D02*
D03*
D48*
X066693Y03563D02*
D03*
X066732Y026244D02*
D03*
D49*
X053827Y026614D02*
D03*
X050827D02*
D03*
X051827D02*
D03*
X052827D02*
D03*
X05615Y035433D02*
D03*
X05315D02*
D03*
X05415D02*
D03*
X05515D02*
D03*
D50*
X049827Y026614D02*
D03*
X05215Y035433D02*
D03*
D51*
X06276Y024591D02*
D03*
D52*
X06176D02*
D03*
X06076D02*
D03*
X05976D02*
D03*
X05876D02*
D03*
X05776D02*
D03*
X05676D02*
D03*
X05576D02*
D03*
X05476D02*
D03*
X05376D02*
D03*
Y025591D02*
D03*
X05476D02*
D03*
X05576D02*
D03*
X05676D02*
D03*
X05776D02*
D03*
X05876D02*
D03*
X05976D02*
D03*
X06076D02*
D03*
X06176D02*
D03*
X06276D02*
D03*
D53*
X064468Y032776D02*
D03*
X0655Y026D02*
D03*
X064Y025D02*
D03*
X062Y031D02*
D03*
X06Y033D02*
D03*
X059Y035D02*
D03*
X0585Y034D02*
D03*
X058Y033D02*
D03*
X0555Y028D02*
D03*
X053Y033D02*
D03*
Y025D02*
D03*
X052Y033D02*
D03*
X051D02*
D03*
X0505Y034D02*
D03*
X05Y025D02*
D03*
X059547Y033465D02*
D03*
X059252Y032382D02*
D03*
Y032776D02*
D03*
Y033169D02*
D03*
X061516Y031299D02*
D03*
X062205Y029921D02*
D03*
X061516D02*
D03*
X060925D02*
D03*
X062205Y03061D02*
D03*
X061555Y03065D02*
D03*
X060925Y03061D02*
D03*
X062205Y031299D02*
D03*
X060925D02*
D03*
X063661Y028268D02*
D03*
X064016Y027559D02*
D03*
X06374D02*
D03*
X06311Y02752D02*
D03*
X063425Y027559D02*
D03*
X063386Y028268D02*
D03*
X063071D02*
D03*
X058583Y034961D02*
D03*
X058071D02*
D03*
X059173Y034557D02*
D03*
D54*
X057579Y02815D02*
D03*
X063632Y034734D02*
D03*
D55*
X058386Y032323D02*
D03*
Y03185D02*
D03*
X065718Y030118D02*
D03*
X062205Y033661D02*
D03*
X061713D02*
D03*
X064508Y031161D02*
D03*
X064921Y031142D02*
D03*
X063718Y028959D02*
D03*
X065182Y030497D02*
D03*
X065354Y031142D02*
D03*
X065256Y028465D02*
D03*
X060709Y027781D02*
D03*
X061732Y027874D02*
D03*
X059623Y02852D02*
D03*
X064646Y02626D02*
D03*
X062347Y034739D02*
D03*
X056912Y032555D02*
D03*
X057247D02*
D03*
X059213Y030787D02*
D03*
X059252Y029449D02*
D03*
X054282Y030404D02*
D03*
X055039D02*
D03*
X05271Y03039D02*
D03*
X06252Y03311D02*
D03*
X061339D02*
D03*
X058386Y031457D02*
D03*
Y031063D02*
D03*
X064488Y030236D02*
D03*
X064134Y030039D02*
D03*
X06Y027756D02*
D03*
X059173Y028465D02*
D03*
X054862Y033278D02*
D03*
X055246D02*
D03*
X055659D02*
D03*
X056171D02*
D03*
X058622Y034542D02*
D03*
X056575Y033278D02*
D03*
X058022Y034542D02*
D03*
X064173Y02626D02*
D03*
X049715Y034085D02*
D03*
X055157Y028012D02*
D03*
X050817Y028898D02*
D03*
X050492Y035968D02*
D03*
X049705Y035955D02*
D03*
X056476Y034429D02*
D03*
X05688Y034567D02*
D03*
X057283Y034557D02*
D03*
X049429Y030482D02*
D03*
X049695Y029685D02*
D03*
X049616Y028494D02*
D03*
D56*
X063976Y029449D02*
D03*
M02*
