M48
;Layer_Color=9474304
;FILE_FORMAT=2:4
INCH,LZ
;TYPE=PLATED
T1F00S00C0.0150
T2F00S00C0.0180
T3F00S00C0.0360
T4F00S00C0.0433
T5F00S00C0.1299
%
T01
X064Y025
X064173Y02626
X064646
X0655Y026
X065256Y028465
X063661Y028268
X063386
X063071
X06311Y02752
X063425Y027559
X06374
X064016
X063718Y028959
X064134Y030039
X064488Y030236
X064508Y031161
X064921Y031142
X065354
X065182Y030497
X065718Y030118
X062205Y029921
X061516
X060925
Y03061
X061555Y03065
X062205Y03061
X062Y031
X059213Y030787
X058386Y031063
X059252Y029449
X059173Y028465
X059623Y02852
X06Y027756
X060709Y027781
X061732Y027874
X0555Y028
X055157Y028012
X055039Y030404
X054282
X05271Y03039
X049429Y030482
X049695Y029685
X049616Y028494
X050817Y028898
X05Y025
X053
Y033
X052
X051
X0505Y034
X049715Y034085
X049705Y035955
X050492Y035968
X054862Y033278
X055246
X055659
X056171
X056575
X056912Y032555
X057247
X058Y033
X058386Y032323
Y03185
Y031457
X059252Y032382
Y032776
Y033169
X059547Y033465
X06Y033
X061339Y03311
X061713Y033661
X062205
X062347Y034739
X062205Y031299
X061516
X060925
X0585Y034
X058622Y034542
X058022
X057283Y034557
X05688Y034567
X056476Y034429
X059Y035
X06252Y03311
X064468Y032776
T02
X063976Y029449
X057579Y02815
X058071Y034961
X058583
X059173Y034557
X063632Y034734
T03
X066732Y026244
Y027244
Y028244
Y029244
Y030244
X053827Y026614
X052827
X051827
X050827
X049827
X05215Y035433
X05315
X05415
X05515
X05615
X066693Y03563
Y03463
Y03363
Y03263
Y03163
T04
X06276Y024591
Y025591
X06176
Y024591
X06076
X05976
X05876
X05776
X05676
X05576
X05476
X05376
Y025591
X05476
X05576
X05676
X05776
X05876
X05976
X06076
T05
X065092Y024803
X051234
M30
