G04*
G04 #@! TF.GenerationSoftware,Altium Limited,Altium Designer,20.1.11 (218)*
G04*
G04 Layer_Color=128*
%FSTAX24Y24*%
%MOIN*%
G70*
G04*
G04 #@! TF.SameCoordinates,E2051E8E-EE30-42B2-978D-12B425F2BF15*
G04*
G04*
G04 #@! TF.FilePolarity,Positive*
G04*
G01*
G75*
%ADD74C,0.0020*%
D74*
X066513Y03163D02*
X066873D01*
X066693Y03145D02*
Y03181D01*
X066513Y03563D02*
X066873D01*
X066693Y03545D02*
Y03581D01*
X066513Y03463D02*
X066873D01*
X066693Y03445D02*
Y03481D01*
X066513Y03363D02*
X066873D01*
X066693Y03345D02*
Y03381D01*
X066513Y03263D02*
X066873D01*
X066693Y03245D02*
Y03281D01*
X053647Y026614D02*
X054007D01*
X053827Y026434D02*
Y026794D01*
X049647Y026614D02*
X050007D01*
X049827Y026434D02*
Y026794D01*
X050647Y026614D02*
X051007D01*
X050827Y026434D02*
Y026794D01*
X051647Y026614D02*
X052007D01*
X051827Y026434D02*
Y026794D01*
X052647Y026614D02*
X053007D01*
X052827Y026434D02*
Y026794D01*
X05597Y035433D02*
X05633D01*
X05615Y035253D02*
Y035613D01*
X05197Y035433D02*
X05233D01*
X05215Y035253D02*
Y035613D01*
X05297Y035433D02*
X05333D01*
X05315Y035253D02*
Y035613D01*
X05397Y035433D02*
X05433D01*
X05415Y035253D02*
Y035613D01*
X05497Y035433D02*
X05533D01*
X05515Y035253D02*
Y035613D01*
X062543Y024591D02*
X062976D01*
X06276Y024374D02*
Y024807D01*
X061543Y024591D02*
X061976D01*
X06176Y024374D02*
Y024807D01*
X060543Y024591D02*
X060976D01*
X06076Y024374D02*
Y024807D01*
X059543Y024591D02*
X059976D01*
X05976Y024374D02*
Y024807D01*
X058543Y024591D02*
X058976D01*
X05876Y024374D02*
Y024807D01*
X057543Y024591D02*
X057976D01*
X05776Y024374D02*
Y024807D01*
X056543Y024591D02*
X056976D01*
X05676Y024374D02*
Y024807D01*
X055543Y024591D02*
X055976D01*
X05576Y024374D02*
Y024807D01*
X054543Y024591D02*
X054976D01*
X05476Y024374D02*
Y024807D01*
X053543Y024591D02*
X053976D01*
X05376Y024374D02*
Y024807D01*
X053543Y025591D02*
X053976D01*
X05376Y025374D02*
Y025807D01*
X054543Y025591D02*
X054976D01*
X05476Y025374D02*
Y025807D01*
X055543Y025591D02*
X055976D01*
X05576Y025374D02*
Y025807D01*
X056543Y025591D02*
X056976D01*
X05676Y025374D02*
Y025807D01*
X057543Y025591D02*
X057976D01*
X05776Y025374D02*
Y025807D01*
X058543Y025591D02*
X058976D01*
X05876Y025374D02*
Y025807D01*
X059543Y025591D02*
X059976D01*
X05976Y025374D02*
Y025807D01*
X060543Y025591D02*
X060976D01*
X06076Y025374D02*
Y025807D01*
X061543Y025591D02*
X061976D01*
X06176Y025374D02*
Y025807D01*
X062543Y025591D02*
X062976D01*
X06276Y025374D02*
Y025807D01*
X066552Y030244D02*
X066912D01*
X066732Y030064D02*
Y030424D01*
X066552Y026244D02*
X066912D01*
X066732Y026064D02*
Y026424D01*
X066552Y027244D02*
X066912D01*
X066732Y027064D02*
Y027424D01*
X066552Y028244D02*
X066912D01*
X066732Y028064D02*
Y028424D01*
X066552Y029244D02*
X066912D01*
X066732Y029064D02*
Y029424D01*
X050584Y024803D02*
X051883D01*
X051234Y024154D02*
Y025453D01*
X064442Y024803D02*
X065742D01*
X065092Y024154D02*
Y025453D01*
X050584Y024803D02*
X051883D01*
X051234Y024154D02*
Y025453D01*
X064442Y024803D02*
X065742D01*
X065092Y024154D02*
Y025453D01*
X050584Y024803D02*
X051883D01*
X051234Y024154D02*
Y025453D01*
X064442Y024803D02*
X065742D01*
X065092Y024154D02*
Y025453D01*
X064394Y032776D02*
X064543D01*
X064468Y032701D02*
Y032851D01*
X065425Y026D02*
X065575D01*
X0655Y025925D02*
Y026075D01*
X063925Y025D02*
X064075D01*
X064Y024925D02*
Y025075D01*
X061925Y031D02*
X062075D01*
X062Y030925D02*
Y031075D01*
X059925Y033D02*
X060075D01*
X06Y032925D02*
Y033075D01*
X058925Y035D02*
X059075D01*
X059Y034925D02*
Y035075D01*
X058425Y034D02*
X058575D01*
X0585Y033925D02*
Y034075D01*
X057925Y033D02*
X058075D01*
X058Y032925D02*
Y033075D01*
X055425Y028D02*
X055575D01*
X0555Y027925D02*
Y028075D01*
X052925Y033D02*
X053075D01*
X053Y032925D02*
Y033075D01*
X052925Y025D02*
X053075D01*
X053Y024925D02*
Y025075D01*
X051925Y033D02*
X052075D01*
X052Y032925D02*
Y033075D01*
X050925Y033D02*
X051075D01*
X051Y032925D02*
Y033075D01*
X050425Y034D02*
X050575D01*
X0505Y033925D02*
Y034075D01*
X049925Y025D02*
X050075D01*
X05Y024925D02*
Y025075D01*
X057489Y02815D02*
X057669D01*
X057579Y02806D02*
Y02824D01*
X059472Y033465D02*
X059622D01*
X059547Y03339D02*
Y03354D01*
X059177Y032382D02*
X059327D01*
X059252Y032307D02*
Y032457D01*
X059177Y032776D02*
X059327D01*
X059252Y032701D02*
Y032851D01*
X059177Y033169D02*
X059327D01*
X059252Y033094D02*
Y033244D01*
X058311Y032323D02*
X058461D01*
X058386Y032248D02*
Y032398D01*
X058311Y03185D02*
X058461D01*
X058386Y031775D02*
Y031925D01*
X065644Y030118D02*
X065793D01*
X065718Y030043D02*
Y030193D01*
X06213Y033661D02*
X06228D01*
X062205Y033586D02*
Y033736D01*
X061638Y033661D02*
X061788D01*
X061713Y033586D02*
Y033736D01*
X061441Y031299D02*
X061591D01*
X061516Y031224D02*
Y031374D01*
X06213Y029921D02*
X06228D01*
X062205Y029846D02*
Y029996D01*
X061441Y029921D02*
X061591D01*
X061516Y029846D02*
Y029996D01*
X06085Y029921D02*
X061D01*
X060925Y029846D02*
Y029996D01*
X06213Y03061D02*
X06228D01*
X062205Y030535D02*
Y030685D01*
X06148Y03065D02*
X06163D01*
X061555Y030575D02*
Y030725D01*
X06085Y03061D02*
X061D01*
X060925Y030535D02*
Y030685D01*
X06213Y031299D02*
X06228D01*
X062205Y031224D02*
Y031374D01*
X06085Y031299D02*
X061D01*
X060925Y031224D02*
Y031374D01*
X064433Y031161D02*
X064583D01*
X064508Y031086D02*
Y031236D01*
X064846Y031142D02*
X064996D01*
X064921Y031067D02*
Y031217D01*
X063643Y028959D02*
X063793D01*
X063718Y028884D02*
Y029034D01*
X063586Y028268D02*
X063736D01*
X063661Y028193D02*
Y028343D01*
X063941Y027559D02*
X064091D01*
X064016Y027484D02*
Y027634D01*
X063665Y027559D02*
X063815D01*
X06374Y027484D02*
Y027634D01*
X063035Y02752D02*
X063185D01*
X06311Y027445D02*
Y027595D01*
X06335Y027559D02*
X0635D01*
X063425Y027484D02*
Y027634D01*
X063311Y028268D02*
X063461D01*
X063386Y028193D02*
Y028343D01*
X062996Y028268D02*
X063146D01*
X063071Y028193D02*
Y028343D01*
X065107Y030497D02*
X065257D01*
X065182Y030422D02*
Y030572D01*
X065279Y031142D02*
X065429D01*
X065354Y031067D02*
Y031217D01*
X065181Y028465D02*
X065331D01*
X065256Y02839D02*
Y02854D01*
X060634Y027781D02*
X060784D01*
X060709Y027706D02*
Y027856D01*
X061657Y027874D02*
X061807D01*
X061732Y027799D02*
Y027949D01*
X063886Y029449D02*
X064066D01*
X063976Y029359D02*
Y029539D01*
X059548Y02852D02*
X059698D01*
X059623Y028445D02*
Y028595D01*
X064571Y02626D02*
X064721D01*
X064646Y026185D02*
Y026335D01*
X062272Y034739D02*
X062422D01*
X062347Y034664D02*
Y034814D01*
X056837Y032555D02*
X056987D01*
X056912Y03248D02*
Y03263D01*
X057172Y032555D02*
X057322D01*
X057247Y03248D02*
Y03263D01*
X059138Y030787D02*
X059288D01*
X059213Y030712D02*
Y030862D01*
X059177Y029449D02*
X059327D01*
X059252Y029374D02*
Y029524D01*
X054207Y030404D02*
X054356D01*
X054282Y030329D02*
Y030479D01*
X054964Y030404D02*
X055114D01*
X055039Y030329D02*
Y030479D01*
X052635Y03039D02*
X052785D01*
X05271Y030315D02*
Y030465D01*
X063542Y034734D02*
X063722D01*
X063632Y034644D02*
Y034824D01*
X062445Y03311D02*
X062595D01*
X06252Y033035D02*
Y033185D01*
X061264Y03311D02*
X061414D01*
X061339Y033035D02*
Y033185D01*
X058311Y031457D02*
X058461D01*
X058386Y031382D02*
Y031532D01*
X058311Y031063D02*
X058461D01*
X058386Y030988D02*
Y031138D01*
X064413Y030236D02*
X064563D01*
X064488Y030161D02*
Y030311D01*
X064059Y030039D02*
X064209D01*
X064134Y029964D02*
Y030114D01*
X059925Y027756D02*
X060075D01*
X06Y027681D02*
Y027831D01*
X059098Y028465D02*
X059248D01*
X059173Y02839D02*
Y02854D01*
X058493Y034961D02*
X058673D01*
X058583Y034871D02*
Y035051D01*
X057981Y034961D02*
X058161D01*
X058071Y034871D02*
Y035051D01*
X059083Y034557D02*
X059263D01*
X059173Y034467D02*
Y034647D01*
X054787Y033278D02*
X054937D01*
X054862Y033203D02*
Y033353D01*
X055171Y033278D02*
X055321D01*
X055246Y033203D02*
Y033353D01*
X055584Y033278D02*
X055734D01*
X055659Y033203D02*
Y033353D01*
X056096Y033278D02*
X056246D01*
X056171Y033203D02*
Y033353D01*
X058547Y034542D02*
X058697D01*
X058622Y034467D02*
Y034617D01*
X0565Y033278D02*
X05665D01*
X056575Y033203D02*
Y033353D01*
X057947Y034542D02*
X058097D01*
X058022Y034467D02*
Y034617D01*
X064098Y02626D02*
X064248D01*
X064173Y026185D02*
Y026335D01*
X04964Y034085D02*
X04979D01*
X049715Y03401D02*
Y03416D01*
X055082Y028012D02*
X055232D01*
X055157Y027937D02*
Y028087D01*
X050742Y028898D02*
X050892D01*
X050817Y028823D02*
Y028973D01*
X050417Y035968D02*
X050567D01*
X050492Y035893D02*
Y036043D01*
X04963Y035955D02*
X04978D01*
X049705Y03588D02*
Y03603D01*
X056401Y034429D02*
X056551D01*
X056476Y034354D02*
Y034504D01*
X056805Y034567D02*
X056955D01*
X05688Y034492D02*
Y034642D01*
X057208Y034557D02*
X057358D01*
X057283Y034482D02*
Y034632D01*
X049354Y030482D02*
X049504D01*
X049429Y030407D02*
Y030557D01*
X04962Y029685D02*
X04977D01*
X049695Y02961D02*
Y02976D01*
X049541Y028494D02*
X049691D01*
X049616Y028419D02*
Y028569D01*
M02*
