G04*
G04 #@! TF.GenerationSoftware,Altium Limited,Altium Designer,20.1.11 (218)*
G04*
G04 Layer_Color=2752767*
%FSTAX24Y24*%
%MOIN*%
G70*
G04*
G04 #@! TF.SameCoordinates,E2051E8E-EE30-42B2-978D-12B425F2BF15*
G04*
G04*
G04 #@! TF.FilePolarity,Positive*
G04*
G01*
G75*
%ADD74C,0.0020*%
%ADD75C,0.0027*%
D74*
X066613Y03155D02*
Y03171D01*
X066773D01*
Y03155D01*
X066613D01*
Y03555D02*
Y03571D01*
X066773D01*
Y03555D01*
X066613D01*
Y03455D02*
Y03471D01*
X066773D01*
Y03455D01*
X066613D01*
Y03355D02*
Y03371D01*
X066773D01*
Y03355D01*
X066613D01*
Y03255D02*
Y03271D01*
X066773D01*
Y03255D01*
X066613D01*
X053747Y026534D02*
Y026694D01*
X053907D01*
Y026534D01*
X053747D01*
X049747D02*
Y026694D01*
X049907D01*
Y026534D01*
X049747D01*
X050747D02*
Y026694D01*
X050907D01*
Y026534D01*
X050747D01*
X051747D02*
Y026694D01*
X051907D01*
Y026534D01*
X051747D01*
X052747D02*
Y026694D01*
X052907D01*
Y026534D01*
X052747D01*
X05607Y035353D02*
Y035513D01*
X05623D01*
Y035353D01*
X05607D01*
X05207D02*
Y035513D01*
X05223D01*
Y035353D01*
X05207D01*
X05307D02*
Y035513D01*
X05323D01*
Y035353D01*
X05307D01*
X05407D02*
Y035513D01*
X05423D01*
Y035353D01*
X05407D01*
X05507D02*
Y035513D01*
X05523D01*
Y035353D01*
X05507D01*
X066652Y030164D02*
Y030324D01*
X066812D01*
Y030164D01*
X066652D01*
Y026164D02*
Y026324D01*
X066812D01*
Y026164D01*
X066652D01*
Y027164D02*
Y027324D01*
X066812D01*
Y027164D01*
X066652D01*
Y028164D02*
Y028324D01*
X066812D01*
Y028164D01*
X066652D01*
Y029164D02*
Y029324D01*
X066812D01*
Y029164D01*
X066652D01*
X051234Y024723D02*
X051154Y024883D01*
X051314D01*
X051234Y024723D01*
X065092D02*
X065012Y024883D01*
X065172D01*
X065092Y024723D01*
X051234D02*
X051154Y024883D01*
X051314D01*
X051234Y024723D01*
X065092D02*
X065012Y024883D01*
X065172D01*
X065092Y024723D01*
X051234D02*
X051154Y024883D01*
X051314D01*
X051234Y024723D01*
X065092D02*
X065012Y024883D01*
X065172D01*
X065092Y024723D01*
X064468Y032696D02*
X064509Y032736D01*
X064549D01*
X064509Y032776D01*
X064549Y032816D01*
X064509D01*
X064468Y032856D01*
X064429Y032816D01*
X064388D01*
X064429Y032776D01*
X064388Y032736D01*
X064429D01*
X064468Y032696D01*
X0655Y02592D02*
X06554Y02596D01*
X06558D01*
X06554Y026D01*
X06558Y02604D01*
X06554D01*
X0655Y02608D01*
X06546Y02604D01*
X06542D01*
X06546Y026D01*
X06542Y02596D01*
X06546D01*
X0655Y02592D01*
X064Y02492D02*
X06404Y02496D01*
X06408D01*
X06404Y025D01*
X06408Y02504D01*
X06404D01*
X064Y02508D01*
X06396Y02504D01*
X06392D01*
X06396Y025D01*
X06392Y02496D01*
X06396D01*
X064Y02492D01*
X062Y03092D02*
X06204Y03096D01*
X06208D01*
X06204Y031D01*
X06208Y03104D01*
X06204D01*
X062Y03108D01*
X06196Y03104D01*
X06192D01*
X06196Y031D01*
X06192Y03096D01*
X06196D01*
X062Y03092D01*
X06Y03292D02*
X06004Y03296D01*
X06008D01*
X06004Y033D01*
X06008Y03304D01*
X06004D01*
X06Y03308D01*
X05996Y03304D01*
X05992D01*
X05996Y033D01*
X05992Y03296D01*
X05996D01*
X06Y03292D01*
X059Y03492D02*
X05904Y03496D01*
X05908D01*
X05904Y035D01*
X05908Y03504D01*
X05904D01*
X059Y03508D01*
X05896Y03504D01*
X05892D01*
X05896Y035D01*
X05892Y03496D01*
X05896D01*
X059Y03492D01*
X0585Y03392D02*
X05854Y03396D01*
X05858D01*
X05854Y034D01*
X05858Y03404D01*
X05854D01*
X0585Y03408D01*
X05846Y03404D01*
X05842D01*
X05846Y034D01*
X05842Y03396D01*
X05846D01*
X0585Y03392D01*
X058Y03292D02*
X05804Y03296D01*
X05808D01*
X05804Y033D01*
X05808Y03304D01*
X05804D01*
X058Y03308D01*
X05796Y03304D01*
X05792D01*
X05796Y033D01*
X05792Y03296D01*
X05796D01*
X058Y03292D01*
X0555Y02792D02*
X05554Y02796D01*
X05558D01*
X05554Y028D01*
X05558Y02804D01*
X05554D01*
X0555Y02808D01*
X05546Y02804D01*
X05542D01*
X05546Y028D01*
X05542Y02796D01*
X05546D01*
X0555Y02792D01*
X053Y03292D02*
X05304Y03296D01*
X05308D01*
X05304Y033D01*
X05308Y03304D01*
X05304D01*
X053Y03308D01*
X05296Y03304D01*
X05292D01*
X05296Y033D01*
X05292Y03296D01*
X05296D01*
X053Y03292D01*
Y02492D02*
X05304Y02496D01*
X05308D01*
X05304Y025D01*
X05308Y02504D01*
X05304D01*
X053Y02508D01*
X05296Y02504D01*
X05292D01*
X05296Y025D01*
X05292Y02496D01*
X05296D01*
X053Y02492D01*
X052Y03292D02*
X05204Y03296D01*
X05208D01*
X05204Y033D01*
X05208Y03304D01*
X05204D01*
X052Y03308D01*
X05196Y03304D01*
X05192D01*
X05196Y033D01*
X05192Y03296D01*
X05196D01*
X052Y03292D01*
X051D02*
X05104Y03296D01*
X05108D01*
X05104Y033D01*
X05108Y03304D01*
X05104D01*
X051Y03308D01*
X05096Y03304D01*
X05092D01*
X05096Y033D01*
X05092Y03296D01*
X05096D01*
X051Y03292D01*
X0505Y03392D02*
X05054Y03396D01*
X05058D01*
X05054Y034D01*
X05058Y03404D01*
X05054D01*
X0505Y03408D01*
X05046Y03404D01*
X05042D01*
X05046Y034D01*
X05042Y03396D01*
X05046D01*
X0505Y03392D01*
X05Y02492D02*
X05004Y02496D01*
X05008D01*
X05004Y025D01*
X05008Y02504D01*
X05004D01*
X05Y02508D01*
X04996Y02504D01*
X04992D01*
X04996Y025D01*
X04992Y02496D01*
X04996D01*
X05Y02492D01*
X057499Y02807D02*
X057539Y02815D01*
X057499Y02823D01*
X057579Y02819D01*
X057659Y02823D01*
X057619Y02815D01*
X057659Y02807D01*
X057579Y02811D01*
X057499Y02807D01*
X059547Y033385D02*
X059587Y033425D01*
X059627D01*
X059587Y033465D01*
X059627Y033505D01*
X059587D01*
X059547Y033545D01*
X059507Y033505D01*
X059467D01*
X059507Y033465D01*
X059467Y033425D01*
X059507D01*
X059547Y033385D01*
X059252Y032302D02*
X059292Y032342D01*
X059332D01*
X059292Y032382D01*
X059332Y032422D01*
X059292D01*
X059252Y032462D01*
X059212Y032422D01*
X059172D01*
X059212Y032382D01*
X059172Y032342D01*
X059212D01*
X059252Y032302D01*
Y032696D02*
X059292Y032736D01*
X059332D01*
X059292Y032776D01*
X059332Y032816D01*
X059292D01*
X059252Y032856D01*
X059212Y032816D01*
X059172D01*
X059212Y032776D01*
X059172Y032736D01*
X059212D01*
X059252Y032696D01*
Y033089D02*
X059292Y033129D01*
X059332D01*
X059292Y033169D01*
X059332Y033209D01*
X059292D01*
X059252Y033249D01*
X059212Y033209D01*
X059172D01*
X059212Y033169D01*
X059172Y033129D01*
X059212D01*
X059252Y033089D01*
X058386Y032243D02*
X058426Y032283D01*
X058466D01*
X058426Y032323D01*
X058466Y032363D01*
X058426D01*
X058386Y032403D01*
X058346Y032363D01*
X058306D01*
X058346Y032323D01*
X058306Y032283D01*
X058346D01*
X058386Y032243D01*
Y03177D02*
X058426Y03181D01*
X058466D01*
X058426Y03185D01*
X058466Y03189D01*
X058426D01*
X058386Y03193D01*
X058346Y03189D01*
X058306D01*
X058346Y03185D01*
X058306Y03181D01*
X058346D01*
X058386Y03177D01*
X065718Y030038D02*
X065759Y030078D01*
X065799D01*
X065759Y030118D01*
X065799Y030158D01*
X065759D01*
X065718Y030198D01*
X065679Y030158D01*
X065638D01*
X065679Y030118D01*
X065638Y030078D01*
X065679D01*
X065718Y030038D01*
X062205Y033581D02*
X062245Y033621D01*
X062285D01*
X062245Y033661D01*
X062285Y033701D01*
X062245D01*
X062205Y033741D01*
X062165Y033701D01*
X062125D01*
X062165Y033661D01*
X062125Y033621D01*
X062165D01*
X062205Y033581D01*
X061713D02*
X061753Y033621D01*
X061793D01*
X061753Y033661D01*
X061793Y033701D01*
X061753D01*
X061713Y033741D01*
X061673Y033701D01*
X061633D01*
X061673Y033661D01*
X061633Y033621D01*
X061673D01*
X061713Y033581D01*
X061516Y031219D02*
X061556Y031259D01*
X061596D01*
X061556Y031299D01*
X061596Y031339D01*
X061556D01*
X061516Y031379D01*
X061476Y031339D01*
X061436D01*
X061476Y031299D01*
X061436Y031259D01*
X061476D01*
X061516Y031219D01*
X062205Y029841D02*
X062245Y029881D01*
X062285D01*
X062245Y029921D01*
X062285Y029961D01*
X062245D01*
X062205Y030001D01*
X062165Y029961D01*
X062125D01*
X062165Y029921D01*
X062125Y029881D01*
X062165D01*
X062205Y029841D01*
X061516D02*
X061556Y029881D01*
X061596D01*
X061556Y029921D01*
X061596Y029961D01*
X061556D01*
X061516Y030001D01*
X061476Y029961D01*
X061436D01*
X061476Y029921D01*
X061436Y029881D01*
X061476D01*
X061516Y029841D01*
X060925D02*
X060965Y029881D01*
X061005D01*
X060965Y029921D01*
X061005Y029961D01*
X060965D01*
X060925Y030001D01*
X060885Y029961D01*
X060845D01*
X060885Y029921D01*
X060845Y029881D01*
X060885D01*
X060925Y029841D01*
X062205Y03053D02*
X062245Y03057D01*
X062285D01*
X062245Y03061D01*
X062285Y03065D01*
X062245D01*
X062205Y03069D01*
X062165Y03065D01*
X062125D01*
X062165Y03061D01*
X062125Y03057D01*
X062165D01*
X062205Y03053D01*
X061555Y03057D02*
X061595Y03061D01*
X061635D01*
X061595Y03065D01*
X061635Y03069D01*
X061595D01*
X061555Y03073D01*
X061515Y03069D01*
X061475D01*
X061515Y03065D01*
X061475Y03061D01*
X061515D01*
X061555Y03057D01*
X060925Y03053D02*
X060965Y03057D01*
X061005D01*
X060965Y03061D01*
X061005Y03065D01*
X060965D01*
X060925Y03069D01*
X060885Y03065D01*
X060845D01*
X060885Y03061D01*
X060845Y03057D01*
X060885D01*
X060925Y03053D01*
X062205Y031219D02*
X062245Y031259D01*
X062285D01*
X062245Y031299D01*
X062285Y031339D01*
X062245D01*
X062205Y031379D01*
X062165Y031339D01*
X062125D01*
X062165Y031299D01*
X062125Y031259D01*
X062165D01*
X062205Y031219D01*
X060925D02*
X060965Y031259D01*
X061005D01*
X060965Y031299D01*
X061005Y031339D01*
X060965D01*
X060925Y031379D01*
X060885Y031339D01*
X060845D01*
X060885Y031299D01*
X060845Y031259D01*
X060885D01*
X060925Y031219D01*
X064508Y031081D02*
X064548Y031121D01*
X064588D01*
X064548Y031161D01*
X064588Y031201D01*
X064548D01*
X064508Y031241D01*
X064468Y031201D01*
X064428D01*
X064468Y031161D01*
X064428Y031121D01*
X064468D01*
X064508Y031081D01*
X064921Y031062D02*
X064961Y031102D01*
X065001D01*
X064961Y031142D01*
X065001Y031182D01*
X064961D01*
X064921Y031222D01*
X064881Y031182D01*
X064841D01*
X064881Y031142D01*
X064841Y031102D01*
X064881D01*
X064921Y031062D01*
X063718Y028879D02*
X063758Y028919D01*
X063798D01*
X063758Y028959D01*
X063798Y028999D01*
X063758D01*
X063718Y029039D01*
X063678Y028999D01*
X063638D01*
X063678Y028959D01*
X063638Y028919D01*
X063678D01*
X063718Y028879D01*
X063661Y028188D02*
X063701Y028228D01*
X063741D01*
X063701Y028268D01*
X063741Y028308D01*
X063701D01*
X063661Y028348D01*
X063621Y028308D01*
X063581D01*
X063621Y028268D01*
X063581Y028228D01*
X063621D01*
X063661Y028188D01*
X064016Y027479D02*
X064056Y027519D01*
X064096D01*
X064056Y027559D01*
X064096Y027599D01*
X064056D01*
X064016Y027639D01*
X063976Y027599D01*
X063936D01*
X063976Y027559D01*
X063936Y027519D01*
X063976D01*
X064016Y027479D01*
X06374D02*
X06378Y027519D01*
X06382D01*
X06378Y027559D01*
X06382Y027599D01*
X06378D01*
X06374Y027639D01*
X0637Y027599D01*
X06366D01*
X0637Y027559D01*
X06366Y027519D01*
X0637D01*
X06374Y027479D01*
X06311Y02744D02*
X06315Y02748D01*
X06319D01*
X06315Y02752D01*
X06319Y02756D01*
X06315D01*
X06311Y0276D01*
X06307Y02756D01*
X06303D01*
X06307Y02752D01*
X06303Y02748D01*
X06307D01*
X06311Y02744D01*
X063425Y027479D02*
X063465Y027519D01*
X063505D01*
X063465Y027559D01*
X063505Y027599D01*
X063465D01*
X063425Y027639D01*
X063385Y027599D01*
X063345D01*
X063385Y027559D01*
X063345Y027519D01*
X063385D01*
X063425Y027479D01*
X063386Y028188D02*
X063426Y028228D01*
X063466D01*
X063426Y028268D01*
X063466Y028308D01*
X063426D01*
X063386Y028348D01*
X063346Y028308D01*
X063306D01*
X063346Y028268D01*
X063306Y028228D01*
X063346D01*
X063386Y028188D01*
X063071D02*
X063111Y028228D01*
X063151D01*
X063111Y028268D01*
X063151Y028308D01*
X063111D01*
X063071Y028348D01*
X063031Y028308D01*
X062991D01*
X063031Y028268D01*
X062991Y028228D01*
X063031D01*
X063071Y028188D01*
X065182Y030417D02*
X065222Y030457D01*
X065262D01*
X065222Y030497D01*
X065262Y030537D01*
X065222D01*
X065182Y030577D01*
X065142Y030537D01*
X065102D01*
X065142Y030497D01*
X065102Y030457D01*
X065142D01*
X065182Y030417D01*
X065354Y031062D02*
X065394Y031102D01*
X065434D01*
X065394Y031142D01*
X065434Y031182D01*
X065394D01*
X065354Y031222D01*
X065314Y031182D01*
X065274D01*
X065314Y031142D01*
X065274Y031102D01*
X065314D01*
X065354Y031062D01*
X065256Y028385D02*
X065296Y028425D01*
X065336D01*
X065296Y028465D01*
X065336Y028505D01*
X065296D01*
X065256Y028545D01*
X065216Y028505D01*
X065176D01*
X065216Y028465D01*
X065176Y028425D01*
X065216D01*
X065256Y028385D01*
X060709Y027701D02*
X060749Y027741D01*
X060789D01*
X060749Y027781D01*
X060789Y027821D01*
X060749D01*
X060709Y027861D01*
X060669Y027821D01*
X060629D01*
X060669Y027781D01*
X060629Y027741D01*
X060669D01*
X060709Y027701D01*
X061732Y027794D02*
X061772Y027834D01*
X061812D01*
X061772Y027874D01*
X061812Y027914D01*
X061772D01*
X061732Y027954D01*
X061692Y027914D01*
X061652D01*
X061692Y027874D01*
X061652Y027834D01*
X061692D01*
X061732Y027794D01*
X063896Y029369D02*
X063936Y029449D01*
X063896Y029529D01*
X063976Y029489D01*
X064056Y029529D01*
X064016Y029449D01*
X064056Y029369D01*
X063976Y029409D01*
X063896Y029369D01*
X059623Y02844D02*
X059663Y02848D01*
X059703D01*
X059663Y02852D01*
X059703Y02856D01*
X059663D01*
X059623Y0286D01*
X059583Y02856D01*
X059543D01*
X059583Y02852D01*
X059543Y02848D01*
X059583D01*
X059623Y02844D01*
X064646Y02618D02*
X064686Y02622D01*
X064726D01*
X064686Y02626D01*
X064726Y0263D01*
X064686D01*
X064646Y02634D01*
X064606Y0263D01*
X064566D01*
X064606Y02626D01*
X064566Y02622D01*
X064606D01*
X064646Y02618D01*
X062347Y034659D02*
X062387Y034699D01*
X062427D01*
X062387Y034739D01*
X062427Y034779D01*
X062387D01*
X062347Y034819D01*
X062307Y034779D01*
X062267D01*
X062307Y034739D01*
X062267Y034699D01*
X062307D01*
X062347Y034659D01*
X056912Y032475D02*
X056952Y032515D01*
X056992D01*
X056952Y032555D01*
X056992Y032595D01*
X056952D01*
X056912Y032635D01*
X056872Y032595D01*
X056832D01*
X056872Y032555D01*
X056832Y032515D01*
X056872D01*
X056912Y032475D01*
X057247D02*
X057287Y032515D01*
X057327D01*
X057287Y032555D01*
X057327Y032595D01*
X057287D01*
X057247Y032635D01*
X057207Y032595D01*
X057167D01*
X057207Y032555D01*
X057167Y032515D01*
X057207D01*
X057247Y032475D01*
X059213Y030707D02*
X059253Y030747D01*
X059293D01*
X059253Y030787D01*
X059293Y030827D01*
X059253D01*
X059213Y030867D01*
X059173Y030827D01*
X059133D01*
X059173Y030787D01*
X059133Y030747D01*
X059173D01*
X059213Y030707D01*
X059252Y029369D02*
X059292Y029409D01*
X059332D01*
X059292Y029449D01*
X059332Y029489D01*
X059292D01*
X059252Y029529D01*
X059212Y029489D01*
X059172D01*
X059212Y029449D01*
X059172Y029409D01*
X059212D01*
X059252Y029369D01*
X054282Y030324D02*
X054321Y030364D01*
X054362D01*
X054321Y030404D01*
X054362Y030444D01*
X054321D01*
X054282Y030484D01*
X054241Y030444D01*
X054201D01*
X054241Y030404D01*
X054201Y030364D01*
X054241D01*
X054282Y030324D01*
X055039D02*
X055079Y030364D01*
X055119D01*
X055079Y030404D01*
X055119Y030444D01*
X055079D01*
X055039Y030484D01*
X054999Y030444D01*
X054959D01*
X054999Y030404D01*
X054959Y030364D01*
X054999D01*
X055039Y030324D01*
X05271Y03031D02*
X05275Y03035D01*
X05279D01*
X05275Y03039D01*
X05279Y03043D01*
X05275D01*
X05271Y03047D01*
X05267Y03043D01*
X05263D01*
X05267Y03039D01*
X05263Y03035D01*
X05267D01*
X05271Y03031D01*
X063552Y034654D02*
X063592Y034734D01*
X063552Y034814D01*
X063632Y034774D01*
X063712Y034814D01*
X063672Y034734D01*
X063712Y034654D01*
X063632Y034694D01*
X063552Y034654D01*
X06252Y03303D02*
X06256Y03307D01*
X0626D01*
X06256Y03311D01*
X0626Y03315D01*
X06256D01*
X06252Y03319D01*
X06248Y03315D01*
X06244D01*
X06248Y03311D01*
X06244Y03307D01*
X06248D01*
X06252Y03303D01*
X061339D02*
X061379Y03307D01*
X061419D01*
X061379Y03311D01*
X061419Y03315D01*
X061379D01*
X061339Y03319D01*
X061299Y03315D01*
X061259D01*
X061299Y03311D01*
X061259Y03307D01*
X061299D01*
X061339Y03303D01*
X058386Y031377D02*
X058426Y031417D01*
X058466D01*
X058426Y031457D01*
X058466Y031497D01*
X058426D01*
X058386Y031537D01*
X058346Y031497D01*
X058306D01*
X058346Y031457D01*
X058306Y031417D01*
X058346D01*
X058386Y031377D01*
Y030983D02*
X058426Y031023D01*
X058466D01*
X058426Y031063D01*
X058466Y031103D01*
X058426D01*
X058386Y031143D01*
X058346Y031103D01*
X058306D01*
X058346Y031063D01*
X058306Y031023D01*
X058346D01*
X058386Y030983D01*
X064488Y030156D02*
X064528Y030196D01*
X064568D01*
X064528Y030236D01*
X064568Y030276D01*
X064528D01*
X064488Y030316D01*
X064448Y030276D01*
X064408D01*
X064448Y030236D01*
X064408Y030196D01*
X064448D01*
X064488Y030156D01*
X064134Y029959D02*
X064174Y029999D01*
X064214D01*
X064174Y030039D01*
X064214Y030079D01*
X064174D01*
X064134Y030119D01*
X064094Y030079D01*
X064054D01*
X064094Y030039D01*
X064054Y029999D01*
X064094D01*
X064134Y029959D01*
X06Y027676D02*
X06004Y027716D01*
X06008D01*
X06004Y027756D01*
X06008Y027796D01*
X06004D01*
X06Y027836D01*
X05996Y027796D01*
X05992D01*
X05996Y027756D01*
X05992Y027716D01*
X05996D01*
X06Y027676D01*
X059173Y028385D02*
X059213Y028425D01*
X059253D01*
X059213Y028465D01*
X059253Y028505D01*
X059213D01*
X059173Y028545D01*
X059133Y028505D01*
X059093D01*
X059133Y028465D01*
X059093Y028425D01*
X059133D01*
X059173Y028385D01*
X058503Y034881D02*
X058543Y034961D01*
X058503Y035041D01*
X058583Y035001D01*
X058663Y035041D01*
X058623Y034961D01*
X058663Y034881D01*
X058583Y034921D01*
X058503Y034881D01*
X057991D02*
X058031Y034961D01*
X057991Y035041D01*
X058071Y035001D01*
X058151Y035041D01*
X058111Y034961D01*
X058151Y034881D01*
X058071Y034921D01*
X057991Y034881D01*
X059093Y034477D02*
X059133Y034557D01*
X059093Y034637D01*
X059173Y034597D01*
X059253Y034637D01*
X059213Y034557D01*
X059253Y034477D01*
X059173Y034517D01*
X059093Y034477D01*
X054862Y033198D02*
X054902Y033238D01*
X054942D01*
X054902Y033278D01*
X054942Y033318D01*
X054902D01*
X054862Y033358D01*
X054822Y033318D01*
X054782D01*
X054822Y033278D01*
X054782Y033238D01*
X054822D01*
X054862Y033198D01*
X055246D02*
X055286Y033238D01*
X055326D01*
X055286Y033278D01*
X055326Y033318D01*
X055286D01*
X055246Y033358D01*
X055206Y033318D01*
X055166D01*
X055206Y033278D01*
X055166Y033238D01*
X055206D01*
X055246Y033198D01*
X055659D02*
X055699Y033238D01*
X055739D01*
X055699Y033278D01*
X055739Y033318D01*
X055699D01*
X055659Y033358D01*
X055619Y033318D01*
X055579D01*
X055619Y033278D01*
X055579Y033238D01*
X055619D01*
X055659Y033198D01*
X056171D02*
X056211Y033238D01*
X056251D01*
X056211Y033278D01*
X056251Y033318D01*
X056211D01*
X056171Y033358D01*
X056131Y033318D01*
X056091D01*
X056131Y033278D01*
X056091Y033238D01*
X056131D01*
X056171Y033198D01*
X058622Y034462D02*
X058662Y034502D01*
X058702D01*
X058662Y034542D01*
X058702Y034582D01*
X058662D01*
X058622Y034622D01*
X058582Y034582D01*
X058542D01*
X058582Y034542D01*
X058542Y034502D01*
X058582D01*
X058622Y034462D01*
X056575Y033198D02*
X056615Y033238D01*
X056655D01*
X056615Y033278D01*
X056655Y033318D01*
X056615D01*
X056575Y033358D01*
X056535Y033318D01*
X056495D01*
X056535Y033278D01*
X056495Y033238D01*
X056535D01*
X056575Y033198D01*
X058022Y034462D02*
X058062Y034502D01*
X058102D01*
X058062Y034542D01*
X058102Y034582D01*
X058062D01*
X058022Y034622D01*
X057982Y034582D01*
X057942D01*
X057982Y034542D01*
X057942Y034502D01*
X057982D01*
X058022Y034462D01*
X064173Y02618D02*
X064213Y02622D01*
X064253D01*
X064213Y02626D01*
X064253Y0263D01*
X064213D01*
X064173Y02634D01*
X064133Y0263D01*
X064093D01*
X064133Y02626D01*
X064093Y02622D01*
X064133D01*
X064173Y02618D01*
X049715Y034005D02*
X049755Y034045D01*
X049795D01*
X049755Y034085D01*
X049795Y034125D01*
X049755D01*
X049715Y034165D01*
X049675Y034125D01*
X049635D01*
X049675Y034085D01*
X049635Y034045D01*
X049675D01*
X049715Y034005D01*
X055157Y027932D02*
X055197Y027972D01*
X055237D01*
X055197Y028012D01*
X055237Y028052D01*
X055197D01*
X055157Y028092D01*
X055117Y028052D01*
X055077D01*
X055117Y028012D01*
X055077Y027972D01*
X055117D01*
X055157Y027932D01*
X050817Y028818D02*
X050857Y028858D01*
X050897D01*
X050857Y028898D01*
X050897Y028938D01*
X050857D01*
X050817Y028978D01*
X050777Y028938D01*
X050737D01*
X050777Y028898D01*
X050737Y028858D01*
X050777D01*
X050817Y028818D01*
X050492Y035888D02*
X050532Y035928D01*
X050572D01*
X050532Y035968D01*
X050572Y036008D01*
X050532D01*
X050492Y036048D01*
X050452Y036008D01*
X050412D01*
X050452Y035968D01*
X050412Y035928D01*
X050452D01*
X050492Y035888D01*
X049705Y035875D02*
X049745Y035915D01*
X049785D01*
X049745Y035955D01*
X049785Y035995D01*
X049745D01*
X049705Y036035D01*
X049665Y035995D01*
X049625D01*
X049665Y035955D01*
X049625Y035915D01*
X049665D01*
X049705Y035875D01*
X056476Y034349D02*
X056516Y034389D01*
X056556D01*
X056516Y034429D01*
X056556Y034469D01*
X056516D01*
X056476Y034509D01*
X056436Y034469D01*
X056396D01*
X056436Y034429D01*
X056396Y034389D01*
X056436D01*
X056476Y034349D01*
X05688Y034487D02*
X05692Y034527D01*
X05696D01*
X05692Y034567D01*
X05696Y034607D01*
X05692D01*
X05688Y034647D01*
X05684Y034607D01*
X0568D01*
X05684Y034567D01*
X0568Y034527D01*
X05684D01*
X05688Y034487D01*
X057283Y034477D02*
X057323Y034517D01*
X057363D01*
X057323Y034557D01*
X057363Y034597D01*
X057323D01*
X057283Y034637D01*
X057243Y034597D01*
X057203D01*
X057243Y034557D01*
X057203Y034517D01*
X057243D01*
X057283Y034477D01*
X049429Y030402D02*
X049469Y030442D01*
X049509D01*
X049469Y030482D01*
X049509Y030522D01*
X049469D01*
X049429Y030562D01*
X049389Y030522D01*
X049349D01*
X049389Y030482D01*
X049349Y030442D01*
X049389D01*
X049429Y030402D01*
X049695Y029605D02*
X049735Y029645D01*
X049775D01*
X049735Y029685D01*
X049775Y029725D01*
X049735D01*
X049695Y029765D01*
X049655Y029725D01*
X049615D01*
X049655Y029685D01*
X049615Y029645D01*
X049655D01*
X049695Y029605D01*
X049616Y028414D02*
X049656Y028454D01*
X049696D01*
X049656Y028494D01*
X049696Y028534D01*
X049656D01*
X049616Y028574D01*
X049576Y028534D01*
X049536D01*
X049576Y028494D01*
X049536Y028454D01*
X049576D01*
X049616Y028414D01*
D75*
X06284Y024591D02*
G03*
X06284Y024591I-00008J0D01*
G01*
X06184D02*
G03*
X06184Y024591I-00008J0D01*
G01*
X06084D02*
G03*
X06084Y024591I-00008J0D01*
G01*
X05984D02*
G03*
X05984Y024591I-00008J0D01*
G01*
X05884D02*
G03*
X05884Y024591I-00008J0D01*
G01*
X05784D02*
G03*
X05784Y024591I-00008J0D01*
G01*
X05684D02*
G03*
X05684Y024591I-00008J0D01*
G01*
X05584D02*
G03*
X05584Y024591I-00008J0D01*
G01*
X05484D02*
G03*
X05484Y024591I-00008J0D01*
G01*
X05384D02*
G03*
X05384Y024591I-00008J0D01*
G01*
Y025591D02*
G03*
X05384Y025591I-00008J0D01*
G01*
X05484D02*
G03*
X05484Y025591I-00008J0D01*
G01*
X05584D02*
G03*
X05584Y025591I-00008J0D01*
G01*
X05684D02*
G03*
X05684Y025591I-00008J0D01*
G01*
X05784D02*
G03*
X05784Y025591I-00008J0D01*
G01*
X05884D02*
G03*
X05884Y025591I-00008J0D01*
G01*
X05984D02*
G03*
X05984Y025591I-00008J0D01*
G01*
X06084D02*
G03*
X06084Y025591I-00008J0D01*
G01*
X06184D02*
G03*
X06184Y025591I-00008J0D01*
G01*
X06284D02*
G03*
X06284Y025591I-00008J0D01*
G01*
M02*
