G04*
G04 #@! TF.GenerationSoftware,Altium Limited,Altium Designer,24.1.2 (44)*
G04*
G04 Layer_Color=8388736*
%FSTAX44Y44*%
%MOMM*%
G71*
G04*
G04 #@! TF.SameCoordinates,D416C529-1D5D-4F3C-A594-0FDD9C22F403*
G04*
G04*
G04 #@! TF.FilePolarity,Negative*
G04*
G01*
G75*
%ADD33R,2.6670X3.5052*%
%ADD34R,1.4232X2.0532*%
G04:AMPARAMS|DCode=35|XSize=1.7632mm|YSize=0.6132mm|CornerRadius=0.1529mm|HoleSize=0mm|Usage=FLASHONLY|Rotation=180.000|XOffset=0mm|YOffset=0mm|HoleType=Round|Shape=RoundedRectangle|*
%AMROUNDEDRECTD35*
21,1,1.7632,0.3075,0,0,180.0*
21,1,1.4575,0.6132,0,0,180.0*
1,1,0.3057,-0.7288,0.1538*
1,1,0.3057,0.7288,0.1538*
1,1,0.3057,0.7288,-0.1538*
1,1,0.3057,-0.7288,-0.1538*
%
%ADD35ROUNDEDRECTD35*%
G04:AMPARAMS|DCode=36|XSize=2.5332mm|YSize=1.7532mm|CornerRadius=0.4891mm|HoleSize=0mm|Usage=FLASHONLY|Rotation=270.000|XOffset=0mm|YOffset=0mm|HoleType=Round|Shape=RoundedRectangle|*
%AMROUNDEDRECTD36*
21,1,2.5332,0.7750,0,0,270.0*
21,1,1.5550,1.7532,0,0,270.0*
1,1,0.9782,-0.3875,-0.7775*
1,1,0.9782,-0.3875,0.7775*
1,1,0.9782,0.3875,0.7775*
1,1,0.9782,0.3875,-0.7775*
%
%ADD36ROUNDEDRECTD36*%
G04:AMPARAMS|DCode=37|XSize=1.6032mm|YSize=1.9032mm|CornerRadius=0.2766mm|HoleSize=0mm|Usage=FLASHONLY|Rotation=0.000|XOffset=0mm|YOffset=0mm|HoleType=Round|Shape=RoundedRectangle|*
%AMROUNDEDRECTD37*
21,1,1.6032,1.3500,0,0,0.0*
21,1,1.0500,1.9032,0,0,0.0*
1,1,0.5532,0.5250,-0.6750*
1,1,0.5532,-0.5250,-0.6750*
1,1,0.5532,-0.5250,0.6750*
1,1,0.5532,0.5250,0.6750*
%
%ADD37ROUNDEDRECTD37*%
G04:AMPARAMS|DCode=38|XSize=1.8032mm|YSize=2.9032mm|CornerRadius=0.3016mm|HoleSize=0mm|Usage=FLASHONLY|Rotation=0.000|XOffset=0mm|YOffset=0mm|HoleType=Round|Shape=RoundedRectangle|*
%AMROUNDEDRECTD38*
21,1,1.8032,2.3000,0,0,0.0*
21,1,1.2000,2.9032,0,0,0.0*
1,1,0.6032,0.6000,-1.1500*
1,1,0.6032,-0.6000,-1.1500*
1,1,0.6032,-0.6000,1.1500*
1,1,0.6032,0.6000,1.1500*
%
%ADD38ROUNDEDRECTD38*%
%ADD39R,0.8032X1.6032*%
%ADD40R,1.6032X0.8032*%
G04:AMPARAMS|DCode=41|XSize=1.6032mm|YSize=1.9032mm|CornerRadius=0.2766mm|HoleSize=0mm|Usage=FLASHONLY|Rotation=90.000|XOffset=0mm|YOffset=0mm|HoleType=Round|Shape=RoundedRectangle|*
%AMROUNDEDRECTD41*
21,1,1.6032,1.3500,0,0,90.0*
21,1,1.0500,1.9032,0,0,90.0*
1,1,0.5532,0.6750,0.5250*
1,1,0.5532,0.6750,-0.5250*
1,1,0.5532,-0.6750,-0.5250*
1,1,0.5532,-0.6750,0.5250*
%
%ADD41ROUNDEDRECTD41*%
G04:AMPARAMS|DCode=42|XSize=1.2032mm|YSize=1.9032mm|CornerRadius=0.2266mm|HoleSize=0mm|Usage=FLASHONLY|Rotation=90.000|XOffset=0mm|YOffset=0mm|HoleType=Round|Shape=RoundedRectangle|*
%AMROUNDEDRECTD42*
21,1,1.2032,1.4500,0,0,90.0*
21,1,0.7500,1.9032,0,0,90.0*
1,1,0.4532,0.7250,0.3750*
1,1,0.4532,0.7250,-0.3750*
1,1,0.4532,-0.7250,-0.3750*
1,1,0.4532,-0.7250,0.3750*
%
%ADD42ROUNDEDRECTD42*%
G04:AMPARAMS|DCode=43|XSize=1.2032mm|YSize=1.9032mm|CornerRadius=0.2266mm|HoleSize=0mm|Usage=FLASHONLY|Rotation=180.000|XOffset=0mm|YOffset=0mm|HoleType=Round|Shape=RoundedRectangle|*
%AMROUNDEDRECTD43*
21,1,1.2032,1.4500,0,0,180.0*
21,1,0.7500,1.9032,0,0,180.0*
1,1,0.4532,-0.3750,0.7250*
1,1,0.4532,0.3750,0.7250*
1,1,0.4532,0.3750,-0.7250*
1,1,0.4532,-0.3750,-0.7250*
%
%ADD43ROUNDEDRECTD43*%
%ADD44O,1.5032X2.4032*%
G04:AMPARAMS|DCode=45|XSize=2.5332mm|YSize=1.7532mm|CornerRadius=0.4891mm|HoleSize=0mm|Usage=FLASHONLY|Rotation=0.000|XOffset=0mm|YOffset=0mm|HoleType=Round|Shape=RoundedRectangle|*
%AMROUNDEDRECTD45*
21,1,2.5332,0.7750,0,0,0.0*
21,1,1.5550,1.7532,0,0,0.0*
1,1,0.9782,0.7775,-0.3875*
1,1,0.9782,-0.7775,-0.3875*
1,1,0.9782,-0.7775,0.3875*
1,1,0.9782,0.7775,0.3875*
%
%ADD45ROUNDEDRECTD45*%
%ADD46R,3.7032X2.4032*%
%ADD47R,1.4732X1.6002*%
%ADD48R,4.2032X3.4032*%
%ADD49R,3.2032X3.2032*%
%ADD50R,2.2032X2.2032*%
%ADD51R,2.4892X2.4892*%
%ADD52C,2.4892*%
%ADD53C,1.8032*%
%ADD54C,2.2032*%
%ADD55O,1.6032X1.9032*%
%ADD56C,1.9032*%
G36*
X00481092Y00384532D02*
Y00384552D01*
X00481102Y00384582D01*
Y00384602D01*
X00481112Y00384632D01*
X00481122Y00384652D01*
X00481132Y00384682D01*
X00481152Y00384702D01*
X00481162Y00384722D01*
X00481182Y00384742D01*
X00481192Y00384762D01*
X00481212Y00384782D01*
X00481232Y00384802D01*
X00481252Y00384822D01*
X00481272Y00384842D01*
X00481292Y00384852D01*
X00481312Y00384872D01*
X00481332Y00384882D01*
X00481352Y00384902D01*
X00481382Y00384912D01*
X00481402Y00384922D01*
X00481432Y00384932D01*
X00481452D01*
X00481482Y00384942D01*
X00481502D01*
X00481532Y00384952D01*
X00481552D01*
X00481582D01*
X00487982D01*
X00488012D01*
X00488032D01*
X00488062Y00384942D01*
X00488082D01*
X00488112Y00384932D01*
X00488132D01*
X00488162Y00384922D01*
X00488182Y00384912D01*
X00488212Y00384902D01*
X00488232Y00384882D01*
X00488252Y00384872D01*
X00488272Y00384852D01*
X00488292Y00384842D01*
X00488312Y00384822D01*
X00488332Y00384802D01*
X00488352Y00384782D01*
X00488372Y00384762D01*
X00488382Y00384742D01*
X00488402Y00384722D01*
X00488412Y00384702D01*
X00488432Y00384682D01*
X00488442Y00384652D01*
X00488452Y00384632D01*
X00488462Y00384602D01*
Y00384582D01*
X00488472Y00384552D01*
Y00384532D01*
X00488482Y00384502D01*
Y00368502D01*
X00488472Y00368472D01*
Y00368452D01*
X00488462Y00368422D01*
Y00368402D01*
X00488452Y00368372D01*
X00488442Y00368352D01*
X00488432Y00368322D01*
X00488412Y00368302D01*
X00488402Y00368282D01*
X00488382Y00368262D01*
X00488372Y00368242D01*
X00488352Y00368222D01*
X00488332Y00368202D01*
X00488312Y00368182D01*
X00488292Y00368162D01*
X00488272Y00368152D01*
X00488252Y00368132D01*
X00488232Y00368122D01*
X00488212Y00368102D01*
X00488182Y00368092D01*
X00488162Y00368082D01*
X00488132Y00368072D01*
X00488112D01*
X00488082Y00368062D01*
X00488062D01*
X00488032Y00368052D01*
X00488012D01*
X00487982D01*
X00481582D01*
X00481552D01*
X00481532D01*
X00481502Y00368062D01*
X00481482D01*
X00481452Y00368072D01*
X00481432D01*
X00481402Y00368082D01*
X00481382Y00368092D01*
X00481352Y00368102D01*
X00481332Y00368122D01*
X00481312Y00368132D01*
X00481292Y00368152D01*
X00481272Y00368162D01*
X00481252Y00368182D01*
X00481232Y00368202D01*
X00481212Y00368222D01*
X00481192Y00368242D01*
X00481182Y00368262D01*
X00481162Y00368282D01*
X00481152Y00368302D01*
X00481132Y00368322D01*
X00481122Y00368352D01*
X00481112Y00368372D01*
X00481102Y00368402D01*
Y00368422D01*
X00481092Y00368452D01*
Y00368472D01*
X00481082Y00368502D01*
Y00384502D01*
X00481092Y00384532D01*
D02*
G37*
G36*
X00493792D02*
Y00384552D01*
X00493802Y00384582D01*
Y00384602D01*
X00493812Y00384632D01*
X00493822Y00384652D01*
X00493832Y00384682D01*
X00493852Y00384702D01*
X00493862Y00384722D01*
X00493882Y00384742D01*
X00493892Y00384762D01*
X00493912Y00384782D01*
X00493932Y00384802D01*
X00493952Y00384822D01*
X00493972Y00384842D01*
X00493992Y00384852D01*
X00494012Y00384872D01*
X00494032Y00384882D01*
X00494052Y00384902D01*
X00494082Y00384912D01*
X00494102Y00384922D01*
X00494132Y00384932D01*
X00494152D01*
X00494182Y00384942D01*
X00494202D01*
X00494232Y00384952D01*
X00494252D01*
X00494282D01*
X00500682D01*
X00500712D01*
X00500732D01*
X00500762Y00384942D01*
X00500782D01*
X00500812Y00384932D01*
X00500832D01*
X00500862Y00384922D01*
X00500882Y00384912D01*
X00500912Y00384902D01*
X00500932Y00384882D01*
X00500952Y00384872D01*
X00500972Y00384852D01*
X00500992Y00384842D01*
X00501012Y00384822D01*
X00501032Y00384802D01*
X00501052Y00384782D01*
X00501072Y00384762D01*
X00501082Y00384742D01*
X00501102Y00384722D01*
X00501112Y00384702D01*
X00501132Y00384682D01*
X00501142Y00384652D01*
X00501152Y00384632D01*
X00501162Y00384602D01*
Y00384582D01*
X00501172Y00384552D01*
Y00384532D01*
X00501182Y00384502D01*
Y00368502D01*
X00501172Y00368472D01*
Y00368452D01*
X00501162Y00368422D01*
Y00368402D01*
X00501152Y00368372D01*
X00501142Y00368352D01*
X00501132Y00368322D01*
X00501112Y00368302D01*
X00501102Y00368282D01*
X00501082Y00368262D01*
X00501072Y00368242D01*
X00501052Y00368222D01*
X00501032Y00368202D01*
X00501012Y00368182D01*
X00500992Y00368162D01*
X00500972Y00368152D01*
X00500952Y00368132D01*
X00500932Y00368122D01*
X00500912Y00368102D01*
X00500882Y00368092D01*
X00500862Y00368082D01*
X00500832Y00368072D01*
X00500812D01*
X00500782Y00368062D01*
X00500762D01*
X00500732Y00368052D01*
X00500712D01*
X00500682D01*
X00494282D01*
X00494252D01*
X00494232D01*
X00494202Y00368062D01*
X00494182D01*
X00494152Y00368072D01*
X00494132D01*
X00494102Y00368082D01*
X00494082Y00368092D01*
X00494052Y00368102D01*
X00494032Y00368122D01*
X00494012Y00368132D01*
X00493992Y00368152D01*
X00493972Y00368162D01*
X00493952Y00368182D01*
X00493932Y00368202D01*
X00493912Y00368222D01*
X00493892Y00368242D01*
X00493882Y00368262D01*
X00493862Y00368282D01*
X00493852Y00368302D01*
X00493832Y00368322D01*
X00493822Y00368352D01*
X00493812Y00368372D01*
X00493802Y00368402D01*
Y00368422D01*
X00493792Y00368452D01*
Y00368472D01*
X00493782Y00368502D01*
Y00384502D01*
X00493792Y00384532D01*
D02*
G37*
G36*
X00506492D02*
Y00384552D01*
X00506502Y00384582D01*
Y00384602D01*
X00506512Y00384632D01*
X00506522Y00384652D01*
X00506532Y00384682D01*
X00506552Y00384702D01*
X00506562Y00384722D01*
X00506582Y00384742D01*
X00506592Y00384762D01*
X00506612Y00384782D01*
X00506632Y00384802D01*
X00506652Y00384822D01*
X00506672Y00384842D01*
X00506692Y00384852D01*
X00506712Y00384872D01*
X00506732Y00384882D01*
X00506752Y00384902D01*
X00506782Y00384912D01*
X00506802Y00384922D01*
X00506832Y00384932D01*
X00506852D01*
X00506882Y00384942D01*
X00506902D01*
X00506932Y00384952D01*
X00506952D01*
X00506982D01*
X00513382D01*
X00513412D01*
X00513432D01*
X00513462Y00384942D01*
X00513482D01*
X00513512Y00384932D01*
X00513532D01*
X00513562Y00384922D01*
X00513582Y00384912D01*
X00513612Y00384902D01*
X00513632Y00384882D01*
X00513652Y00384872D01*
X00513672Y00384852D01*
X00513692Y00384842D01*
X00513712Y00384822D01*
X00513732Y00384802D01*
X00513752Y00384782D01*
X00513772Y00384762D01*
X00513782Y00384742D01*
X00513802Y00384722D01*
X00513812Y00384702D01*
X00513832Y00384682D01*
X00513842Y00384652D01*
X00513852Y00384632D01*
X00513862Y00384602D01*
Y00384582D01*
X00513872Y00384552D01*
Y00384532D01*
X00513882Y00384502D01*
Y00368502D01*
X00513872Y00368472D01*
Y00368452D01*
X00513862Y00368422D01*
Y00368402D01*
X00513852Y00368372D01*
X00513842Y00368352D01*
X00513832Y00368322D01*
X00513812Y00368302D01*
X00513802Y00368282D01*
X00513782Y00368262D01*
X00513772Y00368242D01*
X00513752Y00368222D01*
X00513732Y00368202D01*
X00513712Y00368182D01*
X00513692Y00368162D01*
X00513672Y00368152D01*
X00513652Y00368132D01*
X00513632Y00368122D01*
X00513612Y00368102D01*
X00513582Y00368092D01*
X00513562Y00368082D01*
X00513532Y00368072D01*
X00513512D01*
X00513482Y00368062D01*
X00513462D01*
X00513432Y00368052D01*
X00513412D01*
X00513382D01*
X00506982D01*
X00506952D01*
X00506932D01*
X00506902Y00368062D01*
X00506882D01*
X00506852Y00368072D01*
X00506832D01*
X00506802Y00368082D01*
X00506782Y00368092D01*
X00506752Y00368102D01*
X00506732Y00368122D01*
X00506712Y00368132D01*
X00506692Y00368152D01*
X00506672Y00368162D01*
X00506652Y00368182D01*
X00506632Y00368202D01*
X00506612Y00368222D01*
X00506592Y00368242D01*
X00506582Y00368262D01*
X00506562Y00368282D01*
X00506552Y00368302D01*
X00506532Y00368322D01*
X00506522Y00368352D01*
X00506512Y00368372D01*
X00506502Y00368402D01*
Y00368422D01*
X00506492Y00368452D01*
Y00368472D01*
X00506482Y00368502D01*
Y00384502D01*
X00506492Y00384532D01*
D02*
G37*
G36*
X00519192D02*
Y00384552D01*
X00519202Y00384582D01*
Y00384602D01*
X00519212Y00384632D01*
X00519222Y00384652D01*
X00519232Y00384682D01*
X00519252Y00384702D01*
X00519262Y00384722D01*
X00519282Y00384742D01*
X00519292Y00384762D01*
X00519312Y00384782D01*
X00519332Y00384802D01*
X00519352Y00384822D01*
X00519372Y00384842D01*
X00519392Y00384852D01*
X00519412Y00384872D01*
X00519432Y00384882D01*
X00519452Y00384902D01*
X00519482Y00384912D01*
X00519502Y00384922D01*
X00519532Y00384932D01*
X00519552D01*
X00519582Y00384942D01*
X00519602D01*
X00519632Y00384952D01*
X00519652D01*
X00519682D01*
X00526082D01*
X00526112D01*
X00526132D01*
X00526162Y00384942D01*
X00526182D01*
X00526212Y00384932D01*
X00526232D01*
X00526262Y00384922D01*
X00526282Y00384912D01*
X00526312Y00384902D01*
X00526332Y00384882D01*
X00526352Y00384872D01*
X00526372Y00384852D01*
X00526392Y00384842D01*
X00526412Y00384822D01*
X00526432Y00384802D01*
X00526452Y00384782D01*
X00526472Y00384762D01*
X00526482Y00384742D01*
X00526502Y00384722D01*
X00526512Y00384702D01*
X00526532Y00384682D01*
X00526542Y00384652D01*
X00526552Y00384632D01*
X00526562Y00384602D01*
Y00384582D01*
X00526572Y00384552D01*
Y00384532D01*
X00526582Y00384502D01*
Y00368502D01*
X00526572Y00368472D01*
Y00368452D01*
X00526562Y00368422D01*
Y00368402D01*
X00526552Y00368372D01*
X00526542Y00368352D01*
X00526532Y00368322D01*
X00526512Y00368302D01*
X00526502Y00368282D01*
X00526482Y00368262D01*
X00526472Y00368242D01*
X00526452Y00368222D01*
X00526432Y00368202D01*
X00526412Y00368182D01*
X00526392Y00368162D01*
X00526372Y00368152D01*
X00526352Y00368132D01*
X00526332Y00368122D01*
X00526312Y00368102D01*
X00526282Y00368092D01*
X00526262Y00368082D01*
X00526232Y00368072D01*
X00526212D01*
X00526182Y00368062D01*
X00526162D01*
X00526132Y00368052D01*
X00526112D01*
X00526082D01*
X00519682D01*
X00519652D01*
X00519632D01*
X00519602Y00368062D01*
X00519582D01*
X00519552Y00368072D01*
X00519532D01*
X00519502Y00368082D01*
X00519482Y00368092D01*
X00519452Y00368102D01*
X00519432Y00368122D01*
X00519412Y00368132D01*
X00519392Y00368152D01*
X00519372Y00368162D01*
X00519352Y00368182D01*
X00519332Y00368202D01*
X00519312Y00368222D01*
X00519292Y00368242D01*
X00519282Y00368262D01*
X00519262Y00368282D01*
X00519252Y00368302D01*
X00519232Y00368322D01*
X00519222Y00368352D01*
X00519212Y00368372D01*
X00519202Y00368402D01*
Y00368422D01*
X00519192Y00368452D01*
Y00368472D01*
X00519182Y00368502D01*
Y00384502D01*
X00519192Y00384532D01*
D02*
G37*
G36*
X00526162Y00438942D02*
X00526182D01*
X00526212Y00438932D01*
X00526232D01*
X00526262Y00438922D01*
X00526282Y00438912D01*
X00526312Y00438902D01*
X00526332Y00438882D01*
X00526352Y00438872D01*
X00526372Y00438852D01*
X00526392Y00438842D01*
X00526412Y00438822D01*
X00526432Y00438802D01*
X00526452Y00438782D01*
X00526472Y00438762D01*
X00526482Y00438742D01*
X00526502Y00438722D01*
X00526512Y00438702D01*
X00526532Y00438682D01*
X00526542Y00438652D01*
X00526552Y00438632D01*
X00526562Y00438602D01*
Y00438582D01*
X00526572Y00438552D01*
Y00438532D01*
X00526582Y00438502D01*
Y00422502D01*
X00526572Y00422472D01*
Y00422452D01*
X00526562Y00422422D01*
Y00422402D01*
X00526552Y00422372D01*
X00526542Y00422352D01*
X00526532Y00422322D01*
X00526512Y00422302D01*
X00526502Y00422282D01*
X00526482Y00422262D01*
X00526472Y00422242D01*
X00526452Y00422222D01*
X00526432Y00422202D01*
X00526412Y00422182D01*
X00526392Y00422162D01*
X00526372Y00422152D01*
X00526352Y00422132D01*
X00526332Y00422122D01*
X00526312Y00422102D01*
X00526282Y00422092D01*
X00526262Y00422082D01*
X00526232Y00422072D01*
X00526212D01*
X00526182Y00422062D01*
X00526162D01*
X00526132Y00422052D01*
X00519632D01*
X00519602Y00422062D01*
X00519582D01*
X00519552Y00422072D01*
X00519532D01*
X00519502Y00422082D01*
X00519482Y00422092D01*
X00519452Y00422102D01*
X00519432Y00422122D01*
X00519412Y00422132D01*
X00519392Y00422152D01*
X00519372Y00422162D01*
X00519352Y00422182D01*
X00519332Y00422202D01*
X00519312Y00422222D01*
X00519292Y00422242D01*
X00519282Y00422262D01*
X00519262Y00422282D01*
X00519252Y00422302D01*
X00519232Y00422322D01*
X00519222Y00422352D01*
X00519212Y00422372D01*
X00519202Y00422402D01*
Y00422422D01*
X00519192Y00422452D01*
Y00422472D01*
X00519182Y00422502D01*
Y00438502D01*
X00519192Y00438532D01*
Y00438552D01*
X00519202Y00438582D01*
Y00438602D01*
X00519212Y00438632D01*
X00519222Y00438652D01*
X00519232Y00438682D01*
X00519252Y00438702D01*
X00519262Y00438722D01*
X00519282Y00438742D01*
X00519292Y00438762D01*
X00519312Y00438782D01*
X00519332Y00438802D01*
X00519352Y00438822D01*
X00519372Y00438842D01*
X00519392Y00438852D01*
X00519412Y00438872D01*
X00519432Y00438882D01*
X00519452Y00438902D01*
X00519482Y00438912D01*
X00519502Y00438922D01*
X00519532Y00438932D01*
X00519552D01*
X00519582Y00438942D01*
X00519602D01*
X00519632Y00438952D01*
X00526132D01*
X00526162Y00438942D01*
D02*
G37*
G36*
X00513462D02*
X00513482D01*
X00513512Y00438932D01*
X00513532D01*
X00513562Y00438922D01*
X00513582Y00438912D01*
X00513612Y00438902D01*
X00513632Y00438882D01*
X00513652Y00438872D01*
X00513672Y00438852D01*
X00513692Y00438842D01*
X00513712Y00438822D01*
X00513732Y00438802D01*
X00513752Y00438782D01*
X00513772Y00438762D01*
X00513782Y00438742D01*
X00513802Y00438722D01*
X00513812Y00438702D01*
X00513832Y00438682D01*
X00513842Y00438652D01*
X00513852Y00438632D01*
X00513862Y00438602D01*
Y00438582D01*
X00513872Y00438552D01*
Y00438532D01*
X00513882Y00438502D01*
Y00422502D01*
X00513872Y00422472D01*
Y00422452D01*
X00513862Y00422422D01*
Y00422402D01*
X00513852Y00422372D01*
X00513842Y00422352D01*
X00513832Y00422322D01*
X00513812Y00422302D01*
X00513802Y00422282D01*
X00513782Y00422262D01*
X00513772Y00422242D01*
X00513752Y00422222D01*
X00513732Y00422202D01*
X00513712Y00422182D01*
X00513692Y00422162D01*
X00513672Y00422152D01*
X00513652Y00422132D01*
X00513632Y00422122D01*
X00513612Y00422102D01*
X00513582Y00422092D01*
X00513562Y00422082D01*
X00513532Y00422072D01*
X00513512D01*
X00513482Y00422062D01*
X00513462D01*
X00513432Y00422052D01*
X00506932D01*
X00506902Y00422062D01*
X00506882D01*
X00506852Y00422072D01*
X00506832D01*
X00506802Y00422082D01*
X00506782Y00422092D01*
X00506752Y00422102D01*
X00506732Y00422122D01*
X00506712Y00422132D01*
X00506692Y00422152D01*
X00506672Y00422162D01*
X00506652Y00422182D01*
X00506632Y00422202D01*
X00506612Y00422222D01*
X00506592Y00422242D01*
X00506582Y00422262D01*
X00506562Y00422282D01*
X00506552Y00422302D01*
X00506532Y00422322D01*
X00506522Y00422352D01*
X00506512Y00422372D01*
X00506502Y00422402D01*
Y00422422D01*
X00506492Y00422452D01*
Y00422472D01*
X00506482Y00422502D01*
Y00438502D01*
X00506492Y00438532D01*
Y00438552D01*
X00506502Y00438582D01*
Y00438602D01*
X00506512Y00438632D01*
X00506522Y00438652D01*
X00506532Y00438682D01*
X00506552Y00438702D01*
X00506562Y00438722D01*
X00506582Y00438742D01*
X00506592Y00438762D01*
X00506612Y00438782D01*
X00506632Y00438802D01*
X00506652Y00438822D01*
X00506672Y00438842D01*
X00506692Y00438852D01*
X00506712Y00438872D01*
X00506732Y00438882D01*
X00506752Y00438902D01*
X00506782Y00438912D01*
X00506802Y00438922D01*
X00506832Y00438932D01*
X00506852D01*
X00506882Y00438942D01*
X00506902D01*
X00506932Y00438952D01*
X00513432D01*
X00513462Y00438942D01*
D02*
G37*
G36*
X00500762D02*
X00500782D01*
X00500812Y00438932D01*
X00500832D01*
X00500862Y00438922D01*
X00500882Y00438912D01*
X00500912Y00438902D01*
X00500932Y00438882D01*
X00500952Y00438872D01*
X00500972Y00438852D01*
X00500992Y00438842D01*
X00501012Y00438822D01*
X00501032Y00438802D01*
X00501052Y00438782D01*
X00501072Y00438762D01*
X00501082Y00438742D01*
X00501102Y00438722D01*
X00501112Y00438702D01*
X00501132Y00438682D01*
X00501142Y00438652D01*
X00501152Y00438632D01*
X00501162Y00438602D01*
Y00438582D01*
X00501172Y00438552D01*
Y00438532D01*
X00501182Y00438502D01*
Y00422502D01*
X00501172Y00422472D01*
Y00422452D01*
X00501162Y00422422D01*
Y00422402D01*
X00501152Y00422372D01*
X00501142Y00422352D01*
X00501132Y00422322D01*
X00501112Y00422302D01*
X00501102Y00422282D01*
X00501082Y00422262D01*
X00501072Y00422242D01*
X00501052Y00422222D01*
X00501032Y00422202D01*
X00501012Y00422182D01*
X00500992Y00422162D01*
X00500972Y00422152D01*
X00500952Y00422132D01*
X00500932Y00422122D01*
X00500912Y00422102D01*
X00500882Y00422092D01*
X00500862Y00422082D01*
X00500832Y00422072D01*
X00500812D01*
X00500782Y00422062D01*
X00500762D01*
X00500732Y00422052D01*
X00494232D01*
X00494202Y00422062D01*
X00494182D01*
X00494152Y00422072D01*
X00494132D01*
X00494102Y00422082D01*
X00494082Y00422092D01*
X00494052Y00422102D01*
X00494032Y00422122D01*
X00494012Y00422132D01*
X00493992Y00422152D01*
X00493972Y00422162D01*
X00493952Y00422182D01*
X00493932Y00422202D01*
X00493912Y00422222D01*
X00493892Y00422242D01*
X00493882Y00422262D01*
X00493862Y00422282D01*
X00493852Y00422302D01*
X00493832Y00422322D01*
X00493822Y00422352D01*
X00493812Y00422372D01*
X00493802Y00422402D01*
Y00422422D01*
X00493792Y00422452D01*
Y00422472D01*
X00493782Y00422502D01*
Y00438502D01*
X00493792Y00438532D01*
Y00438552D01*
X00493802Y00438582D01*
Y00438602D01*
X00493812Y00438632D01*
X00493822Y00438652D01*
X00493832Y00438682D01*
X00493852Y00438702D01*
X00493862Y00438722D01*
X00493882Y00438742D01*
X00493892Y00438762D01*
X00493912Y00438782D01*
X00493932Y00438802D01*
X00493952Y00438822D01*
X00493972Y00438842D01*
X00493992Y00438852D01*
X00494012Y00438872D01*
X00494032Y00438882D01*
X00494052Y00438902D01*
X00494082Y00438912D01*
X00494102Y00438922D01*
X00494132Y00438932D01*
X00494152D01*
X00494182Y00438942D01*
X00494202D01*
X00494232Y00438952D01*
X00500732D01*
X00500762Y00438942D01*
D02*
G37*
G36*
X00488062D02*
X00488082D01*
X00488112Y00438932D01*
X00488132D01*
X00488162Y00438922D01*
X00488182Y00438912D01*
X00488212Y00438902D01*
X00488232Y00438882D01*
X00488252Y00438872D01*
X00488272Y00438852D01*
X00488292Y00438842D01*
X00488312Y00438822D01*
X00488332Y00438802D01*
X00488352Y00438782D01*
X00488372Y00438762D01*
X00488382Y00438742D01*
X00488402Y00438722D01*
X00488412Y00438702D01*
X00488432Y00438682D01*
X00488442Y00438652D01*
X00488452Y00438632D01*
X00488462Y00438602D01*
Y00438582D01*
X00488472Y00438552D01*
Y00438532D01*
X00488482Y00438502D01*
Y00422502D01*
X00488472Y00422472D01*
Y00422452D01*
X00488462Y00422422D01*
Y00422402D01*
X00488452Y00422372D01*
X00488442Y00422352D01*
X00488432Y00422322D01*
X00488412Y00422302D01*
X00488402Y00422282D01*
X00488382Y00422262D01*
X00488372Y00422242D01*
X00488352Y00422222D01*
X00488332Y00422202D01*
X00488312Y00422182D01*
X00488292Y00422162D01*
X00488272Y00422152D01*
X00488252Y00422132D01*
X00488232Y00422122D01*
X00488212Y00422102D01*
X00488182Y00422092D01*
X00488162Y00422082D01*
X00488132Y00422072D01*
X00488112D01*
X00488082Y00422062D01*
X00488062D01*
X00488032Y00422052D01*
X00481532D01*
X00481502Y00422062D01*
X00481482D01*
X00481452Y00422072D01*
X00481432D01*
X00481402Y00422082D01*
X00481382Y00422092D01*
X00481352Y00422102D01*
X00481332Y00422122D01*
X00481312Y00422132D01*
X00481292Y00422152D01*
X00481272Y00422162D01*
X00481252Y00422182D01*
X00481232Y00422202D01*
X00481212Y00422222D01*
X00481192Y00422242D01*
X00481182Y00422262D01*
X00481162Y00422282D01*
X00481152Y00422302D01*
X00481132Y00422322D01*
X00481122Y00422352D01*
X00481112Y00422372D01*
X00481102Y00422402D01*
Y00422422D01*
X00481092Y00422452D01*
Y00422472D01*
X00481082Y00422502D01*
Y00438502D01*
X00481092Y00438532D01*
Y00438552D01*
X00481102Y00438582D01*
Y00438602D01*
X00481112Y00438632D01*
X00481122Y00438652D01*
X00481132Y00438682D01*
X00481152Y00438702D01*
X00481162Y00438722D01*
X00481182Y00438742D01*
X00481192Y00438762D01*
X00481212Y00438782D01*
X00481232Y00438802D01*
X00481252Y00438822D01*
X00481272Y00438842D01*
X00481292Y00438852D01*
X00481312Y00438872D01*
X00481332Y00438882D01*
X00481352Y00438902D01*
X00481382Y00438912D01*
X00481402Y00438922D01*
X00481432Y00438932D01*
X00481452D01*
X00481482Y00438942D01*
X00481502D01*
X00481532Y00438952D01*
X00488032D01*
X00488062Y00438942D01*
D02*
G37*
G36*
X00519332Y00390502D02*
X00488332D01*
Y00416502D01*
X00519332D01*
Y00390502D01*
D02*
G37*
D33*
X00323469Y00266954D02*
D03*
D34*
X0066171Y00644398D02*
D03*
X0062861D02*
D03*
X00304078Y00645922D02*
D03*
X00270978D02*
D03*
D35*
X00482698Y0053336D02*
D03*
Y0053986D02*
D03*
Y0054636D02*
D03*
Y0055286D02*
D03*
Y0055936D02*
D03*
Y0056586D02*
D03*
Y0057236D02*
D03*
Y0057886D02*
D03*
Y0058536D02*
D03*
Y0059186D02*
D03*
X00425098D02*
D03*
Y0058536D02*
D03*
Y0057886D02*
D03*
Y0057236D02*
D03*
Y0056586D02*
D03*
Y0055936D02*
D03*
Y0055286D02*
D03*
Y0054636D02*
D03*
Y0053986D02*
D03*
Y0053336D02*
D03*
D36*
X004572Y00442496D02*
D03*
Y00399796D02*
D03*
D37*
X00433324Y0037592D02*
D03*
X00456184D02*
D03*
X00661416Y00669036D02*
D03*
X00638556D02*
D03*
X00270764Y00670306D02*
D03*
X00293624D02*
D03*
X00508508Y0054102D02*
D03*
X00531368D02*
D03*
Y00518922D02*
D03*
X00508508D02*
D03*
X00296418Y00463042D02*
D03*
X00319278D02*
D03*
Y00439166D02*
D03*
X00296418D02*
D03*
X00407924Y0081407D02*
D03*
X00430784D02*
D03*
D38*
X00487456Y00344678D02*
D03*
X00459456D02*
D03*
X0048641Y00309118D02*
D03*
X0045841D02*
D03*
D39*
X00378612Y00813766D02*
D03*
X00388112Y00794766D02*
D03*
X00369112D02*
D03*
D40*
X00618896Y00716382D02*
D03*
Y00697382D02*
D03*
X00637896Y00706882D02*
D03*
X00292252Y0069977D02*
D03*
X00311252Y0070927D02*
D03*
Y0069027D02*
D03*
D41*
X00589534Y00654812D02*
D03*
Y00677672D02*
D03*
X00343408Y00724154D02*
D03*
Y00701294D02*
D03*
X0055372Y0053975D02*
D03*
Y0056261D02*
D03*
X0059182Y00429514D02*
D03*
Y00406654D02*
D03*
D42*
X00589788Y00715468D02*
D03*
Y00696468D02*
D03*
X00343408Y00655472D02*
D03*
Y00674472D02*
D03*
X00520192Y00343358D02*
D03*
Y00324358D02*
D03*
X00570992Y00324256D02*
D03*
Y00343256D02*
D03*
X00545846Y00343002D02*
D03*
Y00324002D02*
D03*
X0054737Y00432054D02*
D03*
Y00413054D02*
D03*
X00389636Y00488238D02*
D03*
Y00507238D02*
D03*
X0036322Y00488238D02*
D03*
Y00507238D02*
D03*
X00409194Y00774852D02*
D03*
Y00793852D02*
D03*
D43*
X00560426Y00751332D02*
D03*
X00541426D02*
D03*
X00425298Y00754888D02*
D03*
X00406298D02*
D03*
X00347878Y00601218D02*
D03*
X00366878D02*
D03*
X00547522Y0036576D02*
D03*
X00566522D02*
D03*
X00541426Y0045212D02*
D03*
X00560426D02*
D03*
X00595224Y00452374D02*
D03*
X00576224D02*
D03*
X00501498Y00454152D02*
D03*
X00482498D02*
D03*
X00298094Y0048514D02*
D03*
X00317094D02*
D03*
D44*
X00560578Y0062738D02*
D03*
X00535178D02*
D03*
Y0071882D02*
D03*
X00560578D02*
D03*
X00367538Y0072898D02*
D03*
X00392938D02*
D03*
Y0063754D02*
D03*
X00367538D02*
D03*
D45*
X00554722Y00279654D02*
D03*
X00597422D02*
D03*
D46*
X00379476Y00442504D02*
D03*
Y00383504D02*
D03*
D47*
X00294132Y00509524D02*
D03*
X00316992D02*
D03*
D48*
X00344Y00335788D02*
D03*
X00418D02*
D03*
D49*
X00634492Y002794D02*
D03*
D50*
X00655828Y00848614D02*
D03*
X0060071Y00848868D02*
D03*
X00267716D02*
D03*
X00315214D02*
D03*
X00312928Y0053594D02*
D03*
D51*
X0051689Y0027559D02*
D03*
D52*
X0046609D02*
D03*
D53*
X005504Y008475D02*
D03*
X00525D02*
D03*
X004996D02*
D03*
X004742D02*
D03*
X004488D02*
D03*
X004234D02*
D03*
X00398D02*
D03*
X003726D02*
D03*
D54*
X00338328Y0053594D02*
D03*
D55*
X00363728D02*
D03*
X00389128D02*
D03*
D56*
X0061468Y00621606D02*
D03*
X0066168D02*
D03*
X0061468Y00738446D02*
D03*
Y00807026D02*
D03*
X0026923Y0080772D02*
D03*
Y0073914D02*
D03*
X0031623Y006223D02*
D03*
X0026923D02*
D03*
M02*
