G04*
G04 #@! TF.GenerationSoftware,Altium Limited,Altium Designer,20.1.11 (218)*
G04*
G04 Layer_Color=2752767*
%FSTAX24Y24*%
%MOIN*%
G70*
G04*
G04 #@! TF.SameCoordinates,265BAA9A-0927-4A7B-A448-E96A6529A9FE*
G04*
G04*
G04 #@! TF.FilePolarity,Positive*
G04*
G01*
G75*
%ADD117C,0.0020*%
%ADD118C,0.0027*%
%ADD119C,0.0013*%
D117*
X113824Y10713D02*
Y10729D01*
X113984D01*
Y10713D01*
X113824D01*
X115824D02*
Y10729D01*
X115984D01*
Y10713D01*
X115824D01*
Y10913D02*
Y10929D01*
X115984D01*
Y10913D01*
X115824D01*
X113824D02*
Y10929D01*
X113984D01*
Y10913D01*
X113824D01*
X0951Y09842D02*
X09502Y09858D01*
X09518D01*
X0951Y09842D01*
Y09742D02*
X09502Y09758D01*
X09518D01*
X0951Y09742D01*
Y09642D02*
X09502Y09658D01*
X09518D01*
X0951Y09642D01*
Y09542D02*
X09502Y09558D01*
X09518D01*
X0951Y09542D01*
X0951Y09442D02*
X09502Y09458D01*
X09518D01*
X0951Y09442D01*
X0941Y09442D02*
X09402Y09458D01*
X09418D01*
X0941Y09442D01*
X0951Y09342D02*
X09502Y09358D01*
X09518D01*
X0951Y09342D01*
X0941D02*
X09402Y09358D01*
X09418D01*
X0941Y09342D01*
X0951Y09242D02*
X09502Y09258D01*
X09518D01*
X0951Y09242D01*
X0941D02*
X09402Y09258D01*
X09418D01*
X0941Y09242D01*
X0951Y09142D02*
X09502Y09158D01*
X09518D01*
X0951Y09142D01*
X0941D02*
X09402Y09158D01*
X09418D01*
X0941Y09142D01*
X0951Y09042D02*
X09502Y09058D01*
X09518D01*
X0951Y09042D01*
X0941D02*
X09402Y09058D01*
X09418D01*
X0941Y09042D01*
X0951Y08942D02*
X09502Y08958D01*
X09518D01*
X0951Y08942D01*
X0941D02*
X09402Y08958D01*
X09418D01*
X0941Y08942D01*
Y09842D02*
X09402Y09858D01*
X09418D01*
X0941Y09842D01*
Y09742D02*
X09402Y09758D01*
X09418D01*
X0941Y09742D01*
Y09642D02*
X09402Y09658D01*
X09418D01*
X0941Y09642D01*
Y09542D02*
X09402Y09558D01*
X09418D01*
X0941Y09542D01*
X0966Y10337D02*
X09664Y10341D01*
X09668D01*
X09664Y10345D01*
X09668Y10349D01*
X09664D01*
X0966Y10353D01*
X09656Y10349D01*
X09652D01*
X09656Y10345D01*
X09652Y10341D01*
X09656D01*
X0966Y10337D01*
X0946D02*
X09464Y10341D01*
X09468D01*
X09464Y10345D01*
X09468Y10349D01*
X09464D01*
X0946Y10353D01*
X09456Y10349D01*
X09452D01*
X09456Y10345D01*
X09452Y10341D01*
X09456D01*
X0946Y10337D01*
X100128Y109696D02*
X100168Y109776D01*
X100128Y109856D01*
X100208Y109816D01*
X100288Y109856D01*
X100248Y109776D01*
X100288Y109696D01*
X100208Y109736D01*
X100128Y109696D01*
X100358Y110126D02*
X100398Y110206D01*
X100358Y110286D01*
X100438Y110246D01*
X100518Y110286D01*
X100478Y110206D01*
X100518Y110126D01*
X100438Y110166D01*
X100358Y110126D01*
X099898D02*
X099938Y110206D01*
X099898Y110286D01*
X099978Y110246D01*
X100058Y110286D01*
X100018Y110206D01*
X100058Y110126D01*
X099978Y110166D01*
X099898Y110126D01*
Y109266D02*
X099938Y109346D01*
X099898Y109426D01*
X099978Y109386D01*
X100058Y109426D01*
X100018Y109346D01*
X100058Y109266D01*
X099978Y109306D01*
X099898Y109266D01*
X100358D02*
X100398Y109346D01*
X100358Y109426D01*
X100438Y109386D01*
X100518Y109426D01*
X100478Y109346D01*
X100518Y109266D01*
X100438Y109306D01*
X100358Y109266D01*
X114066Y094718D02*
X114106Y094758D01*
X114146D01*
X114106Y094798D01*
X114146Y094838D01*
X114106D01*
X114066Y094878D01*
X114026Y094838D01*
X113986D01*
X114026Y094798D01*
X113986Y094758D01*
X114026D01*
X114066Y094718D01*
Y093618D02*
X114106Y093658D01*
X114146D01*
X114106Y093698D01*
X114146Y093738D01*
X114106D01*
X114066Y093778D01*
X114026Y093738D01*
X113986D01*
X114026Y093698D01*
X113986Y093658D01*
X114026D01*
X114066Y093618D01*
Y098655D02*
X114106Y098695D01*
X114146D01*
X114106Y098735D01*
X114146Y098775D01*
X114106D01*
X114066Y098815D01*
X114026Y098775D01*
X113986D01*
X114026Y098735D01*
X113986Y098695D01*
X114026D01*
X114066Y098655D01*
Y097555D02*
X114106Y097595D01*
X114146D01*
X114106Y097635D01*
X114146Y097675D01*
X114106D01*
X114066Y097715D01*
X114026Y097675D01*
X113986D01*
X114026Y097635D01*
X113986Y097595D01*
X114026D01*
X114066Y097555D01*
Y102592D02*
X114106Y102632D01*
X114146D01*
X114106Y102672D01*
X114146Y102712D01*
X114106D01*
X114066Y102752D01*
X114026Y102712D01*
X113986D01*
X114026Y102672D01*
X113986Y102632D01*
X114026D01*
X114066Y102592D01*
Y101492D02*
X114106Y101532D01*
X114146D01*
X114106Y101572D01*
X114146Y101612D01*
X114106D01*
X114066Y101652D01*
X114026Y101612D01*
X113986D01*
X114026Y101572D01*
X113986Y101532D01*
X114026D01*
X114066Y101492D01*
Y089681D02*
X114106Y089721D01*
X114146D01*
X114106Y089761D01*
X114146Y089801D01*
X114106D01*
X114066Y089841D01*
X114026Y089801D01*
X113986D01*
X114026Y089761D01*
X113986Y089721D01*
X114026D01*
X114066Y089681D01*
Y090781D02*
X114106Y090821D01*
X114146D01*
X114106Y090861D01*
X114146Y090901D01*
X114106D01*
X114066Y090941D01*
X114026Y090901D01*
X113986D01*
X114026Y090861D01*
X113986Y090821D01*
X114026D01*
X114066Y090781D01*
X113824Y083276D02*
Y083436D01*
X113984D01*
Y083276D01*
X113824D01*
X115824D02*
Y083436D01*
X115984D01*
Y083276D01*
X115824D01*
Y085276D02*
Y085436D01*
X115984D01*
Y085276D01*
X115824D01*
X113824D02*
Y085436D01*
X113984D01*
Y085276D01*
X113824D01*
X095178Y080379D02*
Y080338D01*
X095259D01*
Y080379D01*
X095299D01*
Y080458D01*
X095259D01*
Y080499D01*
X095178D01*
Y080458D01*
X095139D01*
Y080379D01*
X095178D01*
X108958D02*
Y080338D01*
X109038D01*
Y080379D01*
X109078D01*
Y080458D01*
X109038D01*
Y080499D01*
X108958D01*
Y080458D01*
X108918D01*
Y080379D01*
X108958D01*
Y111875D02*
Y111835D01*
X109038D01*
Y111875D01*
X109078D01*
Y111955D01*
X109038D01*
Y111995D01*
X108958D01*
Y111955D01*
X108918D01*
Y111875D01*
X108958D01*
X095178D02*
Y111835D01*
X095259D01*
Y111875D01*
X095299D01*
Y111955D01*
X095259D01*
Y111995D01*
X095178D01*
Y111955D01*
X095139D01*
Y111875D01*
X095178D01*
X11512Y11272D02*
X11516D01*
X1152Y11276D01*
X11524Y11272D01*
X11528D01*
Y11276D01*
X11524Y1128D01*
X11528Y11284D01*
Y11288D01*
X11524D01*
X1152Y11284D01*
X11516Y11288D01*
X11512D01*
Y11284D01*
X11516Y1128D01*
X11512Y11276D01*
Y11272D01*
X11572Y11152D02*
X11576D01*
X1158Y11156D01*
X11584Y11152D01*
X11588D01*
Y11156D01*
X11584Y1116D01*
X11588Y11164D01*
Y11168D01*
X11584D01*
X1158Y11164D01*
X11576Y11168D01*
X11572D01*
Y11164D01*
X11576Y1116D01*
X11572Y11156D01*
Y11152D01*
X11512Y11032D02*
X11516D01*
X1152Y11036D01*
X11524Y11032D01*
X11528D01*
Y11036D01*
X11524Y1104D01*
X11528Y11044D01*
Y11048D01*
X11524D01*
X1152Y11044D01*
X11516Y11048D01*
X11512D01*
Y11044D01*
X11516Y1104D01*
X11512Y11036D01*
Y11032D01*
X11572Y08752D02*
X11576D01*
X1158Y08756D01*
X11584Y08752D01*
X11588D01*
Y08756D01*
X11584Y0876D01*
X11588Y08764D01*
Y08768D01*
X11584D01*
X1158Y08764D01*
X11576Y08768D01*
X11572D01*
Y08764D01*
X11576Y0876D01*
X11572Y08756D01*
Y08752D01*
X11512Y08632D02*
X11516D01*
X1152Y08636D01*
X11524Y08632D01*
X11528D01*
Y08636D01*
X11524Y0864D01*
X11528Y08644D01*
Y08648D01*
X11524D01*
X1152Y08644D01*
X11516Y08648D01*
X11512D01*
Y08644D01*
X11516Y0864D01*
X11512Y08636D01*
Y08632D01*
X11572Y08032D02*
X11576D01*
X1158Y08036D01*
X11584Y08032D01*
X11588D01*
Y08036D01*
X11584Y0804D01*
X11588Y08044D01*
Y08048D01*
X11584D01*
X1158Y08044D01*
X11576Y08048D01*
X11572D01*
Y08044D01*
X11576Y0804D01*
X11572Y08036D01*
Y08032D01*
X11392Y11272D02*
X11396D01*
X114Y11276D01*
X11404Y11272D01*
X11408D01*
Y11276D01*
X11404Y1128D01*
X11408Y11284D01*
Y11288D01*
X11404D01*
X114Y11284D01*
X11396Y11288D01*
X11392D01*
Y11284D01*
X11396Y1128D01*
X11392Y11276D01*
Y11272D01*
X11452Y11152D02*
X11456D01*
X1146Y11156D01*
X11464Y11152D01*
X11468D01*
Y11156D01*
X11464Y1116D01*
X11468Y11164D01*
Y11168D01*
X11464D01*
X1146Y11164D01*
X11456Y11168D01*
X11452D01*
Y11164D01*
X11456Y1116D01*
X11452Y11156D01*
Y11152D01*
X11392Y11032D02*
X11396D01*
X114Y11036D01*
X11404Y11032D01*
X11408D01*
Y11036D01*
X11404Y1104D01*
X11408Y11044D01*
Y11048D01*
X11404D01*
X114Y11044D01*
X11396Y11048D01*
X11392D01*
Y11044D01*
X11396Y1104D01*
X11392Y11036D01*
Y11032D01*
X11452Y09952D02*
X11456D01*
X1146Y09956D01*
X11464Y09952D01*
X11468D01*
Y09956D01*
X11464Y0996D01*
X11468Y09964D01*
Y09968D01*
X11464D01*
X1146Y09964D01*
X11456Y09968D01*
X11452D01*
Y09964D01*
X11456Y0996D01*
X11452Y09956D01*
Y09952D01*
X11392Y09592D02*
X11396D01*
X114Y09596D01*
X11404Y09592D01*
X11408D01*
Y09596D01*
X11404Y096D01*
X11408Y09604D01*
Y09608D01*
X11404D01*
X114Y09604D01*
X11396Y09608D01*
X11392D01*
Y09604D01*
X11396Y096D01*
X11392Y09596D01*
Y09592D01*
X11452Y09232D02*
X11456D01*
X1146Y09236D01*
X11464Y09232D01*
X11468D01*
Y09236D01*
X11464Y0924D01*
X11468Y09244D01*
Y09248D01*
X11464D01*
X1146Y09244D01*
X11456Y09248D01*
X11452D01*
Y09244D01*
X11456Y0924D01*
X11452Y09236D01*
Y09232D01*
X11392Y08872D02*
X11396D01*
X114Y08876D01*
X11404Y08872D01*
X11408D01*
Y08876D01*
X11404Y0888D01*
X11408Y08884D01*
Y08888D01*
X11404D01*
X114Y08884D01*
X11396Y08888D01*
X11392D01*
Y08884D01*
X11396Y0888D01*
X11392Y08876D01*
Y08872D01*
X11452Y08752D02*
X11456D01*
X1146Y08756D01*
X11464Y08752D01*
X11468D01*
Y08756D01*
X11464Y0876D01*
X11468Y08764D01*
Y08768D01*
X11464D01*
X1146Y08764D01*
X11456Y08768D01*
X11452D01*
Y08764D01*
X11456Y0876D01*
X11452Y08756D01*
Y08752D01*
X11392Y08632D02*
X11396D01*
X114Y08636D01*
X11404Y08632D01*
X11408D01*
Y08636D01*
X11404Y0864D01*
X11408Y08644D01*
Y08648D01*
X11404D01*
X114Y08644D01*
X11396Y08648D01*
X11392D01*
Y08644D01*
X11396Y0864D01*
X11392Y08636D01*
Y08632D01*
X11452Y08032D02*
X11456D01*
X1146Y08036D01*
X11464Y08032D01*
X11468D01*
Y08036D01*
X11464Y0804D01*
X11468Y08044D01*
Y08048D01*
X11464D01*
X1146Y08044D01*
X11456Y08048D01*
X11452D01*
Y08044D01*
X11456Y0804D01*
X11452Y08036D01*
Y08032D01*
X11392Y07912D02*
X11396D01*
X114Y07916D01*
X11404Y07912D01*
X11408D01*
Y07916D01*
X11404Y0792D01*
X11408Y07924D01*
Y07928D01*
X11404D01*
X114Y07924D01*
X11396Y07928D01*
X11392D01*
Y07924D01*
X11396Y0792D01*
X11392Y07916D01*
Y07912D01*
X11272Y11272D02*
X11276D01*
X1128Y11276D01*
X11284Y11272D01*
X11288D01*
Y11276D01*
X11284Y1128D01*
X11288Y11284D01*
Y11288D01*
X11284D01*
X1128Y11284D01*
X11276Y11288D01*
X11272D01*
Y11284D01*
X11276Y1128D01*
X11272Y11276D01*
Y11272D01*
X11332Y11152D02*
X11336D01*
X1134Y11156D01*
X11344Y11152D01*
X11348D01*
Y11156D01*
X11344Y1116D01*
X11348Y11164D01*
Y11168D01*
X11344D01*
X1134Y11164D01*
X11336Y11168D01*
X11332D01*
Y11164D01*
X11336Y1116D01*
X11332Y11156D01*
Y11152D01*
X11272Y11032D02*
X11276D01*
X1128Y11036D01*
X11284Y11032D01*
X11288D01*
Y11036D01*
X11284Y1104D01*
X11288Y11044D01*
Y11048D01*
X11284D01*
X1128Y11044D01*
X11276Y11048D01*
X11272D01*
Y11044D01*
X11276Y1104D01*
X11272Y11036D01*
Y11032D01*
Y08872D02*
X11276D01*
X1128Y08876D01*
X11284Y08872D01*
X11288D01*
Y08876D01*
X11284Y0888D01*
X11288Y08884D01*
Y08888D01*
X11284D01*
X1128Y08884D01*
X11276Y08888D01*
X11272D01*
Y08884D01*
X11276Y0888D01*
X11272Y08876D01*
Y08872D01*
X11332Y08752D02*
X11336D01*
X1134Y08756D01*
X11344Y08752D01*
X11348D01*
Y08756D01*
X11344Y0876D01*
X11348Y08764D01*
Y08768D01*
X11344D01*
X1134Y08764D01*
X11336Y08768D01*
X11332D01*
Y08764D01*
X11336Y0876D01*
X11332Y08756D01*
Y08752D01*
X11272Y07912D02*
X11276D01*
X1128Y07916D01*
X11284Y07912D01*
X11288D01*
Y07916D01*
X11284Y0792D01*
X11288Y07924D01*
Y07928D01*
X11284D01*
X1128Y07924D01*
X11276Y07928D01*
X11272D01*
Y07924D01*
X11276Y0792D01*
X11272Y07916D01*
Y07912D01*
X11152Y11272D02*
X11156D01*
X1116Y11276D01*
X11164Y11272D01*
X11168D01*
Y11276D01*
X11164Y1128D01*
X11168Y11284D01*
Y11288D01*
X11164D01*
X1116Y11284D01*
X11156Y11288D01*
X11152D01*
Y11284D01*
X11156Y1128D01*
X11152Y11276D01*
Y11272D01*
X11212Y11152D02*
X11216D01*
X1122Y11156D01*
X11224Y11152D01*
X11228D01*
Y11156D01*
X11224Y1116D01*
X11228Y11164D01*
Y11168D01*
X11224D01*
X1122Y11164D01*
X11216Y11168D01*
X11212D01*
Y11164D01*
X11216Y1116D01*
X11212Y11156D01*
Y11152D01*
X11152Y11032D02*
X11156D01*
X1116Y11036D01*
X11164Y11032D01*
X11168D01*
Y11036D01*
X11164Y1104D01*
X11168Y11044D01*
Y11048D01*
X11164D01*
X1116Y11044D01*
X11156Y11048D01*
X11152D01*
Y11044D01*
X11156Y1104D01*
X11152Y11036D01*
Y11032D01*
X11212Y10672D02*
X11216D01*
X1122Y10676D01*
X11224Y10672D01*
X11228D01*
Y10676D01*
X11224Y1068D01*
X11228Y10684D01*
Y10688D01*
X11224D01*
X1122Y10684D01*
X11216Y10688D01*
X11212D01*
Y10684D01*
X11216Y1068D01*
X11212Y10676D01*
Y10672D01*
X11152Y08392D02*
X11156D01*
X1116Y08396D01*
X11164Y08392D01*
X11168D01*
Y08396D01*
X11164Y084D01*
X11168Y08404D01*
Y08408D01*
X11164D01*
X1116Y08404D01*
X11156Y08408D01*
X11152D01*
Y08404D01*
X11156Y084D01*
X11152Y08396D01*
Y08392D01*
X11032Y11272D02*
X11036D01*
X1104Y11276D01*
X11044Y11272D01*
X11048D01*
Y11276D01*
X11044Y1128D01*
X11048Y11284D01*
Y11288D01*
X11044D01*
X1104Y11284D01*
X11036Y11288D01*
X11032D01*
Y11284D01*
X11036Y1128D01*
X11032Y11276D01*
Y11272D01*
X11092Y11152D02*
X11096D01*
X111Y11156D01*
X11104Y11152D01*
X11108D01*
Y11156D01*
X11104Y1116D01*
X11108Y11164D01*
Y11168D01*
X11104D01*
X111Y11164D01*
X11096Y11168D01*
X11092D01*
Y11164D01*
X11096Y1116D01*
X11092Y11156D01*
Y11152D01*
X11032Y11032D02*
X11036D01*
X1104Y11036D01*
X11044Y11032D01*
X11048D01*
Y11036D01*
X11044Y1104D01*
X11048Y11044D01*
Y11048D01*
X11044D01*
X1104Y11044D01*
X11036Y11048D01*
X11032D01*
Y11044D01*
X11036Y1104D01*
X11032Y11036D01*
Y11032D01*
X11092Y10672D02*
X11096D01*
X111Y10676D01*
X11104Y10672D01*
X11108D01*
Y10676D01*
X11104Y1068D01*
X11108Y10684D01*
Y10688D01*
X11104D01*
X111Y10684D01*
X11096Y10688D01*
X11092D01*
Y10684D01*
X11096Y1068D01*
X11092Y10676D01*
Y10672D01*
X11032Y10072D02*
X11036D01*
X1104Y10076D01*
X11044Y10072D01*
X11048D01*
Y10076D01*
X11044Y1008D01*
X11048Y10084D01*
Y10088D01*
X11044D01*
X1104Y10084D01*
X11036Y10088D01*
X11032D01*
Y10084D01*
X11036Y1008D01*
X11032Y10076D01*
Y10072D01*
X11092Y09232D02*
X11096D01*
X111Y09236D01*
X11104Y09232D01*
X11108D01*
Y09236D01*
X11104Y0924D01*
X11108Y09244D01*
Y09248D01*
X11104D01*
X111Y09244D01*
X11096Y09248D01*
X11092D01*
Y09244D01*
X11096Y0924D01*
X11092Y09236D01*
Y09232D01*
X11032Y09112D02*
X11036D01*
X1104Y09116D01*
X11044Y09112D01*
X11048D01*
Y09116D01*
X11044Y0912D01*
X11048Y09124D01*
Y09128D01*
X11044D01*
X1104Y09124D01*
X11036Y09128D01*
X11032D01*
Y09124D01*
X11036Y0912D01*
X11032Y09116D01*
Y09112D01*
X11092Y08992D02*
X11096D01*
X111Y08996D01*
X11104Y08992D01*
X11108D01*
Y08996D01*
X11104Y09D01*
X11108Y09004D01*
Y09008D01*
X11104D01*
X111Y09004D01*
X11096Y09008D01*
X11092D01*
Y09004D01*
X11096Y09D01*
X11092Y08996D01*
Y08992D01*
X11032Y08872D02*
X11036D01*
X1104Y08876D01*
X11044Y08872D01*
X11048D01*
Y08876D01*
X11044Y0888D01*
X11048Y08884D01*
Y08888D01*
X11044D01*
X1104Y08884D01*
X11036Y08888D01*
X11032D01*
Y08884D01*
X11036Y0888D01*
X11032Y08876D01*
Y08872D01*
X11092Y08752D02*
X11096D01*
X111Y08756D01*
X11104Y08752D01*
X11108D01*
Y08756D01*
X11104Y0876D01*
X11108Y08764D01*
Y08768D01*
X11104D01*
X111Y08764D01*
X11096Y08768D01*
X11092D01*
Y08764D01*
X11096Y0876D01*
X11092Y08756D01*
Y08752D01*
X11032Y08632D02*
X11036D01*
X1104Y08636D01*
X11044Y08632D01*
X11048D01*
Y08636D01*
X11044Y0864D01*
X11048Y08644D01*
Y08648D01*
X11044D01*
X1104Y08644D01*
X11036Y08648D01*
X11032D01*
Y08644D01*
X11036Y0864D01*
X11032Y08636D01*
Y08632D01*
Y08392D02*
X11036D01*
X1104Y08396D01*
X11044Y08392D01*
X11048D01*
Y08396D01*
X11044Y084D01*
X11048Y08404D01*
Y08408D01*
X11044D01*
X1104Y08404D01*
X11036Y08408D01*
X11032D01*
Y08404D01*
X11036Y084D01*
X11032Y08396D01*
Y08392D01*
Y08152D02*
X11036D01*
X1104Y08156D01*
X11044Y08152D01*
X11048D01*
Y08156D01*
X11044Y0816D01*
X11048Y08164D01*
Y08168D01*
X11044D01*
X1104Y08164D01*
X11036Y08168D01*
X11032D01*
Y08164D01*
X11036Y0816D01*
X11032Y08156D01*
Y08152D01*
X11092Y08032D02*
X11096D01*
X111Y08036D01*
X11104Y08032D01*
X11108D01*
Y08036D01*
X11104Y0804D01*
X11108Y08044D01*
Y08048D01*
X11104D01*
X111Y08044D01*
X11096Y08048D01*
X11092D01*
Y08044D01*
X11096Y0804D01*
X11092Y08036D01*
Y08032D01*
X11032Y07912D02*
X11036D01*
X1104Y07916D01*
X11044Y07912D01*
X11048D01*
Y07916D01*
X11044Y0792D01*
X11048Y07924D01*
Y07928D01*
X11044D01*
X1104Y07924D01*
X11036Y07928D01*
X11032D01*
Y07924D01*
X11036Y0792D01*
X11032Y07916D01*
Y07912D01*
X10912Y11032D02*
X10916D01*
X1092Y11036D01*
X10924Y11032D01*
X10928D01*
Y11036D01*
X10924Y1104D01*
X10928Y11044D01*
Y11048D01*
X10924D01*
X1092Y11044D01*
X10916Y11048D01*
X10912D01*
Y11044D01*
X10916Y1104D01*
X10912Y11036D01*
Y11032D01*
X10972Y10912D02*
X10976D01*
X1098Y10916D01*
X10984Y10912D01*
X10988D01*
Y10916D01*
X10984Y1092D01*
X10988Y10924D01*
Y10928D01*
X10984D01*
X1098Y10924D01*
X10976Y10928D01*
X10972D01*
Y10924D01*
X10976Y1092D01*
X10972Y10916D01*
Y10912D01*
X10912Y10552D02*
X10916D01*
X1092Y10556D01*
X10924Y10552D01*
X10928D01*
Y10556D01*
X10924Y1056D01*
X10928Y10564D01*
Y10568D01*
X10924D01*
X1092Y10564D01*
X10916Y10568D01*
X10912D01*
Y10564D01*
X10916Y1056D01*
X10912Y10556D01*
Y10552D01*
Y09112D02*
X10916D01*
X1092Y09116D01*
X10924Y09112D01*
X10928D01*
Y09116D01*
X10924Y0912D01*
X10928Y09124D01*
Y09128D01*
X10924D01*
X1092Y09124D01*
X10916Y09128D01*
X10912D01*
Y09124D01*
X10916Y0912D01*
X10912Y09116D01*
Y09112D01*
X10972Y08992D02*
X10976D01*
X1098Y08996D01*
X10984Y08992D01*
X10988D01*
Y08996D01*
X10984Y09D01*
X10988Y09004D01*
Y09008D01*
X10984D01*
X1098Y09004D01*
X10976Y09008D01*
X10972D01*
Y09004D01*
X10976Y09D01*
X10972Y08996D01*
Y08992D01*
X10912Y08872D02*
X10916D01*
X1092Y08876D01*
X10924Y08872D01*
X10928D01*
Y08876D01*
X10924Y0888D01*
X10928Y08884D01*
Y08888D01*
X10924D01*
X1092Y08884D01*
X10916Y08888D01*
X10912D01*
Y08884D01*
X10916Y0888D01*
X10912Y08876D01*
Y08872D01*
X10972Y08752D02*
X10976D01*
X1098Y08756D01*
X10984Y08752D01*
X10988D01*
Y08756D01*
X10984Y0876D01*
X10988Y08764D01*
Y08768D01*
X10984D01*
X1098Y08764D01*
X10976Y08768D01*
X10972D01*
Y08764D01*
X10976Y0876D01*
X10972Y08756D01*
Y08752D01*
X10912Y08632D02*
X10916D01*
X1092Y08636D01*
X10924Y08632D01*
X10928D01*
Y08636D01*
X10924Y0864D01*
X10928Y08644D01*
Y08648D01*
X10924D01*
X1092Y08644D01*
X10916Y08648D01*
X10912D01*
Y08644D01*
X10916Y0864D01*
X10912Y08636D01*
Y08632D01*
X10972Y08512D02*
X10976D01*
X1098Y08516D01*
X10984Y08512D01*
X10988D01*
Y08516D01*
X10984Y0852D01*
X10988Y08524D01*
Y08528D01*
X10984D01*
X1098Y08524D01*
X10976Y08528D01*
X10972D01*
Y08524D01*
X10976Y0852D01*
X10972Y08516D01*
Y08512D01*
X10912Y08392D02*
X10916D01*
X1092Y08396D01*
X10924Y08392D01*
X10928D01*
Y08396D01*
X10924Y084D01*
X10928Y08404D01*
Y08408D01*
X10924D01*
X1092Y08404D01*
X10916Y08408D01*
X10912D01*
Y08404D01*
X10916Y084D01*
X10912Y08396D01*
Y08392D01*
X10792Y11272D02*
X10796D01*
X108Y11276D01*
X10804Y11272D01*
X10808D01*
Y11276D01*
X10804Y1128D01*
X10808Y11284D01*
Y11288D01*
X10804D01*
X108Y11284D01*
X10796Y11288D01*
X10792D01*
Y11284D01*
X10796Y1128D01*
X10792Y11276D01*
Y11272D01*
Y11032D02*
X10796D01*
X108Y11036D01*
X10804Y11032D01*
X10808D01*
Y11036D01*
X10804Y1104D01*
X10808Y11044D01*
Y11048D01*
X10804D01*
X108Y11044D01*
X10796Y11048D01*
X10792D01*
Y11044D01*
X10796Y1104D01*
X10792Y11036D01*
Y11032D01*
X10852Y10912D02*
X10856D01*
X1086Y10916D01*
X10864Y10912D01*
X10868D01*
Y10916D01*
X10864Y1092D01*
X10868Y10924D01*
Y10928D01*
X10864D01*
X1086Y10924D01*
X10856Y10928D01*
X10852D01*
Y10924D01*
X10856Y1092D01*
X10852Y10916D01*
Y10912D01*
Y10672D02*
X10856D01*
X1086Y10676D01*
X10864Y10672D01*
X10868D01*
Y10676D01*
X10864Y1068D01*
X10868Y10684D01*
Y10688D01*
X10864D01*
X1086Y10684D01*
X10856Y10688D01*
X10852D01*
Y10684D01*
X10856Y1068D01*
X10852Y10676D01*
Y10672D01*
Y09712D02*
X10856D01*
X1086Y09716D01*
X10864Y09712D01*
X10868D01*
Y09716D01*
X10864Y0972D01*
X10868Y09724D01*
Y09728D01*
X10864D01*
X1086Y09724D01*
X10856Y09728D01*
X10852D01*
Y09724D01*
X10856Y0972D01*
X10852Y09716D01*
Y09712D01*
X10792Y09112D02*
X10796D01*
X108Y09116D01*
X10804Y09112D01*
X10808D01*
Y09116D01*
X10804Y0912D01*
X10808Y09124D01*
Y09128D01*
X10804D01*
X108Y09124D01*
X10796Y09128D01*
X10792D01*
Y09124D01*
X10796Y0912D01*
X10792Y09116D01*
Y09112D01*
X10852Y08992D02*
X10856D01*
X1086Y08996D01*
X10864Y08992D01*
X10868D01*
Y08996D01*
X10864Y09D01*
X10868Y09004D01*
Y09008D01*
X10864D01*
X1086Y09004D01*
X10856Y09008D01*
X10852D01*
Y09004D01*
X10856Y09D01*
X10852Y08996D01*
Y08992D01*
X10792Y08872D02*
X10796D01*
X108Y08876D01*
X10804Y08872D01*
X10808D01*
Y08876D01*
X10804Y0888D01*
X10808Y08884D01*
Y08888D01*
X10804D01*
X108Y08884D01*
X10796Y08888D01*
X10792D01*
Y08884D01*
X10796Y0888D01*
X10792Y08876D01*
Y08872D01*
X10852Y08752D02*
X10856D01*
X1086Y08756D01*
X10864Y08752D01*
X10868D01*
Y08756D01*
X10864Y0876D01*
X10868Y08764D01*
Y08768D01*
X10864D01*
X1086Y08764D01*
X10856Y08768D01*
X10852D01*
Y08764D01*
X10856Y0876D01*
X10852Y08756D01*
Y08752D01*
Y08512D02*
X10856D01*
X1086Y08516D01*
X10864Y08512D01*
X10868D01*
Y08516D01*
X10864Y0852D01*
X10868Y08524D01*
Y08528D01*
X10864D01*
X1086Y08524D01*
X10856Y08528D01*
X10852D01*
Y08524D01*
X10856Y0852D01*
X10852Y08516D01*
Y08512D01*
X10792Y07912D02*
X10796D01*
X108Y07916D01*
X10804Y07912D01*
X10808D01*
Y07916D01*
X10804Y0792D01*
X10808Y07924D01*
Y07928D01*
X10804D01*
X108Y07924D01*
X10796Y07928D01*
X10792D01*
Y07924D01*
X10796Y0792D01*
X10792Y07916D01*
Y07912D01*
X10732Y11152D02*
X10736D01*
X1074Y11156D01*
X10744Y11152D01*
X10748D01*
Y11156D01*
X10744Y1116D01*
X10748Y11164D01*
Y11168D01*
X10744D01*
X1074Y11164D01*
X10736Y11168D01*
X10732D01*
Y11164D01*
X10736Y1116D01*
X10732Y11156D01*
Y11152D01*
Y10912D02*
X10736D01*
X1074Y10916D01*
X10744Y10912D01*
X10748D01*
Y10916D01*
X10744Y1092D01*
X10748Y10924D01*
Y10928D01*
X10744D01*
X1074Y10924D01*
X10736Y10928D01*
X10732D01*
Y10924D01*
X10736Y1092D01*
X10732Y10916D01*
Y10912D01*
Y10672D02*
X10736D01*
X1074Y10676D01*
X10744Y10672D01*
X10748D01*
Y10676D01*
X10744Y1068D01*
X10748Y10684D01*
Y10688D01*
X10744D01*
X1074Y10684D01*
X10736Y10688D01*
X10732D01*
Y10684D01*
X10736Y1068D01*
X10732Y10676D01*
Y10672D01*
X10672Y10072D02*
X10676D01*
X1068Y10076D01*
X10684Y10072D01*
X10688D01*
Y10076D01*
X10684Y1008D01*
X10688Y10084D01*
Y10088D01*
X10684D01*
X1068Y10084D01*
X10676Y10088D01*
X10672D01*
Y10084D01*
X10676Y1008D01*
X10672Y10076D01*
Y10072D01*
X10732Y09712D02*
X10736D01*
X1074Y09716D01*
X10744Y09712D01*
X10748D01*
Y09716D01*
X10744Y0972D01*
X10748Y09724D01*
Y09728D01*
X10744D01*
X1074Y09724D01*
X10736Y09728D01*
X10732D01*
Y09724D01*
X10736Y0972D01*
X10732Y09716D01*
Y09712D01*
X10672Y09112D02*
X10676D01*
X1068Y09116D01*
X10684Y09112D01*
X10688D01*
Y09116D01*
X10684Y0912D01*
X10688Y09124D01*
Y09128D01*
X10684D01*
X1068Y09124D01*
X10676Y09128D01*
X10672D01*
Y09124D01*
X10676Y0912D01*
X10672Y09116D01*
Y09112D01*
X10732Y08032D02*
X10736D01*
X1074Y08036D01*
X10744Y08032D01*
X10748D01*
Y08036D01*
X10744Y0804D01*
X10748Y08044D01*
Y08048D01*
X10744D01*
X1074Y08044D01*
X10736Y08048D01*
X10732D01*
Y08044D01*
X10736Y0804D01*
X10732Y08036D01*
Y08032D01*
X10672Y07912D02*
X10676D01*
X1068Y07916D01*
X10684Y07912D01*
X10688D01*
Y07916D01*
X10684Y0792D01*
X10688Y07924D01*
Y07928D01*
X10684D01*
X1068Y07924D01*
X10676Y07928D01*
X10672D01*
Y07924D01*
X10676Y0792D01*
X10672Y07916D01*
Y07912D01*
X10612Y10432D02*
X10616D01*
X1062Y10436D01*
X10624Y10432D01*
X10628D01*
Y10436D01*
X10624Y1044D01*
X10628Y10444D01*
Y10448D01*
X10624D01*
X1062Y10444D01*
X10616Y10448D01*
X10612D01*
Y10444D01*
X10616Y1044D01*
X10612Y10436D01*
Y10432D01*
Y09712D02*
X10616D01*
X1062Y09716D01*
X10624Y09712D01*
X10628D01*
Y09716D01*
X10624Y0972D01*
X10628Y09724D01*
Y09728D01*
X10624D01*
X1062Y09724D01*
X10616Y09728D01*
X10612D01*
Y09724D01*
X10616Y0972D01*
X10612Y09716D01*
Y09712D01*
X10552Y09112D02*
X10556D01*
X1056Y09116D01*
X10564Y09112D01*
X10568D01*
Y09116D01*
X10564Y0912D01*
X10568Y09124D01*
Y09128D01*
X10564D01*
X1056Y09124D01*
X10556Y09128D01*
X10552D01*
Y09124D01*
X10556Y0912D01*
X10552Y09116D01*
Y09112D01*
Y07912D02*
X10556D01*
X1056Y07916D01*
X10564Y07912D01*
X10568D01*
Y07916D01*
X10564Y0792D01*
X10568Y07924D01*
Y07928D01*
X10564D01*
X1056Y07924D01*
X10556Y07928D01*
X10552D01*
Y07924D01*
X10556Y0792D01*
X10552Y07916D01*
Y07912D01*
X10492Y09712D02*
X10496D01*
X105Y09716D01*
X10504Y09712D01*
X10508D01*
Y09716D01*
X10504Y0972D01*
X10508Y09724D01*
Y09728D01*
X10504D01*
X105Y09724D01*
X10496Y09728D01*
X10492D01*
Y09724D01*
X10496Y0972D01*
X10492Y09716D01*
Y09712D01*
X10432Y09112D02*
X10436D01*
X1044Y09116D01*
X10444Y09112D01*
X10448D01*
Y09116D01*
X10444Y0912D01*
X10448Y09124D01*
Y09128D01*
X10444D01*
X1044Y09124D01*
X10436Y09128D01*
X10432D01*
Y09124D01*
X10436Y0912D01*
X10432Y09116D01*
Y09112D01*
X10492Y08992D02*
X10496D01*
X105Y08996D01*
X10504Y08992D01*
X10508D01*
Y08996D01*
X10504Y09D01*
X10508Y09004D01*
Y09008D01*
X10504D01*
X105Y09004D01*
X10496Y09008D01*
X10492D01*
Y09004D01*
X10496Y09D01*
X10492Y08996D01*
Y08992D01*
Y08752D02*
X10496D01*
X105Y08756D01*
X10504Y08752D01*
X10508D01*
Y08756D01*
X10504Y0876D01*
X10508Y08764D01*
Y08768D01*
X10504D01*
X105Y08764D01*
X10496Y08768D01*
X10492D01*
Y08764D01*
X10496Y0876D01*
X10492Y08756D01*
Y08752D01*
Y08032D02*
X10496D01*
X105Y08036D01*
X10504Y08032D01*
X10508D01*
Y08036D01*
X10504Y0804D01*
X10508Y08044D01*
Y08048D01*
X10504D01*
X105Y08044D01*
X10496Y08048D01*
X10492D01*
Y08044D01*
X10496Y0804D01*
X10492Y08036D01*
Y08032D01*
X10432Y07912D02*
X10436D01*
X1044Y07916D01*
X10444Y07912D01*
X10448D01*
Y07916D01*
X10444Y0792D01*
X10448Y07924D01*
Y07928D01*
X10444D01*
X1044Y07924D01*
X10436Y07928D01*
X10432D01*
Y07924D01*
X10436Y0792D01*
X10432Y07916D01*
Y07912D01*
X10372Y10432D02*
X10376D01*
X1038Y10436D01*
X10384Y10432D01*
X10388D01*
Y10436D01*
X10384Y1044D01*
X10388Y10444D01*
Y10448D01*
X10384D01*
X1038Y10444D01*
X10376Y10448D01*
X10372D01*
Y10444D01*
X10376Y1044D01*
X10372Y10436D01*
Y10432D01*
X10312Y10072D02*
X10316D01*
X1032Y10076D01*
X10324Y10072D01*
X10328D01*
Y10076D01*
X10324Y1008D01*
X10328Y10084D01*
Y10088D01*
X10324D01*
X1032Y10084D01*
X10316Y10088D01*
X10312D01*
Y10084D01*
X10316Y1008D01*
X10312Y10076D01*
Y10072D01*
X10372Y08032D02*
X10376D01*
X1038Y08036D01*
X10384Y08032D01*
X10388D01*
Y08036D01*
X10384Y0804D01*
X10388Y08044D01*
Y08048D01*
X10384D01*
X1038Y08044D01*
X10376Y08048D01*
X10372D01*
Y08044D01*
X10376Y0804D01*
X10372Y08036D01*
Y08032D01*
X10312Y07912D02*
X10316D01*
X1032Y07916D01*
X10324Y07912D01*
X10328D01*
Y07916D01*
X10324Y0792D01*
X10328Y07924D01*
Y07928D01*
X10324D01*
X1032Y07924D01*
X10316Y07928D01*
X10312D01*
Y07924D01*
X10316Y0792D01*
X10312Y07916D01*
Y07912D01*
X10192Y10312D02*
X10196D01*
X102Y10316D01*
X10204Y10312D01*
X10208D01*
Y10316D01*
X10204Y1032D01*
X10208Y10324D01*
Y10328D01*
X10204D01*
X102Y10324D01*
X10196Y10328D01*
X10192D01*
Y10324D01*
X10196Y1032D01*
X10192Y10316D01*
Y10312D01*
Y10072D02*
X10196D01*
X102Y10076D01*
X10204Y10072D01*
X10208D01*
Y10076D01*
X10204Y1008D01*
X10208Y10084D01*
Y10088D01*
X10204D01*
X102Y10084D01*
X10196Y10088D01*
X10192D01*
Y10084D01*
X10196Y1008D01*
X10192Y10076D01*
Y10072D01*
Y08392D02*
X10196D01*
X102Y08396D01*
X10204Y08392D01*
X10208D01*
Y08396D01*
X10204Y084D01*
X10208Y08404D01*
Y08408D01*
X10204D01*
X102Y08404D01*
X10196Y08408D01*
X10192D01*
Y08404D01*
X10196Y084D01*
X10192Y08396D01*
Y08392D01*
Y07912D02*
X10196D01*
X102Y07916D01*
X10204Y07912D01*
X10208D01*
Y07916D01*
X10204Y0792D01*
X10208Y07924D01*
Y07928D01*
X10204D01*
X102Y07924D01*
X10196Y07928D01*
X10192D01*
Y07924D01*
X10196Y0792D01*
X10192Y07916D01*
Y07912D01*
X10072Y10312D02*
X10076D01*
X1008Y10316D01*
X10084Y10312D01*
X10088D01*
Y10316D01*
X10084Y1032D01*
X10088Y10324D01*
Y10328D01*
X10084D01*
X1008Y10324D01*
X10076Y10328D01*
X10072D01*
Y10324D01*
X10076Y1032D01*
X10072Y10316D01*
Y10312D01*
Y10072D02*
X10076D01*
X1008Y10076D01*
X10084Y10072D01*
X10088D01*
Y10076D01*
X10084Y1008D01*
X10088Y10084D01*
Y10088D01*
X10084D01*
X1008Y10084D01*
X10076Y10088D01*
X10072D01*
Y10084D01*
X10076Y1008D01*
X10072Y10076D01*
Y10072D01*
X10132Y08272D02*
X10136D01*
X1014Y08276D01*
X10144Y08272D01*
X10148D01*
Y08276D01*
X10144Y0828D01*
X10148Y08284D01*
Y08288D01*
X10144D01*
X1014Y08284D01*
X10136Y08288D01*
X10132D01*
Y08284D01*
X10136Y0828D01*
X10132Y08276D01*
Y08272D01*
X10072Y07912D02*
X10076D01*
X1008Y07916D01*
X10084Y07912D01*
X10088D01*
Y07916D01*
X10084Y0792D01*
X10088Y07924D01*
Y07928D01*
X10084D01*
X1008Y07924D01*
X10076Y07928D01*
X10072D01*
Y07924D01*
X10076Y0792D01*
X10072Y07916D01*
Y07912D01*
X09952Y09832D02*
X09956D01*
X0996Y09836D01*
X09964Y09832D01*
X09968D01*
Y09836D01*
X09964Y0984D01*
X09968Y09844D01*
Y09848D01*
X09964D01*
X0996Y09844D01*
X09956Y09848D01*
X09952D01*
Y09844D01*
X09956Y0984D01*
X09952Y09836D01*
Y09832D01*
X10012Y09472D02*
X10016D01*
X1002Y09476D01*
X10024Y09472D01*
X10028D01*
Y09476D01*
X10024Y0948D01*
X10028Y09484D01*
Y09488D01*
X10024D01*
X1002Y09484D01*
X10016Y09488D01*
X10012D01*
Y09484D01*
X10016Y0948D01*
X10012Y09476D01*
Y09472D01*
Y08032D02*
X10016D01*
X1002Y08036D01*
X10024Y08032D01*
X10028D01*
Y08036D01*
X10024Y0804D01*
X10028Y08044D01*
Y08048D01*
X10024D01*
X1002Y08044D01*
X10016Y08048D01*
X10012D01*
Y08044D01*
X10016Y0804D01*
X10012Y08036D01*
Y08032D01*
X09952Y07912D02*
X09956D01*
X0996Y07916D01*
X09964Y07912D01*
X09968D01*
Y07916D01*
X09964Y0792D01*
X09968Y07924D01*
Y07928D01*
X09964D01*
X0996Y07924D01*
X09956Y07928D01*
X09952D01*
Y07924D01*
X09956Y0792D01*
X09952Y07916D01*
Y07912D01*
X09832Y10312D02*
X09836D01*
X0984Y10316D01*
X09844Y10312D01*
X09848D01*
Y10316D01*
X09844Y1032D01*
X09848Y10324D01*
Y10328D01*
X09844D01*
X0984Y10324D01*
X09836Y10328D01*
X09832D01*
Y10324D01*
X09836Y1032D01*
X09832Y10316D01*
Y10312D01*
X09892Y10192D02*
X09896D01*
X099Y10196D01*
X09904Y10192D01*
X09908D01*
Y10196D01*
X09904Y102D01*
X09908Y10204D01*
Y10208D01*
X09904D01*
X099Y10204D01*
X09896Y10208D01*
X09892D01*
Y10204D01*
X09896Y102D01*
X09892Y10196D01*
Y10192D01*
Y09712D02*
X09896D01*
X099Y09716D01*
X09904Y09712D01*
X09908D01*
Y09716D01*
X09904Y0972D01*
X09908Y09724D01*
Y09728D01*
X09904D01*
X099Y09724D01*
X09896Y09728D01*
X09892D01*
Y09724D01*
X09896Y0972D01*
X09892Y09716D01*
Y09712D01*
Y08032D02*
X09896D01*
X099Y08036D01*
X09904Y08032D01*
X09908D01*
Y08036D01*
X09904Y0804D01*
X09908Y08044D01*
Y08048D01*
X09904D01*
X099Y08044D01*
X09896Y08048D01*
X09892D01*
Y08044D01*
X09896Y0804D01*
X09892Y08036D01*
Y08032D01*
X09832Y07912D02*
X09836D01*
X0984Y07916D01*
X09844Y07912D01*
X09848D01*
Y07916D01*
X09844Y0792D01*
X09848Y07924D01*
Y07928D01*
X09844D01*
X0984Y07924D01*
X09836Y07928D01*
X09832D01*
Y07924D01*
X09836Y0792D01*
X09832Y07916D01*
Y07912D01*
X09712Y10552D02*
X09716D01*
X0972Y10556D01*
X09724Y10552D01*
X09728D01*
Y10556D01*
X09724Y1056D01*
X09728Y10564D01*
Y10568D01*
X09724D01*
X0972Y10564D01*
X09716Y10568D01*
X09712D01*
Y10564D01*
X09716Y1056D01*
X09712Y10556D01*
Y10552D01*
X09772Y09712D02*
X09776D01*
X0978Y09716D01*
X09784Y09712D01*
X09788D01*
Y09716D01*
X09784Y0972D01*
X09788Y09724D01*
Y09728D01*
X09784D01*
X0978Y09724D01*
X09776Y09728D01*
X09772D01*
Y09724D01*
X09776Y0972D01*
X09772Y09716D01*
Y09712D01*
Y08992D02*
X09776D01*
X0978Y08996D01*
X09784Y08992D01*
X09788D01*
Y08996D01*
X09784Y09D01*
X09788Y09004D01*
Y09008D01*
X09784D01*
X0978Y09004D01*
X09776Y09008D01*
X09772D01*
Y09004D01*
X09776Y09D01*
X09772Y08996D01*
Y08992D01*
X09712Y08152D02*
X09716D01*
X0972Y08156D01*
X09724Y08152D01*
X09728D01*
Y08156D01*
X09724Y0816D01*
X09728Y08164D01*
Y08168D01*
X09724D01*
X0972Y08164D01*
X09716Y08168D01*
X09712D01*
Y08164D01*
X09716Y0816D01*
X09712Y08156D01*
Y08152D01*
X09772Y08032D02*
X09776D01*
X0978Y08036D01*
X09784Y08032D01*
X09788D01*
Y08036D01*
X09784Y0804D01*
X09788Y08044D01*
Y08048D01*
X09784D01*
X0978Y08044D01*
X09776Y08048D01*
X09772D01*
Y08044D01*
X09776Y0804D01*
X09772Y08036D01*
Y08032D01*
X09712Y07912D02*
X09716D01*
X0972Y07916D01*
X09724Y07912D01*
X09728D01*
Y07916D01*
X09724Y0792D01*
X09728Y07924D01*
Y07928D01*
X09724D01*
X0972Y07924D01*
X09716Y07928D01*
X09712D01*
Y07924D01*
X09716Y0792D01*
X09712Y07916D01*
Y07912D01*
X09652Y11152D02*
X09656D01*
X0966Y11156D01*
X09664Y11152D01*
X09668D01*
Y11156D01*
X09664Y1116D01*
X09668Y11164D01*
Y11168D01*
X09664D01*
X0966Y11164D01*
X09656Y11168D01*
X09652D01*
Y11164D01*
X09656Y1116D01*
X09652Y11156D01*
Y11152D01*
X09592Y10792D02*
X09596D01*
X096Y10796D01*
X09604Y10792D01*
X09608D01*
Y10796D01*
X09604Y108D01*
X09608Y10804D01*
Y10808D01*
X09604D01*
X096Y10804D01*
X09596Y10808D01*
X09592D01*
Y10804D01*
X09596Y108D01*
X09592Y10796D01*
Y10792D01*
Y10552D02*
X09596D01*
X096Y10556D01*
X09604Y10552D01*
X09608D01*
Y10556D01*
X09604Y1056D01*
X09608Y10564D01*
Y10568D01*
X09604D01*
X096Y10564D01*
X09596Y10568D01*
X09592D01*
Y10564D01*
X09596Y1056D01*
X09592Y10556D01*
Y10552D01*
X09652Y10432D02*
X09656D01*
X0966Y10436D01*
X09664Y10432D01*
X09668D01*
Y10436D01*
X09664Y1044D01*
X09668Y10444D01*
Y10448D01*
X09664D01*
X0966Y10444D01*
X09656Y10448D01*
X09652D01*
Y10444D01*
X09656Y1044D01*
X09652Y10436D01*
Y10432D01*
Y09712D02*
X09656D01*
X0966Y09716D01*
X09664Y09712D01*
X09668D01*
Y09716D01*
X09664Y0972D01*
X09668Y09724D01*
Y09728D01*
X09664D01*
X0966Y09724D01*
X09656Y09728D01*
X09652D01*
Y09724D01*
X09656Y0972D01*
X09652Y09716D01*
Y09712D01*
X09592Y08872D02*
X09596D01*
X096Y08876D01*
X09604Y08872D01*
X09608D01*
Y08876D01*
X09604Y0888D01*
X09608Y08884D01*
Y08888D01*
X09604D01*
X096Y08884D01*
X09596Y08888D01*
X09592D01*
Y08884D01*
X09596Y0888D01*
X09592Y08876D01*
Y08872D01*
Y08632D02*
X09596D01*
X096Y08636D01*
X09604Y08632D01*
X09608D01*
Y08636D01*
X09604Y0864D01*
X09608Y08644D01*
Y08648D01*
X09604D01*
X096Y08644D01*
X09596Y08648D01*
X09592D01*
Y08644D01*
X09596Y0864D01*
X09592Y08636D01*
Y08632D01*
Y08152D02*
X09596D01*
X096Y08156D01*
X09604Y08152D01*
X09608D01*
Y08156D01*
X09604Y0816D01*
X09608Y08164D01*
Y08168D01*
X09604D01*
X096Y08164D01*
X09596Y08168D01*
X09592D01*
Y08164D01*
X09596Y0816D01*
X09592Y08156D01*
Y08152D01*
X09652Y08032D02*
X09656D01*
X0966Y08036D01*
X09664Y08032D01*
X09668D01*
Y08036D01*
X09664Y0804D01*
X09668Y08044D01*
Y08048D01*
X09664D01*
X0966Y08044D01*
X09656Y08048D01*
X09652D01*
Y08044D01*
X09656Y0804D01*
X09652Y08036D01*
Y08032D01*
X09592Y07912D02*
X09596D01*
X096Y07916D01*
X09604Y07912D01*
X09608D01*
Y07916D01*
X09604Y0792D01*
X09608Y07924D01*
Y07928D01*
X09604D01*
X096Y07924D01*
X09596Y07928D01*
X09592D01*
Y07924D01*
X09596Y0792D01*
X09592Y07916D01*
Y07912D01*
X09472Y09592D02*
X09476D01*
X0948Y09596D01*
X09484Y09592D01*
X09488D01*
Y09596D01*
X09484Y096D01*
X09488Y09604D01*
Y09608D01*
X09484D01*
X0948Y09604D01*
X09476Y09608D01*
X09472D01*
Y09604D01*
X09476Y096D01*
X09472Y09596D01*
Y09592D01*
Y08392D02*
X09476D01*
X0948Y08396D01*
X09484Y08392D01*
X09488D01*
Y08396D01*
X09484Y084D01*
X09488Y08404D01*
Y08408D01*
X09484D01*
X0948Y08404D01*
X09476Y08408D01*
X09472D01*
Y08404D01*
X09476Y084D01*
X09472Y08396D01*
Y08392D01*
X09532Y08272D02*
X09536D01*
X0954Y08276D01*
X09544Y08272D01*
X09548D01*
Y08276D01*
X09544Y0828D01*
X09548Y08284D01*
Y08288D01*
X09544D01*
X0954Y08284D01*
X09536Y08288D01*
X09532D01*
Y08284D01*
X09536Y0828D01*
X09532Y08276D01*
Y08272D01*
X09352Y11272D02*
X09356D01*
X0936Y11276D01*
X09364Y11272D01*
X09368D01*
Y11276D01*
X09364Y1128D01*
X09368Y11284D01*
Y11288D01*
X09364D01*
X0936Y11284D01*
X09356Y11288D01*
X09352D01*
Y11284D01*
X09356Y1128D01*
X09352Y11276D01*
Y11272D01*
Y11032D02*
X09356D01*
X0936Y11036D01*
X09364Y11032D01*
X09368D01*
Y11036D01*
X09364Y1104D01*
X09368Y11044D01*
Y11048D01*
X09364D01*
X0936Y11044D01*
X09356Y11048D01*
X09352D01*
Y11044D01*
X09356Y1104D01*
X09352Y11036D01*
Y11032D01*
Y09592D02*
X09356D01*
X0936Y09596D01*
X09364Y09592D01*
X09368D01*
Y09596D01*
X09364Y096D01*
X09368Y09604D01*
Y09608D01*
X09364D01*
X0936Y09604D01*
X09356Y09608D01*
X09352D01*
Y09604D01*
X09356Y096D01*
X09352Y09596D01*
Y09592D01*
Y08872D02*
X09356D01*
X0936Y08876D01*
X09364Y08872D01*
X09368D01*
Y08876D01*
X09364Y0888D01*
X09368Y08884D01*
Y08888D01*
X09364D01*
X0936Y08884D01*
X09356Y08888D01*
X09352D01*
Y08884D01*
X09356Y0888D01*
X09352Y08876D01*
Y08872D01*
Y08632D02*
X09356D01*
X0936Y08636D01*
X09364Y08632D01*
X09368D01*
Y08636D01*
X09364Y0864D01*
X09368Y08644D01*
Y08648D01*
X09364D01*
X0936Y08644D01*
X09356Y08648D01*
X09352D01*
Y08644D01*
X09356Y0864D01*
X09352Y08636D01*
Y08632D01*
Y08392D02*
X09356D01*
X0936Y08396D01*
X09364Y08392D01*
X09368D01*
Y08396D01*
X09364Y084D01*
X09368Y08404D01*
Y08408D01*
X09364D01*
X0936Y08404D01*
X09356Y08408D01*
X09352D01*
Y08404D01*
X09356Y084D01*
X09352Y08396D01*
Y08392D01*
X09412Y08272D02*
X09416D01*
X0942Y08276D01*
X09424Y08272D01*
X09428D01*
Y08276D01*
X09424Y0828D01*
X09428Y08284D01*
Y08288D01*
X09424D01*
X0942Y08284D01*
X09416Y08288D01*
X09412D01*
Y08284D01*
X09416Y0828D01*
X09412Y08276D01*
Y08272D01*
X09352Y08152D02*
X09356D01*
X0936Y08156D01*
X09364Y08152D01*
X09368D01*
Y08156D01*
X09364Y0816D01*
X09368Y08164D01*
Y08168D01*
X09364D01*
X0936Y08164D01*
X09356Y08168D01*
X09352D01*
Y08164D01*
X09356Y0816D01*
X09352Y08156D01*
Y08152D01*
Y07912D02*
X09356D01*
X0936Y07916D01*
X09364Y07912D01*
X09368D01*
Y07916D01*
X09364Y0792D01*
X09368Y07924D01*
Y07928D01*
X09364D01*
X0936Y07924D01*
X09356Y07928D01*
X09352D01*
Y07924D01*
X09356Y0792D01*
X09352Y07916D01*
Y07912D01*
X111917Y103273D02*
X111997Y103353D01*
X112077Y103273D01*
X111997Y103193D01*
X111917Y103273D01*
X110463Y096157D02*
X110543Y096237D01*
X110623Y096157D01*
X110543Y096077D01*
X110463Y096157D01*
X110453Y097338D02*
X110533Y097418D01*
X110613Y097338D01*
X110533Y097258D01*
X110453Y097338D01*
X09472Y09592D02*
X09476D01*
X0948Y09596D01*
X09484Y09592D01*
X09488D01*
Y09596D01*
X09484Y096D01*
X09488Y09604D01*
Y09608D01*
X09484D01*
X0948Y09604D01*
X09476Y09608D01*
X09472D01*
Y09604D01*
X09476Y096D01*
X09472Y09596D01*
Y09592D01*
X113682Y080208D02*
Y080368D01*
X113842D01*
Y080208D01*
X113682D01*
X113722Y080248D02*
Y080328D01*
X113802D01*
Y080248D01*
X113722D01*
X11195Y080208D02*
Y080368D01*
X11211D01*
Y080208D01*
X11195D01*
X11199Y080248D02*
Y080328D01*
X11207D01*
Y080248D01*
X11199D01*
X097432Y085831D02*
X097472D01*
X097512Y085871D01*
X097552Y085831D01*
X097592D01*
Y085871D01*
X097552Y085911D01*
X097592Y085951D01*
Y085991D01*
X097552D01*
X097512Y085951D01*
X097472Y085991D01*
X097432D01*
Y085951D01*
X097472Y085911D01*
X097432Y085871D01*
Y085831D01*
X09752Y088439D02*
X09756D01*
X0976Y088479D01*
X09764Y088439D01*
X09768D01*
Y088479D01*
X09764Y088519D01*
X09768Y088559D01*
Y088599D01*
X09764D01*
X0976Y088559D01*
X09756Y088599D01*
X09752D01*
Y088559D01*
X09756Y088519D01*
X09752Y088479D01*
Y088439D01*
X097707Y089301D02*
X097747D01*
X097787Y089341D01*
X097827Y089301D01*
X097867D01*
Y089341D01*
X097827Y089381D01*
X097867Y089421D01*
Y089461D01*
X097827D01*
X097787Y089421D01*
X097747Y089461D01*
X097707D01*
Y089421D01*
X097747Y089381D01*
X097707Y089341D01*
Y089301D01*
X095867Y08709D02*
X095907D01*
X095947Y08713D01*
X095987Y08709D01*
X096027D01*
Y08713D01*
X095987Y08717D01*
X096027Y08721D01*
Y08725D01*
X095987D01*
X095947Y08721D01*
X095907Y08725D01*
X095867D01*
Y08721D01*
X095907Y08717D01*
X095867Y08713D01*
Y08709D01*
X095885Y087986D02*
X095925D01*
X095965Y088026D01*
X096005Y087986D01*
X096045D01*
Y088026D01*
X096005Y088066D01*
X096045Y088106D01*
Y088146D01*
X096005D01*
X095965Y088106D01*
X095925Y088146D01*
X095885D01*
Y088106D01*
X095925Y088066D01*
X095885Y088026D01*
Y087986D01*
X112717Y085202D02*
X112797Y085282D01*
X112877Y085202D01*
X112797Y085122D01*
X112717Y085202D01*
X112894Y085409D02*
X112974Y085489D01*
X113054Y085409D01*
X112974Y085329D01*
X112894Y085409D01*
X112914Y085686D02*
X112994Y085766D01*
X113074Y085686D01*
X112994Y085606D01*
X112914Y085686D01*
X112894Y08597D02*
X112974Y08605D01*
X113054Y08597D01*
X112974Y08589D01*
X112894Y08597D01*
Y086235D02*
X112974Y086315D01*
X113054Y086235D01*
X112974Y086155D01*
X112894Y086235D01*
X112701Y086462D02*
X112781Y086542D01*
X112861Y086462D01*
X112781Y086382D01*
X112701Y086462D01*
X111006Y085153D02*
X111086Y085233D01*
X111166Y085153D01*
X111086Y085073D01*
X111006Y085153D01*
X110827Y085406D02*
X110907Y085486D01*
X110987Y085406D01*
X110907Y085326D01*
X110827Y085406D01*
X110818Y085674D02*
X110898Y085754D01*
X110978Y085674D01*
X110898Y085594D01*
X110818Y085674D01*
X110827Y08596D02*
X110907Y08604D01*
X110987Y08596D01*
X110907Y08588D01*
X110827Y08596D01*
X110837Y086253D02*
X110917Y086333D01*
X110997Y086253D01*
X110917Y086173D01*
X110837Y086253D01*
X111055Y086491D02*
X111135Y086571D01*
X111215Y086491D01*
X111135Y086411D01*
X111055Y086491D01*
X112432Y107357D02*
X112512Y107437D01*
X112592Y107357D01*
X112512Y107277D01*
X112432Y107357D01*
X112186Y10719D02*
X112266Y10727D01*
X112346Y10719D01*
X112266Y10711D01*
X112186Y10719D01*
X111917Y10717D02*
X111997Y10725D01*
X112077Y10717D01*
X111997Y10709D01*
X111917Y10717D01*
X111644Y10718D02*
X111724Y10726D01*
X111804Y10718D01*
X111724Y1071D01*
X111644Y10718D01*
X111369Y10719D02*
X111449Y10727D01*
X111529Y10719D01*
X111449Y10711D01*
X111369Y10719D01*
X111152Y107397D02*
X111232Y107477D01*
X111312Y107397D01*
X111232Y107317D01*
X111152Y107397D01*
X112442Y10906D02*
X112522Y10914D01*
X112602Y10906D01*
X112522Y10898D01*
X112442Y10906D01*
X112461Y108755D02*
X112541Y108835D01*
X112621Y108755D01*
X112541Y108675D01*
X112461Y108755D01*
X112196Y109218D02*
X112276Y109298D01*
X112356Y109218D01*
X112276Y109138D01*
X112196Y109218D01*
X11191Y109222D02*
X11199Y109302D01*
X11207Y109222D01*
X11199Y109142D01*
X11191Y109222D01*
X111625D02*
X111705Y109302D01*
X111785Y109222D01*
X111705Y109142D01*
X111625Y109222D01*
X111338Y109228D02*
X111418Y109308D01*
X111498Y109228D01*
X111418Y109148D01*
X111338Y109228D01*
X111093Y109031D02*
X111173Y109111D01*
X111253Y109031D01*
X111173Y108951D01*
X111093Y109031D01*
X104587Y107239D02*
X104667Y107319D01*
X104747Y107239D01*
X104667Y107159D01*
X104587Y107239D01*
X110522Y107672D02*
X110602Y107752D01*
X110682Y107672D01*
X110602Y107592D01*
X110522Y107672D01*
X108733Y10655D02*
X108813Y10663D01*
X108893Y10655D01*
X108813Y10647D01*
X108733Y10655D01*
X108741Y105458D02*
X108821Y105538D01*
X108901Y105458D01*
X108821Y105378D01*
X108741Y105458D01*
X09752Y086747D02*
X0976Y086827D01*
X09768Y086747D01*
X0976Y086667D01*
X09752Y086747D01*
X105936Y100733D02*
X106016Y100813D01*
X106096Y100733D01*
X106016Y100653D01*
X105936Y100733D01*
X100139Y094316D02*
X100218Y094396D01*
X100299Y094316D01*
X100218Y094236D01*
X100139Y094316D01*
X097107Y096609D02*
X097187Y096689D01*
X097267Y096609D01*
X097187Y096529D01*
X097107Y096609D01*
Y096117D02*
X097187Y096197D01*
X097267Y096117D01*
X097187Y096037D01*
X097107Y096117D01*
Y095615D02*
X097187Y095695D01*
X097267Y095615D01*
X097187Y095535D01*
X097107Y095615D01*
X09652Y096609D02*
X0966Y096689D01*
X09668Y096609D01*
X0966Y096529D01*
X09652Y096609D01*
Y096117D02*
X0966Y096197D01*
X09668Y096117D01*
X0966Y096037D01*
X09652Y096117D01*
Y095615D02*
X0966Y095695D01*
X09668Y095615D01*
X0966Y095535D01*
X09652Y095615D01*
X105988Y1003D02*
X106068Y10038D01*
X106148Y1003D01*
X106068Y10022D01*
X105988Y1003D01*
X105965Y101285D02*
X106045Y101365D01*
X106125Y101285D01*
X106045Y101205D01*
X105965Y101285D01*
X103583Y100291D02*
X103663Y100371D01*
X103743Y100291D01*
X103663Y100211D01*
X103583Y100291D01*
Y100793D02*
X103663Y100873D01*
X103743Y100793D01*
X103663Y100713D01*
X103583Y100793D01*
Y101285D02*
X103663Y101365D01*
X103743Y101285D01*
X103663Y101205D01*
X103583Y101285D01*
X109981Y10407D02*
X110061Y10415D01*
X110141Y10407D01*
X110061Y10399D01*
X109981Y10407D01*
X109784Y104966D02*
X109864Y105046D01*
X109944Y104966D01*
X109864Y104886D01*
X109784Y104966D01*
X11002Y104976D02*
X1101Y105056D01*
X11018Y104976D01*
X1101Y104896D01*
X11002Y104976D01*
X101759Y10721D02*
X101839Y10729D01*
X101919Y10721D01*
X101839Y10713D01*
X101759Y10721D01*
X097107Y113512D02*
X097187Y113592D01*
X097267Y113512D01*
X097187Y113432D01*
X097107Y113512D01*
X099076D02*
X099156Y113592D01*
X099236Y113512D01*
X099156Y113432D01*
X099076Y113512D01*
X098583D02*
X098663Y113592D01*
X098743Y113512D01*
X098663Y113432D01*
X098583Y113512D01*
X098091Y113489D02*
X098171Y113569D01*
X098251Y113489D01*
X098171Y113409D01*
X098091Y113489D01*
X097599D02*
X097679Y113569D01*
X097759Y113489D01*
X097679Y113409D01*
X097599Y113489D01*
X105877Y103401D02*
X105957Y103481D01*
X106037Y103401D01*
X105957Y103321D01*
X105877Y103401D01*
X0982Y109503D02*
X09828Y109583D01*
X09836Y109503D01*
X09828Y109423D01*
X0982Y109503D01*
X103013Y103391D02*
X103093Y103471D01*
X103173Y103391D01*
X103093Y103311D01*
X103013Y103391D01*
X096782Y091836D02*
X096862Y091916D01*
X096942Y091836D01*
X096862Y091756D01*
X096782Y091836D01*
X102599Y097663D02*
X102679Y097743D01*
X102759Y097663D01*
X102679Y097583D01*
X102599Y097663D01*
X104282Y094277D02*
X104362Y094357D01*
X104442Y094277D01*
X104362Y094197D01*
X104282Y094277D01*
X104233Y097141D02*
X104313Y097221D01*
X104393Y097141D01*
X104313Y097061D01*
X104233Y097141D01*
X11068Y100291D02*
X11076Y100371D01*
X11084Y100291D01*
X11076Y100211D01*
X11068Y100291D01*
X096605Y099305D02*
X096645D01*
X096685Y099345D01*
X096725Y099305D01*
X096765D01*
Y099345D01*
X096725Y099385D01*
X096765Y099425D01*
Y099465D01*
X096725D01*
X096685Y099425D01*
X096645Y099465D01*
X096605D01*
Y099425D01*
X096645Y099385D01*
X096605Y099345D01*
Y099305D01*
Y099561D02*
X096645D01*
X096685Y099601D01*
X096725Y099561D01*
X096765D01*
Y099601D01*
X096725Y099641D01*
X096765Y099681D01*
Y099721D01*
X096725D01*
X096685Y099681D01*
X096645Y099721D01*
X096605D01*
Y099681D01*
X096645Y099641D01*
X096605Y099601D01*
Y099561D01*
X096861Y099305D02*
X096901D01*
X096941Y099345D01*
X096981Y099305D01*
X097021D01*
Y099345D01*
X096981Y099385D01*
X097021Y099425D01*
Y099465D01*
X096981D01*
X096941Y099425D01*
X096901Y099465D01*
X096861D01*
Y099425D01*
X096901Y099385D01*
X096861Y099345D01*
Y099305D01*
Y099561D02*
X096901D01*
X096941Y099601D01*
X096981Y099561D01*
X097021D01*
Y099601D01*
X096981Y099641D01*
X097021Y099681D01*
Y099721D01*
X096981D01*
X096941Y099681D01*
X096901Y099721D01*
X096861D01*
Y099681D01*
X096901Y099641D01*
X096861Y099601D01*
Y099561D01*
X099873Y08908D02*
X099953Y08916D01*
X100033Y08908D01*
X099953Y089D01*
X099873Y08908D01*
X100818Y082889D02*
X100898Y082969D01*
X100978Y082889D01*
X100898Y082809D01*
X100818Y082889D01*
X101814Y086039D02*
X101894Y086119D01*
X101974Y086039D01*
X101894Y085959D01*
X101814Y086039D01*
X100263Y086048D02*
X100343Y086128D01*
X100423Y086048D01*
X100343Y085968D01*
X100263Y086048D01*
X098711Y086088D02*
X098791Y086168D01*
X098871Y086088D01*
X098791Y086008D01*
X098711Y086088D01*
X102609Y086639D02*
X102689Y086719D01*
X102769Y086639D01*
X102689Y086559D01*
X102609Y086639D01*
X101054Y0866D02*
X101134Y08668D01*
X101214Y0866D01*
X101134Y08652D01*
X101054Y0866D01*
X099479Y086609D02*
X099559Y086689D01*
X099639Y086609D01*
X099559Y086529D01*
X099479Y086609D01*
X110562Y099571D02*
X110602D01*
X110642Y099611D01*
X110682Y099571D01*
X110722D01*
Y099611D01*
X110682Y099651D01*
X110722Y099691D01*
Y099731D01*
X110682D01*
X110642Y099691D01*
X110602Y099731D01*
X110562D01*
Y099691D01*
X110602Y099651D01*
X110562Y099611D01*
Y099571D01*
Y099315D02*
X110602D01*
X110642Y099355D01*
X110682Y099315D01*
X110722D01*
Y099355D01*
X110682Y099395D01*
X110722Y099435D01*
Y099475D01*
X110682D01*
X110642Y099435D01*
X110602Y099475D01*
X110562D01*
Y099435D01*
X110602Y099395D01*
X110562Y099355D01*
Y099315D01*
X110306Y099571D02*
X110346D01*
X110386Y099611D01*
X110426Y099571D01*
X110466D01*
Y099611D01*
X110426Y099651D01*
X110466Y099691D01*
Y099731D01*
X110426D01*
X110386Y099691D01*
X110346Y099731D01*
X110306D01*
Y099691D01*
X110346Y099651D01*
X110306Y099611D01*
Y099571D01*
Y099315D02*
X110346D01*
X110386Y099355D01*
X110426Y099315D01*
X110466D01*
Y099355D01*
X110426Y099395D01*
X110466Y099435D01*
Y099475D01*
X110426D01*
X110386Y099435D01*
X110346Y099475D01*
X110306D01*
Y099435D01*
X110346Y099395D01*
X110306Y099355D01*
Y099315D01*
X105241Y086462D02*
X105321Y086542D01*
X105401Y086462D01*
X105321Y086382D01*
X105241Y086462D01*
X106798Y086432D02*
X106878Y086512D01*
X106958Y086432D01*
X106878Y086352D01*
X106798Y086432D01*
X107077Y083617D02*
X107157Y083697D01*
X107237Y083617D01*
X107157Y083537D01*
X107077Y083617D01*
Y082141D02*
X107157Y082221D01*
X107237Y082141D01*
X107157Y082061D01*
X107077Y082141D01*
X107639Y083627D02*
X107718Y083707D01*
X107799Y083627D01*
X107718Y083547D01*
X107639Y083627D01*
Y0822D02*
X107718Y08228D01*
X107799Y0822D01*
X107718Y08212D01*
X107639Y0822D01*
X112432Y107653D02*
X112512Y107733D01*
X112592Y107653D01*
X112512Y107573D01*
X112432Y107653D01*
X113101Y107692D02*
X113181Y107772D01*
X113261Y107692D01*
X113181Y107612D01*
X113101Y107692D01*
X112766Y107672D02*
X112846Y107752D01*
X112926Y107672D01*
X112846Y107592D01*
X112766Y107672D01*
X111194Y107681D02*
X111274Y107761D01*
X111354Y107681D01*
X111274Y107601D01*
X111194Y107681D01*
X110824D02*
X110904Y107761D01*
X110984Y107681D01*
X110904Y107601D01*
X110824Y107681D01*
X109538Y107672D02*
X109618Y107752D01*
X109698Y107672D01*
X109618Y107592D01*
X109538Y107672D01*
X109207Y107681D02*
X109287Y107761D01*
X109367Y107681D01*
X109287Y107601D01*
X109207Y107681D01*
X108837D02*
X108917Y107761D01*
X108997Y107681D01*
X108917Y107601D01*
X108837Y107681D01*
X108467D02*
X108547Y107761D01*
X108627Y107681D01*
X108547Y107601D01*
X108467Y107681D01*
X108097D02*
X108177Y107761D01*
X108257Y107681D01*
X108177Y107601D01*
X108097Y107681D01*
X107727D02*
X107807Y107761D01*
X107887Y107681D01*
X107807Y107601D01*
X107727Y107681D01*
X107357D02*
X107437Y107761D01*
X107517Y107681D01*
X107437Y107601D01*
X107357Y107681D01*
X106987D02*
X107067Y107761D01*
X107147Y107681D01*
X107067Y107601D01*
X106987Y107681D01*
X106617D02*
X106697Y107761D01*
X106777Y107681D01*
X106697Y107601D01*
X106617Y107681D01*
X103287D02*
X103367Y107761D01*
X103447Y107681D01*
X103367Y107601D01*
X103287Y107681D01*
X102917D02*
X102997Y107761D01*
X103077Y107681D01*
X102997Y107601D01*
X102917Y107681D01*
X102547D02*
X102627Y107761D01*
X102707Y107681D01*
X102627Y107601D01*
X102547Y107681D01*
X101807D02*
X101887Y107761D01*
X101967Y107681D01*
X101887Y107601D01*
X101807Y107681D01*
X101437D02*
X101517Y107761D01*
X101597Y107681D01*
X101517Y107601D01*
X101437Y107681D01*
X101067D02*
X101147Y107761D01*
X101227Y107681D01*
X101147Y107601D01*
X101067Y107681D01*
X099998Y105798D02*
X100078Y105878D01*
X100158Y105798D01*
X100078Y105718D01*
X099998Y105798D01*
Y103948D02*
X100078Y104028D01*
X100158Y103948D01*
X100078Y103868D01*
X099998Y103948D01*
Y103578D02*
X100078Y103658D01*
X100158Y103578D01*
X100078Y103498D01*
X099998Y103578D01*
Y103208D02*
X100078Y103288D01*
X100158Y103208D01*
X100078Y103128D01*
X099998Y103208D01*
X09894Y102708D02*
X09902Y102788D01*
X0991Y102708D01*
X09902Y102628D01*
X09894Y102708D01*
Y103078D02*
X09902Y103158D01*
X0991Y103078D01*
X09902Y102998D01*
X09894Y103078D01*
Y103448D02*
X09902Y103528D01*
X0991Y103448D01*
X09902Y103368D01*
X09894Y103448D01*
Y103818D02*
X09902Y103898D01*
X0991Y103818D01*
X09902Y103738D01*
X09894Y103818D01*
X100375Y1087D02*
X100455Y10878D01*
X100535Y1087D01*
X100455Y10862D01*
X100375Y1087D01*
X100743Y108739D02*
X100823Y108819D01*
X100903Y108739D01*
X100823Y108659D01*
X100743Y108739D01*
X107403D02*
X107483Y108819D01*
X107563Y108739D01*
X107483Y108659D01*
X107403Y108739D01*
X107773D02*
X107853Y108819D01*
X107933Y108739D01*
X107853Y108659D01*
X107773Y108739D01*
X108143D02*
X108223Y108819D01*
X108303Y108739D01*
X108223Y108659D01*
X108143Y108739D01*
X108513D02*
X108593Y108819D01*
X108673Y108739D01*
X108593Y108659D01*
X108513Y108739D01*
X108883D02*
X108963Y108819D01*
X109043Y108739D01*
X108963Y108659D01*
X108883Y108739D01*
X109253D02*
X109333Y108819D01*
X109413Y108739D01*
X109333Y108659D01*
X109253Y108739D01*
X109623D02*
X109703Y108819D01*
X109783Y108739D01*
X109703Y108659D01*
X109623Y108739D01*
X109993D02*
X110073Y108819D01*
X110153Y108739D01*
X110073Y108659D01*
X109993Y108739D01*
X110363D02*
X110443Y108819D01*
X110523Y108739D01*
X110443Y108659D01*
X110363Y108739D01*
X110733D02*
X110813Y108819D01*
X110893Y108739D01*
X110813Y108659D01*
X110733Y108739D01*
X111103D02*
X111183Y108819D01*
X111263Y108739D01*
X111183Y108659D01*
X111103Y108739D01*
X112766Y108735D02*
X112846Y108815D01*
X112926Y108735D01*
X112846Y108655D01*
X112766Y108735D01*
X113072D02*
X113152Y108815D01*
X113232Y108735D01*
X113152Y108655D01*
X113072Y108735D01*
X1124Y09415D02*
X11248Y09423D01*
X11256Y09415D01*
X11248Y09407D01*
X1124Y09415D01*
Y09378D02*
X11248Y09386D01*
X11256Y09378D01*
X11248Y0937D01*
X1124Y09378D01*
Y09267D02*
X11248Y09275D01*
X11256Y09267D01*
X11248Y09259D01*
X1124Y09267D01*
Y0923D02*
X11248Y09238D01*
X11256Y0923D01*
X11248Y09222D01*
X1124Y0923D01*
Y09193D02*
X11248Y09201D01*
X11256Y09193D01*
X11248Y09185D01*
X1124Y09193D01*
Y09156D02*
X11248Y09164D01*
X11256Y09156D01*
X11248Y09148D01*
X1124Y09156D01*
Y09119D02*
X11248Y09127D01*
X11256Y09119D01*
X11248Y09111D01*
X1124Y09119D01*
Y09082D02*
X11248Y0909D01*
X11256Y09082D01*
X11248Y09074D01*
X1124Y09082D01*
Y09045D02*
X11248Y09053D01*
X11256Y09045D01*
X11248Y09037D01*
X1124Y09045D01*
Y09008D02*
X11248Y09016D01*
X11256Y09008D01*
X11248Y09D01*
X1124Y09008D01*
Y08971D02*
X11248Y08979D01*
X11256Y08971D01*
X11248Y08963D01*
X1124Y08971D01*
Y08934D02*
X11248Y08942D01*
X11256Y08934D01*
X11248Y08926D01*
X1124Y08934D01*
Y08897D02*
X11248Y08905D01*
X11256Y08897D01*
X11248Y08889D01*
X1124Y08897D01*
Y0886D02*
X11248Y08868D01*
X11256Y0886D01*
X11248Y08852D01*
X1124Y0886D01*
Y08823D02*
X11248Y08831D01*
X11256Y08823D01*
X11248Y08815D01*
X1124Y08823D01*
Y08786D02*
X11248Y08794D01*
X11256Y08786D01*
X11248Y08778D01*
X1124Y08786D01*
Y08749D02*
X11248Y08757D01*
X11256Y08749D01*
X11248Y08741D01*
X1124Y08749D01*
Y08712D02*
X11248Y0872D01*
X11256Y08712D01*
X11248Y08704D01*
X1124Y08712D01*
Y08675D02*
X11248Y08683D01*
X11256Y08675D01*
X11248Y08667D01*
X1124Y08675D01*
X112597Y084943D02*
X112677Y085023D01*
X112757Y084943D01*
X112677Y084863D01*
X112597Y084943D01*
X112962Y084884D02*
X113042Y084964D01*
X113122Y084884D01*
X113042Y084804D01*
X112962Y084884D01*
X1124Y086442D02*
X11248Y086522D01*
X11256Y086442D01*
X11248Y086362D01*
X1124Y086442D01*
X112966Y083827D02*
X113046Y083907D01*
X113126Y083827D01*
X113046Y083747D01*
X112966Y083827D01*
X112597Y083844D02*
X112677Y083924D01*
X112757Y083844D01*
X112677Y083764D01*
X112597Y083844D01*
X11224Y083944D02*
X11232Y084024D01*
X1124Y083944D01*
X11232Y083864D01*
X11224Y083944D01*
X111917Y084124D02*
X111997Y084204D01*
X112077Y084124D01*
X111997Y084044D01*
X111917Y084124D01*
X111642Y084372D02*
X111722Y084452D01*
X111802Y084372D01*
X111722Y084292D01*
X111642Y084372D01*
X111441Y084683D02*
X111521Y084763D01*
X111601Y084683D01*
X111521Y084603D01*
X111441Y084683D01*
X111319Y085032D02*
X111399Y085112D01*
X111479Y085032D01*
X111399Y084952D01*
X111319Y085032D01*
X111342Y086511D02*
X111422Y086591D01*
X111502Y086511D01*
X111422Y086431D01*
X111342Y086511D01*
Y086881D02*
X111422Y086961D01*
X111502Y086881D01*
X111422Y086801D01*
X111342Y086881D01*
Y087251D02*
X111422Y087331D01*
X111502Y087251D01*
X111422Y087171D01*
X111342Y087251D01*
Y087621D02*
X111422Y087701D01*
X111502Y087621D01*
X111422Y087541D01*
X111342Y087621D01*
Y087991D02*
X111422Y088071D01*
X111502Y087991D01*
X111422Y087911D01*
X111342Y087991D01*
Y088361D02*
X111422Y088441D01*
X111502Y088361D01*
X111422Y088281D01*
X111342Y088361D01*
Y088731D02*
X111422Y088811D01*
X111502Y088731D01*
X111422Y088651D01*
X111342Y088731D01*
Y089101D02*
X111422Y089181D01*
X111502Y089101D01*
X111422Y089021D01*
X111342Y089101D01*
Y089471D02*
X111422Y089551D01*
X111502Y089471D01*
X111422Y089391D01*
X111342Y089471D01*
Y089841D02*
X111422Y089921D01*
X111502Y089841D01*
X111422Y089761D01*
X111342Y089841D01*
Y090211D02*
X111422Y090291D01*
X111502Y090211D01*
X111422Y090131D01*
X111342Y090211D01*
Y090581D02*
X111422Y090661D01*
X111502Y090581D01*
X111422Y090501D01*
X111342Y090581D01*
Y090951D02*
X111422Y091031D01*
X111502Y090951D01*
X111422Y090871D01*
X111342Y090951D01*
Y091321D02*
X111422Y091401D01*
X111502Y091321D01*
X111422Y091241D01*
X111342Y091321D01*
Y091691D02*
X111422Y091771D01*
X111502Y091691D01*
X111422Y091611D01*
X111342Y091691D01*
Y092061D02*
X111422Y092141D01*
X111502Y092061D01*
X111422Y091981D01*
X111342Y092061D01*
Y092431D02*
X111422Y092511D01*
X111502Y092431D01*
X111422Y092351D01*
X111342Y092431D01*
Y093797D02*
X111422Y093877D01*
X111502Y093797D01*
X111422Y093717D01*
X111342Y093797D01*
Y094167D02*
X111422Y094247D01*
X111502Y094167D01*
X111422Y094087D01*
X111342Y094167D01*
D118*
X114984Y10821D02*
G03*
X114984Y10821I-00008J0D01*
G01*
Y084356D02*
G03*
X114984Y084356I-00008J0D01*
G01*
X097799Y110704D02*
G03*
X097799Y110704I-00008J0D01*
G01*
D119*
X097759D02*
G03*
X097759Y110704I-00004J0D01*
G01*
M02*
