G04*
G04 #@! TF.GenerationSoftware,Altium Limited,Altium Designer,20.1.11 (218)*
G04*
G04 Layer_Color=8421504*
%FSTAX24Y24*%
%MOIN*%
G70*
G04*
G04 #@! TF.SameCoordinates,265BAA9A-0927-4A7B-A448-E96A6529A9FE*
G04*
G04*
G04 #@! TF.FilePolarity,Positive*
G04*
G01*
G75*
%ADD26R,0.0400X0.0300*%
%ADD27R,0.0945X0.1181*%
%ADD28R,0.0394X0.1000*%
G04:AMPARAMS|DCode=29|XSize=67mil|YSize=100mil|CornerRadius=16.8mil|HoleSize=0mil|Usage=FLASHONLY|Rotation=90.000|XOffset=0mil|YOffset=0mil|HoleType=Round|Shape=RoundedRectangle|*
%AMROUNDEDRECTD29*
21,1,0.0670,0.0665,0,0,90.0*
21,1,0.0335,0.1000,0,0,90.0*
1,1,0.0335,0.0333,0.0168*
1,1,0.0335,0.0333,-0.0168*
1,1,0.0335,-0.0333,-0.0168*
1,1,0.0335,-0.0333,0.0168*
%
%ADD29ROUNDEDRECTD29*%
G04:AMPARAMS|DCode=30|XSize=40mil|YSize=52mil|CornerRadius=10mil|HoleSize=0mil|Usage=FLASHONLY|Rotation=0.000|XOffset=0mil|YOffset=0mil|HoleType=Round|Shape=RoundedRectangle|*
%AMROUNDEDRECTD30*
21,1,0.0400,0.0320,0,0,0.0*
21,1,0.0200,0.0520,0,0,0.0*
1,1,0.0200,0.0100,-0.0160*
1,1,0.0200,-0.0100,-0.0160*
1,1,0.0200,-0.0100,0.0160*
1,1,0.0200,0.0100,0.0160*
%
%ADD30ROUNDEDRECTD30*%
%ADD31R,0.1181X0.0945*%
G04:AMPARAMS|DCode=32|XSize=40mil|YSize=52mil|CornerRadius=10mil|HoleSize=0mil|Usage=FLASHONLY|Rotation=90.000|XOffset=0mil|YOffset=0mil|HoleType=Round|Shape=RoundedRectangle|*
%AMROUNDEDRECTD32*
21,1,0.0400,0.0320,0,0,90.0*
21,1,0.0200,0.0520,0,0,90.0*
1,1,0.0200,0.0160,0.0100*
1,1,0.0200,0.0160,-0.0100*
1,1,0.0200,-0.0160,-0.0100*
1,1,0.0200,-0.0160,0.0100*
%
%ADD32ROUNDEDRECTD32*%
%ADD33R,0.0984X0.1181*%
%ADD34R,0.0787X0.0866*%
%ADD35R,0.0866X0.0866*%
%ADD36R,0.0700X0.0260*%
%ADD37R,0.0800X0.1200*%
%ADD38R,0.0118X0.0394*%
%ADD39R,0.0394X0.0550*%
%ADD40R,0.0591X0.0787*%
%ADD41R,0.0394X0.0787*%
%ADD42R,0.2362X0.1575*%
D26*
X112382Y100722D02*
D03*
X111342Y101094D02*
D03*
Y100336D02*
D03*
D27*
X097748Y099324D02*
D03*
Y102024D02*
D03*
X109244Y099295D02*
D03*
Y101995D02*
D03*
D28*
X105995Y080529D02*
D03*
X103035D02*
D03*
X102035D02*
D03*
X101035D02*
D03*
X105995Y089757D02*
D03*
X103035D02*
D03*
X102035D02*
D03*
X101035D02*
D03*
D29*
X097738Y11155D02*
D03*
Y11291D02*
D03*
D30*
X100641Y111463D02*
D03*
X099775D02*
D03*
X098211Y106271D02*
D03*
X097344D02*
D03*
X101026Y097732D02*
D03*
X101892D02*
D03*
X101941Y094306D02*
D03*
X101075D02*
D03*
X100691Y10721D02*
D03*
X101557D02*
D03*
X10072Y105359D02*
D03*
X101587D02*
D03*
X101065Y091806D02*
D03*
X101931D02*
D03*
X101075Y092515D02*
D03*
X101941D02*
D03*
X101065Y093243D02*
D03*
X101931D02*
D03*
X098211Y108048D02*
D03*
X097344D02*
D03*
X100691Y106271D02*
D03*
X101557D02*
D03*
X098919Y10719D02*
D03*
X099785D02*
D03*
Y108048D02*
D03*
X098919D02*
D03*
Y106271D02*
D03*
X099785D02*
D03*
X110691Y104966D02*
D03*
X111557D02*
D03*
X102925Y094296D02*
D03*
X103791D02*
D03*
X110642Y10407D02*
D03*
X111508D02*
D03*
X100711Y104454D02*
D03*
X101577D02*
D03*
D31*
X107592Y105458D02*
D03*
X104892D02*
D03*
D32*
X099549Y101432D02*
D03*
Y100566D02*
D03*
X107581Y100556D02*
D03*
Y101422D02*
D03*
X112364Y101993D02*
D03*
Y102859D02*
D03*
X111341Y101974D02*
D03*
Y10284D02*
D03*
D33*
X09465Y10015D02*
D03*
Y10195D02*
D03*
D34*
X099116Y112752D02*
D03*
D35*
X101163D02*
D03*
D36*
X101358Y109026D02*
D03*
Y109526D02*
D03*
Y110026D02*
D03*
Y110526D02*
D03*
X099058Y109026D02*
D03*
Y109526D02*
D03*
Y110026D02*
D03*
Y110526D02*
D03*
D37*
X100208Y109776D02*
D03*
D38*
X100907Y095448D02*
D03*
X100711D02*
D03*
X101104D02*
D03*
X101301D02*
D03*
Y096669D02*
D03*
X101104D02*
D03*
X100907D02*
D03*
X100711D02*
D03*
D39*
X099776Y10535D02*
D03*
X098949D02*
D03*
X099756Y104454D02*
D03*
X098929D02*
D03*
D40*
X116006Y104995D02*
D03*
D41*
X112364D02*
D03*
D42*
X104825Y112712D02*
D03*
Y108381D02*
D03*
M02*
