G04*
G04 #@! TF.GenerationSoftware,Altium Limited,Altium Designer,20.1.11 (218)*
G04*
G04 Layer_Color=128*
%FSTAX24Y24*%
%MOIN*%
G70*
G04*
G04 #@! TF.SameCoordinates,265BAA9A-0927-4A7B-A448-E96A6529A9FE*
G04*
G04*
G04 #@! TF.FilePolarity,Positive*
G04*
G01*
G75*
G04:AMPARAMS|DCode=29|XSize=67mil|YSize=100mil|CornerRadius=16.8mil|HoleSize=0mil|Usage=FLASHONLY|Rotation=90.000|XOffset=0mil|YOffset=0mil|HoleType=Round|Shape=RoundedRectangle|*
%AMROUNDEDRECTD29*
21,1,0.0670,0.0665,0,0,90.0*
21,1,0.0335,0.1000,0,0,90.0*
1,1,0.0335,0.0333,0.0168*
1,1,0.0335,0.0333,-0.0168*
1,1,0.0335,-0.0333,-0.0168*
1,1,0.0335,-0.0333,0.0168*
%
%ADD29ROUNDEDRECTD29*%
G04:AMPARAMS|DCode=30|XSize=40mil|YSize=52mil|CornerRadius=10mil|HoleSize=0mil|Usage=FLASHONLY|Rotation=0.000|XOffset=0mil|YOffset=0mil|HoleType=Round|Shape=RoundedRectangle|*
%AMROUNDEDRECTD30*
21,1,0.0400,0.0320,0,0,0.0*
21,1,0.0200,0.0520,0,0,0.0*
1,1,0.0200,0.0100,-0.0160*
1,1,0.0200,-0.0100,-0.0160*
1,1,0.0200,-0.0100,0.0160*
1,1,0.0200,0.0100,0.0160*
%
%ADD30ROUNDEDRECTD30*%
G04:AMPARAMS|DCode=32|XSize=40mil|YSize=52mil|CornerRadius=10mil|HoleSize=0mil|Usage=FLASHONLY|Rotation=90.000|XOffset=0mil|YOffset=0mil|HoleType=Round|Shape=RoundedRectangle|*
%AMROUNDEDRECTD32*
21,1,0.0400,0.0320,0,0,90.0*
21,1,0.0200,0.0520,0,0,90.0*
1,1,0.0200,0.0160,0.0100*
1,1,0.0200,0.0160,-0.0100*
1,1,0.0200,-0.0160,-0.0100*
1,1,0.0200,-0.0160,0.0100*
%
%ADD32ROUNDEDRECTD32*%
%ADD89O,0.0787X0.0236*%
%ADD90R,0.0394X0.0217*%
%ADD91R,0.0790X0.0330*%
%ADD92R,0.0500X0.0330*%
G04:AMPARAMS|DCode=93|XSize=67mil|YSize=100mil|CornerRadius=16.8mil|HoleSize=0mil|Usage=FLASHONLY|Rotation=0.000|XOffset=0mil|YOffset=0mil|HoleType=Round|Shape=RoundedRectangle|*
%AMROUNDEDRECTD93*
21,1,0.0670,0.0665,0,0,0.0*
21,1,0.0335,0.1000,0,0,0.0*
1,1,0.0335,0.0168,-0.0333*
1,1,0.0335,-0.0168,-0.0333*
1,1,0.0335,-0.0168,0.0333*
1,1,0.0335,0.0168,0.0333*
%
%ADD93ROUNDEDRECTD93*%
%ADD94O,0.0236X0.0787*%
G04:AMPARAMS|DCode=95|XSize=43.3mil|YSize=51.2mil|CornerRadius=10.8mil|HoleSize=0mil|Usage=FLASHONLY|Rotation=270.000|XOffset=0mil|YOffset=0mil|HoleType=Round|Shape=RoundedRectangle|*
%AMROUNDEDRECTD95*
21,1,0.0433,0.0295,0,0,270.0*
21,1,0.0217,0.0512,0,0,270.0*
1,1,0.0217,-0.0148,-0.0108*
1,1,0.0217,-0.0148,0.0108*
1,1,0.0217,0.0148,0.0108*
1,1,0.0217,0.0148,-0.0108*
%
%ADD95ROUNDEDRECTD95*%
%ADD96R,0.0335X0.0472*%
%ADD97R,0.0236X0.0180*%
%ADD98R,0.0787X0.0984*%
%ADD99R,0.0197X0.0886*%
%ADD100R,0.0330X0.0790*%
%ADD101R,0.0330X0.0500*%
D29*
X097709Y111579D02*
D03*
Y112939D02*
D03*
D30*
X100278Y082899D02*
D03*
X099411D02*
D03*
X110907Y093027D02*
D03*
X111774D02*
D03*
X099392Y083667D02*
D03*
X100258D02*
D03*
D32*
X101118Y086983D02*
D03*
X101118Y08785D02*
D03*
X10697Y08594D02*
D03*
Y085074D02*
D03*
X098033Y107318D02*
D03*
Y106452D02*
D03*
X097059Y107357D02*
D03*
Y106491D02*
D03*
X111921Y098184D02*
D03*
Y097318D02*
D03*
X107813Y08594D02*
D03*
Y085074D02*
D03*
X106065Y08594D02*
D03*
Y085074D02*
D03*
X101894Y086983D02*
D03*
Y08785D02*
D03*
X099567Y086983D02*
D03*
X099567Y08785D02*
D03*
X102669Y086983D02*
D03*
Y08785D02*
D03*
X100343Y086983D02*
D03*
Y08785D02*
D03*
X098791Y086983D02*
D03*
Y08785D02*
D03*
X105189Y08593D02*
D03*
Y085064D02*
D03*
D89*
X109667Y096167D02*
D03*
Y097348D02*
D03*
Y09223D02*
D03*
Y100497D02*
D03*
X097699Y093804D02*
D03*
Y093017D02*
D03*
X109667Y100104D02*
D03*
Y09971D02*
D03*
Y098922D02*
D03*
Y099316D02*
D03*
Y097741D02*
D03*
Y098529D02*
D03*
Y095773D02*
D03*
Y093017D02*
D03*
Y092623D02*
D03*
Y093411D02*
D03*
Y093804D02*
D03*
X097699Y092623D02*
D03*
Y093411D02*
D03*
Y09971D02*
D03*
Y100104D02*
D03*
Y099316D02*
D03*
Y098922D02*
D03*
Y094198D02*
D03*
X109667Y098135D02*
D03*
Y096954D02*
D03*
X097699Y09223D02*
D03*
Y100497D02*
D03*
D90*
X099255Y084926D02*
D03*
Y0853D02*
D03*
Y084552D02*
D03*
X100335D02*
D03*
Y084926D02*
D03*
Y0853D02*
D03*
D91*
X111858Y10881D02*
D03*
Y10761D02*
D03*
D92*
X112388Y10821D02*
D03*
D93*
X104873Y105783D02*
D03*
X106233D02*
D03*
X104873Y107102D02*
D03*
X106233D02*
D03*
D94*
X101911Y090379D02*
D03*
X099943Y102348D02*
D03*
X100337D02*
D03*
X101124D02*
D03*
X10073D02*
D03*
X102305D02*
D03*
X102699D02*
D03*
X101911D02*
D03*
X101518D02*
D03*
X104667D02*
D03*
X105061D02*
D03*
X10388D02*
D03*
X104274D02*
D03*
X103486D02*
D03*
X103093D02*
D03*
X10703D02*
D03*
X107423D02*
D03*
X106636D02*
D03*
X106242D02*
D03*
X101124Y090379D02*
D03*
X10073D02*
D03*
X099943D02*
D03*
X100337D02*
D03*
X10388D02*
D03*
X103093D02*
D03*
X103486D02*
D03*
X102305D02*
D03*
X102699D02*
D03*
X105848D02*
D03*
X106636D02*
D03*
X106242D02*
D03*
X10703D02*
D03*
X107423D02*
D03*
X099549D02*
D03*
Y102348D02*
D03*
X107817D02*
D03*
D95*
X111931Y095615D02*
D03*
Y094789D02*
D03*
D96*
X097968Y10823D02*
D03*
X097168D02*
D03*
X097575Y109222D02*
D03*
X106878Y087092D02*
D03*
X107636Y087094D02*
D03*
X107264Y088076D02*
D03*
X105707Y088063D02*
D03*
X106079Y087081D02*
D03*
X105321Y087079D02*
D03*
D97*
X1101Y107269D02*
D03*
Y106875D02*
D03*
X11011Y105891D02*
D03*
Y106285D02*
D03*
D98*
X114668Y081304D02*
D03*
X114669Y079044D02*
D03*
X111126D02*
D03*
X111124Y081304D02*
D03*
D99*
X113516Y081424D02*
D03*
X113206Y081429D02*
D03*
X112896Y081434D02*
D03*
X112586Y081439D02*
D03*
X112276Y081444D02*
D03*
D100*
X112551Y085827D02*
D03*
X111351D02*
D03*
D101*
X111951Y085297D02*
D03*
M02*
