M48
;Layer_Color=9474304
;FILE_FORMAT=2:4
INCH,LZ
;TYPE=PLATED
T1F00S00C0.0150
T2F00S00C0.0160
T3F00S00C0.0170
T4F00S00C0.0280
T5F00S00C0.0315
T6F00S00C0.0320
T7F00S00C0.0394
T8F00S00C0.0591
T9F00S00C0.0630
T10F00S00C0.1378
%
T01
X1104Y0792
X111Y0804
X1104Y0816
Y084
X1116
X1098Y0852
X1104Y0864
X111Y0876
X1098
X1104Y0888
X111Y09
X1098
X1104Y0912
X111Y0924
X1146
X114Y0888
X1128
X1134Y0876
X1146
X1158
X1152Y0864
X114
X1146Y0804
X1158
X114Y0792
X1128
X108
X1068
X1056
X1044
X1032
X102
X1008
X0996
X0984
X0972
X096
X0966Y0804
X0978
X099
X1002
X1038
X105
X1074
X1092Y084
X1086Y0852
X1092Y0864
X1086Y0876
X1092Y0888
X108
X1086Y09
X1092Y0912
X108
X1068
X1056
X1044
X105Y09
Y0876
X102Y084
X1014Y0828
X0972Y0816
X096
X0954Y0828
X0942
X0948Y084
X096Y0864
X095947Y08717
X095965Y088066
X096Y0888
X0976Y088519
X097787Y089381
X0978Y09
X097512Y085911
X0936Y0864
Y0888
Y084
Y0816
Y0792
Y096
X0948
X0966Y0972
X0978
X099
X0996Y0984
X1008Y1008
X102
X1032
X1068
X1074Y0972
X1086
X1062
X105
X1002Y0948
X096941Y099385
X096685
Y099641
X096941
X099Y102
X0984Y1032
X1008
X102
X1038Y1044
X1062
X1074Y1068
X1086
X1092Y1056
X1086Y1092
X1074
X096Y108
Y1056
X0972
X0966Y1044
X111Y1068
X1122
X1098Y1092
X1104Y1008
X110386Y099651
X110642
Y099395
X110386
X1146Y0996
X114Y096
Y1104
X1152
X1158Y1116
X1146
X1134
X1122
X111
X1116Y1128
X1128
X114
X1152
X1128Y1104
X1116
X1104
Y1128
X108
X1074Y1116
X108Y1104
X1092
X0966Y1116
X0936Y1128
Y1104
T02
X099978Y109346
X100438
X100208Y109776
X100438Y110206
X099978
T03
X111722Y084372
X111521Y084683
X111399Y085032
X111086Y085153
X110907Y085406
X110898Y085674
X110907Y08596
X110917Y086253
X111135Y086491
X111422Y086511
Y086881
Y087251
Y087621
Y087991
Y088361
Y088731
Y089101
Y089471
Y089841
Y090211
Y090581
Y090951
Y091321
Y091691
Y092061
Y092431
X11248Y0923
Y09267
Y09193
Y09156
Y09119
Y09082
Y09045
Y09008
Y08971
Y08934
Y08897
Y0886
Y08823
Y08786
Y08749
Y08712
Y08675
Y086442
X112781Y086462
X112974Y086235
Y08597
X112994Y085686
X112974Y085409
X112797Y085202
X112677Y084943
X113042Y084884
X113046Y083827
X112677Y083844
X11232Y083944
X111997Y084124
X107718Y083627
X107157Y083617
Y082141
X107718Y0822
X106878Y086432
X105321Y086462
X102689Y086639
X101894Y086039
X101134Y0866
X100343Y086048
X099559Y086609
X098791Y086088
X0976Y086747
X099953Y08908
X096862Y091836
X100898Y082889
X100218Y094316
X104362Y094277
X104313Y097141
X102679Y097663
X103663Y100291
Y100793
Y101285
X106045
X106016Y100733
X106068Y1003
X105957Y103401
X103093Y103391
X100078Y103208
Y103578
Y103948
X09902Y103818
Y103448
Y103078
Y102708
X100078Y105798
X101147Y107681
X101517
X101887
X101839Y10721
X102627Y107681
X102997
X103367
X104667Y107239
X106697Y107681
X107067
X107437
X107807
X108177
X108547
X108917
X109287
X109333Y108739
X108963
X108593
X108223
X107853
X107483
X108813Y10655
X108821Y105458
X100823Y108739
X100455Y1087
X097187Y096609
Y096117
Y095615
X0966
Y096117
Y096609
X110543Y096157
X110533Y097338
X11076Y100291
X111997Y103273
X110061Y10407
X1101Y104976
X109864Y104966
X109618Y107672
X110602
X110904Y107681
X111274
X111232Y107397
X111449Y10719
X111724Y10718
X111997Y10717
X112266Y10719
X112512Y107357
Y107653
X112846Y107672
X113181Y107692
X113152Y108735
X112846
X112541Y108755
X112522Y10906
X112276Y109218
X11199Y109222
X111705
X111418Y109228
X111173Y109031
X111183Y108739
X110813
X110443
X110073
X109703
X111422Y094167
Y093797
X11248Y09378
Y09415
X09828Y109503
X098171Y113489
X097679
X097187Y113512
X098663
X099156
T04
X097718Y110704
T05
X0941Y0895
X0951
X0951Y0905
X0941
Y0915
Y0925
Y0935
X0951
Y0925
Y0915
X0951Y0945
X0941Y0945
Y0955
X0951Y0955
Y0965
Y0975
Y0985
X0941
Y0975
Y0965
T06
X114066Y089761
Y090861
Y093698
X0966Y10345
X0946
X114066Y102672
Y101572
Y098735
Y097635
Y094798
T07
X11203Y080288
X113762
T08
X114904Y084356
Y10821
T09
X113904Y083356
X115904
Y085356
X113904
Y10721
X115904
Y10921
X113904
T10
X095218Y080419
X108998
Y111915
X095218
M30
