G04*
G04 #@! TF.GenerationSoftware,Altium Limited,Altium Designer,20.1.11 (218)*
G04*
G04 Layer_Color=128*
%FSTAX24Y24*%
%MOIN*%
G70*
G04*
G04 #@! TF.SameCoordinates,265BAA9A-0927-4A7B-A448-E96A6529A9FE*
G04*
G04*
G04 #@! TF.FilePolarity,Positive*
G04*
G01*
G75*
%ADD117C,0.0020*%
D117*
X113589Y10721D02*
X114219D01*
X113904Y106895D02*
Y107525D01*
X115589Y10721D02*
X116219D01*
X115904Y106895D02*
Y107525D01*
X115589Y10921D02*
X116219D01*
X115904Y108895D02*
Y109525D01*
X113589Y10921D02*
X114219D01*
X113904Y108895D02*
Y109525D01*
X114608Y10821D02*
X115199D01*
X114904Y107915D02*
Y108505D01*
X094943Y0985D02*
X095257D01*
X0951Y098343D02*
Y098657D01*
X094943Y0975D02*
X095257D01*
X0951Y097343D02*
Y097657D01*
X094943Y0965D02*
X095257D01*
X0951Y096343D02*
Y096657D01*
X094943Y0955D02*
X095257D01*
X0951Y095343D02*
Y095657D01*
X094943Y0945D02*
X095257D01*
X0951Y094343D02*
Y094657D01*
X093943Y0945D02*
X094257D01*
X0941Y094343D02*
Y094657D01*
X094943Y0935D02*
X095257D01*
X0951Y093343D02*
Y093657D01*
X093943Y0935D02*
X094257D01*
X0941Y093343D02*
Y093657D01*
X094943Y0925D02*
X095257D01*
X0951Y092343D02*
Y092657D01*
X093943Y0925D02*
X094257D01*
X0941Y092343D02*
Y092657D01*
X094943Y0915D02*
X095257D01*
X0951Y091343D02*
Y091657D01*
X093943Y0915D02*
X094257D01*
X0941Y091343D02*
Y091657D01*
X094943Y0905D02*
X095257D01*
X0951Y090343D02*
Y090657D01*
X093943Y0905D02*
X094257D01*
X0941Y090343D02*
Y090657D01*
X094943Y0895D02*
X095257D01*
X0951Y089343D02*
Y089657D01*
X093943Y0895D02*
X094257D01*
X0941Y089343D02*
Y089657D01*
X093943Y0985D02*
X094257D01*
X0941Y098343D02*
Y098657D01*
X093943Y0975D02*
X094257D01*
X0941Y097343D02*
Y097657D01*
X093943Y0965D02*
X094257D01*
X0941Y096343D02*
Y096657D01*
X093943Y0955D02*
X094257D01*
X0941Y095343D02*
Y095657D01*
X09644Y10345D02*
X09676D01*
X0966Y10329D02*
Y10361D01*
X09444Y10345D02*
X09476D01*
X0946Y10329D02*
Y10361D01*
X100128Y109776D02*
X100288D01*
X100208Y109696D02*
Y109856D01*
X100358Y110206D02*
X100518D01*
X100438Y110126D02*
Y110286D01*
X099898Y110206D02*
X100058D01*
X099978Y110126D02*
Y110286D01*
X099898Y109346D02*
X100058D01*
X099978Y109266D02*
Y109426D01*
X100358Y109346D02*
X100518D01*
X100438Y109266D02*
Y109426D01*
X113906Y094798D02*
X114226D01*
X114066Y094638D02*
Y094958D01*
X113906Y093698D02*
X114226D01*
X114066Y093538D02*
Y093858D01*
X113906Y098735D02*
X114226D01*
X114066Y098575D02*
Y098895D01*
X113906Y097635D02*
X114226D01*
X114066Y097475D02*
Y097795D01*
X113906Y102672D02*
X114226D01*
X114066Y102512D02*
Y102832D01*
X113906Y101572D02*
X114226D01*
X114066Y101412D02*
Y101732D01*
X113906Y089761D02*
X114226D01*
X114066Y089601D02*
Y089921D01*
X113906Y090861D02*
X114226D01*
X114066Y090701D02*
Y091021D01*
X113589Y083356D02*
X114219D01*
X113904Y083041D02*
Y08367D01*
X115589Y083356D02*
X116219D01*
X115904Y083041D02*
Y08367D01*
X115589Y085356D02*
X116219D01*
X115904Y085041D02*
Y08567D01*
X113589Y085356D02*
X114219D01*
X113904Y085041D02*
Y08567D01*
X114608Y084356D02*
X115199D01*
X114904Y08406D02*
Y084651D01*
X09453Y080419D02*
X095907D01*
X095218Y07973D02*
Y081107D01*
X108309Y080419D02*
X109687D01*
X108998Y07973D02*
Y081107D01*
X108309Y111915D02*
X109687D01*
X108998Y111226D02*
Y112604D01*
X09453Y111915D02*
X095907D01*
X095218Y111226D02*
Y112604D01*
X115125Y1128D02*
X115275D01*
X1152Y112725D02*
Y112875D01*
X115725Y1116D02*
X115875D01*
X1158Y111525D02*
Y111675D01*
X115125Y1104D02*
X115275D01*
X1152Y110325D02*
Y110475D01*
X115725Y0876D02*
X115875D01*
X1158Y087525D02*
Y087675D01*
X115125Y0864D02*
X115275D01*
X1152Y086325D02*
Y086475D01*
X115725Y0804D02*
X115875D01*
X1158Y080325D02*
Y080475D01*
X113925Y1128D02*
X114075D01*
X114Y112725D02*
Y112875D01*
X114525Y1116D02*
X114675D01*
X1146Y111525D02*
Y111675D01*
X113925Y1104D02*
X114075D01*
X114Y110325D02*
Y110475D01*
X114525Y0996D02*
X114675D01*
X1146Y099525D02*
Y099675D01*
X113925Y096D02*
X114075D01*
X114Y095925D02*
Y096075D01*
X114525Y0924D02*
X114675D01*
X1146Y092325D02*
Y092475D01*
X113925Y0888D02*
X114075D01*
X114Y088725D02*
Y088875D01*
X114525Y0876D02*
X114675D01*
X1146Y087525D02*
Y087675D01*
X113925Y0864D02*
X114075D01*
X114Y086325D02*
Y086475D01*
X114525Y0804D02*
X114675D01*
X1146Y080325D02*
Y080475D01*
X113925Y0792D02*
X114075D01*
X114Y079125D02*
Y079275D01*
X112725Y1128D02*
X112875D01*
X1128Y112725D02*
Y112875D01*
X113325Y1116D02*
X113475D01*
X1134Y111525D02*
Y111675D01*
X112725Y1104D02*
X112875D01*
X1128Y110325D02*
Y110475D01*
X112725Y0888D02*
X112875D01*
X1128Y088725D02*
Y088875D01*
X113325Y0876D02*
X113475D01*
X1134Y087525D02*
Y087675D01*
X112725Y0792D02*
X112875D01*
X1128Y079125D02*
Y079275D01*
X111525Y1128D02*
X111675D01*
X1116Y112725D02*
Y112875D01*
X112125Y1116D02*
X112275D01*
X1122Y111525D02*
Y111675D01*
X111525Y1104D02*
X111675D01*
X1116Y110325D02*
Y110475D01*
X112125Y1068D02*
X112275D01*
X1122Y106725D02*
Y106875D01*
X111525Y084D02*
X111675D01*
X1116Y083925D02*
Y084075D01*
X110325Y1128D02*
X110475D01*
X1104Y112725D02*
Y112875D01*
X110925Y1116D02*
X111075D01*
X111Y111525D02*
Y111675D01*
X110325Y1104D02*
X110475D01*
X1104Y110325D02*
Y110475D01*
X110925Y1068D02*
X111075D01*
X111Y106725D02*
Y106875D01*
X110325Y1008D02*
X110475D01*
X1104Y100725D02*
Y100875D01*
X110925Y0924D02*
X111075D01*
X111Y092325D02*
Y092475D01*
X110325Y0912D02*
X110475D01*
X1104Y091125D02*
Y091275D01*
X110925Y09D02*
X111075D01*
X111Y089925D02*
Y090075D01*
X110325Y0888D02*
X110475D01*
X1104Y088725D02*
Y088875D01*
X110925Y0876D02*
X111075D01*
X111Y087525D02*
Y087675D01*
X110325Y0864D02*
X110475D01*
X1104Y086325D02*
Y086475D01*
X110325Y084D02*
X110475D01*
X1104Y083925D02*
Y084075D01*
X110325Y0816D02*
X110475D01*
X1104Y081525D02*
Y081675D01*
X110925Y0804D02*
X111075D01*
X111Y080325D02*
Y080475D01*
X110325Y0792D02*
X110475D01*
X1104Y079125D02*
Y079275D01*
X109125Y1104D02*
X109275D01*
X1092Y110325D02*
Y110475D01*
X109725Y1092D02*
X109875D01*
X1098Y109125D02*
Y109275D01*
X109125Y1056D02*
X109275D01*
X1092Y105525D02*
Y105675D01*
X109125Y0912D02*
X109275D01*
X1092Y091125D02*
Y091275D01*
X109725Y09D02*
X109875D01*
X1098Y089925D02*
Y090075D01*
X109125Y0888D02*
X109275D01*
X1092Y088725D02*
Y088875D01*
X109725Y0876D02*
X109875D01*
X1098Y087525D02*
Y087675D01*
X109125Y0864D02*
X109275D01*
X1092Y086325D02*
Y086475D01*
X109725Y0852D02*
X109875D01*
X1098Y085125D02*
Y085275D01*
X109125Y084D02*
X109275D01*
X1092Y083925D02*
Y084075D01*
X107925Y1128D02*
X108075D01*
X108Y112725D02*
Y112875D01*
X107925Y1104D02*
X108075D01*
X108Y110325D02*
Y110475D01*
X108525Y1092D02*
X108675D01*
X1086Y109125D02*
Y109275D01*
X108525Y1068D02*
X108675D01*
X1086Y106725D02*
Y106875D01*
X108525Y0972D02*
X108675D01*
X1086Y097125D02*
Y097275D01*
X107925Y0912D02*
X108075D01*
X108Y091125D02*
Y091275D01*
X108525Y09D02*
X108675D01*
X1086Y089925D02*
Y090075D01*
X107925Y0888D02*
X108075D01*
X108Y088725D02*
Y088875D01*
X108525Y0876D02*
X108675D01*
X1086Y087525D02*
Y087675D01*
X108525Y0852D02*
X108675D01*
X1086Y085125D02*
Y085275D01*
X107925Y0792D02*
X108075D01*
X108Y079125D02*
Y079275D01*
X107325Y1116D02*
X107475D01*
X1074Y111525D02*
Y111675D01*
X107325Y1092D02*
X107475D01*
X1074Y109125D02*
Y109275D01*
X107325Y1068D02*
X107475D01*
X1074Y106725D02*
Y106875D01*
X106725Y1008D02*
X106875D01*
X1068Y100725D02*
Y100875D01*
X107325Y0972D02*
X107475D01*
X1074Y097125D02*
Y097275D01*
X106725Y0912D02*
X106875D01*
X1068Y091125D02*
Y091275D01*
X107325Y0804D02*
X107475D01*
X1074Y080325D02*
Y080475D01*
X106725Y0792D02*
X106875D01*
X1068Y079125D02*
Y079275D01*
X106125Y1044D02*
X106275D01*
X1062Y104325D02*
Y104475D01*
X106125Y0972D02*
X106275D01*
X1062Y097125D02*
Y097275D01*
X105525Y0912D02*
X105675D01*
X1056Y091125D02*
Y091275D01*
X105525Y0792D02*
X105675D01*
X1056Y079125D02*
Y079275D01*
X104925Y0972D02*
X105075D01*
X105Y097125D02*
Y097275D01*
X104325Y0912D02*
X104475D01*
X1044Y091125D02*
Y091275D01*
X104925Y09D02*
X105075D01*
X105Y089925D02*
Y090075D01*
X104925Y0876D02*
X105075D01*
X105Y087525D02*
Y087675D01*
X104925Y0804D02*
X105075D01*
X105Y080325D02*
Y080475D01*
X104325Y0792D02*
X104475D01*
X1044Y079125D02*
Y079275D01*
X103725Y1044D02*
X103875D01*
X1038Y104325D02*
Y104475D01*
X103125Y1008D02*
X103275D01*
X1032Y100725D02*
Y100875D01*
X103725Y0804D02*
X103875D01*
X1038Y080325D02*
Y080475D01*
X103125Y0792D02*
X103275D01*
X1032Y079125D02*
Y079275D01*
X101925Y1032D02*
X102075D01*
X102Y103125D02*
Y103275D01*
X101925Y1008D02*
X102075D01*
X102Y100725D02*
Y100875D01*
X101925Y084D02*
X102075D01*
X102Y083925D02*
Y084075D01*
X101925Y0792D02*
X102075D01*
X102Y079125D02*
Y079275D01*
X100725Y1032D02*
X100875D01*
X1008Y103125D02*
Y103275D01*
X100725Y1008D02*
X100875D01*
X1008Y100725D02*
Y100875D01*
X101325Y0828D02*
X101475D01*
X1014Y082725D02*
Y082875D01*
X100725Y0792D02*
X100875D01*
X1008Y079125D02*
Y079275D01*
X099525Y0984D02*
X099675D01*
X0996Y098325D02*
Y098475D01*
X100125Y0948D02*
X100275D01*
X1002Y094725D02*
Y094875D01*
X100125Y0804D02*
X100275D01*
X1002Y080325D02*
Y080475D01*
X099525Y0792D02*
X099675D01*
X0996Y079125D02*
Y079275D01*
X098325Y1032D02*
X098475D01*
X0984Y103125D02*
Y103275D01*
X098925Y102D02*
X099075D01*
X099Y101925D02*
Y102075D01*
X098925Y0972D02*
X099075D01*
X099Y097125D02*
Y097275D01*
X098925Y0804D02*
X099075D01*
X099Y080325D02*
Y080475D01*
X098325Y0792D02*
X098475D01*
X0984Y079125D02*
Y079275D01*
X097125Y1056D02*
X097275D01*
X0972Y105525D02*
Y105675D01*
X097725Y0972D02*
X097875D01*
X0978Y097125D02*
Y097275D01*
X097725Y09D02*
X097875D01*
X0978Y089925D02*
Y090075D01*
X097125Y0816D02*
X097275D01*
X0972Y081525D02*
Y081675D01*
X097725Y0804D02*
X097875D01*
X0978Y080325D02*
Y080475D01*
X097125Y0792D02*
X097275D01*
X0972Y079125D02*
Y079275D01*
X096525Y1116D02*
X096675D01*
X0966Y111525D02*
Y111675D01*
X095925Y108D02*
X096075D01*
X096Y107925D02*
Y108075D01*
X095925Y1056D02*
X096075D01*
X096Y105525D02*
Y105675D01*
X096525Y1044D02*
X096675D01*
X0966Y104325D02*
Y104475D01*
X096525Y0972D02*
X096675D01*
X0966Y097125D02*
Y097275D01*
X095925Y0888D02*
X096075D01*
X096Y088725D02*
Y088875D01*
X095925Y0864D02*
X096075D01*
X096Y086325D02*
Y086475D01*
X095925Y0816D02*
X096075D01*
X096Y081525D02*
Y081675D01*
X096525Y0804D02*
X096675D01*
X0966Y080325D02*
Y080475D01*
X095925Y0792D02*
X096075D01*
X096Y079125D02*
Y079275D01*
X094725Y096D02*
X094875D01*
X0948Y095925D02*
Y096075D01*
X094725Y084D02*
X094875D01*
X0948Y083925D02*
Y084075D01*
X095325Y0828D02*
X095475D01*
X0954Y082725D02*
Y082875D01*
X093525Y1128D02*
X093675D01*
X0936Y112725D02*
Y112875D01*
X093525Y1104D02*
X093675D01*
X0936Y110325D02*
Y110475D01*
X093525Y096D02*
X093675D01*
X0936Y095925D02*
Y096075D01*
X093525Y0888D02*
X093675D01*
X0936Y088725D02*
Y088875D01*
X093525Y0864D02*
X093675D01*
X0936Y086325D02*
Y086475D01*
X093525Y084D02*
X093675D01*
X0936Y083925D02*
Y084075D01*
X094125Y0828D02*
X094275D01*
X0942Y082725D02*
Y082875D01*
X093525Y0816D02*
X093675D01*
X0936Y081525D02*
Y081675D01*
X093525Y0792D02*
X093675D01*
X0936Y079125D02*
Y079275D01*
X111912Y103273D02*
X112082D01*
X111997Y103188D02*
Y103358D01*
X110458Y096157D02*
X110628D01*
X110543Y096072D02*
Y096242D01*
X110448Y097338D02*
X110618D01*
X110533Y097253D02*
Y097423D01*
X094725Y096D02*
X094875D01*
X0948Y095925D02*
Y096075D01*
X113565Y080288D02*
X113959D01*
X113762Y080091D02*
Y080485D01*
X111833Y080288D02*
X112227D01*
X11203Y080091D02*
Y080485D01*
X097437Y085911D02*
X097587D01*
X097512Y085836D02*
Y085986D01*
X097525Y088519D02*
X097675D01*
X0976Y088444D02*
Y088594D01*
X097712Y089381D02*
X097862D01*
X097787Y089306D02*
Y089456D01*
X095872Y08717D02*
X096022D01*
X095947Y087095D02*
Y087245D01*
X09589Y088066D02*
X09604D01*
X095965Y087991D02*
Y088141D01*
X112712Y085202D02*
X112882D01*
X112797Y085117D02*
Y085287D01*
X112889Y085409D02*
X113059D01*
X112974Y085324D02*
Y085494D01*
X112909Y085686D02*
X113079D01*
X112994Y085601D02*
Y085771D01*
X112889Y08597D02*
X113059D01*
X112974Y085885D02*
Y086055D01*
X112889Y086235D02*
X113059D01*
X112974Y08615D02*
Y08632D01*
X112696Y086462D02*
X112866D01*
X112781Y086377D02*
Y086547D01*
X111001Y085153D02*
X111171D01*
X111086Y085068D02*
Y085238D01*
X110822Y085406D02*
X110992D01*
X110907Y085321D02*
Y085491D01*
X110813Y085674D02*
X110983D01*
X110898Y085589D02*
Y085759D01*
X110822Y08596D02*
X110992D01*
X110907Y085875D02*
Y086045D01*
X110832Y086253D02*
X111002D01*
X110917Y086168D02*
Y086338D01*
X11105Y086491D02*
X11122D01*
X111135Y086406D02*
Y086576D01*
X112427Y107357D02*
X112597D01*
X112512Y107272D02*
Y107442D01*
X112181Y10719D02*
X112351D01*
X112266Y107105D02*
Y107275D01*
X111912Y10717D02*
X112082D01*
X111997Y107085D02*
Y107255D01*
X111639Y10718D02*
X111809D01*
X111724Y107095D02*
Y107265D01*
X111364Y10719D02*
X111534D01*
X111449Y107105D02*
Y107275D01*
X111147Y107397D02*
X111317D01*
X111232Y107312D02*
Y107482D01*
X112437Y10906D02*
X112607D01*
X112522Y108975D02*
Y109145D01*
X112456Y108755D02*
X112626D01*
X112541Y10867D02*
Y10884D01*
X112191Y109218D02*
X112361D01*
X112276Y109133D02*
Y109303D01*
X111905Y109222D02*
X112075D01*
X11199Y109137D02*
Y109307D01*
X11162Y109222D02*
X11179D01*
X111705Y109137D02*
Y109307D01*
X111333Y109228D02*
X111503D01*
X111418Y109143D02*
Y109313D01*
X111088Y109031D02*
X111258D01*
X111173Y108946D02*
Y109116D01*
X104582Y107239D02*
X104752D01*
X104667Y107154D02*
Y107324D01*
X110517Y107672D02*
X110687D01*
X110602Y107587D02*
Y107757D01*
X108728Y10655D02*
X108898D01*
X108813Y106465D02*
Y106635D01*
X108736Y105458D02*
X108906D01*
X108821Y105373D02*
Y105543D01*
X097515Y086747D02*
X097685D01*
X0976Y086662D02*
Y086832D01*
X105931Y100733D02*
X106101D01*
X106016Y100648D02*
Y100818D01*
X100133Y094316D02*
X100303D01*
X100218Y094231D02*
Y094401D01*
X097102Y096609D02*
X097272D01*
X097187Y096524D02*
Y096694D01*
X097102Y096117D02*
X097272D01*
X097187Y096032D02*
Y096202D01*
X097102Y095615D02*
X097272D01*
X097187Y09553D02*
Y0957D01*
X096515Y096609D02*
X096685D01*
X0966Y096524D02*
Y096694D01*
X096515Y096117D02*
X096685D01*
X0966Y096032D02*
Y096202D01*
X096515Y095615D02*
X096685D01*
X0966Y09553D02*
Y0957D01*
X105983Y1003D02*
X106153D01*
X106068Y100215D02*
Y100385D01*
X10596Y101285D02*
X10613D01*
X106045Y1012D02*
Y10137D01*
X103578Y100291D02*
X103748D01*
X103663Y100206D02*
Y100376D01*
X103578Y100793D02*
X103748D01*
X103663Y100708D02*
Y100878D01*
X103578Y101285D02*
X103748D01*
X103663Y1012D02*
Y10137D01*
X109976Y10407D02*
X110146D01*
X110061Y103985D02*
Y104155D01*
X109779Y104966D02*
X109949D01*
X109864Y104881D02*
Y105051D01*
X110015Y104976D02*
X110185D01*
X1101Y104891D02*
Y105061D01*
X101754Y10721D02*
X101924D01*
X101839Y107125D02*
Y107295D01*
X097102Y113512D02*
X097272D01*
X097187Y113427D02*
Y113597D01*
X099071Y113512D02*
X099241D01*
X099156Y113427D02*
Y113597D01*
X098578Y113512D02*
X098748D01*
X098663Y113427D02*
Y113597D01*
X098086Y113489D02*
X098256D01*
X098171Y113404D02*
Y113574D01*
X097594Y113489D02*
X097764D01*
X097679Y113404D02*
Y113574D01*
X105872Y103401D02*
X106042D01*
X105957Y103316D02*
Y103486D01*
X097578Y110704D02*
X097858D01*
X097718Y110564D02*
Y110844D01*
X098195Y109503D02*
X098365D01*
X09828Y109418D02*
Y109588D01*
X103008Y103391D02*
X103178D01*
X103093Y103306D02*
Y103476D01*
X096777Y091836D02*
X096947D01*
X096862Y091751D02*
Y091921D01*
X102594Y097663D02*
X102764D01*
X102679Y097578D02*
Y097748D01*
X104277Y094277D02*
X104447D01*
X104362Y094192D02*
Y094362D01*
X104228Y097141D02*
X104398D01*
X104313Y097056D02*
Y097226D01*
X110675Y100291D02*
X110845D01*
X11076Y100206D02*
Y100376D01*
X09661Y099385D02*
X09676D01*
X096685Y09931D02*
Y09946D01*
X09661Y099641D02*
X09676D01*
X096685Y099566D02*
Y099716D01*
X096866Y099385D02*
X097016D01*
X096941Y09931D02*
Y09946D01*
X096866Y099641D02*
X097016D01*
X096941Y099566D02*
Y099716D01*
X099868Y08908D02*
X100038D01*
X099953Y088995D02*
Y089165D01*
X100813Y082889D02*
X100983D01*
X100898Y082804D02*
Y082974D01*
X101809Y086039D02*
X101979D01*
X101894Y085954D02*
Y086124D01*
X100258Y086048D02*
X100428D01*
X100343Y085963D02*
Y086133D01*
X098706Y086088D02*
X098876D01*
X098791Y086003D02*
Y086173D01*
X102604Y086639D02*
X102774D01*
X102689Y086554D02*
Y086724D01*
X101049Y0866D02*
X101219D01*
X101134Y086515D02*
Y086685D01*
X099474Y086609D02*
X099644D01*
X099559Y086524D02*
Y086694D01*
X110567Y099651D02*
X110717D01*
X110642Y099576D02*
Y099726D01*
X110567Y099395D02*
X110717D01*
X110642Y09932D02*
Y09947D01*
X110311Y099651D02*
X110461D01*
X110386Y099576D02*
Y099726D01*
X110311Y099395D02*
X110461D01*
X110386Y09932D02*
Y09947D01*
X105236Y086462D02*
X105406D01*
X105321Y086377D02*
Y086547D01*
X106793Y086432D02*
X106963D01*
X106878Y086347D02*
Y086517D01*
X107072Y083617D02*
X107242D01*
X107157Y083532D02*
Y083702D01*
X107072Y082141D02*
X107242D01*
X107157Y082056D02*
Y082226D01*
X107633Y083627D02*
X107803D01*
X107718Y083542D02*
Y083712D01*
X107633Y0822D02*
X107803D01*
X107718Y082115D02*
Y082285D01*
X112427Y107653D02*
X112597D01*
X112512Y107568D02*
Y107738D01*
X113096Y107692D02*
X113266D01*
X113181Y107607D02*
Y107777D01*
X112761Y107672D02*
X112931D01*
X112846Y107587D02*
Y107757D01*
X111189Y107681D02*
X111359D01*
X111274Y107596D02*
Y107766D01*
X110819Y107681D02*
X110989D01*
X110904Y107596D02*
Y107766D01*
X109533Y107672D02*
X109703D01*
X109618Y107587D02*
Y107757D01*
X109202Y107681D02*
X109372D01*
X109287Y107596D02*
Y107766D01*
X108832Y107681D02*
X109002D01*
X108917Y107596D02*
Y107766D01*
X108462Y107681D02*
X108632D01*
X108547Y107596D02*
Y107766D01*
X108092Y107681D02*
X108262D01*
X108177Y107596D02*
Y107766D01*
X107722Y107681D02*
X107892D01*
X107807Y107596D02*
Y107766D01*
X107352Y107681D02*
X107522D01*
X107437Y107596D02*
Y107766D01*
X106982Y107681D02*
X107152D01*
X107067Y107596D02*
Y107766D01*
X106612Y107681D02*
X106782D01*
X106697Y107596D02*
Y107766D01*
X103282Y107681D02*
X103452D01*
X103367Y107596D02*
Y107766D01*
X102912Y107681D02*
X103082D01*
X102997Y107596D02*
Y107766D01*
X102542Y107681D02*
X102712D01*
X102627Y107596D02*
Y107766D01*
X101802Y107681D02*
X101972D01*
X101887Y107596D02*
Y107766D01*
X101432Y107681D02*
X101602D01*
X101517Y107596D02*
Y107766D01*
X101062Y107681D02*
X101232D01*
X101147Y107596D02*
Y107766D01*
X099993Y105798D02*
X100163D01*
X100078Y105713D02*
Y105883D01*
X099993Y103948D02*
X100163D01*
X100078Y103863D02*
Y104033D01*
X099993Y103578D02*
X100163D01*
X100078Y103493D02*
Y103663D01*
X099993Y103208D02*
X100163D01*
X100078Y103123D02*
Y103293D01*
X098935Y102708D02*
X099105D01*
X09902Y102623D02*
Y102793D01*
X098935Y103078D02*
X099105D01*
X09902Y102993D02*
Y103163D01*
X098935Y103448D02*
X099105D01*
X09902Y103363D02*
Y103533D01*
X098935Y103818D02*
X099105D01*
X09902Y103733D02*
Y103903D01*
X10037Y1087D02*
X10054D01*
X100455Y108615D02*
Y108785D01*
X100738Y108739D02*
X100908D01*
X100823Y108654D02*
Y108824D01*
X107398Y108739D02*
X107568D01*
X107483Y108654D02*
Y108824D01*
X107768Y108739D02*
X107938D01*
X107853Y108654D02*
Y108824D01*
X108138Y108739D02*
X108308D01*
X108223Y108654D02*
Y108824D01*
X108508Y108739D02*
X108678D01*
X108593Y108654D02*
Y108824D01*
X108878Y108739D02*
X109048D01*
X108963Y108654D02*
Y108824D01*
X109248Y108739D02*
X109418D01*
X109333Y108654D02*
Y108824D01*
X109618Y108739D02*
X109788D01*
X109703Y108654D02*
Y108824D01*
X109988Y108739D02*
X110158D01*
X110073Y108654D02*
Y108824D01*
X110358Y108739D02*
X110528D01*
X110443Y108654D02*
Y108824D01*
X110728Y108739D02*
X110898D01*
X110813Y108654D02*
Y108824D01*
X111098Y108739D02*
X111268D01*
X111183Y108654D02*
Y108824D01*
X112761Y108735D02*
X112931D01*
X112846Y10865D02*
Y10882D01*
X113067Y108735D02*
X113237D01*
X113152Y10865D02*
Y10882D01*
X112395Y09415D02*
X112565D01*
X11248Y094065D02*
Y094235D01*
X112395Y09378D02*
X112565D01*
X11248Y093695D02*
Y093865D01*
X112395Y09267D02*
X112565D01*
X11248Y092585D02*
Y092755D01*
X112395Y0923D02*
X112565D01*
X11248Y092215D02*
Y092385D01*
X112395Y09193D02*
X112565D01*
X11248Y091845D02*
Y092015D01*
X112395Y09156D02*
X112565D01*
X11248Y091475D02*
Y091645D01*
X112395Y09119D02*
X112565D01*
X11248Y091105D02*
Y091275D01*
X112395Y09082D02*
X112565D01*
X11248Y090735D02*
Y090905D01*
X112395Y09045D02*
X112565D01*
X11248Y090365D02*
Y090535D01*
X112395Y09008D02*
X112565D01*
X11248Y089995D02*
Y090165D01*
X112395Y08971D02*
X112565D01*
X11248Y089625D02*
Y089795D01*
X112395Y08934D02*
X112565D01*
X11248Y089255D02*
Y089425D01*
X112395Y08897D02*
X112565D01*
X11248Y088885D02*
Y089055D01*
X112395Y0886D02*
X112565D01*
X11248Y088515D02*
Y088685D01*
X112395Y08823D02*
X112565D01*
X11248Y088145D02*
Y088315D01*
X112395Y08786D02*
X112565D01*
X11248Y087775D02*
Y087945D01*
X112395Y08749D02*
X112565D01*
X11248Y087405D02*
Y087575D01*
X112395Y08712D02*
X112565D01*
X11248Y087035D02*
Y087205D01*
X112395Y08675D02*
X112565D01*
X11248Y086665D02*
Y086835D01*
X112592Y084943D02*
X112762D01*
X112677Y084858D02*
Y085028D01*
X112957Y084884D02*
X113127D01*
X113042Y084799D02*
Y084969D01*
X112395Y086442D02*
X112565D01*
X11248Y086357D02*
Y086527D01*
X112961Y083827D02*
X113131D01*
X113046Y083742D02*
Y083912D01*
X112592Y083844D02*
X112762D01*
X112677Y083759D02*
Y083929D01*
X112235Y083944D02*
X112405D01*
X11232Y083859D02*
Y084029D01*
X111912Y084124D02*
X112082D01*
X111997Y084039D02*
Y084209D01*
X111637Y084372D02*
X111807D01*
X111722Y084287D02*
Y084457D01*
X111436Y084683D02*
X111606D01*
X111521Y084598D02*
Y084768D01*
X111314Y085032D02*
X111484D01*
X111399Y084947D02*
Y085117D01*
X111337Y086511D02*
X111507D01*
X111422Y086426D02*
Y086596D01*
X111337Y086881D02*
X111507D01*
X111422Y086796D02*
Y086966D01*
X111337Y087251D02*
X111507D01*
X111422Y087166D02*
Y087336D01*
X111337Y087621D02*
X111507D01*
X111422Y087536D02*
Y087706D01*
X111337Y087991D02*
X111507D01*
X111422Y087906D02*
Y088076D01*
X111337Y088361D02*
X111507D01*
X111422Y088276D02*
Y088446D01*
X111337Y088731D02*
X111507D01*
X111422Y088646D02*
Y088816D01*
X111337Y089101D02*
X111507D01*
X111422Y089016D02*
Y089186D01*
X111337Y089471D02*
X111507D01*
X111422Y089386D02*
Y089556D01*
X111337Y089841D02*
X111507D01*
X111422Y089756D02*
Y089926D01*
X111337Y090211D02*
X111507D01*
X111422Y090126D02*
Y090296D01*
X111337Y090581D02*
X111507D01*
X111422Y090496D02*
Y090666D01*
X111337Y090951D02*
X111507D01*
X111422Y090866D02*
Y091036D01*
X111337Y091321D02*
X111507D01*
X111422Y091236D02*
Y091406D01*
X111337Y091691D02*
X111507D01*
X111422Y091606D02*
Y091776D01*
X111337Y092061D02*
X111507D01*
X111422Y091976D02*
Y092146D01*
X111337Y092431D02*
X111507D01*
X111422Y092346D02*
Y092516D01*
X111337Y093797D02*
X111507D01*
X111422Y093712D02*
Y093882D01*
X111337Y094167D02*
X111507D01*
X111422Y094082D02*
Y094252D01*
M02*
