G04*
G04 #@! TF.GenerationSoftware,Altium Limited,Altium Designer,20.1.11 (218)*
G04*
G04 Layer_Color=16711935*
%FSTAX24Y24*%
%MOIN*%
G70*
G04*
G04 #@! TF.SameCoordinates,265BAA9A-0927-4A7B-A448-E96A6529A9FE*
G04*
G04*
G04 #@! TF.FilePolarity,Negative*
G04*
G01*
G75*
G04:AMPARAMS|DCode=46|XSize=77mil|YSize=110mil|CornerRadius=21.7mil|HoleSize=0mil|Usage=FLASHONLY|Rotation=90.000|XOffset=0mil|YOffset=0mil|HoleType=Round|Shape=RoundedRectangle|*
%AMROUNDEDRECTD46*
21,1,0.0770,0.0665,0,0,90.0*
21,1,0.0335,0.1100,0,0,90.0*
1,1,0.0435,0.0333,0.0168*
1,1,0.0435,0.0333,-0.0168*
1,1,0.0435,-0.0333,-0.0168*
1,1,0.0435,-0.0333,0.0168*
%
%ADD46ROUNDEDRECTD46*%
G04:AMPARAMS|DCode=47|XSize=50mil|YSize=62mil|CornerRadius=15mil|HoleSize=0mil|Usage=FLASHONLY|Rotation=0.000|XOffset=0mil|YOffset=0mil|HoleType=Round|Shape=RoundedRectangle|*
%AMROUNDEDRECTD47*
21,1,0.0500,0.0320,0,0,0.0*
21,1,0.0200,0.0620,0,0,0.0*
1,1,0.0300,0.0100,-0.0160*
1,1,0.0300,-0.0100,-0.0160*
1,1,0.0300,-0.0100,0.0160*
1,1,0.0300,0.0100,0.0160*
%
%ADD47ROUNDEDRECTD47*%
G04:AMPARAMS|DCode=49|XSize=50mil|YSize=62mil|CornerRadius=15mil|HoleSize=0mil|Usage=FLASHONLY|Rotation=90.000|XOffset=0mil|YOffset=0mil|HoleType=Round|Shape=RoundedRectangle|*
%AMROUNDEDRECTD49*
21,1,0.0500,0.0320,0,0,90.0*
21,1,0.0200,0.0620,0,0,90.0*
1,1,0.0300,0.0160,0.0100*
1,1,0.0300,0.0160,-0.0100*
1,1,0.0300,-0.0160,-0.0100*
1,1,0.0300,-0.0160,0.0100*
%
%ADD49ROUNDEDRECTD49*%
%ADD60R,0.1084X0.1084*%
%ADD61C,0.1084*%
%ADD62R,0.0769X0.0769*%
%ADD63C,0.0769*%
%ADD64O,0.0900X0.1100*%
%ADD65R,0.0900X0.1100*%
%ADD66C,0.0370*%
%ADD67O,0.1675X0.0750*%
%ADD68R,0.1675X0.0750*%
%ADD69C,0.1596*%
%ADD102O,0.0887X0.0336*%
%ADD103R,0.0494X0.0317*%
%ADD104R,0.0890X0.0430*%
%ADD105R,0.0600X0.0430*%
G04:AMPARAMS|DCode=106|XSize=77mil|YSize=110mil|CornerRadius=21.7mil|HoleSize=0mil|Usage=FLASHONLY|Rotation=0.000|XOffset=0mil|YOffset=0mil|HoleType=Round|Shape=RoundedRectangle|*
%AMROUNDEDRECTD106*
21,1,0.0770,0.0665,0,0,0.0*
21,1,0.0335,0.1100,0,0,0.0*
1,1,0.0435,0.0168,-0.0333*
1,1,0.0435,-0.0168,-0.0333*
1,1,0.0435,-0.0168,0.0333*
1,1,0.0435,0.0168,0.0333*
%
%ADD106ROUNDEDRECTD106*%
%ADD107O,0.0336X0.0887*%
G04:AMPARAMS|DCode=108|XSize=53.3mil|YSize=61.2mil|CornerRadius=15.8mil|HoleSize=0mil|Usage=FLASHONLY|Rotation=270.000|XOffset=0mil|YOffset=0mil|HoleType=Round|Shape=RoundedRectangle|*
%AMROUNDEDRECTD108*
21,1,0.0533,0.0295,0,0,270.0*
21,1,0.0217,0.0612,0,0,270.0*
1,1,0.0317,-0.0148,-0.0108*
1,1,0.0317,-0.0148,0.0108*
1,1,0.0317,0.0148,0.0108*
1,1,0.0317,0.0148,-0.0108*
%
%ADD108ROUNDEDRECTD108*%
%ADD109R,0.0435X0.0572*%
%ADD110R,0.0336X0.0280*%
%ADD111R,0.0887X0.1084*%
%ADD112R,0.0297X0.0986*%
%ADD113R,0.0430X0.0890*%
%ADD114R,0.0430X0.0600*%
D46*
X097709Y111579D02*
D03*
Y112939D02*
D03*
D47*
X100278Y082899D02*
D03*
X099411D02*
D03*
X110907Y093027D02*
D03*
X111774D02*
D03*
X099392Y083667D02*
D03*
X100258D02*
D03*
D49*
X101118Y086983D02*
D03*
X101118Y08785D02*
D03*
X10697Y08594D02*
D03*
Y085074D02*
D03*
X098033Y107318D02*
D03*
Y106452D02*
D03*
X097059Y107357D02*
D03*
Y106491D02*
D03*
X111921Y098184D02*
D03*
Y097318D02*
D03*
X107813Y08594D02*
D03*
Y085074D02*
D03*
X106065Y08594D02*
D03*
Y085074D02*
D03*
X101894Y086983D02*
D03*
Y08785D02*
D03*
X099567Y086983D02*
D03*
X099567Y08785D02*
D03*
X102669Y086983D02*
D03*
Y08785D02*
D03*
X100343Y086983D02*
D03*
Y08785D02*
D03*
X098791Y086983D02*
D03*
Y08785D02*
D03*
X105189Y08593D02*
D03*
Y085064D02*
D03*
D60*
X113904Y10721D02*
D03*
X115904D02*
D03*
Y10921D02*
D03*
X113904D02*
D03*
Y083356D02*
D03*
X115904D02*
D03*
Y085356D02*
D03*
X113904D02*
D03*
D61*
X114904Y10821D02*
D03*
Y084356D02*
D03*
D62*
X0951Y0985D02*
D03*
D63*
Y0975D02*
D03*
Y0965D02*
D03*
Y0955D02*
D03*
X0951Y0945D02*
D03*
X0941Y0945D02*
D03*
X0951Y0935D02*
D03*
X0941D02*
D03*
X0951Y0925D02*
D03*
X0941D02*
D03*
X0951Y0915D02*
D03*
X0941D02*
D03*
X0951Y0905D02*
D03*
X0941D02*
D03*
X0951Y0895D02*
D03*
X0941D02*
D03*
Y0985D02*
D03*
Y0975D02*
D03*
Y0965D02*
D03*
Y0955D02*
D03*
D64*
X0966Y10345D02*
D03*
D65*
X0946D02*
D03*
D66*
X100208Y109776D02*
D03*
X100438Y110206D02*
D03*
X099978D02*
D03*
Y109346D02*
D03*
X100438D02*
D03*
D67*
X114066Y094798D02*
D03*
Y098735D02*
D03*
Y102672D02*
D03*
Y090861D02*
D03*
D68*
Y093698D02*
D03*
Y097635D02*
D03*
Y101572D02*
D03*
Y089761D02*
D03*
D69*
X095218Y080419D02*
D03*
X108998D02*
D03*
Y111915D02*
D03*
X095218D02*
D03*
D102*
X109667Y096167D02*
D03*
Y097348D02*
D03*
Y09223D02*
D03*
Y100497D02*
D03*
X097699Y093804D02*
D03*
Y093017D02*
D03*
X109667Y100104D02*
D03*
Y09971D02*
D03*
Y098922D02*
D03*
Y099316D02*
D03*
Y097741D02*
D03*
Y098529D02*
D03*
Y095773D02*
D03*
Y093017D02*
D03*
Y092623D02*
D03*
Y093411D02*
D03*
Y093804D02*
D03*
X097699Y092623D02*
D03*
Y093411D02*
D03*
Y09971D02*
D03*
Y100104D02*
D03*
Y099316D02*
D03*
Y098922D02*
D03*
Y094198D02*
D03*
X109667Y098135D02*
D03*
Y096954D02*
D03*
X097699Y09223D02*
D03*
Y100497D02*
D03*
D103*
X099255Y084926D02*
D03*
Y0853D02*
D03*
Y084552D02*
D03*
X100335D02*
D03*
Y084926D02*
D03*
Y0853D02*
D03*
D104*
X111858Y10881D02*
D03*
Y10761D02*
D03*
D105*
X112388Y10821D02*
D03*
D106*
X104873Y105783D02*
D03*
X106233D02*
D03*
X104873Y107102D02*
D03*
X106233D02*
D03*
D107*
X101911Y090379D02*
D03*
X099943Y102348D02*
D03*
X100337D02*
D03*
X101124D02*
D03*
X10073D02*
D03*
X102305D02*
D03*
X102699D02*
D03*
X101911D02*
D03*
X101518D02*
D03*
X104667D02*
D03*
X105061D02*
D03*
X10388D02*
D03*
X104274D02*
D03*
X103486D02*
D03*
X103093D02*
D03*
X10703D02*
D03*
X107423D02*
D03*
X106636D02*
D03*
X106242D02*
D03*
X101124Y090379D02*
D03*
X10073D02*
D03*
X099943D02*
D03*
X100337D02*
D03*
X10388D02*
D03*
X103093D02*
D03*
X103486D02*
D03*
X102305D02*
D03*
X102699D02*
D03*
X105848D02*
D03*
X106636D02*
D03*
X106242D02*
D03*
X10703D02*
D03*
X107423D02*
D03*
X099549D02*
D03*
Y102348D02*
D03*
X107817D02*
D03*
D108*
X111931Y095615D02*
D03*
Y094789D02*
D03*
D109*
X097968Y10823D02*
D03*
X097168D02*
D03*
X097575Y109222D02*
D03*
X106878Y087092D02*
D03*
X107636Y087094D02*
D03*
X107264Y088076D02*
D03*
X105707Y088063D02*
D03*
X106079Y087081D02*
D03*
X105321Y087079D02*
D03*
D110*
X1101Y107269D02*
D03*
Y106875D02*
D03*
X11011Y105891D02*
D03*
Y106285D02*
D03*
D111*
X114668Y081304D02*
D03*
X114669Y079044D02*
D03*
X111126D02*
D03*
X111124Y081304D02*
D03*
D112*
X113516Y081424D02*
D03*
X113206Y081429D02*
D03*
X112896Y081434D02*
D03*
X112586Y081439D02*
D03*
X112276Y081444D02*
D03*
D113*
X112551Y085827D02*
D03*
X111351D02*
D03*
D114*
X111951Y085297D02*
D03*
M02*
