G04*
G04 #@! TF.GenerationSoftware,Altium Limited,Altium Designer,20.1.11 (218)*
G04*
G04 Layer_Physical_Order=1*
G04 Layer_Color=255*
%FSTAX24Y24*%
%MOIN*%
G70*
G04*
G04 #@! TF.SameCoordinates,265BAA9A-0927-4A7B-A448-E96A6529A9FE*
G04*
G04*
G04 #@! TF.FilePolarity,Positive*
G04*
G01*
G75*
%ADD14C,0.0197*%
%ADD16C,0.0200*%
%ADD26R,0.0400X0.0300*%
%ADD27R,0.0945X0.1181*%
%ADD28R,0.0394X0.1000*%
G04:AMPARAMS|DCode=29|XSize=67mil|YSize=100mil|CornerRadius=16.8mil|HoleSize=0mil|Usage=FLASHONLY|Rotation=90.000|XOffset=0mil|YOffset=0mil|HoleType=Round|Shape=RoundedRectangle|*
%AMROUNDEDRECTD29*
21,1,0.0670,0.0665,0,0,90.0*
21,1,0.0335,0.1000,0,0,90.0*
1,1,0.0335,0.0333,0.0168*
1,1,0.0335,0.0333,-0.0168*
1,1,0.0335,-0.0333,-0.0168*
1,1,0.0335,-0.0333,0.0168*
%
%ADD29ROUNDEDRECTD29*%
G04:AMPARAMS|DCode=30|XSize=40mil|YSize=52mil|CornerRadius=10mil|HoleSize=0mil|Usage=FLASHONLY|Rotation=0.000|XOffset=0mil|YOffset=0mil|HoleType=Round|Shape=RoundedRectangle|*
%AMROUNDEDRECTD30*
21,1,0.0400,0.0320,0,0,0.0*
21,1,0.0200,0.0520,0,0,0.0*
1,1,0.0200,0.0100,-0.0160*
1,1,0.0200,-0.0100,-0.0160*
1,1,0.0200,-0.0100,0.0160*
1,1,0.0200,0.0100,0.0160*
%
%ADD30ROUNDEDRECTD30*%
%ADD31R,0.1181X0.0945*%
G04:AMPARAMS|DCode=32|XSize=40mil|YSize=52mil|CornerRadius=10mil|HoleSize=0mil|Usage=FLASHONLY|Rotation=90.000|XOffset=0mil|YOffset=0mil|HoleType=Round|Shape=RoundedRectangle|*
%AMROUNDEDRECTD32*
21,1,0.0400,0.0320,0,0,90.0*
21,1,0.0200,0.0520,0,0,90.0*
1,1,0.0200,0.0160,0.0100*
1,1,0.0200,0.0160,-0.0100*
1,1,0.0200,-0.0160,-0.0100*
1,1,0.0200,-0.0160,0.0100*
%
%ADD32ROUNDEDRECTD32*%
%ADD33R,0.0984X0.1181*%
%ADD34R,0.0787X0.0866*%
%ADD35R,0.0866X0.0866*%
%ADD36R,0.0700X0.0260*%
%ADD37R,0.0800X0.1200*%
%ADD38R,0.0118X0.0394*%
%ADD39R,0.0394X0.0550*%
%ADD40R,0.0591X0.0787*%
%ADD41R,0.0394X0.0787*%
%ADD42R,0.2362X0.1575*%
%ADD70C,0.0276*%
%ADD71C,0.0118*%
%ADD72C,0.0157*%
%ADD73C,0.0500*%
%ADD74R,0.0984X0.0984*%
%ADD75C,0.0984*%
%ADD76R,0.0669X0.0669*%
%ADD77C,0.0669*%
%ADD78O,0.0800X0.1000*%
%ADD79R,0.0800X0.1000*%
%ADD80C,0.0270*%
%ADD81O,0.1575X0.0650*%
%ADD82R,0.1575X0.0650*%
%ADD83C,0.1496*%
%ADD84C,0.0280*%
%ADD85C,0.0300*%
%ADD86C,0.0472*%
%ADD87C,0.0500*%
%ADD88C,0.0250*%
G36*
X100494Y113736D02*
X100439Y113682D01*
X100396Y113626D01*
X100369Y11356D01*
X10036Y113489D01*
Y111948D01*
X100354Y111946D01*
X100277Y111886D01*
X100239Y111836D01*
X100177D01*
X100139Y111886D01*
X100061Y111946D01*
X099971Y111983D01*
X099875Y111996D01*
X099675D01*
X099578Y111983D01*
X099488Y111946D01*
X099411Y111886D01*
X099371Y111834D01*
X099255D01*
X099255Y111834D01*
X099159Y111822D01*
X099069Y111784D01*
X098992Y111725D01*
X098992Y111725D01*
X098795Y111529D01*
X098736Y111452D01*
X098699Y111362D01*
X098686Y111266D01*
Y110926D01*
X098438D01*
Y110494D01*
X098263D01*
Y110988D01*
X098291Y111D01*
X098383Y11107D01*
X098453Y111161D01*
X098497Y111268D01*
X098512Y111382D01*
Y111717D01*
X098497Y111831D01*
X098453Y111938D01*
X098383Y112029D01*
X098291Y112099D01*
X098185Y112143D01*
X098071Y112158D01*
X097406D01*
X097291Y112143D01*
X097185Y112099D01*
X097094Y112029D01*
X097024Y111938D01*
X096979Y111831D01*
X096964Y111717D01*
Y111382D01*
X096979Y111268D01*
X097024Y111161D01*
X097094Y11107D01*
X097185Y111D01*
X097214Y110988D01*
Y110844D01*
X097212Y11084D01*
X097194Y110704D01*
X097212Y110568D01*
X097214Y110564D01*
Y110494D01*
X094293D01*
X094223Y110485D01*
X094157Y110457D01*
X094101Y110414D01*
X093397Y10971D01*
X093347Y109731D01*
Y113786D01*
X100473D01*
X100494Y113736D01*
D02*
G37*
G36*
X100277Y111039D02*
X100354Y110979D01*
X100444Y110942D01*
X100541Y110929D01*
X100543D01*
X100655Y110818D01*
Y110476D01*
X100258D01*
Y109776D01*
Y109076D01*
X100708D01*
X100738Y109038D01*
Y108626D01*
X100847D01*
X100866Y10858D01*
X100428Y108142D01*
X100369Y108065D01*
X100332Y107975D01*
X100319Y107879D01*
Y107624D01*
X100287Y107582D01*
X100174D01*
X100149Y107614D01*
X100072Y107673D01*
X100037Y107688D01*
X10003Y107744D01*
X10003Y107745D01*
X100074Y10781D01*
X100089Y107888D01*
Y107998D01*
X099785D01*
X099482D01*
Y107888D01*
X099497Y10781D01*
X09954Y107745D01*
X099541Y107744D01*
X099534Y107688D01*
X099499Y107673D01*
X099422Y107614D01*
X099362Y107537D01*
X099325Y107447D01*
X099312Y10735D01*
Y10703D01*
X099325Y106934D01*
X099362Y106844D01*
X099422Y106766D01*
X099435Y106756D01*
Y106706D01*
X099422Y106695D01*
X099383Y106645D01*
X099322D01*
X099283Y106695D01*
X099206Y106754D01*
X099116Y106792D01*
X099107Y106793D01*
X099099Y106831D01*
X099101Y106844D01*
X099163Y106886D01*
X099208Y106952D01*
X099223Y10703D01*
Y10714D01*
X098615D01*
Y10703D01*
X098631Y106952D01*
X098675Y106886D01*
X098738Y106844D01*
X098739Y106831D01*
X098731Y106793D01*
X098723Y106792D01*
X098633Y106754D01*
X098565Y106702D01*
X098497Y106754D01*
X098407Y106792D01*
X098311Y106804D01*
X098111D01*
X098014Y106792D01*
X097924Y106754D01*
X097847Y106695D01*
X097787Y106618D01*
X09775Y106528D01*
X097737Y106431D01*
Y106111D01*
X09775Y106015D01*
X097787Y105925D01*
X097847Y105847D01*
X097924Y105788D01*
X098014Y105751D01*
X098111Y105738D01*
X098311D01*
X098407Y105751D01*
X098497Y105788D01*
X098565Y10584D01*
X098633Y105788D01*
X098665Y105775D01*
X098655Y105725D01*
X098652D01*
Y1054D01*
X098949D01*
Y10535D01*
X098999D01*
Y104975D01*
X099239D01*
X099246Y104975D01*
X099289Y104959D01*
Y103909D01*
X100223D01*
Y104082D01*
X100307D01*
X100347Y10403D01*
X100424Y103971D01*
X100514Y103933D01*
X100611Y103921D01*
X100811D01*
X100907Y103933D01*
X100997Y103971D01*
X101075Y10403D01*
X101113Y10408D01*
X101174D01*
X101213Y10403D01*
X10129Y103971D01*
X10138Y103933D01*
X101477Y103921D01*
X101677D01*
X101773Y103933D01*
X101863Y103971D01*
X101941Y10403D01*
X101981Y104082D01*
X102643D01*
X102721Y104005D01*
Y103552D01*
X102698Y103497D01*
X102684Y103391D01*
X102698Y103285D01*
X102739Y103187D01*
X102804Y103102D01*
X102888Y103037D01*
X102987Y102996D01*
X103093Y102982D01*
X103198Y102996D01*
X103297Y103037D01*
X103381Y103102D01*
X103446Y103187D01*
X103487Y103285D01*
X103501Y103391D01*
X103487Y103497D01*
X103464Y103552D01*
Y104159D01*
X103451Y104255D01*
X103414Y104344D01*
X103355Y104421D01*
X103355Y104421D01*
X10306Y104717D01*
X102983Y104776D01*
X102893Y104813D01*
X102797Y104826D01*
X101981D01*
X101947Y10487D01*
X101941Y104901D01*
Y104928D01*
X101951Y104936D01*
X101991Y104988D01*
X104001D01*
Y10013D01*
X099961D01*
X099944Y10018D01*
X099973Y100202D01*
X100032Y10028D01*
X10007Y10037D01*
X100082Y100466D01*
Y100666D01*
X10007Y100763D01*
X100032Y100853D01*
X099973Y10093D01*
X099896Y100989D01*
X099806Y101027D01*
X099709Y101039D01*
X099389D01*
X099293Y101027D01*
X099203Y100989D01*
X099125Y10093D01*
X099066Y100853D01*
X099029Y100763D01*
X099016Y100666D01*
Y100466D01*
X099029Y10037D01*
X099066Y10028D01*
X099125Y100202D01*
X099155Y10018D01*
X099138Y10013D01*
X09849D01*
Y100185D01*
X097006D01*
Y10013D01*
X096547D01*
X096477Y100121D01*
X096411Y100093D01*
X096355Y10005D01*
X096315Y100011D01*
X096272Y099954D01*
X096245Y099889D01*
X096236Y099818D01*
Y099218D01*
X096245Y099147D01*
X096272Y099082D01*
X096315Y099025D01*
X096365Y098976D01*
X096421Y098933D01*
X096487Y098905D01*
X096557Y098896D01*
X097006D01*
Y098464D01*
X09849D01*
Y098896D01*
X108502D01*
Y098684D01*
X101193D01*
X101193Y098684D01*
X101097Y098671D01*
X101007Y098634D01*
X10093Y098575D01*
X100064Y097709D01*
X100064Y097709D01*
X097227Y094872D01*
X095577D01*
X09553Y09493D01*
X095438Y095005D01*
X095333Y095061D01*
X095314Y095067D01*
X095313Y095084D01*
X094887D01*
X094886Y095067D01*
X094867Y095061D01*
X094762Y095005D01*
X09467Y09493D01*
X094625Y094874D01*
X094575D01*
X09453Y09493D01*
X094438Y095005D01*
X094333Y095061D01*
X094314Y095067D01*
X094313Y095084D01*
X093887D01*
X093886Y095067D01*
X093867Y095061D01*
X093762Y095005D01*
X09367Y09493D01*
X093595Y094838D01*
X093539Y094733D01*
X093504Y094619D01*
X093492Y0945D01*
X093504Y094381D01*
X093539Y094267D01*
X093595Y094162D01*
X09367Y09407D01*
X093726Y094025D01*
Y093975D01*
X09367Y09393D01*
X093595Y093838D01*
X093539Y093733D01*
X093504Y093619D01*
X093492Y0935D01*
X093504Y093381D01*
X093539Y093267D01*
X093595Y093162D01*
X09367Y09307D01*
X093726Y093025D01*
Y092975D01*
X09367Y09293D01*
X093595Y092838D01*
X093539Y092733D01*
X093504Y092619D01*
X093492Y0925D01*
X093504Y092381D01*
X093539Y092267D01*
X093595Y092162D01*
X09367Y09207D01*
X093726Y092025D01*
Y091975D01*
X09367Y09193D01*
X093595Y091838D01*
X093539Y091733D01*
X093504Y091619D01*
X093492Y0915D01*
X093504Y091381D01*
X093539Y091267D01*
X093595Y091162D01*
X09367Y09107D01*
X093726Y091025D01*
Y090975D01*
X09367Y09093D01*
X093595Y090838D01*
X093539Y090733D01*
X093504Y090619D01*
X093492Y0905D01*
X093504Y090381D01*
X093539Y090267D01*
X093595Y090162D01*
X09367Y09007D01*
X093726Y090025D01*
Y089975D01*
X09367Y08993D01*
X093595Y089838D01*
X093539Y089733D01*
X093504Y089619D01*
X093492Y0895D01*
X093504Y089381D01*
X093539Y089267D01*
X093595Y089162D01*
X09367Y08907D01*
X093762Y088995D01*
X093867Y088939D01*
X093981Y088904D01*
X0941Y088892D01*
X094219Y088904D01*
X094333Y088939D01*
X094438Y088995D01*
X09453Y08907D01*
X094575Y089126D01*
X094625D01*
X09467Y08907D01*
X094762Y088995D01*
X094867Y088939D01*
X094981Y088904D01*
X0951Y088892D01*
X095219Y088904D01*
X095333Y088939D01*
X095438Y088995D01*
X09553Y08907D01*
X095605Y089162D01*
X095661Y089267D01*
X095696Y089381D01*
X095708Y0895D01*
X095696Y089619D01*
X095661Y089733D01*
X095605Y089838D01*
X09553Y08993D01*
X095474Y089975D01*
Y090025D01*
X09553Y09007D01*
X095594Y090148D01*
X098053D01*
X098144Y09016D01*
X098179Y090175D01*
X098229Y090195D01*
X098302Y090251D01*
X098393Y090343D01*
X09844Y090324D01*
Y086295D01*
X098438Y086292D01*
X098397Y086194D01*
X098383Y086088D01*
X098397Y085982D01*
X098438Y085884D01*
X098502Y085799D01*
X098587Y085734D01*
X098686Y085693D01*
X098791Y085679D01*
X098897Y085693D01*
X098996Y085734D01*
X09908Y085799D01*
X099145Y085884D01*
X099186Y085982D01*
X0992Y086088D01*
X099186Y086194D01*
X099145Y086292D01*
X099143Y086295D01*
Y090391D01*
X099557Y090805D01*
X102573D01*
X102683Y090695D01*
Y090527D01*
X102568D01*
Y088999D01*
X102568Y088987D01*
X102567Y088985D01*
X102551D01*
X102502Y089035D01*
Y090527D01*
X101568D01*
Y089304D01*
X101502D01*
Y090527D01*
X100568D01*
Y090109D01*
X100098D01*
X100007Y090097D01*
X099923Y090062D01*
X09985Y090006D01*
X099704Y08986D01*
X099648Y089787D01*
X099613Y089702D01*
X099601Y089611D01*
Y089287D01*
X099599Y089284D01*
X099558Y089186D01*
X099544Y08908D01*
X099558Y088974D01*
X099599Y088876D01*
X099664Y088791D01*
X099749Y088726D01*
X099847Y088685D01*
X099953Y088671D01*
X100058Y088685D01*
X100157Y088726D01*
X100242Y088791D01*
X100307Y088876D01*
X100347Y088974D01*
X100361Y08908D01*
X100347Y089186D01*
X100307Y089284D01*
X100305Y089287D01*
Y089405D01*
X100568D01*
Y088987D01*
X10081D01*
X10084Y088952D01*
Y088598D01*
X100852Y088507D01*
X100888Y088422D01*
X100889Y08842D01*
X100888Y088419D01*
X100852Y088334D01*
X10084Y088243D01*
Y087889D01*
X100852Y087798D01*
X100888Y087713D01*
X100943Y08764D01*
X101016Y087584D01*
X101101Y087549D01*
X101192Y087537D01*
X101683D01*
Y087463D01*
X100396D01*
X100305Y087451D01*
X10022Y087416D01*
X100147Y08736D01*
X100094Y087307D01*
X100038Y087234D01*
X100017Y087184D01*
X100003Y087149D01*
X099991Y087058D01*
Y086255D01*
X099989Y086253D01*
X099948Y086154D01*
X099934Y086048D01*
X099948Y085943D01*
X099989Y085844D01*
X100054Y08576D01*
X100138Y085695D01*
X100237Y085654D01*
X100343Y08564D01*
X100448Y085654D01*
X100547Y085695D01*
X100631Y08576D01*
X100696Y085844D01*
X100737Y085943D01*
X100751Y086048D01*
X100737Y086154D01*
X100696Y086253D01*
X100694Y086255D01*
Y08676D01*
X101902D01*
X101993Y086772D01*
X102028Y086786D01*
X102077Y086807D01*
X10215Y086863D01*
X102284Y086996D01*
X102339Y087069D01*
X102375Y087154D01*
X102387Y087245D01*
Y087889D01*
X102389Y087892D01*
X102877D01*
X102968Y087904D01*
X103053Y087939D01*
X103126Y087995D01*
X103182Y088067D01*
X103217Y088152D01*
X103229Y088243D01*
Y088598D01*
X103217Y088689D01*
X103182Y088774D01*
X103126Y088846D01*
X103053Y088902D01*
X102968Y088937D01*
X102974Y088987D01*
X103502D01*
Y090527D01*
X103387D01*
Y09084D01*
X103375Y090931D01*
X103339Y091016D01*
X103284Y091089D01*
X102967Y091405D01*
X102894Y091461D01*
X10281Y091496D01*
X10276Y091503D01*
X102763Y091553D01*
X108565D01*
X108656Y091565D01*
X108741Y0916D01*
X108814Y091656D01*
X110217Y093059D01*
X112337D01*
X113714Y091681D01*
Y091459D01*
X113604D01*
X113487Y091447D01*
X113375Y091413D01*
X113272Y091358D01*
X113181Y091284D01*
X113107Y091193D01*
X113051Y09109D01*
X113017Y090978D01*
X113006Y090861D01*
X113017Y090744D01*
X113051Y090632D01*
X113107Y090529D01*
X113181Y090438D01*
X11322Y090406D01*
X113202Y090356D01*
X113009D01*
Y089166D01*
X115124D01*
Y090356D01*
X11493D01*
X114912Y090406D01*
X114951Y090438D01*
X115026Y090529D01*
X115081Y090632D01*
X115115Y090744D01*
X115126Y090861D01*
X115115Y090978D01*
X115081Y09109D01*
X115026Y091193D01*
X114951Y091284D01*
X114861Y091358D01*
X114757Y091413D01*
X114645Y091447D01*
X114529Y091459D01*
X114418D01*
Y091827D01*
X114406Y091918D01*
X114371Y092003D01*
X114315Y092076D01*
X113334Y093057D01*
X113353Y093103D01*
X115124D01*
Y094293D01*
X11493D01*
X114912Y094343D01*
X114951Y094375D01*
X115026Y094466D01*
X115081Y094569D01*
X115115Y094681D01*
X115126Y094798D01*
X115115Y094915D01*
X115081Y095027D01*
X115026Y09513D01*
X114951Y095221D01*
X114861Y095295D01*
X114757Y09535D01*
X114645Y095384D01*
X114529Y095396D01*
X113604D01*
X113487Y095384D01*
X113375Y09535D01*
X113272Y095295D01*
X113181Y095221D01*
X113123Y09515D01*
X111133D01*
X111114Y095196D01*
X11277Y096853D01*
X112826Y096926D01*
X112861Y097011D01*
X112873Y097102D01*
Y098088D01*
X112963Y098177D01*
X113009Y098158D01*
Y09704D01*
X115124D01*
Y09823D01*
X11493D01*
X114912Y09828D01*
X114951Y098312D01*
X115026Y098403D01*
X115081Y098506D01*
X115115Y098618D01*
X115126Y098735D01*
X115115Y098852D01*
X115081Y098964D01*
X115026Y099067D01*
X114951Y099158D01*
X114861Y099232D01*
X114757Y099287D01*
X114645Y099321D01*
X114529Y099333D01*
X113604D01*
X113487Y099321D01*
X113375Y099287D01*
X113272Y099232D01*
X113181Y099158D01*
X113123Y099087D01*
X113023D01*
X112932Y099075D01*
X112847Y09904D01*
X112774Y098984D01*
X112273Y098482D01*
X112217Y098409D01*
X112182Y098325D01*
X11217Y098233D01*
Y097247D01*
X111384Y096461D01*
X111338Y096481D01*
Y096865D01*
X111326Y096951D01*
X111293Y097031D01*
X111241Y0971D01*
X110933Y097408D01*
X110928Y097444D01*
X110887Y097542D01*
X110822Y097627D01*
X110738Y097692D01*
X110639Y097732D01*
X110533Y097746D01*
X110428Y097732D01*
X110329Y097692D01*
X110245Y097627D01*
X11018Y097542D01*
X110139Y097444D01*
X110125Y097338D01*
X110139Y097232D01*
X11018Y097134D01*
X110245Y097049D01*
X110329Y096984D01*
X110428Y096943D01*
X110463Y096939D01*
X110674Y096728D01*
Y09659D01*
X110624Y096555D01*
X110613Y096556D01*
X110266Y096903D01*
X110197Y096956D01*
X110117Y096989D01*
X110031Y097D01*
X104741D01*
X10471Y09705D01*
X104721Y097141D01*
X104708Y097247D01*
X104667Y097345D01*
X104602Y09743D01*
X104517Y097495D01*
X104419Y097536D01*
X104313Y097549D01*
X104312Y097549D01*
X10431Y09755D01*
X104224Y097561D01*
X102204D01*
X102196Y097571D01*
Y097682D01*
X101892D01*
Y097781D01*
X102196D01*
Y097892D01*
X102194Y097902D01*
X102225Y097941D01*
X111449D01*
X111545Y097953D01*
X111635Y09799D01*
X111712Y098049D01*
X114329Y100667D01*
X114329Y100667D01*
X114388Y100744D01*
X114425Y100833D01*
X114438Y10093D01*
X114439Y100977D01*
X115124D01*
Y102167D01*
X11493D01*
X114912Y102217D01*
X114951Y102249D01*
X115026Y10234D01*
X115081Y102443D01*
X115115Y102555D01*
X115126Y102672D01*
X115115Y102789D01*
X115081Y102901D01*
X115026Y103004D01*
X114951Y103095D01*
X114861Y103169D01*
X114757Y103224D01*
X114645Y103258D01*
X114529Y10327D01*
X113604D01*
X113487Y103258D01*
X113402Y103233D01*
X112776D01*
X112711Y103283D01*
X112621Y10332D01*
X112524Y103333D01*
X112204D01*
X112108Y10332D01*
X112018Y103283D01*
X11194Y103223D01*
X111881Y103146D01*
X111873Y103126D01*
X111857D01*
X11182Y103131D01*
X111764Y103204D01*
X111687Y103263D01*
X111672Y103269D01*
Y103273D01*
X111661Y103359D01*
X111628Y103439D01*
X111575Y103508D01*
X111447Y103635D01*
X11142Y103656D01*
X111437Y103706D01*
X111458D01*
Y10407D01*
X111508D01*
Y10412D01*
X111812D01*
Y10423D01*
X111796Y104308D01*
X111752Y104374D01*
X111727Y104391D01*
X111739Y104443D01*
X111754Y104445D01*
X111844Y104483D01*
X111852Y104489D01*
X111897Y104467D01*
Y104332D01*
X111983D01*
Y103548D01*
X115201D01*
Y088293D01*
X115208Y088256D01*
X115229Y088224D01*
X11526Y088203D01*
X115297Y088196D01*
X116775D01*
Y078547D01*
X093347D01*
Y096992D01*
X093397Y097013D01*
X09355Y09686D01*
X093606Y096817D01*
X093644Y096801D01*
X093698Y096856D01*
X095514Y096856D01*
X095589Y09678D01*
X095612D01*
X095683Y096789D01*
X095748Y096817D01*
X095805Y09686D01*
X095903Y096958D01*
X095946Y097015D01*
X095974Y09708D01*
X095983Y097151D01*
X095983Y100497D01*
X095974Y100568D01*
X095946Y100633D01*
X095903Y10069D01*
X095805Y100788D01*
X095748Y100832D01*
X095683Y100859D01*
X095612Y100868D01*
X095412D01*
Y101011D01*
X093888D01*
Y100868D01*
X093644D01*
X093573Y100859D01*
X093508Y100832D01*
X093451Y100788D01*
X093397Y100734D01*
X093347Y100755D01*
Y101342D01*
X093397Y101363D01*
X093471Y101289D01*
X093527Y101246D01*
X093593Y101218D01*
X093663Y101209D01*
X093888D01*
Y101089D01*
X095412D01*
Y101229D01*
X095453Y101246D01*
X09551Y101289D01*
X095596Y101375D01*
X095639Y101432D01*
X095666Y101497D01*
X095675Y101568D01*
X095675Y103766D01*
X095678Y103773D01*
X095688Y103844D01*
X095688Y108022D01*
X097221Y109556D01*
X09784D01*
X097873Y109518D01*
X097871Y109503D01*
X09788Y109435D01*
X097847Y109398D01*
X097674D01*
X097674Y109398D01*
X097578Y109385D01*
X097489Y109348D01*
X097412Y109289D01*
X097082Y108959D01*
X097023Y108882D01*
X096986Y108792D01*
X096973Y108696D01*
Y108462D01*
X096921Y108394D01*
X096884Y108304D01*
X096871Y108208D01*
Y107888D01*
X096884Y107791D01*
X096921Y107701D01*
X096981Y107624D01*
X097058Y107565D01*
X097148Y107527D01*
X097244Y107515D01*
X097444D01*
X097541Y107527D01*
X097631Y107565D01*
X097708Y107624D01*
X097747Y107674D01*
X097808D01*
X097847Y107624D01*
X097924Y107565D01*
X098014Y107527D01*
X098111Y107515D01*
X098311D01*
X098407Y107527D01*
X098497Y107565D01*
X098565Y107617D01*
X098633Y107565D01*
X098668Y10755D01*
X098675Y107494D01*
X098674Y107493D01*
X098631Y107428D01*
X098615Y10735D01*
Y10724D01*
X099223D01*
Y10735D01*
X099208Y107428D01*
X099164Y107493D01*
X099163Y107494D01*
X09917Y10755D01*
X099206Y107565D01*
X099283Y107624D01*
X099342Y107701D01*
X09938Y107791D01*
X099392Y107888D01*
Y108208D01*
X09938Y108304D01*
X099342Y108394D01*
X099283Y108472D01*
X099206Y108531D01*
X099116Y108568D01*
X099057Y108576D01*
X099061Y108626D01*
X099678D01*
Y109038D01*
X099708Y109076D01*
X100158D01*
Y109776D01*
Y110476D01*
X099708D01*
X099678Y110514D01*
Y110882D01*
X099678Y110926D01*
X099726Y110929D01*
X099875D01*
X099971Y110942D01*
X100061Y110979D01*
X100139Y111039D01*
X100177Y111089D01*
X100239D01*
X100277Y111039D01*
D02*
G37*
G36*
X10703Y113436D02*
Y111915D01*
X106937Y111822D01*
X102167D01*
X102108Y111763D01*
Y110438D01*
X10201Y11034D01*
X101026D01*
X100927Y110438D01*
X100927D01*
Y11093D01*
X100632Y111226D01*
Y113489D01*
X10073Y113588D01*
X106878D01*
X10703Y113436D01*
D02*
G37*
G36*
X101835Y107742D02*
X101794Y107714D01*
X101754Y10773D01*
X101657Y107743D01*
X101457D01*
X101361Y10773D01*
X10127Y107693D01*
X101193Y107634D01*
X101155Y107584D01*
X101093D01*
X101063Y107624D01*
Y107725D01*
X101621Y108283D01*
X101621Y108283D01*
X10168Y10836D01*
X101717Y10845D01*
X10173Y108546D01*
X10173Y108546D01*
Y108626D01*
X101835D01*
Y107742D01*
D02*
G37*
G36*
X1026Y107978D02*
X103374D01*
Y107324D01*
X103411D01*
Y106796D01*
X10342Y106726D01*
X103447Y10666D01*
X10349Y106604D01*
X104001Y106093D01*
Y105731D01*
X101991D01*
X101951Y105783D01*
X10193Y105799D01*
X101931Y105861D01*
X10198Y105925D01*
X101988Y105943D01*
X102D01*
X102086Y105954D01*
X102166Y105987D01*
X102235Y10604D01*
X102402Y106207D01*
X102455Y106276D01*
X102488Y106356D01*
X102499Y106442D01*
Y109395D01*
X102488Y109481D01*
X102455Y109561D01*
X102402Y10963D01*
X102271Y109761D01*
X102202Y109813D01*
X102122Y109847D01*
X102036Y109858D01*
X101978D01*
Y109926D01*
X101808D01*
Y110067D01*
X10201D01*
X10208Y110077D01*
X102146Y110104D01*
X102202Y110147D01*
X102301Y110246D01*
X102344Y110302D01*
X102371Y110368D01*
X102381Y110438D01*
Y11155D01*
X1026D01*
Y107978D01*
D02*
G37*
G36*
X116775Y106107D02*
X111983D01*
Y105659D01*
X111897D01*
Y105464D01*
X111852Y105442D01*
X111844Y105449D01*
X111754Y105486D01*
X111657Y105499D01*
X111457D01*
X111361Y105486D01*
X11127Y105449D01*
X111193Y10539D01*
X111155Y105339D01*
X111093D01*
X111055Y10539D01*
X110978Y105449D01*
X110888Y105486D01*
X110791Y105499D01*
X110591D01*
X110494Y105486D01*
X110404Y105449D01*
X110327Y10539D01*
X110317Y105377D01*
X110175D01*
X1101Y105387D01*
X110077Y105408D01*
Y10541D01*
X109998Y105377D01*
X109864D01*
X109758Y105363D01*
X109659Y105322D01*
X109573Y105257D01*
X109508Y105171D01*
X109467Y105072D01*
X109453Y104966D01*
X109467Y104859D01*
X109508Y10476D01*
X109573Y104675D01*
X109659Y10461D01*
X109758Y104568D01*
X109864Y104554D01*
X110077D01*
Y104554D01*
X110095Y104557D01*
X11011Y104554D01*
X110275D01*
X110291Y104504D01*
X110278Y104494D01*
X110238Y104442D01*
X110222D01*
X110167Y104465D01*
X110061Y104479D01*
X109955Y104465D01*
X109857Y104424D01*
X109772Y104359D01*
X109707Y104274D01*
X109666Y104176D01*
X109653Y10407D01*
X109666Y103964D01*
X109707Y103866D01*
X109771Y103783D01*
X109768Y103764D01*
X109758Y103733D01*
X106189D01*
X106161Y103755D01*
X106062Y103795D01*
X105957Y103809D01*
X105851Y103795D01*
X105777Y103765D01*
X105727Y103794D01*
Y104715D01*
X105753D01*
Y106119D01*
X106238Y106604D01*
X106238Y106604D01*
X106281Y10666D01*
X106308Y106726D01*
X106318Y106796D01*
Y107978D01*
X10703D01*
Y111568D01*
X107073Y111586D01*
X107129Y111629D01*
X107222Y111722D01*
X107265Y111778D01*
X107293Y111844D01*
X107302Y111915D01*
Y113436D01*
X107293Y113507D01*
X107265Y113572D01*
X107222Y113629D01*
X107114Y113736D01*
X107135Y113786D01*
X116775D01*
Y106107D01*
D02*
G37*
G36*
X099498Y109828D02*
X097108D01*
X095415Y108135D01*
X095415Y103844D01*
X095403D01*
X095403Y101568D01*
X095317Y101482D01*
X093663Y101482D01*
X093565Y10158D01*
X093565Y104139D01*
X093565D01*
X09356Y104144D01*
X09356Y109488D01*
X094293Y110222D01*
X099498D01*
Y109828D01*
D02*
G37*
G36*
X110818Y103019D02*
X110807Y10294D01*
Y10274D01*
X11082Y102643D01*
X110857Y102553D01*
X110917Y102476D01*
X110967Y102437D01*
Y102376D01*
X110917Y102338D01*
X110857Y10226D01*
X11082Y10217D01*
X110807Y102074D01*
Y101874D01*
X11082Y101777D01*
X110857Y101687D01*
X110917Y10161D01*
X110977Y101564D01*
X11096Y101514D01*
X110872D01*
Y100674D01*
X111812D01*
Y101514D01*
X111721D01*
X111704Y101564D01*
X111764Y10161D01*
X111824Y101687D01*
X111832Y101707D01*
X111848D01*
X111884Y101702D01*
X11194Y101629D01*
X112009Y101577D01*
Y101142D01*
X111912D01*
Y100302D01*
X112842D01*
X11287Y100259D01*
X111295Y098684D01*
X109987D01*
Y098896D01*
X11077D01*
X11084Y098905D01*
X110906Y098933D01*
X110962Y098976D01*
X111011Y099025D01*
X111055Y099082D01*
X111082Y099147D01*
X111091Y099218D01*
Y099808D01*
X111082Y099879D01*
X111055Y099944D01*
X111011Y100001D01*
X110962Y10005D01*
X110906Y100093D01*
X11084Y100121D01*
X11077Y10013D01*
X109987D01*
Y100155D01*
X108502D01*
Y10013D01*
X108005D01*
X107988Y10018D01*
X108005Y100192D01*
X108064Y10027D01*
X108101Y10036D01*
X108114Y100456D01*
Y100656D01*
X108101Y100753D01*
X108064Y100843D01*
X108005Y10092D01*
X107927Y100979D01*
X107837Y101017D01*
X107741Y101029D01*
X107421D01*
X107324Y101017D01*
X107234Y100979D01*
X107157Y10092D01*
X107098Y100843D01*
X10706Y100753D01*
X107048Y100656D01*
Y100456D01*
X10706Y10036D01*
X107098Y10027D01*
X107157Y100192D01*
X107173Y10018D01*
X107156Y10013D01*
X105727D01*
Y103007D01*
X105777Y103037D01*
X105851Y103006D01*
X105957Y102992D01*
X106062Y103006D01*
X106161Y103047D01*
X106189Y103069D01*
X110786D01*
X110818Y103019D01*
D02*
G37*
G36*
X106045Y106796D02*
X106045D01*
X105455Y106206D01*
Y099857D01*
X11077D01*
X110819Y099808D01*
Y099218D01*
X11077Y099169D01*
X096557D01*
X096508Y099218D01*
Y099818D01*
X096547Y099857D01*
X104274D01*
Y106206D01*
X103683Y106796D01*
Y109159D01*
X106045D01*
Y106796D01*
D02*
G37*
G36*
X095711Y100497D02*
X095711Y097151D01*
X095612Y097052D01*
X093742D01*
X093545Y097249D01*
X093545Y100497D01*
X093644Y100596D01*
X095612Y100596D01*
X095711Y100497D01*
D02*
G37*
G36*
X113181Y094375D02*
X11322Y094343D01*
X113202Y094293D01*
X113009D01*
Y093447D01*
X112963Y093428D01*
X112731Y093659D01*
X112658Y093715D01*
X112573Y09375D01*
X112482Y093762D01*
X110365D01*
X110346Y093809D01*
X110984Y094446D01*
X113123D01*
X113181Y094375D01*
D02*
G37*
G36*
X100382Y094981D02*
X100772D01*
Y094976D01*
X100784Y09489D01*
X100817Y09481D01*
X10087Y094741D01*
X100907Y094703D01*
X10089Y09465D01*
X100831Y09461D01*
X100786Y094544D01*
X100771Y094466D01*
Y094356D01*
X101075D01*
Y094256D01*
X100771D01*
Y094146D01*
X100746Y094117D01*
X099402D01*
X099316Y094105D01*
X099236Y094072D01*
X099167Y094019D01*
X097325Y092178D01*
X097148D01*
X097129Y092224D01*
X100021Y095116D01*
X100382D01*
Y094981D01*
D02*
G37*
%LPC*%
G36*
X098198Y112505D02*
X097788D01*
Y112472D01*
X098071D01*
X098141Y112481D01*
X098198Y112505D01*
D02*
G37*
G36*
X097688D02*
X097279D01*
X097336Y112481D01*
X097406Y112472D01*
X097688D01*
Y112505D01*
D02*
G37*
G36*
X09961Y112243D02*
X099586Y112219D01*
X09961D01*
Y112243D01*
D02*
G37*
G36*
X095296Y113096D02*
X095141D01*
X094988Y113075D01*
X094838Y113035D01*
X094695Y112976D01*
X094561Y112899D01*
X094438Y112804D01*
X094329Y112695D01*
X094234Y112572D01*
X094157Y112438D01*
X094098Y112295D01*
X094058Y112145D01*
X094037Y111992D01*
Y111837D01*
X094058Y111684D01*
X094098Y111534D01*
X094157Y111391D01*
X094234Y111257D01*
X094329Y111134D01*
X094438Y111025D01*
X094561Y11093D01*
X094695Y110853D01*
X094838Y110794D01*
X094988Y110754D01*
X095141Y110733D01*
X095296D01*
X095449Y110754D01*
X095599Y110794D01*
X095742Y110853D01*
X095876Y11093D01*
X095999Y111025D01*
X096108Y111134D01*
X096203Y111257D01*
X09628Y111391D01*
X096339Y111534D01*
X096379Y111684D01*
X0964Y111837D01*
Y111992D01*
X096379Y112145D01*
X096339Y112295D01*
X09628Y112438D01*
X096203Y112572D01*
X096108Y112695D01*
X095999Y112804D01*
X095876Y112899D01*
X095742Y112976D01*
X095599Y113035D01*
X095449Y113075D01*
X095296Y113096D01*
D02*
G37*
G36*
X099885Y108412D02*
X099835D01*
Y108098D01*
X100089D01*
Y108208D01*
X100074Y108286D01*
X10003Y108352D01*
X099963Y108396D01*
X099885Y108412D01*
D02*
G37*
G36*
X099735D02*
X099685D01*
X099607Y108396D01*
X099541Y108352D01*
X099497Y108286D01*
X099482Y108208D01*
Y108098D01*
X099735D01*
Y108412D01*
D02*
G37*
G36*
X097444Y106635D02*
X097394D01*
Y106321D01*
X097648D01*
Y106431D01*
X097633Y106509D01*
X097589Y106575D01*
X097523Y10662D01*
X097444Y106635D01*
D02*
G37*
G36*
X097294D02*
X097244D01*
X097166Y10662D01*
X0971Y106575D01*
X097056Y106509D01*
X097041Y106431D01*
Y106321D01*
X097294D01*
Y106635D01*
D02*
G37*
G36*
X097648Y106221D02*
X097394D01*
Y105907D01*
X097444D01*
X097523Y105923D01*
X097589Y105967D01*
X097633Y106033D01*
X097648Y106111D01*
Y106221D01*
D02*
G37*
G36*
X097294D02*
X097041D01*
Y106111D01*
X097056Y106033D01*
X0971Y105967D01*
X097166Y105923D01*
X097244Y105907D01*
X097294D01*
Y106221D01*
D02*
G37*
G36*
X098899Y1053D02*
X098652D01*
Y104975D01*
X098899D01*
Y1053D01*
D02*
G37*
G36*
X099226Y104829D02*
X098979D01*
Y104504D01*
X099226D01*
Y104829D01*
D02*
G37*
G36*
X098879D02*
X098632D01*
Y104504D01*
X098879D01*
Y104829D01*
D02*
G37*
G36*
X099226Y104404D02*
X098979D01*
Y104079D01*
X099226D01*
Y104404D01*
D02*
G37*
G36*
X098879D02*
X098632D01*
Y104079D01*
X098879D01*
Y104404D01*
D02*
G37*
G36*
X111812Y10402D02*
X111558D01*
Y103706D01*
X111608D01*
X111686Y103722D01*
X111752Y103766D01*
X111796Y103832D01*
X111812Y10391D01*
Y10402D01*
D02*
G37*
G36*
X09665Y104048D02*
Y1035D01*
X097104D01*
Y10355D01*
X097087Y103681D01*
X097037Y103802D01*
X096957Y103907D01*
X096852Y103987D01*
X096731Y104037D01*
X09665Y104048D01*
D02*
G37*
G36*
X09655D02*
X096469Y104037D01*
X096348Y103987D01*
X096243Y103907D01*
X096163Y103802D01*
X096113Y103681D01*
X096096Y10355D01*
Y1035D01*
X09655D01*
Y104048D01*
D02*
G37*
G36*
X097104Y1034D02*
X09665D01*
Y102852D01*
X096731Y102863D01*
X096852Y102913D01*
X096957Y102993D01*
X097037Y103098D01*
X097087Y103219D01*
X097104Y10335D01*
Y1034D01*
D02*
G37*
G36*
X09655D02*
X096096D01*
Y10335D01*
X096113Y103219D01*
X096163Y103098D01*
X096243Y102993D01*
X096348Y102913D01*
X096469Y102863D01*
X09655Y102852D01*
Y1034D01*
D02*
G37*
G36*
X09832Y102715D02*
X097798D01*
Y102074D01*
X09832D01*
Y102715D01*
D02*
G37*
G36*
X097698D02*
X097176D01*
Y102074D01*
X097698D01*
Y102715D01*
D02*
G37*
G36*
X099709Y101736D02*
X099599D01*
Y101482D01*
X099913D01*
Y101532D01*
X099898Y10161D01*
X099853Y101676D01*
X099787Y101721D01*
X099709Y101736D01*
D02*
G37*
G36*
X099499D02*
X099389D01*
X099311Y101721D01*
X099245Y101676D01*
X099201Y10161D01*
X099185Y101532D01*
Y101482D01*
X099499D01*
Y101736D01*
D02*
G37*
G36*
X09832Y101974D02*
X097798D01*
Y101334D01*
X09832D01*
Y101974D01*
D02*
G37*
G36*
X097698D02*
X097176D01*
Y101334D01*
X097698D01*
Y101974D01*
D02*
G37*
G36*
X099913Y101382D02*
X099599D01*
Y101128D01*
X099709D01*
X099787Y101144D01*
X099853Y101188D01*
X099898Y101254D01*
X099913Y101332D01*
Y101382D01*
D02*
G37*
G36*
X099499D02*
X099185D01*
Y101332D01*
X099201Y101254D01*
X099245Y101188D01*
X099311Y101144D01*
X099389Y101128D01*
X099499D01*
Y101382D01*
D02*
G37*
G36*
X106462Y090527D02*
X105529D01*
Y088987D01*
X106462D01*
Y090527D01*
D02*
G37*
G36*
X116496Y085948D02*
X115954D01*
Y085406D01*
X116496D01*
Y085948D01*
D02*
G37*
G36*
X115854D02*
X115311D01*
Y085406D01*
X115854D01*
Y085948D01*
D02*
G37*
G36*
X114496D02*
X113954D01*
Y085406D01*
X114496D01*
Y085948D01*
D02*
G37*
G36*
X113854D02*
X113311D01*
Y085406D01*
X113854D01*
Y085948D01*
D02*
G37*
G36*
X115854Y085306D02*
X115311D01*
Y08505D01*
X115269Y085025D01*
X115197Y085063D01*
X115053Y085107D01*
X114904Y085121D01*
X114754Y085107D01*
X11461Y085063D01*
X114539Y085025D01*
X114496Y08505D01*
Y085306D01*
X113954D01*
Y084763D01*
X114209D01*
X114234Y08472D01*
X114196Y084649D01*
X114152Y084505D01*
X114138Y084356D01*
X114152Y084206D01*
X114196Y084062D01*
X114234Y083991D01*
X114209Y083948D01*
X113954D01*
Y083406D01*
X114496D01*
Y083661D01*
X114539Y083686D01*
X11461Y083648D01*
X114754Y083604D01*
X114904Y08359D01*
X115053Y083604D01*
X115197Y083648D01*
X115269Y083686D01*
X115311Y083661D01*
Y083406D01*
X115854D01*
Y083948D01*
X115598D01*
X115573Y083991D01*
X115611Y084062D01*
X115655Y084206D01*
X115669Y084356D01*
X115655Y084505D01*
X115611Y084649D01*
X115573Y08472D01*
X115598Y084763D01*
X115854D01*
Y085306D01*
D02*
G37*
G36*
X116496D02*
X115954D01*
Y084763D01*
X116496D01*
Y085306D01*
D02*
G37*
G36*
X113854D02*
X113311D01*
Y084763D01*
X113854D01*
Y085306D01*
D02*
G37*
G36*
X107718Y084036D02*
X107613Y084022D01*
X107514Y083981D01*
X107432Y083917D01*
X107362Y083971D01*
X107263Y084012D01*
X107157Y084026D01*
X107052Y084012D01*
X106953Y083971D01*
X106869Y083906D01*
X106804Y083822D01*
X106763Y083723D01*
X106749Y083617D01*
X106763Y083512D01*
X106804Y083413D01*
X106806Y08341D01*
Y082348D01*
X106804Y082345D01*
X106763Y082247D01*
X106749Y082141D01*
X106763Y082035D01*
X106804Y081937D01*
X106869Y081852D01*
X106953Y081787D01*
X107052Y081746D01*
X107157Y081732D01*
X107263Y081746D01*
X107362Y081787D01*
X107446Y081852D01*
X107447Y081853D01*
X107497Y08186D01*
X107514Y081846D01*
X107613Y081805D01*
X107718Y081791D01*
X107824Y081805D01*
X107923Y081846D01*
X108007Y081911D01*
X108072Y081996D01*
X108113Y082094D01*
X108127Y0822D01*
X108113Y082306D01*
X108072Y082404D01*
X10807Y082407D01*
Y08342D01*
X108072Y083423D01*
X108113Y083521D01*
X108127Y083627D01*
X108113Y083733D01*
X108072Y083831D01*
X108007Y083916D01*
X107923Y083981D01*
X107824Y084022D01*
X107718Y084036D01*
D02*
G37*
G36*
X116496Y083948D02*
X115954D01*
Y083406D01*
X116496D01*
Y083948D01*
D02*
G37*
G36*
X113854D02*
X113311D01*
Y083406D01*
X113854D01*
Y083948D01*
D02*
G37*
G36*
X116496Y083306D02*
X115954D01*
Y082763D01*
X116496D01*
Y083306D01*
D02*
G37*
G36*
X115854D02*
X115311D01*
Y082763D01*
X115854D01*
Y083306D01*
D02*
G37*
G36*
X114496D02*
X113954D01*
Y082763D01*
X114496D01*
Y083306D01*
D02*
G37*
G36*
X113854D02*
X113311D01*
Y082763D01*
X113854D01*
Y083306D01*
D02*
G37*
G36*
X106292Y081129D02*
X106045D01*
Y080579D01*
X106292D01*
Y081129D01*
D02*
G37*
G36*
X105945D02*
X105699D01*
Y080579D01*
X105945D01*
Y081129D01*
D02*
G37*
G36*
X101332D02*
X101085D01*
Y080579D01*
X101332D01*
Y081129D01*
D02*
G37*
G36*
X100985D02*
X100738D01*
Y080579D01*
X100985D01*
Y081129D01*
D02*
G37*
G36*
X106292Y080479D02*
X106045D01*
Y079929D01*
X106292D01*
Y080479D01*
D02*
G37*
G36*
X105945D02*
X105699D01*
Y079929D01*
X105945D01*
Y080479D01*
D02*
G37*
G36*
X101332D02*
X101085D01*
Y079929D01*
X101332D01*
Y080479D01*
D02*
G37*
G36*
X100985D02*
X100738D01*
Y079929D01*
X100985D01*
Y080479D01*
D02*
G37*
G36*
X113762Y080799D02*
X11363Y080781D01*
X113507Y08073D01*
X113401Y080649D01*
X11332Y080544D01*
X113269Y08042D01*
X113252Y080288D01*
X113269Y080156D01*
X11332Y080033D01*
X113401Y079927D01*
X113507Y079846D01*
X11363Y079795D01*
X113762Y079778D01*
X113894Y079795D01*
X114018Y079846D01*
X114123Y079927D01*
X114204Y080033D01*
X114255Y080156D01*
X114273Y080288D01*
X114255Y08042D01*
X114204Y080544D01*
X114123Y080649D01*
X114018Y08073D01*
X113894Y080781D01*
X113762Y080799D01*
D02*
G37*
G36*
X11203D02*
X111898Y080781D01*
X111775Y08073D01*
X111669Y080649D01*
X111588Y080544D01*
X111537Y08042D01*
X111519Y080288D01*
X111537Y080156D01*
X111588Y080033D01*
X111669Y079927D01*
X111775Y079846D01*
X111898Y079795D01*
X11203Y079778D01*
X112162Y079795D01*
X112285Y079846D01*
X112391Y079927D01*
X112472Y080033D01*
X112523Y080156D01*
X112541Y080288D01*
X112523Y08042D01*
X112472Y080544D01*
X112391Y080649D01*
X112285Y08073D01*
X112162Y080781D01*
X11203Y080799D01*
D02*
G37*
G36*
X101894Y086447D02*
X101788Y086433D01*
X101689Y086392D01*
X101605Y086327D01*
X10154Y086243D01*
X101499Y086144D01*
X101485Y086039D01*
X101499Y085933D01*
X10154Y085834D01*
X101605Y08575D01*
X101689Y085685D01*
X101788Y085644D01*
X101894Y08563D01*
X101999Y085644D01*
X102098Y085685D01*
X102101Y085687D01*
X102415D01*
X102683Y085419D01*
Y082978D01*
Y08281D01*
X102575D01*
X102484Y082798D01*
X102399Y082762D01*
X102326Y082707D01*
X10227Y082634D01*
X102235Y082549D01*
X102223Y082458D01*
Y081907D01*
X102235Y081816D01*
X10227Y081731D01*
X102326Y081658D01*
X102399Y081602D01*
X102484Y081567D01*
X102575Y081555D01*
X102688D01*
X102719Y081505D01*
X102695Y081447D01*
X102683Y081355D01*
Y081299D01*
X102568D01*
Y079759D01*
X103502D01*
Y081005D01*
X103586Y081016D01*
X10367Y081051D01*
X103743Y081107D01*
X103799Y08118D01*
X103834Y081264D01*
X103846Y081355D01*
Y081907D01*
X103834Y081998D01*
X103799Y082083D01*
X103743Y082155D01*
X10367Y082211D01*
X103586Y082246D01*
X103495Y082258D01*
X103381D01*
X10335Y082308D01*
X103375Y082367D01*
X103387Y082458D01*
Y082978D01*
Y085565D01*
X103375Y085656D01*
X103339Y085741D01*
X103284Y085814D01*
X10281Y086287D01*
X102737Y086343D01*
X102652Y086378D01*
X102561Y08639D01*
X102101D01*
X102098Y086392D01*
X101999Y086433D01*
X101894Y086447D01*
D02*
G37*
G36*
X102502Y081299D02*
X101568D01*
Y079759D01*
X102502D01*
Y081299D01*
D02*
G37*
G36*
X109075Y0816D02*
X108921D01*
X108767Y081579D01*
X108618Y081539D01*
X108475Y08148D01*
X10834Y081403D01*
X108218Y081308D01*
X108108Y081199D01*
X108014Y081076D01*
X107936Y080942D01*
X107877Y080799D01*
X107837Y080649D01*
X107817Y080496D01*
Y080341D01*
X107837Y080188D01*
X107877Y080038D01*
X107936Y079895D01*
X108014Y079761D01*
X108108Y079638D01*
X108218Y079529D01*
X10834Y079434D01*
X108475Y079357D01*
X108618Y079298D01*
X108767Y079258D01*
X108921Y079237D01*
X109075D01*
X109229Y079258D01*
X109378Y079298D01*
X109522Y079357D01*
X109656Y079434D01*
X109778Y079529D01*
X109888Y079638D01*
X109982Y079761D01*
X11006Y079895D01*
X110119Y080038D01*
X110159Y080188D01*
X110179Y080341D01*
Y080496D01*
X110159Y080649D01*
X110119Y080799D01*
X11006Y080942D01*
X109982Y081076D01*
X109888Y081199D01*
X109778Y081308D01*
X109656Y081403D01*
X109522Y08148D01*
X109378Y081539D01*
X109229Y081579D01*
X109075Y0816D01*
D02*
G37*
G36*
X095296D02*
X095141D01*
X094988Y081579D01*
X094838Y081539D01*
X094695Y08148D01*
X094561Y081403D01*
X094438Y081308D01*
X094329Y081199D01*
X094234Y081076D01*
X094157Y080942D01*
X094098Y080799D01*
X094058Y080649D01*
X094037Y080496D01*
Y080341D01*
X094058Y080188D01*
X094098Y080038D01*
X094157Y079895D01*
X094234Y079761D01*
X094329Y079638D01*
X094438Y079529D01*
X094561Y079434D01*
X094695Y079357D01*
X094838Y079298D01*
X094988Y079258D01*
X095141Y079237D01*
X095296D01*
X095449Y079258D01*
X095599Y079298D01*
X095742Y079357D01*
X095876Y079434D01*
X095999Y079529D01*
X096108Y079638D01*
X096203Y079761D01*
X09628Y079895D01*
X096339Y080038D01*
X096379Y080188D01*
X0964Y080341D01*
Y080496D01*
X096379Y080649D01*
X096339Y080799D01*
X09628Y080942D01*
X096203Y081076D01*
X096108Y081199D01*
X095999Y081308D01*
X095876Y081403D01*
X095742Y08148D01*
X095599Y081539D01*
X095449Y081579D01*
X095296Y0816D01*
D02*
G37*
G36*
X109075Y113096D02*
X108921D01*
X108767Y113075D01*
X108618Y113035D01*
X108475Y112976D01*
X10834Y112899D01*
X108218Y112804D01*
X108108Y112695D01*
X108014Y112572D01*
X107936Y112438D01*
X107877Y112295D01*
X107837Y112145D01*
X107817Y111992D01*
Y111837D01*
X107837Y111684D01*
X107877Y111534D01*
X107936Y111391D01*
X108014Y111257D01*
X108108Y111134D01*
X108218Y111025D01*
X10834Y11093D01*
X108475Y110853D01*
X108618Y110794D01*
X108767Y110754D01*
X108921Y110733D01*
X109075D01*
X109229Y110754D01*
X109378Y110794D01*
X109522Y110853D01*
X109656Y11093D01*
X109778Y111025D01*
X109888Y111134D01*
X109982Y111257D01*
X11006Y111391D01*
X110119Y111534D01*
X110159Y111684D01*
X110179Y111837D01*
Y111992D01*
X110159Y112145D01*
X110119Y112295D01*
X11006Y112438D01*
X109982Y112572D01*
X109888Y112695D01*
X109778Y112804D01*
X109656Y112899D01*
X109522Y112976D01*
X109378Y113035D01*
X109229Y113075D01*
X109075Y113096D01*
D02*
G37*
G36*
X116496Y109802D02*
X115954D01*
Y10926D01*
X116496D01*
Y109802D01*
D02*
G37*
G36*
X115854D02*
X115311D01*
Y10926D01*
X115854D01*
Y109802D01*
D02*
G37*
G36*
X114496D02*
X113954D01*
Y10926D01*
X114496D01*
Y109802D01*
D02*
G37*
G36*
X113854D02*
X113311D01*
Y10926D01*
X113854D01*
Y109802D01*
D02*
G37*
G36*
X115854Y10916D02*
X115311D01*
Y108905D01*
X115269Y108879D01*
X115197Y108918D01*
X115053Y108961D01*
X114904Y108976D01*
X114754Y108961D01*
X11461Y108918D01*
X114539Y108879D01*
X114496Y108905D01*
Y10916D01*
X113954D01*
Y108618D01*
X114209D01*
X114234Y108575D01*
X114196Y108503D01*
X114152Y108359D01*
X114138Y10821D01*
X114152Y108061D01*
X114196Y107917D01*
X114234Y107845D01*
X114209Y107802D01*
X113954D01*
Y10726D01*
X114496D01*
Y107515D01*
X114539Y107541D01*
X11461Y107502D01*
X114754Y107459D01*
X114904Y107444D01*
X115053Y107459D01*
X115197Y107502D01*
X115269Y107541D01*
X115311Y107515D01*
Y10726D01*
X115854D01*
Y107802D01*
X115598D01*
X115573Y107845D01*
X115611Y107917D01*
X115655Y108061D01*
X115669Y10821D01*
X115655Y108359D01*
X115611Y108503D01*
X115573Y108575D01*
X115598Y108618D01*
X115854D01*
Y10916D01*
D02*
G37*
G36*
X116496D02*
X115954D01*
Y108618D01*
X116496D01*
Y10916D01*
D02*
G37*
G36*
X113854D02*
X113311D01*
Y108618D01*
X113854D01*
Y10916D01*
D02*
G37*
G36*
X116496Y107802D02*
X115954D01*
Y10726D01*
X116496D01*
Y107802D01*
D02*
G37*
G36*
X113854D02*
X113311D01*
Y10726D01*
X113854D01*
Y107802D01*
D02*
G37*
G36*
X116496Y10716D02*
X115954D01*
Y106618D01*
X116496D01*
Y10716D01*
D02*
G37*
G36*
X115854D02*
X115311D01*
Y106618D01*
X115854D01*
Y10716D01*
D02*
G37*
G36*
X114496D02*
X113954D01*
Y106618D01*
X114496D01*
Y10716D01*
D02*
G37*
G36*
X113854D02*
X113311D01*
Y106618D01*
X113854D01*
Y10716D01*
D02*
G37*
G36*
X108283Y10603D02*
X107642D01*
Y105508D01*
X108283D01*
Y10603D01*
D02*
G37*
G36*
X107542D02*
X106902D01*
Y105508D01*
X107542D01*
Y10603D01*
D02*
G37*
G36*
X108283Y105408D02*
X107642D01*
Y104885D01*
X108283D01*
Y105408D01*
D02*
G37*
G36*
X107542D02*
X106902D01*
Y104885D01*
X107542D01*
Y105408D01*
D02*
G37*
G36*
X109817Y102685D02*
X109294D01*
Y102045D01*
X109817D01*
Y102685D01*
D02*
G37*
G36*
X109194D02*
X108672D01*
Y102045D01*
X109194D01*
Y102685D01*
D02*
G37*
G36*
X107741Y101726D02*
X107631D01*
Y101472D01*
X107945D01*
Y101522D01*
X107929Y1016D01*
X107885Y101667D01*
X107819Y101711D01*
X107741Y101726D01*
D02*
G37*
G36*
X107531D02*
X107421D01*
X107343Y101711D01*
X107277Y101667D01*
X107232Y1016D01*
X107217Y101522D01*
Y101472D01*
X107531D01*
Y101726D01*
D02*
G37*
G36*
X109817Y101945D02*
X109294D01*
Y101304D01*
X109817D01*
Y101945D01*
D02*
G37*
G36*
X109194D02*
X108672D01*
Y101304D01*
X109194D01*
Y101945D01*
D02*
G37*
G36*
X107945Y101372D02*
X107631D01*
Y101119D01*
X107741D01*
X107819Y101134D01*
X107885Y101178D01*
X107929Y101244D01*
X107945Y101322D01*
Y101372D01*
D02*
G37*
G36*
X107531D02*
X107217D01*
Y101322D01*
X107232Y101244D01*
X107277Y101178D01*
X107343Y101134D01*
X107421Y101119D01*
X107531D01*
Y101372D01*
D02*
G37*
G36*
X111642Y100586D02*
X111392D01*
Y100386D01*
X111642D01*
Y100586D01*
D02*
G37*
G36*
X111292D02*
X111042D01*
Y100386D01*
X111292D01*
Y100586D01*
D02*
G37*
G36*
X111642Y100286D02*
X111392D01*
Y100086D01*
X111642D01*
Y100286D01*
D02*
G37*
G36*
X111292D02*
X111042D01*
Y100086D01*
X111292D01*
Y100286D01*
D02*
G37*
%LPD*%
D14*
X111508Y10401D02*
Y10407D01*
Y10401D02*
X111983Y103535D01*
Y103287D02*
Y103535D01*
Y103287D02*
X111997Y103273D01*
X099795Y084779D02*
X101134D01*
X098102D02*
X099795D01*
X0976Y085281D02*
Y086747D01*
X096094Y096117D02*
X0966D01*
X095514D02*
X096094D01*
X100458Y110026D02*
X101358D01*
X097344Y103489D02*
Y105527D01*
X100907Y094306D02*
X101075D01*
X100228D02*
X100907D01*
X100218Y094316D02*
X100228Y094306D01*
X110061Y10407D02*
X110642D01*
X104825Y108205D02*
X104864Y108245D01*
X104825Y108205D02*
Y108381D01*
Y099848D02*
X104963Y09971D01*
X101587Y105359D02*
X104636D01*
X101561Y106275D02*
X101685D01*
X103093Y103391D02*
Y104159D01*
X102797Y104454D02*
X103093Y104159D01*
X101577Y104454D02*
X102797D01*
X097522Y10535D02*
X098949D01*
X098929Y104454D02*
Y10533D01*
X099756Y104454D02*
X100711D01*
X097344Y105527D02*
X097522Y10535D01*
X099785Y105359D02*
X10072D01*
X098257Y109526D02*
X099058D01*
X097344Y106271D02*
Y107082D01*
X097453Y10719D01*
X098919D01*
X098211Y106271D02*
X098919D01*
X099785D02*
X100691D01*
X101557D02*
X101561Y106275D01*
X100691Y10721D02*
Y107879D01*
X101358Y108546D01*
Y109026D01*
X099785Y10719D02*
X099805Y10721D01*
X100691D01*
X098919Y10719D02*
X099777Y108048D01*
X099785D01*
X098211D02*
X098919D01*
X097344D02*
Y108696D01*
X097674Y109026D01*
X099058D01*
X098257Y109526D02*
X09828Y109503D01*
X099785Y108048D02*
X100208Y10847D01*
X101358Y110526D02*
Y111307D01*
X101202Y111463D02*
X101358Y111307D01*
X100641Y111463D02*
X101202D01*
X099058Y110526D02*
Y111266D01*
X099255Y111463D01*
X099775D01*
X099549Y09967D02*
Y100566D01*
X100327Y097446D02*
Y097446D01*
X101193Y098312D02*
X111449D01*
X100327Y097446D02*
X101193Y098312D01*
X097381Y0945D02*
X100327Y097446D01*
X0941Y0945D02*
X097381D01*
X100602Y097722D02*
X101026D01*
X114066Y10093D02*
Y101572D01*
X111449Y098312D02*
X114066Y10093D01*
X104825Y1072D02*
Y108205D01*
Y099848D02*
Y1072D01*
X107591Y099602D02*
Y100586D01*
X0976Y085281D02*
X098102Y084779D01*
X097344Y105527D02*
Y106271D01*
X100208Y10847D02*
Y109776D01*
D16*
X113879Y102859D02*
X114066Y102672D01*
X112364Y102859D02*
X113879D01*
X112382Y100722D02*
Y101975D01*
D26*
Y100722D02*
D03*
X111342Y101094D02*
D03*
Y100336D02*
D03*
D27*
X097748Y099324D02*
D03*
Y102024D02*
D03*
X109244Y099295D02*
D03*
Y101995D02*
D03*
D28*
X105995Y080529D02*
D03*
X103035D02*
D03*
X102035D02*
D03*
X101035D02*
D03*
X105995Y089757D02*
D03*
X103035D02*
D03*
X102035D02*
D03*
X101035D02*
D03*
D29*
X097738Y11155D02*
D03*
Y11291D02*
D03*
D30*
X100641Y111463D02*
D03*
X099775D02*
D03*
X098211Y106271D02*
D03*
X097344D02*
D03*
X101026Y097732D02*
D03*
X101892D02*
D03*
X101941Y094306D02*
D03*
X101075D02*
D03*
X100691Y10721D02*
D03*
X101557D02*
D03*
X10072Y105359D02*
D03*
X101587D02*
D03*
X101065Y091806D02*
D03*
X101931D02*
D03*
X101075Y092515D02*
D03*
X101941D02*
D03*
X101065Y093243D02*
D03*
X101931D02*
D03*
X098211Y108048D02*
D03*
X097344D02*
D03*
X100691Y106271D02*
D03*
X101557D02*
D03*
X098919Y10719D02*
D03*
X099785D02*
D03*
Y108048D02*
D03*
X098919D02*
D03*
Y106271D02*
D03*
X099785D02*
D03*
X110691Y104966D02*
D03*
X111557D02*
D03*
X102925Y094296D02*
D03*
X103791D02*
D03*
X110642Y10407D02*
D03*
X111508D02*
D03*
X100711Y104454D02*
D03*
X101577D02*
D03*
D31*
X107592Y105458D02*
D03*
X104892D02*
D03*
D32*
X099549Y101432D02*
D03*
Y100566D02*
D03*
X107581Y100556D02*
D03*
Y101422D02*
D03*
X112364Y101993D02*
D03*
Y102859D02*
D03*
X111341Y101974D02*
D03*
Y10284D02*
D03*
D33*
X09465Y10015D02*
D03*
Y10195D02*
D03*
D34*
X099116Y112752D02*
D03*
D35*
X101163D02*
D03*
D36*
X101358Y109026D02*
D03*
Y109526D02*
D03*
Y110026D02*
D03*
Y110526D02*
D03*
X099058Y109026D02*
D03*
Y109526D02*
D03*
Y110026D02*
D03*
Y110526D02*
D03*
D37*
X100208Y109776D02*
D03*
D38*
X100907Y095448D02*
D03*
X100711D02*
D03*
X101104D02*
D03*
X101301D02*
D03*
Y096669D02*
D03*
X101104D02*
D03*
X100907D02*
D03*
X100711D02*
D03*
D39*
X099776Y10535D02*
D03*
X098949D02*
D03*
X099756Y104454D02*
D03*
X098929D02*
D03*
D40*
X116006Y104995D02*
D03*
D41*
X112364D02*
D03*
D42*
X104825Y112712D02*
D03*
Y108381D02*
D03*
D70*
X110077Y104966D02*
G03*
X1101Y104976I0J000034D01*
G01*
X112293Y104966D02*
G03*
X112364Y104995I0J000101D01*
G01*
X107592Y105458D02*
X108821D01*
X105995Y079552D02*
Y080529D01*
X105685Y079241D02*
X105995Y079552D01*
X101035Y079642D02*
X101435Y079241D01*
X097748Y102417D02*
Y103086D01*
X099126Y102417D02*
X099549Y101993D01*
Y101432D02*
Y101993D01*
X096094Y096117D02*
X096124Y096147D01*
Y102974D01*
X0966Y10345D02*
X097384D01*
X101035Y079642D02*
Y080529D01*
X107581Y101422D02*
X108153Y101995D01*
X109244D01*
X097384Y10345D02*
X097748Y103086D01*
X109864Y104966D02*
X110077D01*
X1101Y104976D02*
X11011Y104966D01*
X110691D01*
X111557D02*
X112293D01*
X101435Y079241D02*
X105685D01*
X096124Y102974D02*
X0966Y10345D01*
X097748Y102417D02*
X099126D01*
D71*
X110533Y097338D02*
X111006Y096865D01*
Y096053D02*
Y096865D01*
X110401Y095448D02*
X111006Y096053D01*
X101301Y095448D02*
X110401D01*
X101301Y096669D02*
X110031D01*
X110543Y096157D01*
X104667Y107239D02*
X104785D01*
X104825Y1072D01*
X106045Y101285D02*
X106183Y101422D01*
X107581D01*
X101557Y10721D02*
X101839D01*
X102167Y106442D02*
Y109395D01*
X102Y106275D02*
X102167Y106442D01*
X101685Y106275D02*
X102D01*
X101358Y109526D02*
X102036D01*
X102167Y109395D01*
X105957Y103401D02*
X111213D01*
X111341Y103273D01*
X096862Y091836D02*
X096872Y091846D01*
X097463D01*
X099402Y093785D01*
X102364D01*
X102472Y093893D01*
Y094306D01*
X101222Y094857D02*
X102305D01*
X102472Y094306D02*
X102915D01*
X101941D02*
X102472D01*
Y09469D01*
X102305Y094857D02*
X102472Y09469D01*
X101104Y094976D02*
X101222Y094857D01*
X101104Y094976D02*
Y095389D01*
X100415Y096678D02*
X100711D01*
X099884Y095448D02*
X100652D01*
X096439Y092003D02*
X099884Y095448D01*
X100652D02*
X100711D01*
X096237Y0925D02*
X100415Y096678D01*
X094597Y092003D02*
X096439D01*
X0951Y0925D02*
X096237D01*
X101183Y09723D02*
X104224D01*
X101104Y097151D02*
X101183Y09723D01*
X101104Y096609D02*
Y097151D01*
X104224Y09723D02*
X104313Y097141D01*
X10198Y097663D02*
X102679D01*
X103801Y094208D02*
X104293D01*
X104362Y094277D01*
X111341Y10284D02*
Y103273D01*
Y101095D02*
Y101974D01*
X110805Y100336D02*
X111342D01*
X11076Y100291D02*
X110805Y100336D01*
X100907Y097554D02*
X100927Y097574D01*
X100907Y096609D02*
Y097554D01*
X0941Y0925D02*
X094597Y092003D01*
X094628Y091019D02*
X098083D01*
X094109Y0905D02*
X094628Y091019D01*
X0941Y0905D02*
X094109D01*
X100907Y094306D02*
Y095389D01*
D72*
X110641Y08596D02*
X110907D01*
X110168Y086432D02*
X110641Y08596D01*
X102689Y086639D02*
X102896Y086432D01*
X101134Y0866D02*
X101173Y086639D01*
X102689D01*
X101134Y084779D02*
Y0866D01*
Y083125D02*
Y084779D01*
X099559Y085015D02*
X099795Y084779D01*
X099559Y085015D02*
Y086609D01*
X100898Y082889D02*
X101134Y083125D01*
X101035Y080529D02*
Y082752D01*
X100898Y082889D02*
X101035Y082752D01*
X108762Y093342D02*
X112522Y097102D01*
X102Y093342D02*
X108762D01*
X112522Y097102D02*
Y098233D01*
X113023Y098735D01*
X114066D01*
Y090861D02*
Y091827D01*
X112482Y093411D02*
X114066Y091827D01*
X110071Y093411D02*
X112482D01*
X108565Y091905D02*
X110071Y093411D01*
X101951Y091905D02*
X108565D01*
X110838Y094798D02*
X114066D01*
X108663Y092623D02*
X110838Y094798D01*
X101951Y092623D02*
X108663D01*
X099953Y08908D02*
Y089611D01*
X100098Y089757D01*
X101035D01*
X099707Y093342D02*
X101134D01*
X097865Y0915D02*
X099707Y093342D01*
X0951Y0915D02*
X097865D01*
X099687Y092623D02*
X101085D01*
X098083Y091019D02*
X099687Y092623D01*
X099458Y091905D02*
X101085D01*
X098053Y0905D02*
X099458Y091905D01*
X0951Y0905D02*
X098053D01*
X103035Y089757D02*
Y09084D01*
X102718Y091157D02*
X103035Y09084D01*
X099411Y091157D02*
X102718D01*
X102035Y089483D02*
Y089757D01*
Y087245D02*
Y087289D01*
Y087889D01*
X101192D02*
X102035D01*
X101192D02*
Y088243D01*
X102035D01*
X102877D01*
Y088598D01*
X102035D02*
X102877D01*
X101192D02*
X102035D01*
X101192D02*
Y088952D01*
X102035D01*
Y089306D01*
Y089483D01*
X103035Y082978D02*
Y085565D01*
Y082458D02*
Y082978D01*
X102575Y082458D02*
X103035D01*
X102575Y081907D02*
Y082458D01*
Y081907D02*
X103035D01*
X103495D01*
Y081355D02*
Y081907D01*
X103035Y081355D02*
X103495D01*
X103035Y080804D02*
Y081355D01*
Y080529D02*
Y080804D01*
X101902Y087111D02*
X102035Y087245D01*
X100396Y087111D02*
X101902D01*
X100343Y087058D02*
X100396Y087111D01*
X100343Y086048D02*
Y087058D01*
X098791Y086088D02*
Y090537D01*
X099411Y091157D01*
X102561Y086039D02*
X103035Y085565D01*
X101894Y086039D02*
X102561D01*
X107157Y082141D02*
Y083617D01*
X107718Y0822D02*
Y083627D01*
X102896Y086432D02*
X106878D01*
X110168D01*
D73*
X097738Y110143D02*
Y11155D01*
D74*
X113904Y10721D02*
D03*
X115904D02*
D03*
Y10921D02*
D03*
X113904D02*
D03*
Y083356D02*
D03*
X115904D02*
D03*
Y085356D02*
D03*
X113904D02*
D03*
D75*
X114904Y10821D02*
D03*
Y084356D02*
D03*
D76*
X0951Y0985D02*
D03*
D77*
Y0975D02*
D03*
Y0965D02*
D03*
Y0955D02*
D03*
X0951Y0945D02*
D03*
X0941Y0945D02*
D03*
X0951Y0935D02*
D03*
X0941D02*
D03*
X0951Y0925D02*
D03*
X0941D02*
D03*
X0951Y0915D02*
D03*
X0941D02*
D03*
X0951Y0905D02*
D03*
X0941D02*
D03*
X0951Y0895D02*
D03*
X0941D02*
D03*
Y0985D02*
D03*
Y0975D02*
D03*
Y0965D02*
D03*
Y0955D02*
D03*
D78*
X0966Y10345D02*
D03*
D79*
X0946D02*
D03*
D80*
X100208Y109776D02*
D03*
X100438Y110206D02*
D03*
X099978D02*
D03*
Y109346D02*
D03*
X100438D02*
D03*
X111997Y103273D02*
D03*
X110543Y096157D02*
D03*
X110533Y097338D02*
D03*
X097512Y085911D02*
D03*
X0976Y088519D02*
D03*
X097787Y089381D02*
D03*
X095947Y08717D02*
D03*
X095965Y088066D02*
D03*
X112797Y085202D02*
D03*
X112974Y085409D02*
D03*
X112994Y085686D02*
D03*
X112974Y08597D02*
D03*
Y086235D02*
D03*
X112781Y086462D02*
D03*
X111086Y085153D02*
D03*
X110907Y085406D02*
D03*
X110898Y085674D02*
D03*
X110907Y08596D02*
D03*
X110917Y086253D02*
D03*
X111135Y086491D02*
D03*
X112512Y107357D02*
D03*
X112266Y10719D02*
D03*
X111997Y10717D02*
D03*
X111724Y10718D02*
D03*
X111449Y10719D02*
D03*
X111232Y107397D02*
D03*
X112522Y10906D02*
D03*
X112541Y108755D02*
D03*
X112276Y109218D02*
D03*
X11199Y109222D02*
D03*
X111705D02*
D03*
X111418Y109228D02*
D03*
X111173Y109031D02*
D03*
X104667Y107239D02*
D03*
X110602Y107672D02*
D03*
X108813Y10655D02*
D03*
X108821Y105458D02*
D03*
X0976Y086747D02*
D03*
X106016Y100733D02*
D03*
X100218Y094316D02*
D03*
X097187Y096609D02*
D03*
Y096117D02*
D03*
Y095615D02*
D03*
X0966Y096609D02*
D03*
Y096117D02*
D03*
Y095615D02*
D03*
X106068Y1003D02*
D03*
X106045Y101285D02*
D03*
X103663Y100291D02*
D03*
Y100793D02*
D03*
Y101285D02*
D03*
X110061Y10407D02*
D03*
X109864Y104966D02*
D03*
X1101Y104976D02*
D03*
X101839Y10721D02*
D03*
X097187Y113512D02*
D03*
X099156D02*
D03*
X098663D02*
D03*
X098171Y113489D02*
D03*
X097679D02*
D03*
X105957Y103401D02*
D03*
X09828Y109503D02*
D03*
X103093Y103391D02*
D03*
X096862Y091836D02*
D03*
X102679Y097663D02*
D03*
X104362Y094277D02*
D03*
X104313Y097141D02*
D03*
X11076Y100291D02*
D03*
X099953Y08908D02*
D03*
X100898Y082889D02*
D03*
X101894Y086039D02*
D03*
X100343Y086048D02*
D03*
X098791Y086088D02*
D03*
X102689Y086639D02*
D03*
X101134Y0866D02*
D03*
X099559Y086609D02*
D03*
X105321Y086462D02*
D03*
X106878Y086432D02*
D03*
X107157Y083617D02*
D03*
Y082141D02*
D03*
X107718Y083627D02*
D03*
Y0822D02*
D03*
X112512Y107653D02*
D03*
X113181Y107692D02*
D03*
X112846Y107672D02*
D03*
X111274Y107681D02*
D03*
X110904D02*
D03*
X109618Y107672D02*
D03*
X109287Y107681D02*
D03*
X108917D02*
D03*
X108547D02*
D03*
X108177D02*
D03*
X107807D02*
D03*
X107437D02*
D03*
X107067D02*
D03*
X106697D02*
D03*
X103367D02*
D03*
X102997D02*
D03*
X102627D02*
D03*
X101887D02*
D03*
X101517D02*
D03*
X101147D02*
D03*
X100078Y105798D02*
D03*
Y103948D02*
D03*
Y103578D02*
D03*
Y103208D02*
D03*
X09902Y102708D02*
D03*
Y103078D02*
D03*
Y103448D02*
D03*
Y103818D02*
D03*
X100455Y1087D02*
D03*
X100823Y108739D02*
D03*
X107483D02*
D03*
X107853D02*
D03*
X108223D02*
D03*
X108593D02*
D03*
X108963D02*
D03*
X109333D02*
D03*
X109703D02*
D03*
X110073D02*
D03*
X110443D02*
D03*
X110813D02*
D03*
X111183D02*
D03*
X112846Y108735D02*
D03*
X113152D02*
D03*
X11248Y09415D02*
D03*
Y09378D02*
D03*
Y09267D02*
D03*
Y0923D02*
D03*
Y09193D02*
D03*
Y09156D02*
D03*
Y09119D02*
D03*
Y09082D02*
D03*
Y09045D02*
D03*
Y09008D02*
D03*
Y08971D02*
D03*
Y08934D02*
D03*
Y08897D02*
D03*
Y0886D02*
D03*
Y08823D02*
D03*
Y08786D02*
D03*
Y08749D02*
D03*
Y08712D02*
D03*
Y08675D02*
D03*
X112677Y084943D02*
D03*
X113042Y084884D02*
D03*
X11248Y086442D02*
D03*
X113046Y083827D02*
D03*
X112677Y083844D02*
D03*
X11232Y083944D02*
D03*
X111997Y084124D02*
D03*
X111722Y084372D02*
D03*
X111521Y084683D02*
D03*
X111399Y085032D02*
D03*
X111422Y086511D02*
D03*
Y086881D02*
D03*
Y087251D02*
D03*
Y087621D02*
D03*
Y087991D02*
D03*
Y088361D02*
D03*
Y088731D02*
D03*
Y089101D02*
D03*
Y089471D02*
D03*
Y089841D02*
D03*
Y090211D02*
D03*
Y090581D02*
D03*
Y090951D02*
D03*
Y091321D02*
D03*
Y091691D02*
D03*
Y092061D02*
D03*
Y092431D02*
D03*
Y093797D02*
D03*
Y094167D02*
D03*
D81*
X114066Y094798D02*
D03*
Y098735D02*
D03*
Y102672D02*
D03*
Y090861D02*
D03*
D82*
Y093698D02*
D03*
Y097635D02*
D03*
Y101572D02*
D03*
Y089761D02*
D03*
D83*
X095218Y080419D02*
D03*
X108998D02*
D03*
Y111915D02*
D03*
X095218D02*
D03*
D84*
X1152Y1128D02*
D03*
X1158Y1116D02*
D03*
X1152Y1104D02*
D03*
X1158Y0876D02*
D03*
X1152Y0864D02*
D03*
X1158Y0804D02*
D03*
X114Y1128D02*
D03*
X1146Y1116D02*
D03*
X114Y1104D02*
D03*
X1146Y0996D02*
D03*
X114Y096D02*
D03*
X1146Y0924D02*
D03*
X114Y0888D02*
D03*
X1146Y0876D02*
D03*
X114Y0864D02*
D03*
X1146Y0804D02*
D03*
X114Y0792D02*
D03*
X1128Y1128D02*
D03*
X1134Y1116D02*
D03*
X1128Y1104D02*
D03*
Y0888D02*
D03*
X1134Y0876D02*
D03*
X1128Y0792D02*
D03*
X1116Y1128D02*
D03*
X1122Y1116D02*
D03*
X1116Y1104D02*
D03*
X1122Y1068D02*
D03*
X1116Y084D02*
D03*
X1104Y1128D02*
D03*
X111Y1116D02*
D03*
X1104Y1104D02*
D03*
X111Y1068D02*
D03*
X1104Y1008D02*
D03*
X111Y0924D02*
D03*
X1104Y0912D02*
D03*
X111Y09D02*
D03*
X1104Y0888D02*
D03*
X111Y0876D02*
D03*
X1104Y0864D02*
D03*
Y084D02*
D03*
Y0816D02*
D03*
X111Y0804D02*
D03*
X1104Y0792D02*
D03*
X1092Y1104D02*
D03*
X1098Y1092D02*
D03*
X1092Y1056D02*
D03*
Y0912D02*
D03*
X1098Y09D02*
D03*
X1092Y0888D02*
D03*
X1098Y0876D02*
D03*
X1092Y0864D02*
D03*
X1098Y0852D02*
D03*
X1092Y084D02*
D03*
X108Y1128D02*
D03*
Y1104D02*
D03*
X1086Y1092D02*
D03*
Y1068D02*
D03*
Y0972D02*
D03*
X108Y0912D02*
D03*
X1086Y09D02*
D03*
X108Y0888D02*
D03*
X1086Y0876D02*
D03*
Y0852D02*
D03*
X108Y0792D02*
D03*
X1074Y1116D02*
D03*
Y1092D02*
D03*
Y1068D02*
D03*
X1068Y1008D02*
D03*
X1074Y0972D02*
D03*
X1068Y0912D02*
D03*
X1074Y0804D02*
D03*
X1068Y0792D02*
D03*
X1062Y1044D02*
D03*
Y0972D02*
D03*
X1056Y0912D02*
D03*
Y0792D02*
D03*
X105Y0972D02*
D03*
X1044Y0912D02*
D03*
X105Y09D02*
D03*
Y0876D02*
D03*
Y0804D02*
D03*
X1044Y0792D02*
D03*
X1038Y1044D02*
D03*
X1032Y1008D02*
D03*
X1038Y0804D02*
D03*
X1032Y0792D02*
D03*
X102Y1032D02*
D03*
Y1008D02*
D03*
Y084D02*
D03*
Y0792D02*
D03*
X1008Y1032D02*
D03*
Y1008D02*
D03*
X1014Y0828D02*
D03*
X1008Y0792D02*
D03*
X0996Y0984D02*
D03*
X1002Y0948D02*
D03*
Y0804D02*
D03*
X0996Y0792D02*
D03*
X0984Y1032D02*
D03*
X099Y102D02*
D03*
Y0972D02*
D03*
Y0804D02*
D03*
X0984Y0792D02*
D03*
X0972Y1056D02*
D03*
X0978Y0972D02*
D03*
Y09D02*
D03*
X0972Y0816D02*
D03*
X0978Y0804D02*
D03*
X0972Y0792D02*
D03*
X0966Y1116D02*
D03*
X096Y108D02*
D03*
Y1056D02*
D03*
X0966Y1044D02*
D03*
Y0972D02*
D03*
X096Y0888D02*
D03*
Y0864D02*
D03*
Y0816D02*
D03*
X0966Y0804D02*
D03*
X096Y0792D02*
D03*
X0948Y096D02*
D03*
Y084D02*
D03*
X0954Y0828D02*
D03*
X0936Y1128D02*
D03*
Y1104D02*
D03*
Y096D02*
D03*
Y0888D02*
D03*
Y0864D02*
D03*
Y084D02*
D03*
X0942Y0828D02*
D03*
X0936Y0816D02*
D03*
Y0792D02*
D03*
D85*
X0948Y096D02*
D03*
D86*
X113762Y080288D02*
D03*
X11203D02*
D03*
D87*
X097718Y110704D02*
D03*
D88*
X096685Y099385D02*
D03*
Y099641D02*
D03*
X096941Y099385D02*
D03*
Y099641D02*
D03*
X110642Y099651D02*
D03*
Y099395D02*
D03*
X110386Y099651D02*
D03*
Y099395D02*
D03*
M02*
